<svg shape-rendering="geometricPrecision" xmlns="http://www.w3.org/2000/svg"  class="qrcode" viewBox="0 0 29 29" preserveAspectRatio="xMidYMid" width="1024" height="1024">
<rect fill="#FFFFFF" width="100%" height="100%"/>
<path class="modules" fill="#6B6B6B" d="M13 2 m0 .4a.4.4 0 10.8 0 .4.4 0 10-.8 0 M14 2 m0 .4a.4.4 0 10.8 0 .4.4 0 10-.8 0 M16 2 m0 .4a.4.4 0 10.8 0 .4.4 0 10-.8 0 M18 2 m0 .4a.4.4 0 10.8 0 .4.4 0 10-.8 0 M11 3 m0 .4a.4.4 0 10.8 0 .4.4 0 10-.8 0 M16 3 m0 .4a.4.4 0 10.8 0 .4.4 0 10-.8 0 M17 3 m0 .4a.4.4 0 10.8 0 .4.4 0 10-.8 0 M18 3 m0 .4a.4.4 0 10.8 0 .4.4 0 10-.8 0 M10 4 m0 .4a.4.4 0 10.8 0 .4.4 0 10-.8 0 M13 4 m0 .4a.4.4 0 10.8 0 .4.4 0 10-.8 0 M16 4 m0 .4a.4.4 0 10.8 0 .4.4 0 10-.8 0 M18 4 m0 .4a.4.4 0 10.8 0 .4.4 0 10-.8 0 M10 5 m0 .4a.4.4 0 10.8 0 .4.4 0 10-.8 0 M12 5 m0 .4a.4.4 0 10.8 0 .4.4 0 10-.8 0 M15 5 m0 .4a.4.4 0 10.8 0 .4.4 0 10-.8 0 M16 5 m0 .4a.4.4 0 10.8 0 .4.4 0 10-.8 0 M10 6 m0 .4a.4.4 0 10.8 0 .4.4 0 10-.8 0 M12 6 m0 .4a.4.4 0 10.8 0 .4.4 0 10-.8 0 M14 6 m0 .4a.4.4 0 10.8 0 .4.4 0 10-.8 0 M16 6 m0 .4a.4.4 0 10.8 0 .4.4 0 10-.8 0 M10 7 m0 .4a.4.4 0 10.8 0 .4.4 0 10-.8 0 M12 7 m0 .4a.4.4 0 10.8 0 .4.4 0 10-.8 0 M15 7 m0 .4a.4.4 0 10.8 0 .4.4 0 10-.8 0 M16 7 m0 .4a.4.4 0 10.8 0 .4.4 0 10-.8 0 M17 7 m0 .4a.4.4 0 10.8 0 .4.4 0 10-.8 0 M18 7 m0 .4a.4.4 0 10.8 0 .4.4 0 10-.8 0 M10 8 m0 .4a.4.4 0 10.8 0 .4.4 0 10-.8 0 M12 8 m0 .4a.4.4 0 10.8 0 .4.4 0 10-.8 0 M14 8 m0 .4a.4.4 0 10.8 0 .4.4 0 10-.8 0 M16 8 m0 .4a.4.4 0 10.8 0 .4.4 0 10-.8 0 M18 8 m0 .4a.4.4 0 10.8 0 .4.4 0 10-.8 0 M10 9 m0 .4a.4.4 0 10.8 0 .4.4 0 10-.8 0 M14 9 m0 .4a.4.4 0 10.8 0 .4.4 0 10-.8 0 M18 9 m0 .4a.4.4 0 10.8 0 .4.4 0 10-.8 0 M2 10 m0 .4a.4.4 0 10.8 0 .4.4 0 10-.8 0 M4 10 m0 .4a.4.4 0 10.8 0 .4.4 0 10-.8 0 M5 10 m0 .4a.4.4 0 10.8 0 .4.4 0 10-.8 0 M6 10 m0 .4a.4.4 0 10.8 0 .4.4 0 10-.8 0 M7 10 m0 .4a.4.4 0 10.8 0 .4.4 0 10-.8 0 M8 10 m0 .4a.4.4 0 10.8 0 .4.4 0 10-.8 0 M11 10 m0 .4a.4.4 0 10.8 0 .4.4 0 10-.8 0 M12 10 m0 .4a.4.4 0 10.8 0 .4.4 0 10-.8 0 M13 10 m0 .4a.4.4 0 10.8 0 .4.4 0 10-.8 0 M16 10 m0 .4a.4.4 0 10.8 0 .4.4 0 10-.8 0 M17 10 m0 .4a.4.4 0 10.8 0 .4.4 0 10-.8 0 M20 10 m0 .4a.4.4 0 10.8 0 .4.4 0 10-.8 0 M21 10 m0 .4a.4.4 0 10.8 0 .4.4 0 10-.8 0 M22 10 m0 .4a.4.4 0 10.8 0 .4.4 0 10-.8 0 M23 10 m0 .4a.4.4 0 10.8 0 .4.4 0 10-.8 0 M24 10 m0 .4a.4.4 0 10.8 0 .4.4 0 10-.8 0 M11 11 m0 .4a.4.4 0 10.8 0 .4.4 0 10-.8 0 M12 11 m0 .4a.4.4 0 10.8 0 .4.4 0 10-.8 0 M14 11 m0 .4a.4.4 0 10.8 0 .4.4 0 10-.8 0 M16 11 m0 .4a.4.4 0 10.8 0 .4.4 0 10-.8 0 M18 11 m0 .4a.4.4 0 10.8 0 .4.4 0 10-.8 0 M19 11 m0 .4a.4.4 0 10.8 0 .4.4 0 10-.8 0 M21 11 m0 .4a.4.4 0 10.8 0 .4.4 0 10-.8 0 M25 11 m0 .4a.4.4 0 10.8 0 .4.4 0 10-.8 0 M2 12 m0 .4a.4.4 0 10.8 0 .4.4 0 10-.8 0 M3 12 m0 .4a.4.4 0 10.8 0 .4.4 0 10-.8 0 M4 12 m0 .4a.4.4 0 10.8 0 .4.4 0 10-.8 0 M5 12 m0 .4a.4.4 0 10.8 0 .4.4 0 10-.8 0 M8 12 m0 .4a.4.4 0 10.8 0 .4.4 0 10-.8 0 M15 12 m0 .4a.4.4 0 10.8 0 .4.4 0 10-.8 0 M17 12 m0 .4a.4.4 0 10.8 0 .4.4 0 10-.8 0 M20 12 m0 .4a.4.4 0 10.8 0 .4.4 0 10-.8 0 M21 12 m0 .4a.4.4 0 10.8 0 .4.4 0 10-.8 0 M23 12 m0 .4a.4.4 0 10.8 0 .4.4 0 10-.8 0 M25 12 m0 .4a.4.4 0 10.8 0 .4.4 0 10-.8 0 M26 12 m0 .4a.4.4 0 10.8 0 .4.4 0 10-.8 0 M2 13 m0 .4a.4.4 0 10.8 0 .4.4 0 10-.8 0 M3 13 m0 .4a.4.4 0 10.8 0 .4.4 0 10-.8 0 M4 13 m0 .4a.4.4 0 10.8 0 .4.4 0 10-.8 0 M5 13 m0 .4a.4.4 0 10.8 0 .4.4 0 10-.8 0 M6 13 m0 .4a.4.4 0 10.8 0 .4.4 0 10-.8 0 M9 13 m0 .4a.4.4 0 10.8 0 .4.4 0 10-.8 0 M12 13 m0 .4a.4.4 0 10.8 0 .4.4 0 10-.8 0 M16 13 m0 .4a.4.4 0 10.8 0 .4.4 0 10-.8 0 M26 13 m0 .4a.4.4 0 10.8 0 .4.4 0 10-.8 0 M4 14 m0 .4a.4.4 0 10.8 0 .4.4 0 10-.8 0 M7 14 m0 .4a.4.4 0 10.8 0 .4.4 0 10-.8 0 M8 14 m0 .4a.4.4 0 10.8 0 .4.4 0 10-.8 0 M9 14 m0 .4a.4.4 0 10.8 0 .4.4 0 10-.8 0 M10 14 m0 .4a.4.4 0 10.8 0 .4.4 0 10-.8 0 M13 14 m0 .4a.4.4 0 10.8 0 .4.4 0 10-.8 0 M14 14 m0 .4a.4.4 0 10.8 0 .4.4 0 10-.8 0 M16 14 m0 .4a.4.4 0 10.8 0 .4.4 0 10-.8 0 M17 14 m0 .4a.4.4 0 10.8 0 .4.4 0 10-.8 0 M18 14 m0 .4a.4.4 0 10.8 0 .4.4 0 10-.8 0 M19 14 m0 .4a.4.4 0 10.8 0 .4.4 0 10-.8 0 M20 14 m0 .4a.4.4 0 10.8 0 .4.4 0 10-.8 0 M21 14 m0 .4a.4.4 0 10.8 0 .4.4 0 10-.8 0 M22 14 m0 .4a.4.4 0 10.8 0 .4.4 0 10-.8 0 M24 14 m0 .4a.4.4 0 10.8 0 .4.4 0 10-.8 0 M25 14 m0 .4a.4.4 0 10.8 0 .4.4 0 10-.8 0 M26 14 m0 .4a.4.4 0 10.8 0 .4.4 0 10-.8 0 M2 15 m0 .4a.4.4 0 10.8 0 .4.4 0 10-.8 0 M4 15 m0 .4a.4.4 0 10.8 0 .4.4 0 10-.8 0 M7 15 m0 .4a.4.4 0 10.8 0 .4.4 0 10-.8 0 M9 15 m0 .4a.4.4 0 10.8 0 .4.4 0 10-.8 0
M11 15 m0 .4a.4.4 0 10.8 0 .4.4 0 10-.8 0 M12 15 m0 .4a.4.4 0 10.8 0 .4.4 0 10-.8 0 M15 15 m0 .4a.4.4 0 10.8 0 .4.4 0 10-.8 0 M18 15 m0 .4a.4.4 0 10.8 0 .4.4 0 10-.8 0 M19 15 m0 .4a.4.4 0 10.8 0 .4.4 0 10-.8 0 M21 15 m0 .4a.4.4 0 10.8 0 .4.4 0 10-.8 0 M23 15 m0 .4a.4.4 0 10.8 0 .4.4 0 10-.8 0 M25 15 m0 .4a.4.4 0 10.8 0 .4.4 0 10-.8 0 M2 16 m0 .4a.4.4 0 10.8 0 .4.4 0 10-.8 0 M4 16 m0 .4a.4.4 0 10.8 0 .4.4 0 10-.8 0 M7 16 m0 .4a.4.4 0 10.8 0 .4.4 0 10-.8 0 M8 16 m0 .4a.4.4 0 10.8 0 .4.4 0 10-.8 0 M10 16 m0 .4a.4.4 0 10.8 0 .4.4 0 10-.8 0 M11 16 m0 .4a.4.4 0 10.8 0 .4.4 0 10-.8 0 M13 16 m0 .4a.4.4 0 10.8 0 .4.4 0 10-.8 0 M14 16 m0 .4a.4.4 0 10.8 0 .4.4 0 10-.8 0 M17 16 m0 .4a.4.4 0 10.8 0 .4.4 0 10-.8 0 M18 16 m0 .4a.4.4 0 10.8 0 .4.4 0 10-.8 0 M19 16 m0 .4a.4.4 0 10.8 0 .4.4 0 10-.8 0 M20 16 m0 .4a.4.4 0 10.8 0 .4.4 0 10-.8 0 M21 16 m0 .4a.4.4 0 10.8 0 .4.4 0 10-.8 0 M22 16 m0 .4a.4.4 0 10.8 0 .4.4 0 10-.8 0 M23 16 m0 .4a.4.4 0 10.8 0 .4.4 0 10-.8 0 M25 16 m0 .4a.4.4 0 10.8 0 .4.4 0 10-.8 0 M26 16 m0 .4a.4.4 0 10.8 0 .4.4 0 10-.8 0 M2 17 m0 .4a.4.4 0 10.8 0 .4.4 0 10-.8 0 M4 17 m0 .4a.4.4 0 10.8 0 .4.4 0 10-.8 0 M6 17 m0 .4a.4.4 0 10.8 0 .4.4 0 10-.8 0 M7 17 m0 .4a.4.4 0 10.8 0 .4.4 0 10-.8 0 M9 17 m0 .4a.4.4 0 10.8 0 .4.4 0 10-.8 0 M10 17 m0 .4a.4.4 0 10.8 0 .4.4 0 10-.8 0 M11 17 m0 .4a.4.4 0 10.8 0 .4.4 0 10-.8 0 M13 17 m0 .4a.4.4 0 10.8 0 .4.4 0 10-.8 0 M16 17 m0 .4a.4.4 0 10.8 0 .4.4 0 10-.8 0 M18 17 m0 .4a.4.4 0 10.8 0 .4.4 0 10-.8 0 M20 17 m0 .4a.4.4 0 10.8 0 .4.4 0 10-.8 0 M21 17 m0 .4a.4.4 0 10.8 0 .4.4 0 10-.8 0 M22 17 m0 .4a.4.4 0 10.8 0 .4.4 0 10-.8 0 M26 17 m0 .4a.4.4 0 10.8 0 .4.4 0 10-.8 0 M2 18 m0 .4a.4.4 0 10.8 0 .4.4 0 10-.8 0 M4 18 m0 .4a.4.4 0 10.8 0 .4.4 0 10-.8 0 M5 18 m0 .4a.4.4 0 10.8 0 .4.4 0 10-.8 0 M7 18 m0 .4a.4.4 0 10.8 0 .4.4 0 10-.8 0 M8 18 m0 .4a.4.4 0 10.8 0 .4.4 0 10-.8 0 M10 18 m0 .4a.4.4 0 10.8 0 .4.4 0 10-.8 0 M11 18 m0 .4a.4.4 0 10.8 0 .4.4 0 10-.8 0 M12 18 m0 .4a.4.4 0 10.8 0 .4.4 0 10-.8 0 M13 18 m0 .4a.4.4 0 10.8 0 .4.4 0 10-.8 0 M16 18 m0 .4a.4.4 0 10.8 0 .4.4 0 10-.8 0 M18 18 m0 .4a.4.4 0 10.8 0 .4.4 0 10-.8 0 M19 18 m0 .4a.4.4 0 10.8 0 .4.4 0 10-.8 0 M20 18 m0 .4a.4.4 0 10.8 0 .4.4 0 10-.8 0 M21 18 m0 .4a.4.4 0 10.8 0 .4.4 0 10-.8 0 M22 18 m0 .4a.4.4 0 10.8 0 .4.4 0 10-.8 0 M24 18 m0 .4a.4.4 0 10.8 0 .4.4 0 10-.8 0 M10 19 m0 .4a.4.4 0 10.8 0 .4.4 0 10-.8 0 M14 19 m0 .4a.4.4 0 10.8 0 .4.4 0 10-.8 0 M16 19 m0 .4a.4.4 0 10.8 0 .4.4 0 10-.8 0 M17 19 m0 .4a.4.4 0 10.8 0 .4.4 0 10-.8 0 M18 19 m0 .4a.4.4 0 10.8 0 .4.4 0 10-.8 0 M22 19 m0 .4a.4.4 0 10.8 0 .4.4 0 10-.8 0 M23 19 m0 .4a.4.4 0 10.8 0 .4.4 0 10-.8 0 M12 20 m0 .4a.4.4 0 10.8 0 .4.4 0 10-.8 0 M16 20 m0 .4a.4.4 0 10.8 0 .4.4 0 10-.8 0 M18 20 m0 .4a.4.4 0 10.8 0 .4.4 0 10-.8 0 M20 20 m0 .4a.4.4 0 10.8 0 .4.4 0 10-.8 0 M22 20 m0 .4a.4.4 0 10.8 0 .4.4 0 10-.8 0 M24 20 m0 .4a.4.4 0 10.8 0 .4.4 0 10-.8 0 M25 20 m0 .4a.4.4 0 10.8 0 .4.4 0 10-.8 0 M26 20 m0 .4a.4.4 0 10.8 0 .4.4 0 10-.8 0 M10 21 m0 .4a.4.4 0 10.8 0 .4.4 0 10-.8 0 M14 21 m0 .4a.4.4 0 10.8 0 .4.4 0 10-.8 0 M18 21 m0 .4a.4.4 0 10.8 0 .4.4 0 10-.8 0 M22 21 m0 .4a.4.4 0 10.8 0 .4.4 0 10-.8 0 M23 21 m0 .4a.4.4 0 10.8 0 .4.4 0 10-.8 0 M25 21 m0 .4a.4.4 0 10.8 0 .4.4 0 10-.8 0 M10 22 m0 .4a.4.4 0 10.8 0 .4.4 0 10-.8 0 M11 22 m0 .4a.4.4 0 10.8 0 .4.4 0 10-.8 0 M12 22 m0 .4a.4.4 0 10.8 0 .4.4 0 10-.8 0 M14 22 m0 .4a.4.4 0 10.8 0 .4.4 0 10-.8 0 M16 22 m0 .4a.4.4 0 10.8 0 .4.4 0 10-.8 0 M17 22 m0 .4a.4.4 0 10.8 0 .4.4 0 10-.8 0 M18 22 m0 .4a.4.4 0 10.8 0 .4.4 0 10-.8 0 M19 22 m0 .4a.4.4 0 10.8 0 .4.4 0 10-.8 0 M20 22 m0 .4a.4.4 0 10.8 0 .4.4 0 10-.8 0 M21 22 m0 .4a.4.4 0 10.8 0 .4.4 0 10-.8 0 M22 22 m0 .4a.4.4 0 10.8 0 .4.4 0 10-.8 0 M24 22 m0 .4a.4.4 0 10.8 0 .4.4 0 10-.8 0 M25 22 m0 .4a.4.4 0 10.8 0 .4.4 0 10-.8 0 M26 22 m0 .4a.4.4 0 10.8 0 .4.4 0 10-.8 0 M10 23 m0 .4a.4.4 0 10.8 0 .4.4 0 10-.8 0 M15 23 m0 .4a.4.4 0 10.8 0 .4.4 0 10-.8 0 M17 23 m0 .4a.4.4 0 10.8 0 .4.4 0 10-.8 0 M18 23 m0 .4a.4.4 0 10.8 0 .4.4 0 10-.8 0 M19 23 m0 .4a.4.4 0 10.8 0 .4.4 0 10-.8 0 M20 23 m0 .4a.4.4 0 10.8 0 .4.4 0 10-.8 0 M22 23 m0 .4a.4.4 0 10.8 0 .4.4 0 10-.8 0 M23 23 m0 .4a.4.4 0 10.8 0 .4.4 0 10-.8 0 M24 23 m0 .4a.4.4 0 10.8 0 .4.4 0 10-.8 0 M25 23 m0 .4a.4.4 0 10.8 0 .4.4 0 10-.8 0
M26 23 m0 .4a.4.4 0 10.8 0 .4.4 0 10-.8 0 M10 24 m0 .4a.4.4 0 10.8 0 .4.4 0 10-.8 0 M11 24 m0 .4a.4.4 0 10.8 0 .4.4 0 10-.8 0 M12 24 m0 .4a.4.4 0 10.8 0 .4.4 0 10-.8 0 M13 24 m0 .4a.4.4 0 10.8 0 .4.4 0 10-.8 0 M14 24 m0 .4a.4.4 0 10.8 0 .4.4 0 10-.8 0 M18 24 m0 .4a.4.4 0 10.8 0 .4.4 0 10-.8 0 M23 24 m0 .4a.4.4 0 10.8 0 .4.4 0 10-.8 0 M24 24 m0 .4a.4.4 0 10.8 0 .4.4 0 10-.8 0 M26 24 m0 .4a.4.4 0 10.8 0 .4.4 0 10-.8 0 M11 25 m0 .4a.4.4 0 10.8 0 .4.4 0 10-.8 0 M12 25 m0 .4a.4.4 0 10.8 0 .4.4 0 10-.8 0 M13 25 m0 .4a.4.4 0 10.8 0 .4.4 0 10-.8 0 M17 25 m0 .4a.4.4 0 10.8 0 .4.4 0 10-.8 0 M18 25 m0 .4a.4.4 0 10.8 0 .4.4 0 10-.8 0 M19 25 m0 .4a.4.4 0 10.8 0 .4.4 0 10-.8 0 M21 25 m0 .4a.4.4 0 10.8 0 .4.4 0 10-.8 0 M22 25 m0 .4a.4.4 0 10.8 0 .4.4 0 10-.8 0 M23 25 m0 .4a.4.4 0 10.8 0 .4.4 0 10-.8 0 M26 25 m0 .4a.4.4 0 10.8 0 .4.4 0 10-.8 0 M10 26 m0 .4a.4.4 0 10.8 0 .4.4 0 10-.8 0 M13 26 m0 .4a.4.4 0 10.8 0 .4.4 0 10-.8 0 M14 26 m0 .4a.4.4 0 10.8 0 .4.4 0 10-.8 0 M17 26 m0 .4a.4.4 0 10.8 0 .4.4 0 10-.8 0 M19 26 m0 .4a.4.4 0 10.8 0 .4.4 0 10-.8 0 M21 26 m0 .4a.4.4 0 10.8 0 .4.4 0 10-.8 0 M22 26 m0 .4a.4.4 0 10.8 0 .4.4 0 10-.8 0 M23 26 m0 .4a.4.4 0 10.8 0 .4.4 0 10-.8 0 M24 26 m0 .4a.4.4 0 10.8 0 .4.4 0 10-.8 0 M25 26 m0 .4a.4.4 0 10.8 0 .4.4 0 10-.8 0 M26 26 m0 .4a.4.4 0 10.8 0 .4.4 0 10-.8 0"/>
<path class="outer" fill="#6B6B6B" d="M2 2 m0 0h4.8c1.2 0 2.2 1 2.2 2.2v4.8h-4.8c-1.2 0-2.2-1-2.2-2.2v-4.8zm6 6v-3.6c0-.75-.65-1.4-1.4-1.4h-3.6v3.6c0 .75.65 1.4 1.4 1.4h3.6z"/>
<path class="inner" fill="#6B6B6B" d="M2 2 m5.062 5.063v-1.533c0-.867-.663-1.53-1.531-1.53h-1.531v1.532c0 .867.663 1.53 1.531 1.53h1.531z"/>
<path class="outer" fill="#6B6B6B" d="M2 20 m7 0h-4.8c-1.2 0-2.2 1-2.2 2.2v4.8h4.8c1.2 0 2.2-1 2.2-2.2v-4.8zm-6 6v-3.6c0-.75.65-1.4 1.4-1.4h3.6v3.6c0 .75-.65 1.4-1.4 1.4h-3.6z"/>
<path class="inner" fill="#6B6B6B" d="M2 20 m2 5.063v-1.533c0-.867.663-1.53 1.531-1.53h1.531v1.532c0 .867-.663 1.53-1.531 1.53h-1.531z"/>
<path class="outer" fill="#6B6B6B" d="M20 2 m7 0h-4.8c-1.2 0-2.2 1-2.2 2.2v4.8h4.8c1.2 0 2.2-1 2.2-2.2v-4.8zm-6 6v-3.6c0-.75.65-1.4 1.4-1.4h3.6v3.6c0 .75-.65 1.4-1.4 1.4h-3.6z"/>
<path class="inner" fill="#6B6B6B" d="M20 2 m2 5.063v-1.533c0-.867.663-1.53 1.531-1.53h1.531v1.532c0 .867-.663 1.53-1.531 1.53h-1.531z"/>
</svg>
