<svg width="151" height="56" viewBox="0 0 151 56" fill="none" xmlns="http://www.w3.org/2000/svg">
<rect x="1.29541" y="54.6567" width="53" height="148" rx="19" transform="rotate(-90.1818 1.29541 54.6567)" fill="#4C3A51" stroke="#373737" stroke-width="2"/>
<path d="M36.0917 26.6737L32.4643 32.6675L36.6982 32.6026L36.0917 26.6737ZM28.6543 38.9766L26.7492 42.1311L20.5 42.2268L33.8352 20.145L41.6468 20.0254L43.9347 41.8679L37.6854 41.9636L37.3564 38.8433L28.6543 38.9766ZM55.9502 26.057L55.1544 29.1946L59.8414 29.1228C60.8829 29.1068 61.5363 28.5759 61.8016 27.5301C62.0669 26.4842 61.6787 25.9693 60.6372 25.9852L55.9502 26.057ZM53.9764 33.9006L53.1806 37.0382L57.8675 36.9664C58.9091 36.9505 59.5625 36.4196 59.8277 35.3737C60.093 34.3279 59.7049 33.8129 58.6633 33.8289L53.9764 33.9006ZM45.7532 41.84L51.2769 19.8778L62.2131 19.7103C67.4208 19.6306 69.3668 22.2052 68.0509 27.4343C67.6186 29.1391 66.6386 30.4563 65.111 31.3861C66.1873 32.2759 66.5093 33.5732 66.077 35.278C65.0264 39.4612 61.8972 41.5927 56.6895 41.6725L45.7532 41.84ZM77.8807 41.3479C74.8602 41.3942 72.5525 40.3617 70.9575 38.2505C69.3625 36.1392 68.948 33.5671 69.7142 30.5342C70.4699 27.5015 72.1854 24.8968 74.8607 22.7201C77.536 20.5435 80.3839 19.432 83.4044 19.3857C86.4249 19.3395 88.7326 20.372 90.3276 22.4832C91.9227 24.5944 92.3423 27.1664 91.5866 30.1992C90.8204 33.2321 89.0997 35.8369 86.4244 38.0135C83.7491 40.1902 80.9012 41.3016 77.8807 41.3479ZM79.4567 35.073C80.7482 35.0533 81.965 34.5762 83.1071 33.642C84.2596 32.7075 85.003 31.5919 85.3373 30.2949C85.6612 28.9981 85.4777 27.8966 84.7866 26.9905C84.106 26.0841 83.1199 25.6408 81.8284 25.6606C80.5369 25.6804 79.3149 26.1575 78.1624 27.0919C77.0203 28.0262 76.2873 29.1417 75.9634 30.4385C75.6291 31.7354 75.8022 32.8371 76.4828 33.7434C77.1739 34.6496 78.1652 35.0928 79.4567 35.073ZM94.28 30.1579L97.034 19.177L103.283 19.0812L100.529 30.0622C99.7335 33.1998 100.377 34.7526 102.46 34.7207C104.543 34.6888 105.983 33.104 106.779 29.9665L109.533 18.9855L115.782 18.8898L113.028 29.8708C111.181 37.1916 107.134 40.8998 100.884 40.9956C94.635 41.0913 92.4336 37.4787 94.28 30.1579ZM125.106 40.6245L118.857 40.7203L122.805 25.033L117.337 25.1167L118.913 18.8418L136.098 18.5786L134.522 24.8535L129.054 24.9372L125.106 40.6245Z" fill="#F6E9FA"/>
</svg>
