<svg width="199" height="51" viewBox="0 0 199 51" fill="none" xmlns="http://www.w3.org/2000/svg">
<path d="M198.579 43.136L196.231 50.688C181.386 50.688 176.102 48.384 176.102 39.936V21.504H169.476V14.4H176.605V3.26401H188.011V14.4H195.979V21.504H188.011V38.016C188.011 42.88 189.102 43.136 198.579 43.136Z" fill="white"/>
<path d="M171.964 49.92H161.061V45.44C158.712 48.96 152.925 50.688 146.216 50.688C136.152 50.688 129.107 45.696 129.107 38.528V14.4H141.016V36.416C141.016 40.64 144.539 43.008 149.403 43.008C154.184 43.008 158.545 41.024 160.054 37.248V14.4H171.964V49.92Z" fill="white"/>
<path d="M130.666 32.192C130.666 43.392 121.692 50.688 106.931 50.688C92.3375 50.688 83.1119 43.392 83.1119 32.192C83.1119 20.928 92.3375 13.632 106.931 13.632C121.692 13.632 130.666 20.928 130.666 32.192ZM118.588 32.192C118.588 25.152 113.976 20.928 106.931 20.928C100.137 20.928 95.189 25.152 95.189 32.192C95.189 39.104 100.137 43.456 106.931 43.456C113.976 43.456 118.588 39.232 118.588 32.192Z" fill="white"/>
<path d="M87.1029 32.128C87.1029 44.352 78.8838 50.688 66.8905 50.688C60.7681 50.688 55.065 48.704 52.8006 45.824L50.7039 49.92H42.0654V0H53.9747V17.856C55.9876 15.232 61.1036 13.632 66.8067 13.632C79.1354 13.632 87.1029 20.032 87.1029 32.128ZM75.0258 32.128C75.0258 24.576 70.6646 20.928 63.8712 20.928C58.252 20.928 53.7231 24.384 53.7231 28.928V38.72C55.8198 41.344 59.0069 43.584 63.9551 43.584C70.3291 43.584 75.0258 39.808 75.0258 32.128Z" fill="white"/>
<path d="M46.7149 42.944L44.3666 50.368C43.1085 50.624 41.8505 50.688 40.5925 50.688C35.8958 50.688 31.7863 49.152 31.0314 46.144C28.1799 49.28 21.4704 50.688 14.5093 50.688C5.03212 50.688 0.167738 47.104 0 41.152C0 41.024 0 40.96 0 40.832C0 34.048 5.53534 30.464 16.1867 28.608C22.4768 27.584 27.6767 26.24 27.6767 24.256C27.6767 21.504 25.2445 20.672 19.7092 20.672C15.4318 20.672 8.55461 22.976 5.78694 26.112L0.922556 19.584C5.11599 15.808 11.9094 13.632 20.6317 13.632C33.5475 13.632 40.1731 17.152 40.1731 24.896V40.064C40.1731 42.24 41.7666 43.136 44.2827 43.136C45.0375 43.136 45.8762 43.072 46.7149 42.944ZM28.096 38.784V31.488C26.5025 32.704 23.2316 33.6 19.1221 34.432C14.5093 35.328 11.5739 36.608 11.5739 39.872C11.5739 40 11.5739 40.128 11.5739 40.256C11.6578 42.56 13.6706 43.776 17.5286 43.776C21.5543 43.776 27.0057 41.984 28.096 38.784Z" fill="white"/>
</svg>
