<svg width="301" height="152" viewBox="0 0 301 152" fill="none" xmlns="http://www.w3.org/2000/svg">
<path d="M190 43H301V152H190V43Z" fill="#6F5577"/>
<mask id="mask0_70_2375" style="mask-type:alpha" maskUnits="userSpaceOnUse" x="0" y="0" width="301" height="110">
<path d="M0 0H300.929V109.01H0V0Z" fill="#D3A7E0"/>
</mask>
<g mask="url(#mask0_70_2375)">
<path d="M0 0H300.929V109.01H0V0Z" fill="#D3A7E0"/>
<path d="M190.979 88.7686L201.264 6.14143L215.182 8.50706L226.866 36.3148L237.391 63.4405L237.609 63.3564L243.83 13.3765L259.475 16.0356L249.191 98.6627L235.273 96.2971L221.074 62.8492L213.063 41.3636L212.845 41.4478L206.624 91.4277L190.979 88.7686Z" fill="white"/>
<path d="M142.305 68.1508L141.283 48.5126C140.386 31.2693 148.612 15.4208 167.159 14.1026C180.685 13.1413 190.657 20.966 194.801 33.4113L180.165 40.7013C178.738 35.0337 174.409 30.8944 167.954 31.3532C160.063 31.914 156.723 38.8819 157.079 45.7073L158.256 68.3392C158.63 75.5239 162.681 82.2069 170.673 81.6389C177.436 81.1582 182.633 74.2987 182.241 66.7548L182.209 66.1561L167.659 67.1902L166.861 51.8628L196.987 49.7217L197.853 66.3663C198.763 83.8491 186.935 97.67 171.565 98.7624C153.018 100.081 143.296 87.1902 142.305 68.1508Z" fill="white"/>
<path d="M129.623 101.022L126.911 48.914L142.691 47.7924L145.403 99.9007L129.623 101.022Z" fill="white"/>
<path d="M79.0947 92.5642L87.4791 77.7861C94.5011 84.258 101.46 85.5662 108.735 85.0491C115.601 84.5612 119.295 80.4526 119.065 76.0221C118.853 71.9507 117.514 67.9595 108.856 67.6133C95.2495 67.0179 82.1977 63.2581 81.2255 44.5779C80.3032 26.8556 92.9055 18.0276 104.587 17.1974C113.297 16.5784 122.312 17.8607 130.2 23.1893L123.691 38.435C116.666 33.8863 109.667 33.7828 105.876 34.0523C98.088 34.6058 96.679 39.1529 96.8535 42.5057C97.1277 47.7745 100.379 48.9857 112.275 50.3036C124.171 51.6215 134.724 56.7608 135.602 73.6448C136.506 91.0079 122.73 101.001 108.794 101.991C99.1622 102.676 89.0267 101.594 79.0947 92.5642Z" fill="white"/>
<path d="M55.2864 97.3705L43.8286 25.4636L85.1815 16.4653L87.4533 30.7227L59.0442 36.9045L61.3654 51.4718L85.572 46.2045L87.7615 59.9453L63.5549 65.2126L65.9584 80.2965L94.3675 74.1147L96.6393 88.3721L55.2864 97.3705Z" fill="white"/>
<path d="M-13.8182 90.6614L0.399902 -7.67676L31.4648 -3.78486C43.1281 -2.32363 52.333 4.29587 55.4085 17.7715C57.1704 25.3286 55.9647 35.247 54.2079 47.398C52.2263 61.1032 50.5516 71.1067 46.8691 78.4132C39.5653 92.6024 27.9007 95.8881 15.3402 94.3145L-13.8182 90.6614ZM6.27164 73.327L17.5986 74.7461C29.1498 76.1933 33.7195 68.2787 35.558 55.5625L38.1524 37.6186C40.1135 24.0547 36.6999 16.8661 25.8216 15.5033L14.8311 14.1263L6.27164 73.327Z" fill="white"/>
<path d="M311.959 51.6958L300.373 34.774L265.616 85.5393L300.373 136.305L335.13 85.5393L311.959 51.6958ZM300.54 102.217L288.954 85.2953L300.206 68.8615L311.792 85.7832L300.54 102.217Z" fill="white"/>
</g>
</svg>
