<svg width="451" height="110" viewBox="0 0 451 110" fill="none" xmlns="http://www.w3.org/2000/svg">
<mask id="mask0_382_457" style="mask-type:alpha" maskUnits="userSpaceOnUse" x="0" y="0" width="451" height="110">
<path d="M0 0H451V110H0V0Z" fill="#D9D9D9"/>
</mask>
<g mask="url(#mask0_382_457)">
<path d="M328.401 50.9717L404.282 -19.1124L534.917 31.7521L459.036 101.836L328.401 50.9717Z" fill="#EED8F3"/>
<path d="M170.624 -15H511.173L469.992 68H129.443L170.624 -15Z" fill="#D3A7DD"/>
<path d="M372.949 65.3534L382.961 8.298L443.997 8.25423L442.012 19.5669L400.081 19.597L398.052 31.1557L433.781 31.13L431.867 42.0329L396.139 42.0585L394.039 54.027L435.97 53.997L433.985 65.3097L372.949 65.3534Z" fill="#A585AE"/>
<path d="M293.277 65.4106L303.289 8.35513L320.533 8.34276L329.288 24.8936L337.447 42.0186L337.943 42.0183L351.742 24.8775L366.061 8.31011L384.049 8.29722L374.037 65.3527L355.057 65.3663L359.818 38.2321L359.46 38.1504L349.616 49.7147L342.376 57.7525L327.737 57.763L323.14 49.3238L317.529 38.1805L317.114 38.4267L312.381 65.3969L293.277 65.4106Z" fill="#A585AE"/>
<path d="M233.46 43.6505L235.819 30.2064C237.89 18.4019 250.634 7.98305 273.088 7.96695C293.93 7.95201 305.301 17.3699 303.057 30.1582L300.698 43.6023C298.31 57.2104 283.387 65.9095 262.918 65.9241C240.464 65.9402 231.374 55.5371 233.46 43.6505ZM281.063 44.518L283.782 29.0245C284.659 24.024 280.073 19.765 270.893 19.7716C261.34 19.7785 256.069 24.3723 255.249 29.045L252.53 44.5385C251.667 49.4571 255.313 54.1265 264.865 54.1196C274.045 54.1131 280.113 49.9285 281.063 44.518Z" fill="#A585AE"/>
<path d="M167.006 65.5011L177.018 8.44567L196.123 8.43197L192.11 31.3033L220.394 31.2831L224.408 8.41169L243.264 8.39817L233.252 65.4536L214.396 65.4671L218.481 42.1859L190.196 42.2062L186.111 65.4874L167.006 65.5011Z" fill="#A585AE"/>
<path d="M353.751 57.4586L362.326 16.2008L405.819 17.7422L404.119 25.9226L374.24 24.8637L372.502 33.222L397.962 34.1242L396.323 42.0083L370.864 41.106L369.065 49.7607L398.945 50.8196L397.244 59L353.751 57.4586Z" fill="white"/>
<path d="M296.978 55.4466L305.553 14.1888L317.841 14.6243L323.662 26.893L329.043 39.5642L329.396 39.5767L339.662 27.4601L350.284 15.774L363.102 16.2283L354.527 57.4861L341.002 57.0068L345.08 37.3856L344.827 37.3169L337.52 45.4778L332.158 51.1399L321.727 50.7702L318.664 44.511L314.947 36.258L314.645 36.4265L310.592 55.9291L296.978 55.4466Z" fill="white"/>
<path d="M254.904 38.0713L256.925 28.3496C258.699 19.8135 268.042 12.5609 284.043 13.1279C298.894 13.6542 306.759 20.8002 304.837 30.0477L302.817 39.7693C300.772 49.6095 289.919 55.5547 275.333 55.0378C259.332 54.4707 253.118 46.6667 254.904 38.0713ZM288.803 39.9295L291.131 28.7259C291.883 25.1099 288.722 21.8927 282.18 21.6609C275.374 21.4196 271.501 24.6265 270.799 28.0053L268.471 39.209C267.731 42.7657 270.212 46.2573 277.018 46.4986C283.56 46.7304 287.99 43.8419 288.803 39.9295Z" fill="white"/>
<path d="M207 52.2578L215.575 11L229.188 11.4825L225.751 28.0212L245.906 28.7354L249.344 12.1968L262.78 12.673L254.206 53.9308L240.769 53.4546L244.268 36.6195L224.112 35.9052L220.614 52.7403L207 52.2578Z" fill="white"/>
</g>
</svg>
