<svg width="298" height="213" viewBox="0 0 298 213" fill="none" xmlns="http://www.w3.org/2000/svg">
<path d="M-44.5 105.5L198.563 51.1791L216.924 132.785L-26.5001 185.5L-44.5 105.5Z" fill="#6F5577"/>
<path d="M-132 136.114L85.801 15.311L126.477 88.4011L-92.1237 207.765L-132 136.114Z" fill="#6F5577"/>
<mask id="mask0_70_1761" style="mask-type:alpha" maskUnits="userSpaceOnUse" x="-17" y="30" width="311" height="107">
<path d="M-16.5 63.0001L287.179 30.0001L293.072 113.439L-16.5 137L-16.5 63.0001Z" fill="#D3A7E0"/>
</mask>
<g mask="url(#mask0_70_1761)">
<path d="M-280.704 70.1042L287.179 30L297.087 170.299L-270.796 210.403L-280.704 70.1042Z" fill="#D3A7E0"/>
<path d="M188.563 122L182.421 35.0359L224.728 32.0482L225.946 49.2911L196.881 51.3436L198.126 68.9614L222.891 67.2124L224.064 83.8306L199.299 85.5795L200.588 103.822L229.652 101.769L230.87 119.012L188.563 122Z" fill="white"/>
<path d="M135.679 125.735L129.538 38.7707L141.833 37.9024L151.93 62.5548L161.735 88.1068L162.089 88.0818L167.941 61.4241L174.296 35.6098L187.122 34.7041L193.263 121.668L179.73 122.624L176.809 81.2659L176.535 81.1597L172.206 99.171L168.914 111.71L158.476 112.447L153.233 99.8831L146.637 83.2711L146.398 83.6647L149.301 124.773L135.679 125.735Z" fill="white"/>
<path d="M91.1174 105.289L88.7794 89.3831C86.7266 75.4167 92.6023 61.3984 108.412 57.9001C123.085 54.6531 133.896 63.7774 136.12 78.9077L138.458 94.8138C140.824 110.914 132.902 123.282 118.491 126.471C102.681 129.969 93.1845 119.353 91.1174 105.289ZM124.902 98.9151L122.207 80.5842C121.338 74.6679 116.841 70.4556 110.377 71.8858C103.652 73.374 101.306 79.5012 102.118 85.0295L104.813 103.36C105.668 109.18 109.625 114.012 116.35 112.524C122.814 111.094 125.843 105.316 124.902 98.9151Z" fill="white"/>
<path d="M48.7153 131.876L42.6568 46.0872L56.2133 45.1298L58.6419 79.5193L78.7126 78.1019L76.284 43.7124L89.6644 42.7675L95.7229 128.556L82.3424 129.501L79.8703 94.4955L59.7997 95.9129L62.2718 130.919L48.7153 131.876Z" fill="white"/>
<path d="M263.093 55.322L253.599 47.0804L228.874 75.5629L257.356 100.288L282.081 71.8053L263.093 55.322ZM256.223 82.4151L246.728 74.1735L254.732 64.9531L264.227 73.1947L256.223 82.4151Z" fill="white"/>
</g>
</svg>
