<svg width="265" height="51" viewBox="0 0 265 51" fill="none" xmlns="http://www.w3.org/2000/svg">
<path d="M264.35 49.92H251.673V27.52C251.673 23.296 247.95 20.928 242.897 20.928C237.756 20.928 233.146 22.976 231.55 26.688V49.92H218.962V14.4H230.486V18.944C232.791 15.68 238.287 13.632 246.443 13.632C257.17 13.632 264.35 19.072 264.35 26.24V49.92Z" fill="white"/>
<path d="M220.521 32.192C220.521 43.392 211.036 50.688 195.433 50.688C180.009 50.688 170.257 43.392 170.257 32.192C170.257 20.928 180.009 13.632 195.433 13.632C211.036 13.632 220.521 20.928 220.521 32.192ZM207.756 32.192C207.756 25.152 202.88 20.928 195.433 20.928C188.253 20.928 183.023 25.152 183.023 32.192C183.023 39.104 188.253 43.456 195.433 43.456C202.88 43.456 207.756 39.232 207.756 32.192Z" fill="white"/>
<path d="M171.849 9.216H158.729V0H171.849V9.216ZM171.672 49.92H158.995V14.4H171.672V49.92Z" fill="white"/>
<path d="M160.625 40C160.625 46.848 153.356 50.688 139.438 50.688C130.485 50.688 122.152 48.192 117.63 43.84L123.038 37.44C126.939 41.152 134.208 43.712 139.793 43.712C145.2 43.712 147.682 42.304 147.682 40.064C147.682 37.376 144.757 36.032 136.335 34.752C124.19 32.96 119.226 29.12 119.226 23.872C119.226 17.984 126.407 13.632 139.349 13.632C148.303 13.632 155.838 15.808 159.384 19.2L154.331 25.344C150.785 22.144 145.2 20.224 139.172 20.224C134.208 20.224 131.814 21.632 131.814 23.616C131.814 25.536 133.499 26.624 141.3 27.776C154.597 29.76 160.625 33.536 160.625 40Z" fill="white"/>
<path d="M122.717 40C122.717 46.848 115.448 50.688 101.53 50.688C92.5768 50.688 84.2439 48.192 79.7228 43.84L85.1303 37.44C89.0309 41.152 96.3001 43.712 101.885 43.712C107.293 43.712 109.775 42.304 109.775 40.064C109.775 37.376 106.849 36.032 98.4276 34.752C86.2828 32.96 81.3184 29.12 81.3184 23.872C81.3184 17.984 88.499 13.632 101.442 13.632C110.395 13.632 117.93 15.808 121.476 19.2L116.423 25.344C112.877 22.144 107.292 20.224 101.264 20.224C96.3001 20.224 93.9066 21.632 93.9066 23.616C93.9066 25.536 95.5909 26.624 103.392 27.776C116.689 29.76 122.717 33.536 122.717 40Z" fill="white"/>
<path d="M81.8469 9.216H68.7269V0H81.8469V9.216ZM81.6696 49.92H68.9929V14.4H81.6696V49.92Z" fill="white"/>
<path d="M67.7275 49.92H55.1394V27.52C55.1394 23.168 52.8346 21.056 47.9589 21.056C43.2605 21.056 40.1578 23.744 39.9805 27.136V49.92H27.4811V27.52C27.4811 23.232 25.2649 21.056 20.4778 21.056C16.4886 21.056 13.9178 23.168 12.5881 26.112V49.92H0V14.4H11.5243V18.496C13.6519 15.68 17.9957 13.632 25.0876 13.632C31.3816 13.632 36.08 15.808 38.0303 19.2C40.0692 15.808 45.7427 13.632 52.7459 13.632C61.6994 13.632 67.7275 18.304 67.7275 25.344V49.92Z" fill="white"/>
</svg>
