<svg width="251" height="51" viewBox="0 0 251 51" fill="none" xmlns="http://www.w3.org/2000/svg">
<path d="M250.097 49.92H238.103V27.52C238.103 23.296 234.581 20.928 229.8 20.928C224.936 20.928 220.575 22.976 219.065 26.688V49.92H207.156V14.4H218.059V18.944C220.239 15.68 225.439 13.632 233.155 13.632C243.303 13.632 250.097 19.072 250.097 26.24V49.92Z" fill="white"/>
<path d="M208.631 32.192C208.631 43.392 199.657 50.688 184.896 50.688C170.303 50.688 161.077 43.392 161.077 32.192C161.077 20.928 170.303 13.632 184.896 13.632C199.657 13.632 208.631 20.928 208.631 32.192ZM196.554 32.192C196.554 25.152 191.941 20.928 184.896 20.928C178.102 20.928 173.154 25.152 173.154 32.192C173.154 39.104 178.102 43.456 184.896 43.456C191.941 43.456 196.554 39.232 196.554 32.192Z" fill="white"/>
<path d="M162.584 9.216H150.171V0H162.584V9.216ZM162.416 49.92H150.423V14.4H162.416V49.92Z" fill="white"/>
<path d="M151.964 40C151.964 46.848 145.087 50.688 131.92 50.688C123.449 50.688 115.565 48.192 111.288 43.84L116.404 37.44C120.094 41.152 126.971 43.712 132.255 43.712C137.371 43.712 139.72 42.304 139.72 40.064C139.72 37.376 136.952 36.032 128.984 34.752C117.494 32.96 112.798 29.12 112.798 23.872C112.798 17.984 119.591 13.632 131.836 13.632C140.307 13.632 147.435 15.808 150.79 19.2L146.01 25.344C142.655 22.144 137.371 20.224 131.668 20.224C126.971 20.224 124.707 21.632 124.707 23.616C124.707 25.536 126.301 26.624 133.681 27.776C146.261 29.76 151.964 33.536 151.964 40Z" fill="white"/>
<path d="M116.101 40C116.101 46.848 109.223 50.688 96.056 50.688C87.5852 50.688 79.7016 48.192 75.4243 43.84L80.5402 37.44C84.2305 41.152 91.1077 43.712 96.3914 43.712C101.507 43.712 103.856 42.304 103.856 40.064C103.856 37.376 101.088 36.032 93.1206 34.752C81.6305 32.96 76.9339 29.12 76.9339 23.872C76.9339 17.984 83.7273 13.632 95.9721 13.632C104.443 13.632 111.572 15.808 114.926 19.2L110.146 25.344C106.791 22.144 101.507 20.224 95.8044 20.224C91.1077 20.224 88.8433 21.632 88.8433 23.616C88.8433 25.536 90.4368 26.624 97.8172 27.776C110.398 29.76 116.101 33.536 116.101 40Z" fill="white"/>
<path d="M77.4339 9.216H65.0213V0H77.4339V9.216ZM77.2661 49.92H65.2729V14.4H77.2661V49.92Z" fill="white"/>
<path d="M64.0757 49.92H52.1664V27.52C52.1664 23.168 49.9858 21.056 45.373 21.056C40.9279 21.056 37.9925 23.744 37.8248 27.136V49.92H25.9993V27.52C25.9993 23.232 23.9026 21.056 19.3737 21.056C15.5996 21.056 13.1674 23.168 11.9094 26.112V49.92H0V14.4H10.9029V18.496C12.9158 15.68 17.0254 13.632 23.7349 13.632C29.6895 13.632 34.1346 15.808 35.9797 19.2C37.9087 15.808 43.2763 13.632 49.9019 13.632C58.3726 13.632 64.0757 18.304 64.0757 25.344V49.92Z" fill="white"/>
</svg>
