<svg width="298" height="324" viewBox="0 0 298 324" fill="none" xmlns="http://www.w3.org/2000/svg">
<rect width="273.107" height="390.246" transform="matrix(0.98913 0.147047 -0.33308 0.942899 26.9833 0)" fill="#D3A7E0"/>
<mask id="mask0_370_432" style="mask-type:alpha" maskUnits="userSpaceOnUse" x="-103" y="0" width="401" height="409">
<rect width="273.107" height="390.246" transform="matrix(0.98913 0.147047 -0.33308 0.942899 26.9833 0)" fill="#D3A7E0"/>
</mask>
<g mask="url(#mask0_370_432)">
<path d="M112.676 405.675L46.5564 392.755L46.5564 382.4C53.7764 379.17 60.9964 376.035 82.1814 366.82L93.2014 362.165C93.2014 362.07 93.2964 362.07 93.2964 361.975L46.5564 352.95L46.5564 341.835L112.676 354.66L112.676 365.015L84.7464 377.46L66.1264 385.25C66.1264 385.345 66.2214 385.44 66.2214 385.535L112.676 394.37L112.676 405.675ZM112.676 359.34L46.5564 322.385L46.5564 312.505L112.676 301.2L112.676 312.98L98.0464 315.07L98.0464 339.2L112.676 347.18L112.676 359.34ZM88.2614 334.07L88.2614 316.495L74.8664 318.3L60.8064 319.915L60.8064 320.105L74.5814 326.945L88.2614 334.07ZM112.676 293.869L46.5564 303.084L46.5564 291.304L76.8614 287.884L94.4364 286.174L94.4364 285.699L76.8614 277.244L46.5564 262.139L46.5564 249.789L112.676 284.939L112.676 293.869ZM112.676 267.226L46.5564 254.401L46.5564 243.096L112.676 255.921L112.676 267.226ZM87.6914 251.103L70.8764 247.778C57.5764 245.118 46.0814 237.803 46.0814 220.893C46.0814 209.398 52.0664 201.513 61.3764 198.663L65.7464 209.588C61.2814 211.108 56.8164 214.813 56.8164 221.558C56.8164 231.723 63.7514 234.858 70.6864 236.188L88.2614 239.608C89.4964 239.798 90.7314 239.893 91.7764 239.893C97.4764 239.893 102.511 238.088 102.511 229.728C102.511 221.938 96.6214 215.573 89.0214 214.148L86.4564 213.673L86.4564 227.068L76.5764 225.168L76.5764 200.658C80.9464 201.513 85.3164 201.988 89.5914 202.843C104.126 205.693 113.246 216.903 113.246 231.153C113.246 245.118 104.411 251.673 93.3914 251.673C91.4914 251.673 89.5914 251.483 87.6914 251.103ZM112.676 214.105L46.5564 177.15L46.5564 167.27L112.676 155.965L112.676 167.745L98.0464 169.835L98.0464 193.965L112.676 201.945L112.676 214.105ZM88.2614 188.835L88.2614 171.26L74.8664 173.065L60.8064 174.68L60.8064 174.87L74.5814 181.71L88.2614 188.835ZM112.676 151.411L56.5314 140.581L56.5314 158.631L46.5564 156.636L46.5564 109.231L56.5314 111.226L56.5314 129.276L112.676 140.201L112.676 151.411ZM112.676 126.166L46.5564 113.341L46.5564 102.036L112.676 114.861L112.676 126.166ZM90.5414 110.897C87.4064 110.897 74.4864 108.047 70.9714 107.287C57.3864 104.437 46.0814 97.6924 46.0814 80.3074C46.0814 65.6774 55.5814 56.3674 68.6914 57.7924C71.7314 57.7924 84.3664 60.5474 88.0714 61.3074C103.271 64.4424 113.246 72.4224 113.246 88.5724C113.246 105.577 102.796 112.227 90.5414 110.897ZM70.4014 95.7924L88.6414 99.4024C95.6714 100.732 102.986 99.0224 102.986 88.0974C102.986 79.4524 96.6214 74.7974 88.6414 72.9924C85.2214 72.2324 71.1614 69.1924 68.4064 69.1924C61.5664 68.6224 56.2464 72.9924 56.2464 80.8774C56.2464 90.7574 63.7514 94.4624 70.4014 95.7924ZM112.676 66.859L46.5564 53.939L46.5564 43.584C53.7764 40.354 60.9964 37.219 82.1814 28.004L93.2014 23.349C93.2014 23.254 93.2964 23.254 93.2964 23.159L46.5564 14.134L46.5564 3.01898L112.676 15.844L112.676 26.199L84.7464 38.644L66.1264 46.434C66.1264 46.529 66.2214 46.624 66.2214 46.719L112.676 55.554L112.676 66.859Z" fill="#A585AE"/>
<path d="M112.676 405.675L112.293 407.638L114.676 408.104L114.676 405.675L112.676 405.675ZM46.5564 392.755L44.5564 392.755L44.5564 394.402L46.1729 394.718L46.5564 392.755ZM46.5564 382.4L45.7397 380.574L44.5564 381.104L44.5564 382.4L46.5564 382.4ZM82.1814 366.82L81.4032 364.978L81.3934 364.982L81.3837 364.986L82.1814 366.82ZM93.2014 362.165L93.9797 364.007L95.2014 363.491L95.2014 362.165L93.2014 362.165ZM93.2964 361.975L95.2964 361.975L95.2964 360.324L93.6756 360.011L93.2964 361.975ZM46.5564 352.95L44.5564 352.95L44.5564 354.601L46.1773 354.914L46.5564 352.95ZM46.5564 341.835L46.9373 339.872L44.5564 339.41L44.5564 341.835L46.5564 341.835ZM112.676 354.66L114.676 354.66L114.676 353.011L113.057 352.697L112.676 354.66ZM112.676 365.015L113.49 366.842L114.676 366.313L114.676 365.015L112.676 365.015ZM84.7464 377.46L85.5183 379.305L85.5395 379.296L85.5604 379.287L84.7464 377.46ZM66.1264 385.25L65.3545 383.405L64.1264 383.919L64.1264 385.25L66.1264 385.25ZM66.2214 385.535L64.2214 385.535L64.2214 387.19L65.8478 387.5L66.2214 385.535ZM112.676 394.37L114.676 394.37L114.676 392.715L113.05 392.405L112.676 394.37ZM112.676 405.675L113.06 403.712L46.94 390.792L46.5564 392.755L46.1729 394.718L112.293 407.638L112.676 405.675ZM46.5564 392.755L48.5564 392.755L48.5564 382.4L46.5564 382.4L44.5564 382.4L44.5564 392.755L46.5564 392.755ZM46.5564 382.4L47.3732 384.226C54.5811 381.001 61.7885 377.871 82.9792 368.654L82.1814 366.82L81.3837 364.986C60.2044 374.198 52.9718 377.339 45.7397 380.574L46.5564 382.4ZM82.1814 366.82L82.9597 368.662L93.9797 364.007L93.2014 362.165L92.4232 360.323L81.4032 364.978L82.1814 366.82ZM93.2014 362.165L95.2014 362.165C95.2014 362.323 95.1812 362.495 95.1314 362.673C95.0815 362.851 95.0098 363.007 94.9313 363.138C94.8553 363.264 94.7795 363.357 94.7312 363.411C94.707 363.439 94.6872 363.46 94.6762 363.471C94.6665 363.481 94.6583 363.489 94.6632 363.484C94.6643 363.483 94.6783 363.469 94.6939 363.453C94.7108 363.436 94.7364 363.409 94.7661 363.375C94.8255 363.308 94.9117 363.202 94.9966 363.06C95.084 362.915 95.1631 362.743 95.2183 362.546C95.2733 362.349 95.2964 362.157 95.2964 361.975L93.2964 361.975L91.2964 361.975C91.2964 361.817 91.3166 361.645 91.3664 361.467C91.4164 361.289 91.4881 361.133 91.5666 361.002C91.6426 360.876 91.7184 360.783 91.7667 360.729C91.7908 360.701 91.8107 360.68 91.8217 360.669C91.8314 360.659 91.8395 360.651 91.8347 360.656C91.8336 360.657 91.8196 360.671 91.8039 360.687C91.7871 360.704 91.7615 360.731 91.7318 360.765C91.6724 360.832 91.5862 360.938 91.5013 361.08C91.4139 361.225 91.3348 361.397 91.2796 361.594C91.2246 361.791 91.2014 361.983 91.2014 362.165L93.2014 362.165ZM93.2964 361.975L93.6756 360.011L46.9356 350.986L46.5564 352.95L46.1773 354.914L92.9173 363.939L93.2964 361.975ZM46.5564 352.95L48.5564 352.95L48.5564 341.835L46.5564 341.835L44.5564 341.835L44.5564 352.95L46.5564 352.95ZM46.5564 341.835L46.1756 343.798L112.296 356.623L112.676 354.66L113.057 352.697L46.9373 339.872L46.5564 341.835ZM112.676 354.66L110.676 354.66L110.676 365.015L112.676 365.015L114.676 365.015L114.676 354.66L112.676 354.66ZM112.676 365.015L111.862 363.188L83.9324 375.633L84.7464 377.46L85.5604 379.287L113.49 366.842L112.676 365.015ZM84.7464 377.46L83.9745 375.615L65.3545 383.405L66.1264 385.25L66.8983 387.095L85.5183 379.305L84.7464 377.46ZM66.1264 385.25L64.1264 385.25C64.1264 385.601 64.2131 385.875 64.2686 386.023C64.2979 386.102 64.3265 386.165 64.3456 386.206C64.3637 386.244 64.3811 386.279 64.3851 386.287C64.393 386.303 64.3875 386.292 64.3805 386.277C64.3725 386.26 64.3543 386.22 64.3339 386.166C64.2963 386.065 64.2214 385.839 64.2214 385.535L66.2214 385.535L68.2214 385.535C68.2214 385.184 68.1348 384.909 68.0793 384.762C68.05 384.683 68.0214 384.62 68.0023 384.579C67.9842 384.541 67.9667 384.506 67.9628 384.498C67.9549 384.482 67.9604 384.493 67.9674 384.508C67.9754 384.525 67.9936 384.565 68.0139 384.619C68.0516 384.719 68.1264 384.946 68.1264 385.25L66.1264 385.25ZM66.2214 385.535L65.8478 387.5L112.303 396.335L112.676 394.37L113.05 392.405L66.5951 383.57L66.2214 385.535ZM112.676 394.37L110.676 394.37L110.676 405.675L112.676 405.675L114.676 405.675L114.676 394.37L112.676 394.37ZM112.676 359.34L111.701 361.086L114.676 362.749L114.676 359.34L112.676 359.34ZM46.5564 322.385L44.5564 322.385L44.5564 323.559L45.5807 324.131L46.5564 322.385ZM46.5564 312.505L46.2194 310.534L44.5564 310.818L44.5564 312.505L46.5564 312.505ZM112.676 301.2L114.676 301.2L114.676 298.829L112.339 299.229L112.676 301.2ZM112.676 312.98L112.959 314.96L114.676 314.715L114.676 312.98L112.676 312.98ZM98.0464 315.07L97.7636 313.09L96.0464 313.336L96.0464 315.07L98.0464 315.07ZM98.0464 339.2L96.0464 339.2L96.0464 340.387L97.0887 340.956L98.0464 339.2ZM112.676 347.18L114.676 347.18L114.676 345.993L113.634 345.424L112.676 347.18ZM88.2614 334.07L87.3376 335.844L90.2614 337.367L90.2614 334.07L88.2614 334.07ZM88.2614 316.495L90.2614 316.495L90.2614 314.208L87.9944 314.513L88.2614 316.495ZM74.8664 318.3L75.0947 320.287L75.1141 320.285L75.1335 320.282L74.8664 318.3ZM60.8064 319.915L60.5782 317.928L58.8064 318.132L58.8064 319.915L60.8064 319.915ZM60.8064 320.105L58.8064 320.105L58.8064 321.345L59.917 321.897L60.8064 320.105ZM74.5814 326.945L75.5053 325.171L75.4882 325.162L75.4709 325.154L74.5814 326.945ZM112.676 359.34L113.652 357.594L47.5322 320.639L46.5564 322.385L45.5807 324.131L111.701 361.086L112.676 359.34ZM46.5564 322.385L48.5564 322.385L48.5564 312.505L46.5564 312.505L44.5564 312.505L44.5564 322.385L46.5564 322.385ZM46.5564 312.505L46.8935 314.477L113.014 303.172L112.676 301.2L112.339 299.229L46.2194 310.534L46.5564 312.505ZM112.676 301.2L110.676 301.2L110.676 312.98L112.676 312.98L114.676 312.98L114.676 301.2L112.676 301.2ZM112.676 312.98L112.394 311L97.7636 313.09L98.0464 315.07L98.3293 317.05L112.959 314.96L112.676 312.98ZM98.0464 315.07L96.0464 315.07L96.0464 339.2L98.0464 339.2L100.046 339.2L100.046 315.07L98.0464 315.07ZM98.0464 339.2L97.0887 340.956L111.719 348.936L112.676 347.18L113.634 345.424L99.0041 337.444L98.0464 339.2ZM112.676 347.18L110.676 347.18L110.676 359.34L112.676 359.34L114.676 359.34L114.676 347.18L112.676 347.18ZM88.2614 334.07L90.2614 334.07L90.2614 316.495L88.2614 316.495L86.2614 316.495L86.2614 334.07L88.2614 334.07ZM88.2614 316.495L87.9944 314.513L74.5993 316.318L74.8664 318.3L75.1335 320.282L88.5285 318.477L88.2614 316.495ZM74.8664 318.3L74.6382 316.313L60.5782 317.928L60.8064 319.915L61.0347 321.902L75.0947 320.287L74.8664 318.3ZM60.8064 319.915L58.8064 319.915L58.8064 320.105L60.8064 320.105L62.8064 320.105L62.8064 319.915L60.8064 319.915ZM60.8064 320.105L59.917 321.897L73.692 328.737L74.5814 326.945L75.4709 325.154L61.6959 318.314L60.8064 320.105ZM74.5814 326.945L73.6576 328.719L87.3376 335.844L88.2614 334.07L89.1853 332.296L75.5053 325.171L74.5814 326.945ZM112.676 293.869L112.953 295.85L114.676 295.609L114.676 293.869L112.676 293.869ZM46.5564 303.084L44.5564 303.084L44.5564 305.382L46.8325 305.065L46.5564 303.084ZM46.5564 291.304L46.3322 289.317L44.5564 289.517L44.5564 291.304L46.5564 291.304ZM76.8614 287.884L76.6678 285.893L76.6524 285.895L76.6372 285.897L76.8614 287.884ZM94.4364 286.174L94.6301 288.165L96.4364 287.989L96.4364 286.174L94.4364 286.174ZM94.4364 285.699L96.4364 285.699L96.4364 284.442L95.3035 283.897L94.4364 285.699ZM76.8614 277.244L75.9693 279.034L75.9818 279.04L75.9944 279.046L76.8614 277.244ZM46.5564 262.139L44.5564 262.139L44.5564 263.377L45.6643 263.929L46.5564 262.139ZM46.5564 249.789L47.4952 248.023L44.5564 246.461L44.5564 249.789L46.5564 249.789ZM112.676 284.939L114.676 284.939L114.676 283.737L113.615 283.173L112.676 284.939ZM112.676 293.869L112.4 291.888L46.2804 301.103L46.5564 303.084L46.8325 305.065L112.953 295.85L112.676 293.869ZM46.5564 303.084L48.5564 303.084L48.5564 291.304L46.5564 291.304L44.5564 291.304L44.5564 303.084L46.5564 303.084ZM46.5564 291.304L46.7807 293.291L77.0857 289.871L76.8614 287.884L76.6372 285.897L46.3322 289.317L46.5564 291.304ZM76.8614 287.884L77.0551 289.875L94.6301 288.165L94.4364 286.174L94.2428 284.183L76.6678 285.893L76.8614 287.884ZM94.4364 286.174L96.4364 286.174L96.4364 285.699L94.4364 285.699L92.4364 285.699L92.4364 286.174L94.4364 286.174ZM94.4364 285.699L95.3035 283.897L77.7285 275.442L76.8614 277.244L75.9944 279.046L93.5694 287.501L94.4364 285.699ZM76.8614 277.244L77.7536 275.454L47.4486 260.349L46.5564 262.139L45.6643 263.929L75.9693 279.034L76.8614 277.244ZM46.5564 262.139L48.5564 262.139L48.5564 249.789L46.5564 249.789L44.5564 249.789L44.5564 262.139L46.5564 262.139ZM46.5564 249.789L45.6176 251.555L111.738 286.705L112.676 284.939L113.615 283.173L47.4952 248.023L46.5564 249.789ZM112.676 284.939L110.676 284.939L110.676 293.869L112.676 293.869L114.676 293.869L114.676 284.939L112.676 284.939ZM112.676 267.226L112.296 269.189L114.676 269.651L114.676 267.226L112.676 267.226ZM46.5564 254.401L44.5564 254.401L44.5564 256.05L46.1756 256.364L46.5564 254.401ZM46.5564 243.096L46.9373 241.132L44.5564 240.671L44.5564 243.096L46.5564 243.096ZM112.676 255.921L114.676 255.921L114.676 254.272L113.057 253.957L112.676 255.921ZM112.676 267.226L113.057 265.262L46.9373 252.437L46.5564 254.401L46.1756 256.364L112.296 269.189L112.676 267.226ZM46.5564 254.401L48.5564 254.401L48.5564 243.096L46.5564 243.096L44.5564 243.096L44.5564 254.401L46.5564 254.401ZM46.5564 243.096L46.1756 245.059L112.296 257.884L112.676 255.921L113.057 253.957L46.9373 241.132L46.5564 243.096ZM112.676 255.921L110.676 255.921L110.676 267.226L112.676 267.226L114.676 267.226L114.676 255.921L112.676 255.921ZM87.6914 251.103L88.0837 249.141L88.0794 249.141L87.6914 251.103ZM70.8764 247.778L70.4842 249.739L70.4885 249.74L70.8764 247.778ZM61.3764 198.663L63.2334 197.92L62.5501 196.212L60.791 196.75L61.3764 198.663ZM65.7464 209.588L66.391 211.481L68.3861 210.802L67.6034 208.845L65.7464 209.588ZM70.6864 236.188L71.0685 234.224L71.0631 234.223L70.6864 236.188ZM88.2614 239.608L87.8794 241.571L87.9182 241.578L87.9573 241.584L88.2614 239.608ZM89.0214 214.148L89.39 212.182L89.3856 212.181L89.0214 214.148ZM86.4564 213.673L86.8206 211.706L84.4564 211.268L84.4564 213.673L86.4564 213.673ZM86.4564 227.068L86.0787 229.032L88.4564 229.489L88.4564 227.068L86.4564 227.068ZM76.5764 225.168L74.5764 225.168L74.5764 226.82L76.1987 227.132L76.5764 225.168ZM76.5764 200.658L76.9605 198.695L74.5764 198.228L74.5764 200.658L76.5764 200.658ZM89.5914 202.843L89.1992 204.804L89.2066 204.805L89.5914 202.843ZM87.6914 251.103L88.0794 249.141L71.2644 245.816L70.8764 247.778L70.4885 249.74L87.3035 253.065L87.6914 251.103ZM70.8764 247.778L71.2687 245.816C64.824 244.527 59.0273 242.148 54.8631 238.223C50.7591 234.356 48.0814 228.841 48.0814 220.893L46.0814 220.893L44.0814 220.893C44.0814 229.854 47.1513 236.452 52.1198 241.134C57.0281 245.76 63.6289 248.368 70.4842 249.739L70.8764 247.778ZM46.0814 220.893L48.0814 220.893C48.0814 210.204 53.5603 203.147 61.9619 200.575L61.3764 198.663L60.791 196.75C50.5726 199.878 44.0814 208.592 44.0814 220.893L46.0814 220.893ZM61.3764 198.663L59.5195 199.405L63.8895 210.33L65.7464 209.588L67.6034 208.845L63.2334 197.92L61.3764 198.663ZM65.7464 209.588L65.1019 207.694C60.1084 209.394 54.8164 213.692 54.8164 221.558L56.8164 221.558L58.8164 221.558C58.8164 215.933 62.4545 212.821 66.391 211.481L65.7464 209.588ZM56.8164 221.558L54.8164 221.558C54.8164 227.16 56.7589 231.065 59.8521 233.707C62.8485 236.265 66.727 237.465 70.3097 238.152L70.6864 236.188L71.0631 234.223C67.7109 233.58 64.6544 232.547 62.4495 230.665C60.3415 228.865 58.8164 226.12 58.8164 221.558L56.8164 221.558ZM70.6864 236.188L70.3044 238.151L87.8794 241.571L88.2614 239.608L88.6435 237.644L71.0685 234.224L70.6864 236.188ZM88.2614 239.608L87.9573 241.584C89.2835 241.788 90.6205 241.893 91.7764 241.893L91.7764 239.893L91.7764 237.893C90.8424 237.893 89.7094 237.807 88.5656 237.631L88.2614 239.608ZM91.7764 239.893L91.7764 241.893C94.7642 241.893 97.9915 241.435 100.491 239.538C103.105 237.554 104.511 234.325 104.511 229.728L102.511 229.728L100.511 229.728C100.511 233.49 99.4003 235.344 98.0722 236.352C96.6288 237.448 94.4886 237.893 91.7764 237.893L91.7764 239.893ZM102.511 229.728L104.511 229.728C104.511 220.871 97.8295 213.764 89.39 212.182L89.0214 214.148L88.6529 216.113C95.4133 217.381 100.511 223.004 100.511 229.728L102.511 229.728ZM89.0214 214.148L89.3856 212.181L86.8206 211.706L86.4564 213.673L86.0923 215.639L88.6573 216.114L89.0214 214.148ZM86.4564 213.673L84.4564 213.673L84.4564 227.068L86.4564 227.068L88.4564 227.068L88.4564 213.673L86.4564 213.673ZM86.4564 227.068L86.8341 225.104L76.9541 223.204L76.5764 225.168L76.1987 227.132L86.0787 229.032L86.4564 227.068ZM76.5764 225.168L78.5764 225.168L78.5764 200.658L76.5764 200.658L74.5764 200.658L74.5764 225.168L76.5764 225.168ZM76.5764 200.658L76.1924 202.62C78.4252 203.057 80.6521 203.396 82.8171 203.727C84.9963 204.06 87.1134 204.387 89.1992 204.804L89.5914 202.843L89.9837 200.881C87.7945 200.444 85.5891 200.105 83.422 199.773C81.2408 199.439 79.0976 199.113 76.9605 198.695L76.5764 200.658ZM89.5914 202.843L89.2066 204.805C102.816 207.474 111.246 217.872 111.246 231.153L113.246 231.153L115.246 231.153C115.246 215.933 105.437 203.911 89.9763 200.88L89.5914 202.843ZM113.246 231.153L111.246 231.153C111.246 237.697 109.19 242.259 106.079 245.195C102.946 248.152 98.5159 249.673 93.3914 249.673L93.3914 251.673L93.3914 253.673C99.2869 253.673 104.785 251.916 108.824 248.104C112.886 244.271 115.246 238.573 115.246 231.153L113.246 231.153ZM93.3914 251.673L93.3914 249.673C91.6257 249.673 89.8571 249.496 88.0837 249.141L87.6914 251.103L87.2992 253.064C89.3258 253.469 91.3571 253.673 93.3914 253.673L93.3914 251.673ZM112.676 214.105L111.701 215.851L114.676 217.514L114.676 214.105L112.676 214.105ZM46.5564 177.15L44.5564 177.15L44.5564 178.324L45.5807 178.896L46.5564 177.15ZM46.5564 167.27L46.2194 165.299L44.5564 165.583L44.5564 167.27L46.5564 167.27ZM112.676 155.965L114.676 155.965L114.676 153.594L112.339 153.994L112.676 155.965ZM112.676 167.745L112.959 169.725L114.676 169.48L114.676 167.745L112.676 167.745ZM98.0464 169.835L97.7636 167.855L96.0464 168.101L96.0464 169.835L98.0464 169.835ZM98.0464 193.965L96.0464 193.965L96.0464 195.153L97.0887 195.721L98.0464 193.965ZM112.676 201.945L114.676 201.945L114.676 200.758L113.634 200.189L112.676 201.945ZM88.2614 188.835L87.3376 190.609L90.2614 192.132L90.2614 188.835L88.2614 188.835ZM88.2614 171.26L90.2614 171.26L90.2614 168.973L87.9943 169.278L88.2614 171.26ZM74.8664 173.065L75.0947 175.052L75.1141 175.05L75.1335 175.047L74.8664 173.065ZM60.8064 174.68L60.5782 172.693L58.8064 172.897L58.8064 174.68L60.8064 174.68ZM60.8064 174.87L58.8064 174.87L58.8064 176.11L59.917 176.662L60.8064 174.87ZM74.5814 181.71L75.5053 179.936L75.4882 179.928L75.4709 179.919L74.5814 181.71ZM112.676 214.105L113.652 212.359L47.5322 175.404L46.5564 177.15L45.5807 178.896L111.701 215.851L112.676 214.105ZM46.5564 177.15L48.5564 177.15L48.5564 167.27L46.5564 167.27L44.5564 167.27L44.5564 177.15L46.5564 177.15ZM46.5564 167.27L46.8935 169.242L113.013 157.937L112.676 155.965L112.339 153.994L46.2194 165.299L46.5564 167.27ZM112.676 155.965L110.676 155.965L110.676 167.745L112.676 167.745L114.676 167.745L114.676 155.965L112.676 155.965ZM112.676 167.745L112.394 165.765L97.7636 167.855L98.0464 169.835L98.3293 171.815L112.959 169.725L112.676 167.745ZM98.0464 169.835L96.0464 169.835L96.0464 193.965L98.0464 193.965L100.046 193.965L100.046 169.835L98.0464 169.835ZM98.0464 193.965L97.0887 195.721L111.719 203.701L112.676 201.945L113.634 200.189L99.0041 192.209L98.0464 193.965ZM112.676 201.945L110.676 201.945L110.676 214.105L112.676 214.105L114.676 214.105L114.676 201.945L112.676 201.945ZM88.2614 188.835L90.2614 188.835L90.2614 171.26L88.2614 171.26L86.2614 171.26L86.2614 188.835L88.2614 188.835ZM88.2614 171.26L87.9943 169.278L74.5993 171.083L74.8664 173.065L75.1335 175.047L88.5285 173.242L88.2614 171.26ZM74.8664 173.065L74.6382 171.078L60.5782 172.693L60.8064 174.68L61.0347 176.667L75.0947 175.052L74.8664 173.065ZM60.8064 174.68L58.8064 174.68L58.8064 174.87L60.8064 174.87L62.8064 174.87L62.8064 174.68L60.8064 174.68ZM60.8064 174.87L59.917 176.662L73.692 183.502L74.5814 181.71L75.4709 179.919L61.6959 173.079L60.8064 174.87ZM74.5814 181.71L73.6576 183.484L87.3376 190.609L88.2614 188.835L89.1853 187.061L75.5053 179.936L74.5814 181.71ZM112.676 151.411L112.298 153.375L114.676 153.834L114.676 151.411L112.676 151.411ZM56.5314 140.581L56.9102 138.617L54.5314 138.159L54.5314 140.581L56.5314 140.581ZM56.5314 158.631L56.1392 160.592L58.5314 161.071L58.5314 158.631L56.5314 158.631ZM46.5564 156.636L44.5564 156.636L44.5564 158.276L46.1642 158.597L46.5564 156.636ZM46.5564 109.231L46.9487 107.27L44.5564 106.792L44.5564 109.231L46.5564 109.231ZM56.5314 111.226L58.5314 111.226L58.5314 109.587L56.9237 109.265L56.5314 111.226ZM56.5314 129.276L54.5314 129.276L54.5314 130.925L56.1494 131.239L56.5314 129.276ZM112.676 140.201L114.676 140.201L114.676 138.553L113.058 138.238L112.676 140.201ZM112.676 151.411L113.055 149.447L56.9102 138.617L56.5314 140.581L56.1526 142.545L112.298 153.375L112.676 151.411ZM56.5314 140.581L54.5314 140.581L54.5314 158.631L56.5314 158.631L58.5314 158.631L58.5314 140.581L56.5314 140.581ZM56.5314 158.631L56.9237 156.67L46.9487 154.675L46.5564 156.636L46.1642 158.597L56.1392 160.592L56.5314 158.631ZM46.5564 156.636L48.5564 156.636L48.5564 109.231L46.5564 109.231L44.5564 109.231L44.5564 156.636L46.5564 156.636ZM46.5564 109.231L46.1642 111.192L56.1392 113.187L56.5314 111.226L56.9237 109.265L46.9487 107.27L46.5564 109.231ZM56.5314 111.226L54.5314 111.226L54.5314 129.276L56.5314 129.276L58.5314 129.276L58.5314 111.226L56.5314 111.226ZM56.5314 129.276L56.1494 131.239L112.294 142.164L112.676 140.201L113.058 138.238L56.9134 127.313L56.5314 129.276ZM112.676 140.201L110.676 140.201L110.676 151.411L112.676 151.411L114.676 151.411L114.676 140.201L112.676 140.201ZM112.676 126.166L112.296 128.129L114.676 128.591L114.676 126.166L112.676 126.166ZM46.5564 113.341L44.5564 113.341L44.5564 114.99L46.1756 115.304L46.5564 113.341ZM46.5564 102.036L46.9373 100.072L44.5564 99.6105L44.5564 102.036L46.5564 102.036ZM112.676 114.861L114.676 114.861L114.676 113.211L113.057 112.897L112.676 114.861ZM112.676 126.166L113.057 124.202L46.9373 111.377L46.5564 113.341L46.1756 115.304L112.296 128.129L112.676 126.166ZM46.5564 113.341L48.5564 113.341L48.5564 102.036L46.5564 102.036L44.5564 102.036L44.5564 113.341L46.5564 113.341ZM46.5564 102.036L46.1756 103.999L112.296 116.824L112.676 114.861L113.057 112.897L46.9373 100.072L46.5564 102.036ZM112.676 114.861L110.676 114.861L110.676 126.166L112.676 126.166L114.676 126.166L114.676 114.861L112.676 114.861ZM90.5414 110.897L90.7572 108.909L90.6496 108.897L90.5414 108.897L90.5414 110.897ZM70.9714 107.287L71.3941 105.333L71.3821 105.33L70.9714 107.287ZM68.6914 57.7924L68.4753 59.7807L68.5831 59.7924L68.6914 59.7924L68.6914 57.7924ZM88.0714 61.3074L88.4754 59.3486L88.4733 59.3482L88.0714 61.3074ZM70.4014 95.7924L70.0092 97.7536L70.0131 97.7544L70.4014 95.7924ZM88.6414 99.4024L88.2531 101.364L88.2614 101.366L88.2696 101.368L88.6414 99.4024ZM88.6414 72.9924L89.0827 71.0417L89.0753 71.0401L88.6414 72.9924ZM68.4064 69.1924L68.2403 71.1855L68.3232 71.1924L68.4064 71.1924L68.4064 69.1924ZM90.5414 110.897L90.5414 108.897C89.9446 108.897 88.7049 108.749 86.978 108.466C85.3034 108.193 83.3099 107.818 81.289 107.416C77.2482 106.612 73.1596 105.714 71.3941 105.333L70.9714 107.287L70.5488 109.242C72.2983 109.621 76.4272 110.527 80.5089 111.339C82.5492 111.745 84.5932 112.13 86.3327 112.414C88.0199 112.69 89.5708 112.897 90.5414 112.897L90.5414 110.897ZM70.9714 107.287L71.3821 105.33C64.7513 103.939 58.9377 101.644 54.7955 97.7848C50.7255 93.9926 48.0814 88.5148 48.0814 80.3074L46.0814 80.3074L44.0814 80.3074C44.0814 89.485 47.0898 96.0723 52.0686 100.711C56.9751 105.283 63.6066 107.786 70.5608 109.245L70.9714 107.287ZM46.0814 80.3074L48.0814 80.3074C48.0814 73.4217 50.3114 67.9848 53.8781 64.4498C57.4266 60.9327 62.4657 59.1275 68.4753 59.7807L68.6914 57.7924L68.9075 55.8041C61.8072 55.0324 55.5412 57.1696 51.0623 61.6088C46.6015 66.03 44.0814 72.5631 44.0814 80.3074L46.0814 80.3074ZM68.6914 57.7924L68.6914 59.7924C69.266 59.7924 70.471 59.9356 72.1616 60.2091C73.7999 60.4741 75.7555 60.8375 77.7477 61.2276C81.7406 62.0096 85.7868 62.8804 87.6695 63.2666L88.0714 61.3074L88.4733 59.3482C86.6511 58.9744 82.5273 58.0877 78.5164 57.3022C76.5067 56.9086 74.502 56.5357 72.8004 56.2604C71.1512 55.9936 69.6368 55.7924 68.6914 55.7924L68.6914 57.7924ZM88.0714 61.3074L87.6674 63.2662C95.0522 64.7893 100.926 67.4441 104.943 71.4716C108.91 75.449 111.246 80.9466 111.246 88.5724L113.246 88.5724L115.246 88.5724C115.246 80.0482 112.596 73.4808 107.775 68.647C103.004 63.8632 96.2907 60.9605 88.4754 59.3487L88.0714 61.3074ZM113.246 88.5724L111.246 88.5724C111.246 96.6633 108.772 101.959 105.173 105.105C101.555 108.267 96.485 109.531 90.7572 108.909L90.5414 110.897L90.3256 112.886C96.8528 113.594 103.135 112.198 107.806 108.117C112.495 104.018 115.246 97.4865 115.246 88.5724L113.246 88.5724ZM70.4014 95.7924L70.0131 97.7544L88.2531 101.364L88.6414 99.4024L89.0297 97.4405L70.7897 93.8305L70.4014 95.7924ZM88.6414 99.4024L88.2696 101.368C91.9807 102.07 96.1559 102.057 99.4803 100.06C102.966 97.9656 104.986 94.0289 104.986 88.0974L102.986 88.0974L100.986 88.0974C100.986 93.091 99.3498 95.4717 97.4201 96.6312C95.3295 97.8874 92.3321 98.0652 89.0132 97.4373L88.6414 99.4024ZM102.986 88.0974L104.986 88.0974C104.986 83.225 103.169 79.3781 100.187 76.5329C97.2545 73.7349 93.2957 71.9947 89.0827 71.0417L88.6414 72.9924L88.2002 74.9431C91.9671 75.7952 95.1808 77.2849 97.4258 79.4269C99.6213 81.5217 100.986 84.3248 100.986 88.0974L102.986 88.0974ZM88.6414 72.9924L89.0753 71.0401C87.3563 70.6581 82.9713 69.7048 78.6657 68.8461C76.5142 68.4169 74.3695 68.0088 72.5823 67.7072C70.8635 67.4171 69.2946 67.1924 68.4064 67.1924L68.4064 69.1924L68.4064 71.1924C68.8957 71.1924 70.1174 71.3477 71.9166 71.6514C73.6474 71.9435 75.7481 72.3429 77.8834 72.7688C82.1516 73.6201 86.5066 74.5668 88.2076 74.9448L88.6414 72.9924ZM68.4064 69.1924L68.5725 67.1993C64.6837 66.8753 61.0658 67.9507 58.4085 70.3913C55.7442 72.8385 54.2464 76.4729 54.2464 80.8774L56.2464 80.8774L58.2464 80.8774C58.2464 77.397 59.4087 74.9039 61.1143 73.3373C62.8271 71.7641 65.2892 70.9396 68.2403 71.1855L68.4064 69.1924ZM56.2464 80.8774L54.2464 80.8774C54.2464 86.4012 56.3777 90.351 59.5264 93.0578C62.5988 95.699 66.5142 97.0546 70.0092 97.7536L70.4014 95.7924L70.7937 93.8313C67.6386 93.2003 64.4766 92.0384 62.1339 90.0245C59.8677 88.0764 58.2464 85.2336 58.2464 80.8774L56.2464 80.8774ZM112.676 66.859L112.293 68.8219L114.676 69.2876L114.676 66.859L112.676 66.859ZM46.5564 53.939L44.5564 53.939L44.5564 55.586L46.1729 55.9019L46.5564 53.939ZM46.5564 43.584L45.7397 41.7583L44.5564 42.2877L44.5564 43.584L46.5564 43.584ZM82.1814 28.004L81.4032 26.1616L81.3934 26.1657L81.3837 26.17L82.1814 28.004ZM93.2014 23.349L93.9797 25.1914L95.2014 24.6753L95.2014 23.349L93.2014 23.349ZM93.2964 23.159L95.2964 23.159L95.2964 21.5082L93.6756 21.1953L93.2964 23.159ZM46.5564 14.134L44.5564 14.134L44.5564 15.7847L46.1772 16.0977L46.5564 14.134ZM46.5564 3.01898L46.9373 1.05558L44.5564 0.593777L44.5564 3.01898L46.5564 3.01898ZM112.676 15.844L114.676 15.844L114.676 14.1946L113.057 13.8806L112.676 15.844ZM112.676 26.199L113.49 28.0258L114.676 27.4974L114.676 26.199L112.676 26.199ZM84.7464 38.644L85.5183 40.489L85.5395 40.4802L85.5604 40.4708L84.7464 38.644ZM66.1264 46.434L65.3545 44.5889L64.1264 45.1027L64.1264 46.434L66.1264 46.434ZM66.2214 46.719L64.2214 46.719L64.2214 48.3745L65.8478 48.6838L66.2214 46.719ZM112.676 55.554L114.676 55.554L114.676 53.8985L113.05 53.5892L112.676 55.554ZM112.676 66.859L113.06 64.8961L46.94 51.9761L46.5564 53.939L46.1729 55.9019L112.293 68.8219L112.676 66.859ZM46.5564 53.939L48.5564 53.939L48.5564 43.584L46.5564 43.584L44.5564 43.584L44.5564 53.939L46.5564 53.939ZM46.5564 43.584L47.3732 45.4096C54.5811 42.185 61.7885 39.0555 82.9792 29.838L82.1814 28.004L81.3837 26.17C60.2044 35.3825 52.9718 38.5229 45.7397 41.7583L46.5564 43.584ZM82.1814 28.004L82.9597 29.8464L93.9797 25.1914L93.2014 23.349L92.4232 21.5066L81.4032 26.1616L82.1814 28.004ZM93.2014 23.349L95.2014 23.349C95.2014 23.507 95.1812 23.6789 95.1314 23.8567C95.0814 24.0353 95.0098 24.1907 94.9313 24.3216C94.8552 24.4483 94.7795 24.5406 94.7312 24.5954C94.707 24.6228 94.6872 24.6435 94.6762 24.6549C94.6664 24.665 94.6583 24.673 94.6631 24.6682C94.6643 24.6671 94.6783 24.6531 94.6939 24.637C94.7108 24.6196 94.7363 24.5927 94.766 24.559C94.8255 24.4916 94.9117 24.3859 94.9966 24.2444C95.084 24.0987 95.1631 23.9269 95.2183 23.7298C95.2733 23.5334 95.2964 23.3407 95.2964 23.159L93.2964 23.159L91.2964 23.159C91.2964 23.001 91.3166 22.8291 91.3664 22.6513C91.4164 22.4727 91.4881 22.3172 91.5666 22.1864C91.6426 22.0597 91.7184 21.9673 91.7667 21.9126C91.7908 21.8852 91.8107 21.8644 91.8216 21.8531C91.8314 21.843 91.8395 21.835 91.8347 21.8398C91.8336 21.8409 91.8195 21.8549 91.8039 21.871C91.7871 21.8884 91.7615 21.9153 91.7318 21.9489C91.6723 22.0163 91.5862 22.1221 91.5013 22.2636C91.4139 22.4093 91.3348 22.5811 91.2796 22.7782C91.2246 22.9745 91.2014 23.1672 91.2014 23.349L93.2014 23.349ZM93.2964 23.159L93.6756 21.1953L46.9356 12.1703L46.5564 14.134L46.1772 16.0977L92.9173 25.1227L93.2964 23.159ZM46.5564 14.134L48.5564 14.134L48.5564 3.01898L46.5564 3.01898L44.5564 3.01898L44.5564 14.134L46.5564 14.134ZM46.5564 3.01898L46.1756 4.98239L112.296 17.8074L112.676 15.844L113.057 13.8806L46.9373 1.05558L46.5564 3.01898ZM112.676 15.844L110.676 15.844L110.676 26.199L112.676 26.199L114.676 26.199L114.676 15.844L112.676 15.844ZM112.676 26.199L111.862 24.3721L83.9324 36.8171L84.7464 38.644L85.5604 40.4708L113.49 28.0258L112.676 26.199ZM84.7464 38.644L83.9745 36.7989L65.3545 44.5889L66.1264 46.434L66.8983 48.279L85.5183 40.489L84.7464 38.644ZM66.1264 46.434L64.1264 46.434C64.1264 46.7854 64.2131 47.0595 64.2686 47.2075C64.2979 47.2856 64.3265 47.349 64.3456 47.3897C64.3637 47.4284 64.3811 47.463 64.3851 47.4709C64.393 47.4868 64.3874 47.4759 64.3804 47.461C64.3725 47.444 64.3543 47.4043 64.3339 47.35C64.2962 47.2495 64.2214 47.0229 64.2214 46.719L66.2214 46.719L68.2214 46.719C68.2214 46.3676 68.1347 46.0935 68.0792 45.9455C68.05 45.8674 68.0214 45.804 68.0023 45.7632C67.9842 45.7246 67.9667 45.69 67.9628 45.6821C67.9549 45.6662 67.9604 45.6771 67.9674 45.692C67.9754 45.709 67.9936 45.7487 68.0139 45.803C68.0516 45.9035 68.1264 46.1301 68.1264 46.434L66.1264 46.434ZM66.2214 46.719L65.8478 48.6838L112.303 57.5188L112.676 55.554L113.05 53.5892L66.5951 44.7542L66.2214 46.719ZM112.676 55.554L110.676 55.554L110.676 66.859L112.676 66.859L114.676 66.859L114.676 55.554L112.676 55.554Z" fill="#A585AE"/>
</g>
</svg>
