<svg width="347" height="126" viewBox="0 0 347 126" fill="none" xmlns="http://www.w3.org/2000/svg">
<rect width="251.086" height="68.6152" transform="matrix(0.98913 0.147047 -0.33308 0.942899 78.9918 10.47)" fill="#D3A7E0"/>
<mask id="path-2-outside-1_370_437" maskUnits="userSpaceOnUse" x="3.66587" y="20.9229" width="326.558" height="104.527" fill="black">
<rect fill="white" x="3.66587" y="20.9229" width="326.558" height="104.527"/>
<path d="M5.74835 77.3172L19.6673 23.4051L42.3765 26.7894C54.0081 28.5229 59.9634 36.3283 57.2036 47.0178C54.6838 56.7777 44.2983 62.6305 33.7746 61.0621L23.0134 59.4584L17.9338 79.1332L5.74835 77.3172ZM25.7732 48.7689L35.9805 50.2901C40.0159 50.8915 43.9 48.8963 44.92 44.9458C46.0399 40.608 43.8104 38.1039 38.9837 37.3846L29.093 35.9105L25.7732 48.7689ZM46.0532 83.3239L59.9722 29.4117L84.3431 33.0437C93.9964 34.4824 100.647 41.5065 97.9667 51.8861C96.3069 58.3153 91.3854 63.3735 84.0189 65.1716L88.6231 89.6681L74.8551 87.6163L71.5309 65.4824L63.6183 64.3031L58.2386 85.1399L46.0532 83.3239ZM66.3781 53.6137L76.4271 55.1113C80.8581 55.7716 84.2466 54.1047 85.2866 50.0768C86.3265 46.0489 83.977 44.0095 79.8625 43.3963L69.4178 41.8397L66.3781 53.6137ZM92.783 68.8909L96.0628 56.1875C98.9425 45.0332 108.445 36.2335 122.767 38.3679C136.06 40.349 142.069 50.4951 138.949 62.5788L135.669 75.2823C132.35 88.1406 121.684 95.0778 108.628 93.1321C94.3065 90.9977 89.8832 80.1226 92.783 68.8909ZM123.027 74.283L126.806 59.643C128.026 54.918 125.664 50.383 119.808 49.5103C113.716 48.6023 109.747 52.5156 108.607 56.9308L104.828 71.5708C103.628 76.2184 105.336 81.0581 111.429 81.9661C117.284 82.8387 121.707 79.3953 123.027 74.283ZM124.512 87.9379L134.682 81.3291C136.692 84.6853 139.22 86.3491 141.436 86.6793C144.284 87.1038 148.916 86.668 150.576 80.2388L159.855 44.2973L171.883 46.0897L162.463 82.5734C158.923 96.2839 149.081 99.0803 139.348 97.6299C132.86 96.6629 127.226 94.295 124.512 87.9379ZM160.554 100.388L174.473 46.4759L213.403 52.2776L210.644 62.9671L183.899 58.9813L181.079 69.9032L203.867 73.2994L201.208 83.6015L178.419 80.2054L175.5 91.5146L202.244 95.5003L199.484 106.19L160.554 100.388ZM202.269 85.2076L205.549 72.5042C208.428 61.3499 217.931 52.5502 232.253 54.6846C242.698 56.2412 248.637 62.8375 249.207 71.4492L236.615 73.7555C236.704 69.9077 234.279 66.57 229.294 65.8271C223.202 64.9191 219.233 68.8323 218.093 73.2475L214.313 87.8875C213.113 92.5351 214.822 97.3748 220.915 98.2828C225.821 99.0139 229.785 96.7089 231.675 92.8881L242.108 98.9475C237.237 106.99 228.401 110.982 218.114 109.449C203.792 107.314 199.089 97.5238 202.269 85.2076ZM248.588 113.508L259.747 70.285L244.713 68.0445L247.473 57.355L289.647 63.6402L286.887 74.3297L271.853 72.0892L260.694 115.312L248.588 113.508ZM271.409 109.669L280.811 101.578C284.794 106.837 289.795 108.789 295.413 109.627C300.715 110.417 304.361 108.386 305.101 105.52C305.781 102.886 305.591 100.123 299.104 98.5129C288.92 95.9493 279.809 91.4544 282.929 79.3706C285.888 67.9065 297.257 64.2918 306.278 65.6361C313.003 66.6384 319.567 68.9037 324.443 73.5719L316.365 82.2622C311.983 78.2306 306.702 77.0414 303.774 76.6051C297.761 75.7089 295.755 78.3863 295.195 80.5551C294.315 83.9634 296.528 85.2585 305.267 88.0088C314.007 90.7592 320.94 95.734 318.12 106.656C315.22 117.888 302.722 122.058 291.96 120.454C284.523 119.346 277.068 117.028 271.409 109.669Z"/>
</mask>
<path d="M5.74835 77.3172L19.6673 23.4051L42.3765 26.7894C54.0081 28.5229 59.9634 36.3283 57.2036 47.0178C54.6838 56.7777 44.2983 62.6305 33.7746 61.0621L23.0134 59.4584L17.9338 79.1332L5.74835 77.3172ZM25.7732 48.7689L35.9805 50.2901C40.0159 50.8915 43.9 48.8963 44.92 44.9458C46.0399 40.608 43.8104 38.1039 38.9837 37.3846L29.093 35.9105L25.7732 48.7689ZM46.0532 83.3239L59.9722 29.4117L84.3431 33.0437C93.9964 34.4824 100.647 41.5065 97.9667 51.8861C96.3069 58.3153 91.3854 63.3735 84.0189 65.1716L88.6231 89.6681L74.8551 87.6163L71.5309 65.4824L63.6183 64.3031L58.2386 85.1399L46.0532 83.3239ZM66.3781 53.6137L76.4271 55.1113C80.8581 55.7716 84.2466 54.1047 85.2866 50.0768C86.3265 46.0489 83.977 44.0095 79.8625 43.3963L69.4178 41.8397L66.3781 53.6137ZM92.783 68.8909L96.0628 56.1875C98.9425 45.0332 108.445 36.2335 122.767 38.3679C136.06 40.349 142.069 50.4951 138.949 62.5788L135.669 75.2823C132.35 88.1406 121.684 95.0778 108.628 93.1321C94.3065 90.9977 89.8832 80.1226 92.783 68.8909ZM123.027 74.283L126.806 59.643C128.026 54.918 125.664 50.383 119.808 49.5103C113.716 48.6023 109.747 52.5156 108.607 56.9308L104.828 71.5708C103.628 76.2184 105.336 81.0581 111.429 81.9661C117.284 82.8387 121.707 79.3953 123.027 74.283ZM124.512 87.9379L134.682 81.3291C136.692 84.6853 139.22 86.3491 141.436 86.6793C144.284 87.1038 148.916 86.668 150.576 80.2388L159.855 44.2973L171.883 46.0897L162.463 82.5734C158.923 96.2839 149.081 99.0803 139.348 97.6299C132.86 96.6629 127.226 94.295 124.512 87.9379ZM160.554 100.388L174.473 46.4759L213.403 52.2776L210.644 62.9671L183.899 58.9813L181.079 69.9032L203.867 73.2994L201.208 83.6015L178.419 80.2054L175.5 91.5146L202.244 95.5003L199.484 106.19L160.554 100.388ZM202.269 85.2076L205.549 72.5042C208.428 61.3499 217.931 52.5502 232.253 54.6846C242.698 56.2412 248.637 62.8375 249.207 71.4492L236.615 73.7555C236.704 69.9077 234.279 66.57 229.294 65.8271C223.202 64.9191 219.233 68.8323 218.093 73.2475L214.313 87.8875C213.113 92.5351 214.822 97.3748 220.915 98.2828C225.821 99.0139 229.785 96.7089 231.675 92.8881L242.108 98.9475C237.237 106.99 228.401 110.982 218.114 109.449C203.792 107.314 199.089 97.5238 202.269 85.2076ZM248.588 113.508L259.747 70.285L244.713 68.0445L247.473 57.355L289.647 63.6402L286.887 74.3297L271.853 72.0892L260.694 115.312L248.588 113.508ZM271.409 109.669L280.811 101.578C284.794 106.837 289.795 108.789 295.413 109.627C300.715 110.417 304.361 108.386 305.101 105.52C305.781 102.886 305.591 100.123 299.104 98.5129C288.92 95.9493 279.809 91.4544 282.929 79.3706C285.888 67.9065 297.257 64.2918 306.278 65.6361C313.003 66.6384 319.567 68.9037 324.443 73.5719L316.365 82.2622C311.983 78.2306 306.702 77.0414 303.774 76.6051C297.761 75.7089 295.755 78.3863 295.195 80.5551C294.315 83.9634 296.528 85.2585 305.267 88.0088C314.007 90.7592 320.94 95.734 318.12 106.656C315.22 117.888 302.722 122.058 291.96 120.454C284.523 119.346 277.068 117.028 271.409 109.669Z" fill="white"/>
<path d="M5.74835 77.3172L4.75927 77.1698L4.50929 78.1381L5.49837 78.2855L5.74835 77.3172ZM19.6673 23.4051L19.9173 22.4368L18.9282 22.2894L18.6783 23.2577L19.6673 23.4051ZM23.0134 59.4584L23.2634 58.4901L22.2743 58.3427L22.0243 59.311L23.0134 59.4584ZM17.9338 79.1332L17.6838 80.1015L18.6729 80.2489L18.9229 79.2806L17.9338 79.1332ZM25.7732 48.7689L24.7841 48.6215L24.5341 49.5898L25.5232 49.7372L25.7732 48.7689ZM29.093 35.9105L29.3429 34.9423L28.3539 34.7949L28.1039 35.7631L29.093 35.9105ZM5.74835 77.3172L6.73743 77.4646L20.6564 23.5525L19.6673 23.4051L18.6783 23.2577L4.75927 77.1698L5.74835 77.3172ZM19.6673 23.4051L19.4174 24.3733L42.1266 27.7577L42.3765 26.7894L42.6265 25.8212L19.9173 22.4368L19.6673 23.4051ZM42.3765 26.7894L42.1266 27.7577C47.753 28.5962 51.9082 30.8868 54.3365 34.1624C56.7568 37.4271 57.5328 41.7645 56.2146 46.8704L57.2036 47.0178L58.1927 47.1652C59.6343 41.5815 58.8125 36.6715 56.0371 32.9278C53.2698 29.1949 48.6317 26.7161 42.6265 25.8212L42.3765 26.7894ZM57.2036 47.0178L56.2146 46.8704C53.8598 55.9909 44.1155 61.5977 34.0245 60.0939L33.7746 61.0621L33.5246 62.0304C44.4812 63.6632 55.5078 57.5646 58.1927 47.1652L57.2036 47.0178ZM33.7746 61.0621L34.0245 60.0939L23.2634 58.4901L23.0134 59.4584L22.7634 60.4266L33.5246 62.0304L33.7746 61.0621ZM23.0134 59.4584L22.0243 59.311L16.9447 78.9858L17.9338 79.1332L18.9229 79.2806L24.0025 59.6058L23.0134 59.4584ZM17.9338 79.1332L18.1838 78.165L5.99833 76.349L5.74835 77.3172L5.49837 78.2855L17.6838 80.1015L17.9338 79.1332ZM25.7732 48.7689L25.5232 49.7372L35.7305 51.2584L35.9805 50.2901L36.2305 49.3218L26.0232 47.8007L25.7732 48.7689ZM35.9805 50.2901L35.7305 51.2584C37.9501 51.5891 40.1861 51.2141 42.0389 50.1537C43.9078 49.0841 45.3268 47.3483 45.909 45.0932L44.92 44.9458L43.9309 44.7984C43.4932 46.4937 42.4602 47.7309 41.1232 48.4961C39.77 49.2706 38.0463 49.5925 36.2305 49.3218L35.9805 50.2901ZM44.92 44.9458L45.909 45.0932C46.5236 42.7128 46.2476 40.6879 45.0093 39.1616C43.795 37.6648 41.7729 36.7947 39.2337 36.4163L38.9837 37.3846L38.7337 38.3528C41.0213 38.6937 42.5272 39.4354 43.3543 40.455C44.1575 41.4449 44.4362 42.8411 43.9309 44.7984L44.92 44.9458ZM38.9837 37.3846L39.2337 36.4163L29.3429 34.9423L29.093 35.9105L28.843 36.8788L38.7337 38.3528L38.9837 37.3846ZM29.093 35.9105L28.1039 35.7631L24.7841 48.6215L25.7732 48.7689L26.7623 48.9163L30.082 36.0579L29.093 35.9105ZM46.0532 83.3239L45.0641 83.1765L44.8142 84.1447L45.8032 84.2921L46.0532 83.3239ZM59.9722 29.4117L60.2222 28.4435L59.2331 28.2961L58.9831 29.2643L59.9722 29.4117ZM84.0189 65.1716L83.859 64.2235L82.8338 64.4738L83.0142 65.434L84.0189 65.1716ZM88.6231 89.6681L88.3731 90.6364L89.9019 90.8642L89.6277 89.4057L88.6231 89.6681ZM74.8551 87.6163L73.845 87.8463L73.941 88.4855L74.6052 88.5845L74.8551 87.6163ZM71.5309 65.4824L72.541 65.2523L72.445 64.6131L71.7808 64.5141L71.5309 65.4824ZM63.6183 64.3031L63.8682 63.3349L62.8792 63.1875L62.6292 64.1557L63.6183 64.3031ZM58.2386 85.1399L57.9887 86.1081L58.9777 86.2555L59.2277 85.2873L58.2386 85.1399ZM66.3781 53.6137L65.389 53.4663L65.139 54.4345L66.1281 54.5819L66.3781 53.6137ZM69.4178 41.8397L69.6678 40.8715L68.6787 40.7241L68.4288 41.6923L69.4178 41.8397ZM46.0532 83.3239L47.0423 83.4713L60.9613 29.5591L59.9722 29.4117L58.9831 29.2643L45.0641 83.1765L46.0532 83.3239ZM59.9722 29.4117L59.7222 30.38L84.0931 34.012L84.3431 33.0437L84.593 32.0755L60.2222 28.4435L59.9722 29.4117ZM84.3431 33.0437L84.0931 34.012C88.724 34.7021 92.5726 36.7227 94.9434 39.7475C97.3011 42.7556 98.2481 46.8179 96.9777 51.7387L97.9667 51.8861L98.9558 52.0335C100.365 46.5747 99.3271 41.9351 96.6163 38.4765C93.9186 35.0347 89.6155 32.8239 84.593 32.0755L84.3431 33.0437ZM97.9667 51.8861L96.9777 51.7387C95.4163 57.7864 90.8165 62.5254 83.859 64.2235L84.0189 65.1716L84.1787 66.1196C91.9544 64.2217 97.1975 58.8442 98.9558 52.0335L97.9667 51.8861ZM84.0189 65.1716L83.0142 65.434L87.6184 89.9305L88.6231 89.6681L89.6277 89.4057L85.0235 64.9092L84.0189 65.1716ZM88.6231 89.6681L88.8731 88.6999L75.1051 86.648L74.8551 87.6163L74.6052 88.5845L88.3731 90.6364L88.6231 89.6681ZM74.8551 87.6163L75.8652 87.3862L72.541 65.2523L71.5309 65.4824L70.5208 65.7124L73.845 87.8463L74.8551 87.6163ZM71.5309 65.4824L71.7808 64.5141L63.8682 63.3349L63.6183 64.3031L63.3683 65.2714L71.2809 66.4506L71.5309 65.4824ZM63.6183 64.3031L62.6292 64.1557L57.2496 84.9925L58.2386 85.1399L59.2277 85.2873L64.6073 64.4505L63.6183 64.3031ZM58.2386 85.1399L58.4886 84.1716L46.3032 82.3556L46.0532 83.3239L45.8032 84.2921L57.9887 86.1081L58.2386 85.1399ZM66.3781 53.6137L66.1281 54.5819L76.1771 56.0795L76.4271 55.1113L76.6771 54.143L66.628 52.6454L66.3781 53.6137ZM76.4271 55.1113L76.1771 56.0795C78.5369 56.4312 80.7529 56.1844 82.5668 55.1919C84.4141 54.1811 85.6934 52.4794 86.2756 50.2242L85.2866 50.0768L84.2975 49.9294C83.8398 51.7022 82.9048 52.8478 81.6902 53.5124C80.4421 54.1953 78.7483 54.4517 76.6771 54.143L76.4271 55.1113ZM85.2866 50.0768L86.2756 50.2242C86.857 47.9725 86.514 46.1305 85.3091 44.779C84.1413 43.469 82.2782 42.7508 80.1125 42.4281L79.8625 43.3963L79.6125 44.3646C81.5614 44.655 82.9302 45.2631 83.7058 46.1331C84.4443 46.9615 84.7561 48.1532 84.2975 49.9294L85.2866 50.0768ZM79.8625 43.3963L80.1125 42.4281L69.6678 40.8715L69.4178 41.8397L69.1678 42.808L79.6125 44.3646L79.8625 43.3963ZM69.4178 41.8397L68.4288 41.6923L65.389 53.4663L66.3781 53.6137L67.3671 53.7611L70.4069 41.9871L69.4178 41.8397ZM92.783 68.8909L93.7721 69.0383L97.0518 56.3349L96.0628 56.1875L95.0737 56.0401L91.7939 68.7435L92.783 68.8909ZM96.0628 56.1875L97.0518 56.3349C98.4427 50.9476 101.415 46.196 105.694 43.0507C109.952 39.9197 115.605 38.3059 122.517 39.3361L122.767 38.3679L123.017 37.3996C115.608 36.2955 109.348 38.0143 104.555 41.5382C99.7813 45.0477 96.5626 50.2731 95.0737 56.0401L96.0628 56.1875ZM122.767 38.3679L122.517 39.3361C128.93 40.2918 133.512 43.2005 136.131 47.257C138.754 51.3177 139.463 56.6093 137.96 62.4314L138.949 62.5788L139.938 62.7262C141.555 56.4646 140.82 50.6413 137.895 46.1127C134.967 41.58 129.898 38.425 123.017 37.3996L122.767 38.3679ZM138.949 62.5788L137.96 62.4314L134.68 75.1349L135.669 75.2823L136.658 75.4297L139.938 62.7262L138.949 62.5788ZM135.669 75.2823L134.68 75.1349C133.076 81.3495 129.723 86.0472 125.281 88.9676C120.837 91.8887 115.191 93.1047 108.878 92.1639L108.628 93.1321L108.378 94.1004C115.121 95.1053 121.336 93.8255 126.319 90.5499C131.303 87.2735 134.943 82.0734 136.658 75.4297L135.669 75.2823ZM108.628 93.1321L108.878 92.1639C101.966 91.1337 97.5352 88.0174 95.1513 83.8872C92.7565 79.738 92.3708 74.4658 93.7721 69.0383L92.783 68.8909L91.7939 68.7435C90.2954 74.5477 90.6715 80.329 93.3438 84.9588C96.0271 89.6077 100.969 92.9962 108.378 94.1004L108.628 93.1321ZM123.027 74.283L124.016 74.4304L127.795 59.7904L126.806 59.643L125.817 59.4956L122.038 74.1356L123.027 74.283ZM126.806 59.643L127.795 59.7904C128.464 57.2004 128.159 54.6236 126.845 52.5638C125.525 50.4956 123.229 49.0146 120.058 48.5421L119.808 49.5103L119.558 50.4786C122.243 50.8787 124.056 52.1015 125.076 53.7002C126.102 55.3073 126.368 57.3606 125.817 59.4956L126.806 59.643ZM119.808 49.5103L120.058 48.5421C116.752 48.0493 113.931 48.8618 111.774 50.4735C109.639 52.0683 108.238 54.3815 107.618 56.7834L108.607 56.9308L109.596 57.0782C110.116 55.0649 111.269 53.2139 112.927 51.9753C114.562 50.7535 116.772 50.0634 119.558 50.4786L119.808 49.5103ZM108.607 56.9308L107.618 56.7834L103.838 71.4233L104.828 71.5708L105.817 71.7182L109.596 57.0782L108.607 56.9308ZM104.828 71.5708L103.838 71.4233C103.191 73.9302 103.312 76.5483 104.48 78.6886C105.661 80.8537 107.866 82.4406 111.179 82.9343L111.429 81.9661L111.679 80.9978C108.899 80.5836 107.204 79.2966 106.307 77.653C105.397 75.9845 105.264 73.8589 105.817 71.7182L104.828 71.5708ZM111.429 81.9661L111.179 82.9343C114.345 83.4061 117.207 82.717 119.472 81.1434C121.729 79.5761 123.302 77.1962 124.016 74.4304L123.027 74.283L122.038 74.1356C121.432 76.4821 120.133 78.3801 118.385 79.5944C116.645 80.8024 114.369 81.3987 111.679 80.9978L111.429 81.9661ZM124.512 87.9379L123.998 87.1434L123.243 87.634L123.563 88.3819L124.512 87.9379ZM134.682 81.3291L135.579 80.7815L135.077 79.9437L134.168 80.5345L134.682 81.3291ZM159.855 44.2973L160.105 43.3291L159.116 43.1817L158.866 44.1499L159.855 44.2973ZM171.883 46.0897L172.872 46.2372L173.122 45.2689L172.132 45.1215L171.883 46.0897ZM124.512 87.9379L125.026 88.7325L135.196 82.1236L134.682 81.3291L134.168 80.5345L123.998 87.1434L124.512 87.9379ZM134.682 81.3291L133.785 81.8766C135.881 85.3771 138.607 87.2633 141.186 87.6476L141.436 86.6793L141.686 85.7111C139.833 85.435 137.502 83.9934 135.579 80.7815L134.682 81.3291ZM141.436 86.6793L141.186 87.6476C142.71 87.8748 144.837 87.8951 146.851 86.8892C148.927 85.8529 150.675 83.8348 151.565 80.3862L150.576 80.2388L149.587 80.0914C148.817 83.072 147.42 84.4864 146.052 85.1692C144.624 85.8824 143.01 85.9084 141.686 85.7111L141.436 86.6793ZM150.576 80.2388L151.565 80.3862L160.844 44.4447L159.855 44.2973L158.866 44.1499L149.587 80.0914L150.576 80.2388ZM159.855 44.2973L159.605 45.2656L171.633 47.058L171.883 46.0897L172.132 45.1215L160.105 43.3291L159.855 44.2973ZM171.883 46.0897L170.893 45.9423L161.474 82.426L162.463 82.5734L163.452 82.7208L172.872 46.2372L171.883 46.0897ZM162.463 82.5734L161.474 82.426C159.76 89.067 156.572 92.8982 152.794 94.9449C148.971 97.0154 144.345 97.3691 139.598 96.6616L139.348 97.6299L139.098 98.5981C144.083 99.3411 149.245 99.0217 153.662 96.6291C158.123 94.2125 161.627 89.7903 163.452 82.7208L162.463 82.5734ZM139.348 97.6299L139.598 96.6616C133.262 95.7173 128.004 93.4489 125.462 87.494L124.512 87.9379L123.563 88.3819C126.448 95.1411 132.458 97.6085 139.098 98.5981L139.348 97.6299ZM160.554 100.388L159.565 100.241L159.315 101.209L160.304 101.356L160.554 100.388ZM174.473 46.4759L174.723 45.5076L173.734 45.3602L173.484 46.3284L174.473 46.4759ZM213.403 52.2776L214.392 52.425L214.642 51.4568L213.653 51.3094L213.403 52.2776ZM210.644 62.9671L210.394 63.9354L211.383 64.0828L211.633 63.1145L210.644 62.9671ZM183.899 58.9813L184.149 58.0131L183.16 57.8657L182.91 58.8339L183.899 58.9813ZM181.079 69.9032L180.09 69.7558L179.84 70.7241L180.829 70.8715L181.079 69.9032ZM203.867 73.2994L204.857 73.4468L205.106 72.4785L204.117 72.3311L203.867 73.2994ZM201.208 83.6015L200.958 84.5698L201.947 84.7172L202.197 83.7489L201.208 83.6015ZM178.419 80.2054L178.669 79.2371L177.68 79.0897L177.43 80.058L178.419 80.2054ZM175.5 91.5146L174.51 91.3672L174.26 92.3354L175.25 92.4828L175.5 91.5146ZM202.244 95.5003L203.233 95.6477L203.483 94.6795L202.494 94.5321L202.244 95.5003ZM199.484 106.19L199.234 107.158L200.223 107.305L200.473 106.337L199.484 106.19ZM160.554 100.388L161.543 100.535L175.462 46.6233L174.473 46.4759L173.484 46.3284L159.565 100.241L160.554 100.388ZM174.473 46.4759L174.223 47.4441L213.153 53.2459L213.403 52.2776L213.653 51.3094L174.723 45.5076L174.473 46.4759ZM213.403 52.2776L212.414 52.1302L209.654 62.8197L210.644 62.9671L211.633 63.1145L214.392 52.425L213.403 52.2776ZM210.644 62.9671L210.894 61.9989L184.149 58.0131L183.899 58.9813L183.649 59.9496L210.394 63.9354L210.644 62.9671ZM183.899 58.9813L182.91 58.8339L180.09 69.7558L181.079 69.9032L182.068 70.0506L184.888 59.1287L183.899 58.9813ZM181.079 69.9032L180.829 70.8715L203.617 74.2676L203.867 73.2994L204.117 72.3311L181.329 68.935L181.079 69.9032ZM203.867 73.2994L202.878 73.152L200.219 83.4541L201.208 83.6015L202.197 83.7489L204.857 73.4468L203.867 73.2994ZM201.208 83.6015L201.458 82.6333L178.669 79.2371L178.419 80.2054L178.169 81.1736L200.958 84.5698L201.208 83.6015ZM178.419 80.2054L177.43 80.058L174.51 91.3672L175.5 91.5146L176.489 91.662L179.408 80.3528L178.419 80.2054ZM175.5 91.5146L175.25 92.4828L201.994 96.4686L202.244 95.5003L202.494 94.5321L175.749 90.5463L175.5 91.5146ZM202.244 95.5003L201.255 95.3529L198.495 106.042L199.484 106.19L200.473 106.337L203.233 95.6477L202.244 95.5003ZM199.484 106.19L199.734 105.222L160.804 99.4198L160.554 100.388L160.304 101.356L199.234 107.158L199.484 106.19ZM249.207 71.4492L249.303 72.4108L250.287 72.2306L250.225 71.2938L249.207 71.4492ZM236.615 73.7555L235.595 73.8281L235.569 74.9262L236.711 74.7171L236.615 73.7555ZM231.675 92.8881L232.263 92.0369L231.289 91.4716L230.761 92.5399L231.675 92.8881ZM242.108 98.9475L242.977 99.3766L243.477 98.5507L242.695 98.0963L242.108 98.9475ZM202.269 85.2076L203.258 85.355L206.538 72.6516L205.549 72.5042L204.56 72.3568L201.28 85.0602L202.269 85.2076ZM205.549 72.5042L206.538 72.6516C207.929 67.2643 210.901 62.5127 215.179 59.3674C219.438 56.2364 225.09 54.6226 232.003 55.6529L232.253 54.6846L232.503 53.7164C225.094 52.6122 218.834 54.3311 214.041 57.8549C209.267 61.3644 206.048 66.5898 204.56 72.3568L205.549 72.5042ZM232.253 54.6846L232.003 55.6529C242.045 57.1494 247.648 63.4391 248.189 71.6046L249.207 71.4492L250.225 71.2938C249.625 62.2359 243.351 55.3329 232.503 53.7164L232.253 54.6846ZM249.207 71.4492L249.111 70.4876L236.518 72.7939L236.615 73.7555L236.711 74.7171L249.303 72.4108L249.207 71.4492ZM236.615 73.7555L237.635 73.6829C237.735 69.3751 234.986 65.6697 229.544 64.8588L229.294 65.8271L229.044 66.7953C233.573 67.4702 235.674 70.4403 235.595 73.8281L236.615 73.7555ZM229.294 65.8271L229.544 64.8588C226.238 64.366 223.417 65.1785 221.26 66.7902C219.125 68.385 217.724 70.6982 217.104 73.1001L218.093 73.2475L219.082 73.3949C219.602 71.3816 220.755 69.5306 222.413 68.292C224.048 67.0702 226.258 66.3801 229.044 66.7953L229.294 65.8271ZM218.093 73.2475L217.104 73.1001L213.324 87.7401L214.313 87.8875L215.302 88.0349L219.082 73.3949L218.093 73.2475ZM214.313 87.8875L213.324 87.7401C212.677 90.2469 212.798 92.865 213.966 95.0053C215.146 97.1705 217.352 98.7573 220.665 99.2511L220.915 98.2828L221.165 97.3146C218.385 96.9003 216.69 95.6133 215.793 93.9697C214.883 92.3012 214.75 90.1757 215.302 88.0349L214.313 87.8875ZM220.915 98.2828L220.665 99.2511C226.022 100.049 230.479 97.5014 232.589 93.2363L231.675 92.8881L230.761 92.5399C229.09 95.9163 225.619 97.9784 221.165 97.3146L220.915 98.2828ZM231.675 92.8881L231.087 93.7393L241.52 99.7988L242.108 98.9475L242.695 98.0963L232.263 92.0369L231.675 92.8881ZM242.108 98.9475L241.238 98.5185C236.632 106.124 228.279 109.958 218.364 108.481L218.114 109.449L217.864 110.417C228.522 112.005 237.843 107.856 242.977 99.3766L242.108 98.9475ZM218.114 109.449L218.364 108.481C211.416 107.445 206.928 104.578 204.524 100.596C202.111 96.6003 201.712 91.3419 203.258 85.355L202.269 85.2076L201.28 85.0602C199.646 91.3895 200.009 97.1845 202.733 101.697C205.466 106.223 210.49 109.318 217.864 110.417L218.114 109.449ZM248.588 113.508L247.599 113.36L247.349 114.329L248.338 114.476L248.588 113.508ZM259.747 70.285L260.736 70.4324L260.986 69.4641L259.997 69.3167L259.747 70.285ZM244.713 68.0445L243.724 67.8971L243.474 68.8653L244.463 69.0127L244.713 68.0445ZM247.473 57.355L247.723 56.3867L246.734 56.2393L246.484 57.2076L247.473 57.355ZM289.647 63.6402L290.636 63.7876L290.886 62.8194L289.897 62.672L289.647 63.6402ZM286.887 74.3297L286.637 75.298L287.626 75.4454L287.876 74.4771L286.887 74.3297ZM271.853 72.0892L272.103 71.1209L271.114 70.9735L270.864 71.9418L271.853 72.0892ZM260.694 115.312L260.444 116.28L261.433 116.428L261.683 115.459L260.694 115.312ZM248.588 113.508L249.577 113.655L260.736 70.4324L259.747 70.285L258.758 70.1376L247.599 113.36L248.588 113.508ZM259.747 70.285L259.997 69.3167L244.963 67.0762L244.713 68.0445L244.463 69.0127L259.497 71.2532L259.747 70.285ZM244.713 68.0445L245.702 68.1919L248.462 57.5024L247.473 57.355L246.484 57.2076L243.724 67.8971L244.713 68.0445ZM247.473 57.355L247.223 58.3232L289.397 64.6085L289.647 63.6402L289.897 62.672L247.723 56.3867L247.473 57.355ZM289.647 63.6402L288.658 63.4928L285.898 74.1823L286.887 74.3297L287.876 74.4771L290.636 63.7876L289.647 63.6402ZM286.887 74.3297L287.137 73.3615L272.103 71.1209L271.853 72.0892L271.603 73.0574L286.637 75.298L286.887 74.3297ZM271.853 72.0892L270.864 71.9418L259.705 115.165L260.694 115.312L261.683 115.459L272.842 72.2366L271.853 72.0892ZM260.694 115.312L260.944 114.344L248.838 112.539L248.588 113.508L248.338 114.476L260.444 116.28L260.694 115.312ZM271.409 109.669L270.769 108.968L270.032 109.603L270.567 110.298L271.409 109.669ZM280.811 101.578L281.656 100.954L281.035 100.134L280.171 100.878L280.811 101.578ZM299.104 98.5129L298.759 99.462L298.762 99.4628L299.104 98.5129ZM324.443 73.5719L325.174 74.1836L325.843 73.4643L325.197 72.8459L324.443 73.5719ZM316.365 82.2622L315.623 82.9999L316.354 83.6726L317.097 82.8739L316.365 82.2622ZM305.267 88.0088L305.667 87.075L305.667 87.075L305.267 88.0088ZM271.409 109.669L272.048 110.37L281.45 102.279L280.811 101.578L280.171 100.878L270.769 108.968L271.409 109.669ZM280.811 101.578L279.966 102.203C284.127 107.697 289.376 109.732 295.163 110.595L295.413 109.627L295.663 108.658C290.214 107.846 285.461 105.978 281.656 100.954L280.811 101.578ZM295.413 109.627L295.163 110.595C297.962 111.012 300.423 110.7 302.334 109.82C304.26 108.934 305.627 107.463 306.091 105.668L305.101 105.52L304.112 105.373C303.836 106.443 303.009 107.421 301.601 108.069C300.18 108.723 298.166 109.031 295.663 108.658L295.413 109.627ZM305.101 105.52L306.091 105.668C306.454 104.259 306.645 102.597 305.676 101.067C304.725 99.566 302.784 98.3914 299.447 97.563L299.104 98.5129L298.762 99.4628C301.911 100.245 303.308 101.257 303.905 102.198C304.483 103.111 304.429 104.148 304.112 105.373L305.101 105.52ZM299.104 98.5129L299.45 97.5638C294.388 96.2895 289.761 94.5704 286.774 91.7788C283.857 89.0521 282.44 85.2428 283.918 79.518L282.929 79.3706L281.94 79.2232C280.298 85.5822 281.876 90.0622 285.28 93.2449C288.616 96.3626 293.636 98.1727 298.759 99.462L299.104 98.5129ZM282.929 79.3706L283.918 79.518C285.316 74.1012 288.671 70.5885 292.73 68.56C296.827 66.5128 301.69 65.958 306.028 66.6043L306.278 65.6361L306.528 64.6678C301.845 63.9699 296.513 64.5503 291.93 66.8404C287.31 69.1492 283.501 73.1759 281.94 79.2232L282.929 79.3706ZM306.278 65.6361L306.028 66.6043C312.64 67.5898 318.995 69.8036 323.688 74.2978L324.443 73.5719L325.197 72.8459C320.14 68.0038 313.367 65.6871 306.528 64.6678L306.278 65.6361ZM324.443 73.5719L323.711 72.9602L315.633 81.6505L316.365 82.2622L317.097 82.8739L325.174 74.1836L324.443 73.5719ZM316.365 82.2622L317.107 81.5245C312.532 77.3159 307.034 76.0854 304.024 75.6369L303.774 76.6051L303.524 77.5734C306.37 77.9975 311.433 79.1453 315.623 82.9999L316.365 82.2622ZM303.774 76.6051L304.024 75.6369C300.87 75.1668 298.572 75.6049 296.942 76.6256C295.303 77.6518 294.532 79.1453 294.206 80.4077L295.195 80.5551L296.184 80.7025C296.418 79.7961 296.93 78.8665 297.937 78.2359C298.953 77.5997 300.665 77.1472 303.524 77.5734L303.774 76.6051ZM295.195 80.5551L294.206 80.4077C293.957 81.3716 293.9 82.2903 294.196 83.1554C294.492 84.0206 295.103 84.7199 295.967 85.3352C297.641 86.5277 300.533 87.5784 304.867 88.9426L305.267 88.0088L305.667 87.075C301.263 85.6889 298.678 84.7169 297.281 83.7222C296.609 83.2439 296.285 82.8085 296.141 82.3864C295.996 81.9641 295.993 81.4427 296.184 80.7025L295.195 80.5551ZM305.267 88.0088L304.867 88.9426C309.173 90.2975 312.895 92.1621 315.209 94.9251C317.484 97.6402 318.473 101.311 317.131 106.508L318.12 106.656L319.109 106.803C320.587 101.078 319.52 96.8014 316.847 93.611C314.215 90.4685 310.102 88.4705 305.667 87.075L305.267 88.0088ZM318.12 106.656L317.131 106.508C315.772 111.77 312.185 115.371 307.618 117.494C303.019 119.632 297.426 120.263 292.21 119.486L291.96 120.454L291.71 121.422C297.256 122.249 303.293 121.597 308.359 119.242C313.456 116.873 317.568 112.773 319.109 106.803L318.12 106.656ZM291.96 120.454L292.21 119.486C284.892 118.395 277.711 116.141 272.25 109.04L271.409 109.669L270.567 110.298C276.425 117.915 284.153 120.296 291.71 121.422L291.96 120.454Z" fill="white" mask="url(#path-2-outside-1_370_437)"/>
</svg>
