<svg width="347" height="183" viewBox="0 0 347 183" fill="none" xmlns="http://www.w3.org/2000/svg">
<rect width="209.407" height="66.6004" transform="matrix(0.98913 0.147047 -0.33308 0.942899 70.55 12.2576)" fill="#D3A7E0"/>
<path d="M20.8509 77.3172L34.7699 23.4051L46.9553 25.2211L41.3757 46.8324L59.4165 49.521L64.996 27.9097L77.0232 29.7021L63.1042 83.6143L51.0771 81.8219L56.7567 59.8232L38.7159 57.1346L33.0363 79.1332L20.8509 77.3172ZM69.2806 63.1376L72.5604 50.4341C75.4402 39.2799 84.9431 30.4802 99.2649 32.6146C112.558 34.5957 118.567 44.7418 115.447 56.8255L112.167 69.529C108.847 82.3873 98.1818 89.3245 85.126 87.3788C70.8041 85.2444 66.3808 74.3693 69.2806 63.1376ZM99.5242 68.5297L103.304 53.8897C104.524 49.1646 102.161 44.6297 96.306 43.757C90.2133 42.849 86.2448 46.7623 85.1049 51.1775L81.3252 65.8174C80.1253 70.4651 81.8339 75.3048 87.9266 76.2128C93.782 77.0854 98.2043 73.642 99.5242 68.5297ZM107.72 90.2633L121.639 36.3511L132.637 37.9903L136.035 54.7457L138.977 71.9961L139.293 72.0433L150.357 56.88L161.676 42.318L173.15 44.0279L159.231 97.9401L147.124 96.1358L153.744 70.4966L153.527 70.3837L145.722 80.5627L140.043 87.5995L130.706 86.2081L128.889 77.6519L126.782 66.398L126.485 66.595L119.905 92.0793L107.72 90.2633ZM161.702 98.3083L175.621 44.3961L214.551 50.1979L211.791 60.8873L185.046 56.9016L182.226 67.8234L205.015 71.2196L202.355 81.5218L179.567 78.1256L176.647 89.4348L203.391 93.4206L200.632 104.11L161.702 98.3083Z" fill="white"/>
</svg>
