<svg width="352" height="184" viewBox="0 0 352 184" fill="none" xmlns="http://www.w3.org/2000/svg">
<rect width="247.999" height="68.8148" transform="matrix(0.98913 0.147047 -0.33308 0.942899 22.9208 0)" fill="#D3A7E0"/>
<mask id="path-2-outside-1_370_435" maskUnits="userSpaceOnUse" x="17.5153" y="21.7638" width="233.585" height="90.671" fill="black">
<rect fill="white" x="17.5153" y="21.7638" width="233.585" height="90.671"/>
<path d="M19.8351 78.1935L55.1182 27.4653L64.6924 28.8921L72.1375 85.9882L59.3191 84.0779L58.0443 72.4653L39.6079 69.7178L32.6536 80.1039L19.8351 78.1935ZM46.0058 60.214L56.8461 61.8295L56.3887 55.3261L55.9043 44.1531L55.5878 44.106L49.703 54.1688L46.0058 60.214ZM69.8552 85.6481L83.7742 31.7359L106.958 35.191C118.669 36.9362 123.537 44.1775 121.217 53.1628C120.218 57.0358 117.179 61.168 111.614 62.6715L111.534 62.9813C116.059 65.5058 117.368 71.5731 116.248 75.9109C113.748 85.5934 104.196 90.7659 94.9382 89.3862L69.8552 85.6481ZM84.8004 76.7746L95.166 78.3194C100.309 79.0858 103.086 76.6039 103.886 73.5055C104.666 70.4845 103.389 67.157 98.2457 66.3905L87.8802 64.8457L84.8004 76.7746ZM90.42 55.0083L99.7569 56.3998C104.821 57.1545 107.42 54.7264 108.18 51.7829C108.94 48.8394 107.601 46.3875 102.537 45.6328L93.1998 44.2414L90.42 55.0083ZM115.349 71.0308L118.628 58.3274C121.508 47.1731 131.011 38.3734 145.333 40.5078C158.626 42.4889 164.635 52.635 161.515 64.7187L158.235 77.4222C154.915 90.2806 144.25 97.2178 131.194 95.272C116.872 93.1377 112.449 82.2625 115.349 71.0308ZM145.592 76.4229L149.372 61.7829C150.592 57.0579 148.229 52.5229 142.374 51.6502C136.281 50.7422 132.313 54.6555 131.173 59.0707L127.393 73.7107C126.193 78.3583 127.902 83.198 133.995 84.106C139.85 84.9786 144.272 81.5352 145.592 76.4229ZM157.878 78.4951L166.757 44.1029L178.863 45.9071L170.204 79.4473C168.624 85.5666 171.898 89.7547 177.041 90.5212C182.343 91.3113 187.079 88.88 188.619 82.9156L197.458 48.6782L209.643 50.4942L200.584 85.5836C197.604 97.1252 185.971 103.355 174.181 101.598C162.312 99.8292 154.778 90.5014 157.878 78.4951ZM208.007 106.237L219.166 63.0142L204.132 60.7737L206.892 50.0842L249.066 56.3694L246.306 67.0589L231.272 64.8184L220.113 108.041L208.007 106.237Z"/>
</mask>
<path d="M19.8351 78.1935L55.1182 27.4653L64.6924 28.8921L72.1375 85.9882L59.3191 84.0779L58.0443 72.4653L39.6079 69.7178L32.6536 80.1039L19.8351 78.1935ZM46.0058 60.214L56.8461 61.8295L56.3887 55.3261L55.9043 44.1531L55.5878 44.106L49.703 54.1688L46.0058 60.214ZM69.8552 85.6481L83.7742 31.7359L106.958 35.191C118.669 36.9362 123.537 44.1775 121.217 53.1628C120.218 57.0358 117.179 61.168 111.614 62.6715L111.534 62.9813C116.059 65.5058 117.368 71.5731 116.248 75.9109C113.748 85.5934 104.196 90.7659 94.9382 89.3862L69.8552 85.6481ZM84.8004 76.7746L95.166 78.3194C100.309 79.0858 103.086 76.6039 103.886 73.5055C104.666 70.4845 103.389 67.157 98.2457 66.3905L87.8802 64.8457L84.8004 76.7746ZM90.42 55.0083L99.7569 56.3998C104.821 57.1545 107.42 54.7264 108.18 51.7829C108.94 48.8394 107.601 46.3875 102.537 45.6328L93.1998 44.2414L90.42 55.0083ZM115.349 71.0308L118.628 58.3274C121.508 47.1731 131.011 38.3734 145.333 40.5078C158.626 42.4889 164.635 52.635 161.515 64.7187L158.235 77.4222C154.915 90.2806 144.25 97.2178 131.194 95.272C116.872 93.1377 112.449 82.2625 115.349 71.0308ZM145.592 76.4229L149.372 61.7829C150.592 57.0579 148.229 52.5229 142.374 51.6502C136.281 50.7422 132.313 54.6555 131.173 59.0707L127.393 73.7107C126.193 78.3583 127.902 83.198 133.995 84.106C139.85 84.9786 144.272 81.5352 145.592 76.4229ZM157.878 78.4951L166.757 44.1029L178.863 45.9071L170.204 79.4473C168.624 85.5666 171.898 89.7547 177.041 90.5212C182.343 91.3113 187.079 88.88 188.619 82.9156L197.458 48.6782L209.643 50.4942L200.584 85.5836C197.604 97.1252 185.971 103.355 174.181 101.598C162.312 99.8292 154.778 90.5014 157.878 78.4951ZM208.007 106.237L219.166 63.0142L204.132 60.7737L206.892 50.0842L249.066 56.3694L246.306 67.0589L231.272 64.8184L220.113 108.041L208.007 106.237Z" fill="white"/>
<path d="M19.8351 78.1935L19.0034 77.7059L18.1406 78.9465L19.5852 79.1618L19.8351 78.1935ZM55.1182 27.4653L55.3682 26.497L54.691 26.3961L54.2865 26.9776L55.1182 27.4653ZM64.6924 28.8921L65.705 28.6793L65.6196 28.0248L64.9424 27.9239L64.6924 28.8921ZM72.1375 85.9882L71.8875 86.9564L73.3321 87.1717L73.1501 85.7754L72.1375 85.9882ZM59.3191 84.0779L58.3044 84.2724L58.378 84.9431L59.0691 85.0461L59.3191 84.0779ZM58.0443 72.4653L59.059 72.2708L58.9854 71.6001L58.2943 71.4971L58.0443 72.4653ZM39.6079 69.7178L39.8579 68.7495L39.1668 68.6465L38.7651 69.2464L39.6079 69.7178ZM32.6536 80.1039L32.4036 81.0721L33.0947 81.1751L33.4964 80.5752L32.6536 80.1039ZM46.0058 60.214L45.1385 59.7808L44.4046 60.9809L45.7558 61.1822L46.0058 60.214ZM56.8461 61.8295L56.5961 62.7978L57.9575 63.0007L57.864 61.6704L56.8461 61.8295ZM56.3887 55.3261L55.3694 55.4606L55.3699 55.4729L55.3708 55.4852L56.3887 55.3261ZM55.9043 44.1531L56.9236 44.0187L56.8922 43.2949L56.1543 43.1849L55.9043 44.1531ZM55.5878 44.106L55.8378 43.1377L55.0977 43.0274L54.7094 43.6913L55.5878 44.106ZM49.703 54.1688L50.5702 54.602L50.5759 54.5928L50.5813 54.5835L49.703 54.1688ZM19.8351 78.1935L20.6669 78.6812L55.9499 27.9529L55.1182 27.4653L54.2865 26.9776L19.0034 77.7059L19.8351 78.1935ZM55.1182 27.4653L54.8682 28.4335L64.4425 29.8604L64.6924 28.8921L64.9424 27.9239L55.3682 26.497L55.1182 27.4653ZM64.6924 28.8921L63.6799 29.1049L71.125 86.201L72.1375 85.9882L73.1501 85.7754L65.705 28.6793L64.6924 28.8921ZM72.1375 85.9882L72.3875 85.0199L59.5691 83.1096L59.3191 84.0779L59.0691 85.0461L71.8875 86.9564L72.1375 85.9882ZM59.3191 84.0779L60.3338 83.8833L59.059 72.2708L58.0443 72.4653L57.0296 72.6599L58.3044 84.2724L59.3191 84.0779ZM58.0443 72.4653L58.2943 71.4971L39.8579 68.7495L39.6079 69.7178L39.3579 70.686L57.7943 73.4336L58.0443 72.4653ZM39.6079 69.7178L38.7651 69.2464L31.8108 79.6325L32.6536 80.1039L33.4964 80.5752L40.4507 70.1891L39.6079 69.7178ZM32.6536 80.1039L32.9036 79.1356L20.0851 77.2253L19.8351 78.1935L19.5852 79.1618L32.4036 81.0721L32.6536 80.1039ZM46.0058 60.214L45.7558 61.1822L56.5961 62.7978L56.8461 61.8295L57.0961 60.8613L46.2558 59.2457L46.0058 60.214ZM56.8461 61.8295L57.864 61.6704L57.4066 55.167L56.3887 55.3261L55.3708 55.4852L55.8282 61.9886L56.8461 61.8295ZM56.3887 55.3261L57.408 55.1916L56.9236 44.0187L55.9043 44.1531L54.885 44.2876L55.3694 55.4606L56.3887 55.3261ZM55.9043 44.1531L56.1543 43.1849L55.8378 43.1377L55.5878 44.106L55.3378 45.0742L55.6543 45.1214L55.9043 44.1531ZM55.5878 44.106L54.7094 43.6913L48.8246 53.7542L49.703 54.1688L50.5813 54.5835L56.4661 44.5206L55.5878 44.106ZM49.703 54.1688L48.8357 53.7357L45.1385 59.7808L46.0058 60.214L46.8731 60.6471L50.5702 54.602L49.703 54.1688ZM69.8552 85.6481L68.8661 85.5007L68.6162 86.4689L69.6052 86.6163L69.8552 85.6481ZM83.7742 31.7359L84.0242 30.7676L83.0351 30.6202L82.7851 31.5885L83.7742 31.7359ZM111.614 62.6715L111.427 61.7303L110.785 61.9039L110.625 62.5241L111.614 62.6715ZM111.534 62.9813L110.545 62.8339L110.37 63.5112L110.96 63.8403L111.534 62.9813ZM84.8004 76.7746L83.8114 76.6272L83.5614 77.5954L84.5505 77.7428L84.8004 76.7746ZM87.8802 64.8457L88.1302 63.8775L87.1411 63.7301L86.8911 64.6983L87.8802 64.8457ZM90.42 55.0083L89.431 54.8609L89.181 55.8291L90.1701 55.9766L90.42 55.0083ZM93.1998 44.2414L93.4498 43.2731L92.4607 43.1257L92.2108 44.094L93.1998 44.2414ZM69.8552 85.6481L70.8443 85.7955L84.7633 31.8833L83.7742 31.7359L82.7851 31.5885L68.8661 85.5007L69.8552 85.6481ZM83.7742 31.7359L83.5242 32.7041L106.708 36.1592L106.958 35.191L107.208 34.2227L84.0242 30.7676L83.7742 31.7359ZM106.958 35.191L106.708 36.1592C112.388 37.0057 116.289 39.1658 118.505 42.0867C120.712 44.9961 121.326 48.7621 120.228 53.0154L121.217 53.1628L122.207 53.3102C123.428 48.5782 122.769 44.2308 120.194 40.837C117.628 37.4547 113.239 35.1215 107.208 34.2227L106.958 35.191ZM121.217 53.1628L120.228 53.0154C119.306 56.5863 116.528 60.3524 111.427 61.7303L111.614 62.6715L111.8 63.6126C117.83 61.9837 121.129 57.4853 122.207 53.3102L121.217 53.1628ZM111.614 62.6715L110.625 62.5241L110.545 62.8339L111.534 62.9813L112.523 63.1287L112.603 62.8189L111.614 62.6715ZM111.534 62.9813L110.96 63.8403C112.981 64.9683 114.325 66.9123 115.029 69.1319C115.734 71.3551 115.771 73.7795 115.259 75.7635L116.248 75.9109L117.237 76.0583C117.845 73.7045 117.788 70.9264 116.986 68.4003C116.184 65.8707 114.611 63.5188 112.108 62.1223L111.534 62.9813ZM116.248 75.9109L115.259 75.7635C112.919 84.8289 103.988 89.7293 95.1882 88.4179L94.9382 89.3862L94.6882 90.3544C104.404 91.8024 114.578 86.3578 117.237 76.0583L116.248 75.9109ZM94.9382 89.3862L95.1882 88.4179L70.1052 84.6798L69.8552 85.6481L69.6052 86.6163L94.6882 90.3544L94.9382 89.3862ZM84.8004 76.7746L84.5505 77.7428L94.916 79.2876L95.166 78.3194L95.4159 77.3511L85.0504 75.8063L84.8004 76.7746ZM95.166 78.3194L94.916 79.2876C97.6684 79.6978 99.9336 79.2575 101.658 78.1631C103.383 77.0685 104.421 75.4116 104.875 73.6529L103.886 73.5055L102.897 73.3581C102.551 74.6977 101.801 75.8311 100.652 76.5604C99.5017 77.29 97.8068 77.7074 95.4159 77.3511L95.166 78.3194ZM103.886 73.5055L104.875 73.6529C105.32 71.9313 105.19 70.0712 104.163 68.5221C103.132 66.9646 101.27 65.8357 98.4957 65.4223L98.2457 66.3905L97.9958 67.3588C100.364 67.7118 101.713 68.6299 102.411 69.683C103.114 70.7446 103.233 72.0587 102.897 73.3581L103.886 73.5055ZM98.2457 66.3905L98.4957 65.4223L88.1302 63.8775L87.8802 64.8457L87.6302 65.814L97.9958 67.3588L98.2457 66.3905ZM87.8802 64.8457L86.8911 64.6983L83.8114 76.6272L84.8004 76.7746L85.7895 76.922L88.8693 64.9931L87.8802 64.8457ZM90.42 55.0083L90.1701 55.9766L99.5069 57.368L99.7569 56.3998L100.007 55.4315L90.67 54.0401L90.42 55.0083ZM99.7569 56.3998L99.5069 57.368C102.217 57.7718 104.42 57.3441 106.089 56.2775C107.758 55.2109 108.737 53.604 109.169 51.9303L108.18 51.7829L107.191 51.6355C106.863 52.9053 106.163 53.9842 105.076 54.6789C103.989 55.3734 102.361 55.7824 100.007 55.4315L99.7569 56.3998ZM108.18 51.7829L109.169 51.9303C109.604 50.2459 109.46 48.583 108.37 47.2402C107.303 45.9257 105.443 45.0604 102.787 44.6646L102.537 45.6328L102.287 46.6011C104.695 46.9599 106.036 47.698 106.715 48.534C107.371 49.3417 107.516 50.3765 107.191 51.6355L108.18 51.7829ZM102.537 45.6328L102.787 44.6646L93.4498 43.2731L93.1998 44.2414L92.9498 45.2096L102.287 46.6011L102.537 45.6328ZM93.1998 44.2414L92.2108 44.094L89.431 54.8609L90.42 55.0083L91.4091 55.1557L94.1889 44.3888L93.1998 44.2414ZM115.349 71.0308L116.338 71.1782L119.617 58.4748L118.628 58.3274L117.639 58.18L114.36 70.8834L115.349 71.0308ZM118.628 58.3274L119.617 58.4748C121.008 53.0875 123.981 48.3359 128.259 45.1906C132.518 42.0596 138.17 40.4458 145.083 41.476L145.333 40.5078L145.583 39.5395C138.174 38.4354 131.914 40.1542 127.121 43.6781C122.347 47.1876 119.128 52.413 117.639 58.18L118.628 58.3274ZM145.333 40.5078L145.083 41.476C151.496 42.4317 156.077 45.3404 158.697 49.3969C161.32 53.4576 162.029 58.7492 160.526 64.5713L161.515 64.7187L162.504 64.8661C164.12 58.6045 163.385 52.7812 160.46 48.2526C157.533 43.7199 152.463 40.565 145.583 39.5395L145.333 40.5078ZM161.515 64.7187L160.526 64.5713L157.246 77.2748L158.235 77.4222L159.224 77.5696L162.504 64.8661L161.515 64.7187ZM158.235 77.4222L157.246 77.2748C155.641 83.4894 152.289 88.1871 147.846 91.1075C143.403 94.0286 137.757 95.2446 131.444 94.3038L131.194 95.272L130.944 96.2403C137.687 97.2452 143.902 95.9654 148.885 92.6898C153.869 89.4134 157.509 84.2134 159.224 77.5696L158.235 77.4222ZM131.194 95.272L131.444 94.3038C124.531 93.2736 120.101 90.1573 117.717 86.0271C115.322 81.8779 114.936 76.6057 116.338 71.1782L115.349 71.0308L114.36 70.8834C112.861 76.6876 113.237 82.4689 115.909 87.0987C118.593 91.7477 123.535 95.1361 130.944 96.2403L131.194 95.272ZM145.592 76.4229L146.581 76.5703L150.361 61.9303L149.372 61.7829L148.383 61.6355L144.603 76.2755L145.592 76.4229ZM149.372 61.7829L150.361 61.9303C151.03 59.3403 150.725 56.7636 149.41 54.7037C148.09 52.6355 145.795 51.1546 142.624 50.682L142.374 51.6502L142.124 52.6185C144.809 53.0186 146.622 54.2414 147.642 55.8401C148.668 57.4472 148.934 59.5005 148.383 61.6355L149.372 61.7829ZM142.374 51.6502L142.624 50.682C139.317 50.1892 136.497 51.0017 134.34 52.6134C132.205 54.2082 130.804 56.5214 130.184 58.9233L131.173 59.0707L132.162 59.2181C132.682 57.2048 133.835 55.3538 135.493 54.1152C137.128 52.8934 139.338 52.2033 142.124 52.6185L142.374 51.6502ZM131.173 59.0707L130.184 58.9233L126.404 73.5633L127.393 73.7107L128.382 73.8581L132.162 59.2181L131.173 59.0707ZM127.393 73.7107L126.404 73.5633C125.757 76.0701 125.878 78.6882 127.045 80.8285C128.226 82.9936 130.431 84.5805 133.745 85.0743L133.995 84.106L134.245 83.1378C131.465 82.7235 129.77 81.4365 128.873 79.7929C127.963 78.1244 127.83 75.9989 128.382 73.8581L127.393 73.7107ZM133.995 84.106L133.745 85.0743C136.91 85.5461 139.772 84.857 142.038 83.2833C144.295 81.716 145.867 79.3361 146.581 76.5703L145.592 76.4229L144.603 76.2755C143.997 78.622 142.699 80.52 140.95 81.7343C139.211 82.9423 136.934 83.5386 134.245 83.1378L133.995 84.106ZM166.757 44.1029L167.007 43.1346L166.018 42.9872L165.768 43.9554L166.757 44.1029ZM178.863 45.9071L179.852 46.0545L180.102 45.0862L179.113 44.9388L178.863 45.9071ZM197.458 48.6782L197.708 47.71L196.719 47.5626L196.469 48.5308L197.458 48.6782ZM209.643 50.4942L210.633 50.6416L210.883 49.6734L209.893 49.526L209.643 50.4942ZM157.878 78.4951L158.867 78.6425L167.746 44.2503L166.757 44.1029L165.768 43.9554L156.889 78.3477L157.878 78.4951ZM166.757 44.1029L166.507 45.0711L178.613 46.8753L178.863 45.9071L179.113 44.9388L167.007 43.1346L166.757 44.1029ZM178.863 45.9071L177.874 45.7597L169.215 79.2999L170.204 79.4473L171.193 79.5947L179.852 46.0545L178.863 45.9071ZM170.204 79.4473L169.215 79.2999C168.367 82.584 168.806 85.43 170.225 87.572C171.641 89.7092 173.984 91.0711 176.791 91.4895L177.041 90.5212L177.291 89.553C174.955 89.2049 173.089 88.0895 171.978 86.4111C170.869 84.7376 170.461 82.4299 171.193 79.5947L170.204 79.4473ZM177.041 90.5212L176.791 91.4895C179.628 91.9123 182.414 91.4865 184.73 90.0613C187.061 88.6271 188.781 86.2642 189.608 83.063L188.619 82.9156L187.63 82.7682C186.916 85.5313 185.498 87.3664 183.751 88.4414C181.989 89.5254 179.756 89.9203 177.291 89.553L177.041 90.5212ZM188.619 82.9156L189.608 83.063L198.447 48.8256L197.458 48.6782L196.469 48.5308L187.63 82.7682L188.619 82.9156ZM197.458 48.6782L197.208 49.6465L209.393 51.4625L209.643 50.4942L209.893 49.526L197.708 47.71L197.458 48.6782ZM209.643 50.4942L208.654 50.3468L199.595 85.4362L200.584 85.5836L201.573 85.731L210.633 50.6416L209.643 50.4942ZM200.584 85.5836L199.595 85.4362C196.782 96.3333 185.794 102.323 174.431 100.63L174.181 101.598L173.931 102.566C186.148 104.387 198.427 97.9171 201.573 85.731L200.584 85.5836ZM174.181 101.598L174.431 100.63C163.025 98.9299 155.925 90.0357 158.867 78.6425L157.878 78.4951L156.889 78.3477C153.631 90.9672 161.6 100.729 173.931 102.566L174.181 101.598ZM208.007 106.237L207.018 106.089L206.768 107.058L207.757 107.205L208.007 106.237ZM219.166 63.0142L220.155 63.1616L220.405 62.1933L219.416 62.0459L219.166 63.0142ZM204.132 60.7737L203.143 60.6263L202.893 61.5945L203.882 61.7419L204.132 60.7737ZM206.892 50.0842L207.142 49.1159L206.153 48.9685L205.903 49.9368L206.892 50.0842ZM249.066 56.3694L250.055 56.5168L250.305 55.5486L249.316 55.4012L249.066 56.3694ZM246.306 67.0589L246.056 68.0271L247.046 68.1746L247.295 67.2063L246.306 67.0589ZM231.272 64.8184L231.522 63.8501L230.533 63.7027L230.283 64.671L231.272 64.8184ZM220.113 108.041L219.863 109.009L220.852 109.157L221.102 108.188L220.113 108.041ZM208.007 106.237L208.996 106.384L220.155 63.1616L219.166 63.0142L218.177 62.8668L207.018 106.089L208.007 106.237ZM219.166 63.0142L219.416 62.0459L204.382 59.8054L204.132 60.7737L203.882 61.7419L218.916 63.9824L219.166 63.0142ZM204.132 60.7737L205.121 60.9211L207.881 50.2316L206.892 50.0842L205.903 49.9368L203.143 60.6263L204.132 60.7737ZM206.892 50.0842L206.642 51.0524L248.816 57.3377L249.066 56.3694L249.316 55.4012L207.142 49.1159L206.892 50.0842ZM249.066 56.3694L248.077 56.222L245.317 66.9115L246.306 67.0589L247.295 67.2063L250.055 56.5168L249.066 56.3694ZM246.306 67.0589L246.556 66.0906L231.522 63.8501L231.272 64.8184L231.022 65.7866L246.056 68.0271L246.306 67.0589ZM231.272 64.8184L230.283 64.671L219.124 107.894L220.113 108.041L221.102 108.188L232.262 64.9658L231.272 64.8184ZM220.113 108.041L220.363 107.073L208.257 105.269L208.007 106.237L207.757 107.205L219.863 109.009L220.113 108.041Z" fill="white" mask="url(#path-2-outside-1_370_435)"/>
</svg>
