<svg width="522" height="130" viewBox="0 0 522 130" fill="none" xmlns="http://www.w3.org/2000/svg">
<rect width="454.942" height="145.685" transform="matrix(1 0 -0.453991 0.891007 66.1395 0)" fill="#A585AE"/>
<path d="M492.075 80.592C492.075 95.184 480.213 103.824 459.021 103.824C441.054 103.824 428.961 96.336 424.124 84.336L437.023 77.136C440.824 85.968 449.692 91.632 459.021 91.632C469.156 91.632 474.685 87.792 474.685 82.032C474.685 76.656 470.769 73.488 461.325 70.608L448.31 66.864C434.259 62.64 427.81 57.168 427.81 46.512C427.81 34.896 439.327 25.296 458.33 25.296C474.109 25.296 484.589 30 489.542 40.176L476.988 47.664C473.878 40.656 467.314 37.104 458.906 37.104C449.232 37.104 444.279 41.04 444.279 45.84C444.279 49.872 447.619 52.56 455.681 54.768L469.502 58.512C483.668 62.544 492.075 69.072 492.075 80.592Z" fill="white" stroke="white" stroke-width="3"/>
<path d="M437.712 39.12H412.374V102H394.983V39.12H369.761V27.12H437.712V39.12Z" fill="white" stroke="white" stroke-width="3"/>
<path d="M385.595 89.04C379.952 97.968 367.974 103.824 352.541 103.824C327.433 103.824 310.503 88.752 310.503 64.272C310.503 40.848 327.433 25.296 352.426 25.296C368.434 25.296 380.182 31.536 384.904 39.888L374.078 48.24C370.738 42.288 362.561 37.872 353.808 37.872C339.757 37.872 328.815 47.76 328.815 64.272C328.815 82.32 340.217 91.056 353.923 91.056C362.561 91.056 371.544 86.736 375.23 80.208L385.595 89.04Z" fill="white" stroke="white" stroke-width="3"/>
<path d="M320.669 102H257.785V27.12H318.481V39.12H274.831V57.648H312.722V69.36H274.831V90H320.669V102Z" fill="white" stroke="white" stroke-width="3"/>
<path d="M256.821 85.872C256.821 97.776 247.031 103.824 231.829 103.824C225.264 103.824 219.736 103.152 215.474 102.096L214.438 89.616C218.929 90.96 224.688 91.824 228.489 91.824C234.823 91.824 239.545 89.04 239.545 83.088V27.12H256.821V85.872Z" fill="white" stroke="white" stroke-width="3"/>
<path d="M226.685 64.368C226.685 87.6 211.367 103.824 186.49 103.824C161.497 103.824 146.065 87.6 146.065 64.368C146.065 41.616 161.497 25.296 186.49 25.296C211.367 25.296 226.685 41.712 226.685 64.368ZM209.294 64.368C209.294 47.856 199.965 37.584 186.49 37.584C173.59 37.584 163.455 47.856 163.455 64.368C163.455 80.976 173.015 91.536 186.49 91.536C199.504 91.536 209.294 80.976 209.294 64.368Z" fill="white" stroke="white" stroke-width="3"/>
<path d="M158.896 102H138.741L120.89 71.952H104.651V102H87.8355V27.12H124.114C141.045 27.12 153.023 35.28 153.023 48.72C153.023 60.72 146.458 67.056 136.899 69.552L158.896 102ZM135.632 49.392C135.632 42.672 129.412 39.024 121.005 39.024H104.651V60.72H121.235C129.873 60.72 135.632 56.784 135.632 49.392Z" fill="white" stroke="white" stroke-width="3"/>
<path d="M93.1136 51.984C93.1136 67.056 82.0571 76.944 63.7449 76.944H44.8568V102H27.8114V27.12H63.9752C81.4813 27.12 93.1136 37.488 93.1136 51.984ZM76.0682 52.08C76.0682 43.536 69.0428 39.12 60.0594 39.12H44.6264V64.944H60.1746C68.9276 64.944 76.0682 60.624 76.0682 52.08Z" fill="white" stroke="white" stroke-width="3"/>
</svg>
