<svg width="155" height="51" viewBox="0 0 155 51" fill="none" xmlns="http://www.w3.org/2000/svg">
<path d="M154.636 40C154.636 46.848 147.759 50.688 134.592 50.688C126.121 50.688 118.237 48.192 113.96 43.84L119.076 37.44C122.766 41.152 129.643 43.712 134.927 43.712C140.043 43.712 142.391 42.304 142.391 40.064C142.391 37.376 139.624 36.032 131.656 34.752C120.166 32.96 115.47 29.12 115.47 23.872C115.47 17.984 122.263 13.632 134.508 13.632C142.979 13.632 150.107 15.808 153.462 19.2L148.682 25.344C145.327 22.144 140.043 20.224 134.34 20.224C129.643 20.224 127.379 21.632 127.379 23.616C127.379 25.536 128.972 26.624 136.353 27.776C148.933 29.76 154.636 33.536 154.636 40Z" fill="white"/>
<path d="M115.724 49.92H103.563V0H115.724V49.92Z" fill="white"/>
<path d="M102.056 49.92H89.8948V0H102.056V49.92Z" fill="white"/>
<path d="M88.6335 9.216H76.2209V0H88.6335V9.216ZM88.4658 49.92H76.4726V14.4H88.4658V49.92Z" fill="white"/>
<path d="M82.2431 49.92H68.908L55.0696 34.944L50.6246 38.848V49.92H39.2184V0H51.1278V22.08C51.1278 24.896 50.7085 29.248 50.7085 29.248H50.9601C50.9601 29.248 52.2181 27.328 55.6567 24.256L66.8113 14.4H79.9787L63.0372 28.928L82.2431 49.92Z" fill="white"/>
<path d="M40.6763 40C40.6763 46.848 33.7991 50.688 20.6317 50.688C12.161 50.688 4.27731 48.192 0 43.84L5.11599 37.44C8.80622 41.152 15.6835 43.712 20.9672 43.712C26.0832 43.712 28.4315 42.304 28.4315 40.064C28.4315 37.376 25.6638 36.032 17.6963 34.752C6.20629 32.96 1.50964 29.12 1.50964 23.872C1.50964 17.984 8.30301 13.632 20.5478 13.632C29.0186 13.632 36.1474 15.808 39.5022 19.2L34.7217 25.344C31.3669 22.144 26.0832 20.224 20.3801 20.224C15.6835 20.224 13.419 21.632 13.419 23.616C13.419 25.536 15.0125 26.624 22.393 27.776C34.9733 29.76 40.6763 33.536 40.6763 40Z" fill="white"/>
</svg>
