<svg width="209" height="68" viewBox="0 0 209 68" fill="none" xmlns="http://www.w3.org/2000/svg">
<path d="M11.8856 0H208.624L196.738 67.4067H4.6209e-06L11.8856 0Z" fill="#D3A7E0"/>
<path d="M180.785 51.6618C180.785 57.3606 176.418 60.5562 168.056 60.5562C162.677 60.5562 157.671 58.4791 154.954 54.8574L158.203 49.5314C160.547 52.6205 164.914 54.7509 168.269 54.7509C171.518 54.7509 173.009 53.5792 173.009 51.7151C173.009 49.4782 171.252 48.3597 166.192 47.2945C158.895 45.8033 155.913 42.6077 155.913 38.2404C155.913 33.3405 160.227 29.7189 168.003 29.7189C173.382 29.7189 177.909 31.5297 180.04 34.3525L177.004 39.4654C174.873 36.8024 171.518 35.2046 167.896 35.2046C164.914 35.2046 163.476 36.3763 163.476 38.0274C163.476 39.6252 164.488 40.5306 169.175 41.4892C177.164 43.1403 180.785 46.2826 180.785 51.6618Z" fill="#A585AE"/>
<path d="M156.074 59.917H148.352V18.3745H156.074V59.917Z" fill="#A585AE"/>
<path d="M147.395 59.917H139.672V18.3745H147.395V59.917Z" fill="#A585AE"/>
<path d="M138.871 26.0439H130.989V18.3745H138.871V26.0439ZM138.765 59.917H131.148V30.358H138.765V59.917Z" fill="#A585AE"/>
<path d="M134.813 59.917H126.345L117.557 47.4543L114.734 50.7031V59.917H107.491V18.3745H115.054V36.7491C115.054 39.0925 114.787 42.7142 114.787 42.7142H114.947C114.947 42.7142 115.746 41.1164 117.93 38.5599L125.013 30.358H133.375L122.617 42.4479L134.813 59.917Z" fill="#A585AE"/>
<path d="M108.417 51.6618C108.417 57.3606 104.049 60.5562 95.6876 60.5562C90.3083 60.5562 85.3019 58.4791 82.5857 54.8574L85.8345 49.5314C88.178 52.6205 92.5452 54.7509 95.9006 54.7509C99.1494 54.7509 100.641 53.5792 100.641 51.7151C100.641 49.4782 98.8831 48.3597 93.8235 47.2945C86.5269 45.8033 83.5444 42.6077 83.5444 38.2404C83.5444 33.3405 87.8584 29.7189 95.6343 29.7189C101.014 29.7189 105.541 31.5297 107.671 34.3525L104.635 39.4654C102.505 36.8024 99.1494 35.2046 95.5278 35.2046C92.5452 35.2046 91.1072 36.3763 91.1072 38.0274C91.1072 39.6252 92.1192 40.5306 96.806 41.4892C104.795 43.1403 108.417 46.2826 108.417 51.6618Z" fill="#A585AE"/>
<path d="M140.008 41.6757C140.008 47.3744 135.641 50.57 127.279 50.57C121.9 50.57 116.894 48.4929 114.177 44.8712L117.426 39.5453C119.77 42.6343 124.137 44.7647 127.492 44.7647C130.741 44.7647 132.232 43.593 132.232 41.7289C132.232 39.492 130.475 38.3736 125.415 37.3084C118.119 35.8171 115.136 32.6215 115.136 28.2542C115.136 23.3543 119.45 19.7327 127.226 19.7327C132.605 19.7327 137.132 21.5435 139.263 24.3663L136.227 29.4792C134.096 26.8162 130.741 25.2184 127.119 25.2184C124.137 25.2184 122.699 26.3901 122.699 28.0412C122.699 29.639 123.711 30.5444 128.398 31.5031C136.387 33.1541 140.008 36.2964 140.008 41.6757Z" fill="white"/>
<path d="M115.298 49.9309H107.575V8.38837H115.298V49.9309Z" fill="white"/>
<path d="M106.618 49.9309H98.8952V8.38837H106.618V49.9309Z" fill="white"/>
<path d="M98.0942 16.0577H90.2118V8.38837H98.0942V16.0577ZM97.9877 49.9309H90.3716V20.3718H97.9877V49.9309Z" fill="white"/>
<path d="M94.0361 49.9309H85.5678L76.78 37.4681L73.9572 40.7169V49.9309H66.7139V8.38837H74.2768V26.7629C74.2768 29.1063 74.0105 32.728 74.0105 32.728H74.1703C74.1703 32.728 74.9692 31.1302 77.1528 28.5738L84.2363 20.3718H92.5981L81.8397 32.4617L94.0361 49.9309Z" fill="white"/>
<path d="M67.6397 41.6757C67.6397 47.3744 63.2725 50.57 54.9107 50.57C49.5315 50.57 44.5251 48.4929 41.8088 44.8712L45.0577 39.5453C47.4011 42.6343 51.7684 44.7647 55.1237 44.7647C58.3726 44.7647 59.8638 43.593 59.8638 41.7289C59.8638 39.492 58.1063 38.3736 53.0466 37.3084C45.75 35.8171 42.7675 32.6215 42.7675 28.2542C42.7675 23.3543 47.0815 19.7327 54.8574 19.7327C60.2367 19.7327 64.7637 21.5435 66.8941 24.3663L63.8583 29.4792C61.7279 26.8162 58.3726 25.2184 54.7509 25.2184C51.7684 25.2184 50.3304 26.3901 50.3304 28.0412C50.3304 29.639 51.3423 30.5444 56.0292 31.5031C64.0181 33.1541 67.6397 36.2964 67.6397 41.6757Z" fill="white"/>
</svg>
