<svg width="329" height="125" viewBox="0 0 329 125" fill="none" xmlns="http://www.w3.org/2000/svg">
<rect width="236.413" height="82.2495" transform="matrix(1 0 -0.173648 0.984808 14.2825 32)" fill="#D3A7E0"/>
<path d="M109.723 93.024L107.931 100.448C106.971 100.704 106.011 100.768 105.051 100.768C101.467 100.768 98.3306 99.232 97.7546 96.224C95.5786 99.36 90.4586 100.768 85.1466 100.768C77.9146 100.768 74.2026 97.184 74.0746 91.232C74.0746 91.104 74.0746 91.04 74.0746 90.912C74.0746 84.128 78.2986 80.544 86.4266 78.688C91.2266 77.664 95.1946 76.32 95.1946 74.336C95.1946 71.584 93.3386 70.752 89.1146 70.752C85.8506 70.752 80.6026 73.056 78.4906 76.192L74.7786 69.664C77.9786 65.888 83.1626 63.712 89.8186 63.712C99.6746 63.712 104.731 67.232 104.731 74.976V90.144C104.731 92.32 105.947 93.216 107.867 93.216C108.443 93.216 109.083 93.152 109.723 93.024ZM95.5146 88.864V81.568C94.2986 82.784 91.8026 83.68 88.6666 84.512C85.1466 85.408 82.9066 86.688 82.9066 89.952C82.9066 90.08 82.9066 90.208 82.9066 90.336C82.9706 92.64 84.5066 93.856 87.4506 93.856C90.5226 93.856 94.6826 92.064 95.5146 88.864ZM140.543 82.208C140.543 94.432 134.271 100.768 125.119 100.768C120.447 100.768 116.095 98.784 114.367 95.904L112.767 100H106.175V50.08H115.263V67.936C116.799 65.312 120.703 63.712 125.055 63.712C134.463 63.712 140.543 70.112 140.543 82.208ZM131.327 82.208C131.327 74.656 127.999 71.008 122.815 71.008C118.527 71.008 115.071 74.464 115.071 79.008V88.8C116.671 91.424 119.103 93.664 122.879 93.664C127.743 93.664 131.327 89.888 131.327 82.208ZM173.785 82.272C173.785 93.472 166.937 100.768 155.673 100.768C144.537 100.768 137.497 93.472 137.497 82.272C137.497 71.008 144.537 63.712 155.673 63.712C166.937 63.712 173.785 71.008 173.785 82.272ZM164.569 82.272C164.569 75.232 161.049 71.008 155.673 71.008C150.489 71.008 146.713 75.232 146.713 82.272C146.713 89.184 150.489 93.536 155.673 93.536C161.049 93.536 164.569 89.312 164.569 82.272ZM205.3 100H196.98V95.52C195.188 99.04 190.772 100.768 185.652 100.768C177.972 100.768 172.596 95.776 172.596 88.608V64.48H181.684V86.496C181.684 90.72 184.372 93.088 188.084 93.088C191.732 93.088 195.06 91.104 196.212 87.328V64.48H205.3V100ZM225.61 93.216L223.818 100.768C212.49 100.768 208.458 98.464 208.458 90.016V71.584H203.402V64.48H208.842V53.344H217.546V64.48H223.626V71.584H217.546V88.096C217.546 92.96 218.378 93.216 225.61 93.216Z" fill="#A585AE"/>
<path d="M63.7226 81.024L61.9306 88.448C60.9706 88.704 60.0106 88.768 59.0506 88.768C55.4666 88.768 52.3306 87.232 51.7546 84.224C49.5786 87.36 44.4586 88.768 39.1466 88.768C31.9146 88.768 28.2026 85.184 28.0746 79.232C28.0746 79.104 28.0746 79.04 28.0746 78.912C28.0746 72.128 32.2986 68.544 40.4266 66.688C45.2266 65.664 49.1946 64.32 49.1946 62.336C49.1946 59.584 47.3386 58.752 43.1146 58.752C39.8506 58.752 34.6026 61.056 32.4906 64.192L28.7786 57.664C31.9786 53.888 37.1626 51.712 43.8186 51.712C53.6746 51.712 58.7306 55.232 58.7306 62.976V78.144C58.7306 80.32 59.9466 81.216 61.8666 81.216C62.4426 81.216 63.0826 81.152 63.7226 81.024ZM49.5146 76.864V69.568C48.2986 70.784 45.8026 71.68 42.6666 72.512C39.1466 73.408 36.9066 74.688 36.9066 77.952C36.9066 78.08 36.9066 78.208 36.9066 78.336C36.9706 80.64 38.5066 81.856 41.4506 81.856C44.5226 81.856 48.6826 80.064 49.5146 76.864ZM94.5426 70.208C94.5426 82.432 88.2706 88.768 79.1186 88.768C74.4466 88.768 70.0946 86.784 68.3666 83.904L66.7666 88H60.1746V38.08H69.2626V55.936C70.7986 53.312 74.7026 51.712 79.0546 51.712C88.4626 51.712 94.5426 58.112 94.5426 70.208ZM85.3266 70.208C85.3266 62.656 81.9986 59.008 76.8146 59.008C72.5266 59.008 69.0706 62.464 69.0706 67.008V76.8C70.6706 79.424 73.1026 81.664 76.8786 81.664C81.7426 81.664 85.3266 77.888 85.3266 70.208ZM127.785 70.272C127.785 81.472 120.937 88.768 109.673 88.768C98.5371 88.768 91.4971 81.472 91.4971 70.272C91.4971 59.008 98.5371 51.712 109.673 51.712C120.937 51.712 127.785 59.008 127.785 70.272ZM118.569 70.272C118.569 63.232 115.049 59.008 109.673 59.008C104.489 59.008 100.713 63.232 100.713 70.272C100.713 77.184 104.489 81.536 109.673 81.536C115.049 81.536 118.569 77.312 118.569 70.272ZM159.3 88H150.98V83.52C149.188 87.04 144.772 88.768 139.652 88.768C131.972 88.768 126.596 83.776 126.596 76.608V52.48H135.684V74.496C135.684 78.72 138.372 81.088 142.084 81.088C145.732 81.088 149.06 79.104 150.212 75.328V52.48H159.3V88ZM179.61 81.216L177.818 88.768C166.49 88.768 162.458 86.464 162.458 78.016V59.584H157.402V52.48H162.842V41.344H171.546V52.48H177.626V59.584H171.546V76.096C171.546 80.96 172.378 81.216 179.61 81.216Z" fill="white"/>
</svg>
