<svg width="968" height="22" fill="none" xmlns="http://www.w3.org/2000/svg"><path d="M7.031 6.375V9.5h4.688c1.041 0 1.562-.52 1.562-1.563 0-1.041-.52-1.562-1.562-1.562H7.03zm0 9.375V22H.781V.125H11.72c5.208 0 7.812 2.604 7.812 7.813 0 4.166-1.666 6.666-5 7.5L21.094 22H13.28l-6.25-6.25zM39.56.125v6.25h-9.375v1.563h7.813v6.25h-7.813v1.562h9.375V22H23.935V.125H39.56zm13.06 0h7.031v6.25H52.62c-1.292 0-2.396.458-3.313 1.375-.916.917-1.375 2.02-1.375 3.313 0 1.291.459 2.395 1.375 3.312.917.917 2.021 1.375 3.313 1.375h7.031V22H52.62c-3.02 0-5.599-1.068-7.734-3.203-2.136-2.136-3.204-4.714-3.204-7.735 0-3.02 1.068-5.598 3.204-7.734C47.02 1.193 49.599.125 52.62.125zm27.248 0v6.25h-9.375v1.563h7.812v6.25h-7.813v1.562h9.376V22H64.243V.125h15.625zm10.84 10.938V22h-6.25V.125h6.25l7.813 10.938V.124h6.25V22h-6.25L90.71 11.062zM120.55 22h-6.25V6.375h-5.469V.125h17.188v6.25h-5.469V22zm30.901-15.625V9.5h4.688c1.041 0 1.562-.52 1.562-1.563 0-1.041-.521-1.562-1.562-1.562h-4.688zm0 9.375V22h-6.25V.125h10.938c5.208 0 7.812 2.604 7.812 7.813 0 5.208-2.604 7.812-7.812 7.812h-4.688zm22.466-9.375V9.5h4.688c1.042 0 1.562-.52 1.562-1.563 0-1.041-.52-1.562-1.562-1.562h-4.688zm0 9.375V22h-6.25V.125h10.938c5.208 0 7.812 2.604 7.812 7.813 0 4.166-1.666 6.666-5 7.5L187.98 22h-7.813l-6.25-6.25zM200.634 22c-3.021 0-5.599-1.068-7.735-3.203-2.135-2.136-3.203-4.714-3.203-7.735 0-3.02 1.068-5.598 3.203-7.734 2.136-2.135 4.714-3.203 7.735-3.203s5.599 1.068 7.734 3.203c2.136 2.136 3.203 4.714 3.203 7.735 0 3.02-1.067 5.598-3.203 7.734-2.135 2.135-4.713 3.203-7.734 3.203zm0-6.25c1.291 0 2.396-.458 3.312-1.375.917-.917 1.375-2.02 1.375-3.313 0-1.291-.458-2.395-1.375-3.312-.916-.917-2.021-1.375-3.312-1.375-1.292 0-2.396.458-3.313 1.375-.916.917-1.375 2.02-1.375 3.313 0 1.291.459 2.395 1.375 3.312.917.917 2.021 1.375 3.313 1.375zm14.857 0c2.083 0 3.125-1.563 3.125-4.688V.126h6.25v10.938c0 7.291-3.125 10.937-9.375 10.937h-2.297v-6.25h2.297zm29.7-15.625v6.25h-9.375v1.563h7.813v6.25h-7.813v1.562h9.375V22h-15.625V.125h15.625zm13.06 0h7.032v6.25h-7.032c-1.291 0-2.396.458-3.312 1.375-.917.917-1.375 2.02-1.375 3.313 0 1.291.458 2.395 1.375 3.312.916.917 2.021 1.375 3.312 1.375h7.032V22h-7.032c-3.021 0-5.599-1.068-7.734-3.203-2.136-2.136-3.203-4.714-3.203-7.735 0-3.02 1.067-5.598 3.203-7.734 2.135-2.135 4.713-3.203 7.734-3.203zM281.28 22h-6.25V6.375h-5.469V.125h17.188v6.25h-5.469V22zm16.497-7.813c-5.208 0-7.812-2.364-7.812-7.093 0-4.646 2.604-6.969 7.812-6.969h10.157v6.25h-10.157c-1.041 0-1.562.24-1.562.719 0 .562.521.843 1.562.843h4.688c5.208 0 7.812 2.323 7.812 6.97 0 4.728-2.604 7.093-7.812 7.093h-10.156v-6.25h10.156c1.042 0 1.562-.281 1.562-.844 0-.479-.52-.719-1.562-.719h-4.688zm37.933-7.812V9.5h4.687c1.042 0 1.563-.52 1.563-1.563 0-1.041-.521-1.562-1.563-1.562h-4.687zm0 9.375V22h-6.25V.125h10.937c5.209 0 7.813 2.604 7.813 7.813 0 4.166-1.667 6.666-5 7.5L349.772 22h-7.812l-6.25-6.25zM368.239.125v6.25h-9.375v1.563h7.812v6.25h-7.812v1.562h9.375V22h-15.625V.125h15.625zm13.06 0h7.031v6.25h-7.031c-1.292 0-2.396.458-3.313 1.375-.916.917-1.375 2.02-1.375 3.313 0 1.291.459 2.395 1.375 3.312.917.917 2.021 1.375 3.313 1.375h7.031V22h-7.031c-3.021 0-5.599-1.068-7.735-3.203-2.135-2.136-3.203-4.714-3.203-7.735 0-3.02 1.068-5.598 3.203-7.734 2.136-2.135 4.714-3.203 7.735-3.203zm27.247 0v6.25h-9.375v1.563h7.813v6.25h-7.813v1.562h9.375V22h-15.625V.125h15.625zm10.842 10.938V22h-6.25V.125h6.25l7.812 10.938V.124h6.25V22h-6.25l-7.812-10.938zM449.229 22h-6.25V6.375h-5.469V.125h17.188v6.25h-5.469V22zM480.13 6.375V9.5h4.688c1.041 0 1.562-.52 1.562-1.563 0-1.041-.521-1.562-1.562-1.562h-4.688zm0 9.375V22h-6.25V.125h10.938c5.208 0 7.812 2.604 7.812 7.813 0 5.208-2.604 7.812-7.812 7.812h-4.688zm22.466-9.375V9.5h4.688c1.041 0 1.562-.52 1.562-1.563 0-1.041-.521-1.562-1.562-1.562h-4.688zm0 9.375V22h-6.25V.125h10.938c5.208 0 7.812 2.604 7.812 7.813 0 4.166-1.666 6.666-5 7.5L516.659 22h-7.813l-6.25-6.25zM529.312 22c-3.02 0-5.598-1.068-7.734-3.203-2.135-2.136-3.203-4.714-3.203-7.735 0-3.02 1.068-5.598 3.203-7.734 2.136-2.135 4.714-3.203 7.734-3.203 3.021 0 5.599 1.068 7.735 3.203 2.135 2.136 3.203 4.714 3.203 7.735 0 3.02-1.068 5.598-3.203 7.734-2.136 2.135-4.714 3.203-7.735 3.203zm0-6.25c1.292 0 2.396-.458 3.313-1.375.917-.917 1.375-2.02 1.375-3.313 0-1.291-.458-2.395-1.375-3.312-.917-.917-2.021-1.375-3.313-1.375-1.291 0-2.395.458-3.312 1.375-.917.917-1.375 2.02-1.375 3.313 0 1.291.458 2.395 1.375 3.312.917.917 2.021 1.375 3.312 1.375zm14.857 0c2.084 0 3.125-1.563 3.125-4.688V.126h6.25v10.938c0 7.291-3.125 10.937-9.375 10.937h-2.297v-6.25h2.297zM573.87.125v6.25h-9.375v1.563h7.812v6.25h-7.812v1.562h9.375V22h-15.625V.125h15.625zm13.06 0h7.031v6.25h-7.031c-1.292 0-2.396.458-3.313 1.375-.916.917-1.375 2.02-1.375 3.313 0 1.291.459 2.395 1.375 3.312.917.917 2.021 1.375 3.313 1.375h7.031V22h-7.031c-3.021 0-5.599-1.068-7.734-3.203-2.136-2.136-3.204-4.714-3.204-7.735 0-3.02 1.068-5.598 3.204-7.734 2.135-2.135 4.713-3.203 7.734-3.203zM609.959 22h-6.25V6.375h-5.469V.125h17.187v6.25h-5.468V22zm16.497-7.813c-5.208 0-7.812-2.364-7.812-7.093 0-4.646 2.604-6.969 7.812-6.969h10.156v6.25h-10.156c-1.041 0-1.562.24-1.562.719 0 .562.521.843 1.562.843h4.688c5.208 0 7.812 2.323 7.812 6.97 0 4.728-2.604 7.093-7.812 7.093h-10.157v-6.25h10.157c1.041 0 1.562-.281 1.562-.844 0-.479-.521-.719-1.562-.719h-4.688zm37.933-7.812V9.5h4.687c1.042 0 1.563-.52 1.563-1.563 0-1.041-.521-1.562-1.563-1.562h-4.687zm0 9.375V22h-6.25V.125h10.937c5.209 0 7.813 2.604 7.813 7.813 0 4.166-1.667 6.666-5 7.5L678.451 22h-7.812l-6.25-6.25zM696.917.125v6.25h-9.375v1.563h7.813v6.25h-7.813v1.562h9.375V22h-15.625V.125h15.625zm13.06 0h7.032v6.25h-7.032c-1.291 0-2.395.458-3.312 1.375-.917.917-1.375 2.02-1.375 3.313 0 1.291.458 2.395 1.375 3.312.917.917 2.021 1.375 3.312 1.375h7.032V22h-7.032c-3.02 0-5.598-1.068-7.734-3.203-2.135-2.136-3.203-4.714-3.203-7.735 0-3.02 1.068-5.598 3.203-7.734 2.136-2.135 4.714-3.203 7.734-3.203zm27.248 0v6.25h-9.375v1.563h7.812v6.25h-7.812v1.562h9.375V22H721.6V.125h15.625zm10.841 10.938V22h-6.25V.125h6.25l7.813 10.938V.124h6.25V22h-6.25l-7.813-10.938zM777.907 22h-6.25V6.375h-5.468V.125h17.187v6.25h-5.469V22zm30.902-15.625V9.5h4.687c1.042 0 1.563-.52 1.563-1.563 0-1.041-.521-1.562-1.563-1.562h-4.687zm0 9.375V22h-6.25V.125h10.937c5.209 0 7.813 2.604 7.813 7.813 0 5.208-2.604 7.812-7.813 7.812h-4.687zm22.466-9.375V9.5h4.688c1.041 0 1.562-.52 1.562-1.563 0-1.041-.521-1.562-1.562-1.562h-4.688zm0 9.375V22h-6.25V.125h10.938c5.208 0 7.812 2.604 7.812 7.813 0 4.166-1.667 6.666-5 7.5L845.338 22h-7.813l-6.25-6.25zM857.991 22c-3.021 0-5.599-1.068-7.734-3.203-2.136-2.136-3.203-4.714-3.203-7.735 0-3.02 1.067-5.598 3.203-7.734 2.135-2.135 4.713-3.203 7.734-3.203s5.599 1.068 7.735 3.203c2.135 2.136 3.203 4.714 3.203 7.735 0 3.02-1.068 5.598-3.203 7.734-2.136 2.135-4.714 3.203-7.735 3.203zm0-6.25c1.292 0 2.396-.458 3.313-1.375.916-.917 1.375-2.02 1.375-3.313 0-1.291-.459-2.395-1.375-3.312-.917-.917-2.021-1.375-3.313-1.375-1.291 0-2.396.458-3.312 1.375-.917.917-1.375 2.02-1.375 3.313 0 1.291.458 2.395 1.375 3.312.916.917 2.021 1.375 3.312 1.375zm14.857 0c2.083 0 3.125-1.563 3.125-4.688V.126h6.25v10.938c0 7.291-3.125 10.937-9.375 10.937h-2.297v-6.25h2.297zM902.549.125v6.25h-9.375v1.563h7.812v6.25h-7.812v1.562h9.375V22h-15.625V.125h15.625zm13.06 0h7.031v6.25h-7.031c-1.292 0-2.396.458-3.313 1.375-.916.917-1.375 2.02-1.375 3.313 0 1.291.459 2.395 1.375 3.312.917.917 2.021 1.375 3.313 1.375h7.031V22h-7.031c-3.021 0-5.599-1.068-7.735-3.203-2.135-2.136-3.203-4.714-3.203-7.735 0-3.02 1.068-5.598 3.203-7.734 2.136-2.135 4.714-3.203 7.735-3.203zM938.638 22h-6.25V6.375h-5.469V.125h17.187v6.25h-5.468V22zm16.497-7.813c-5.208 0-7.812-2.364-7.812-7.093 0-4.646 2.604-6.969 7.812-6.969h10.156v6.25h-10.156c-1.042 0-1.562.24-1.562.719 0 .562.52.843 1.562.843h4.688c5.208 0 7.812 2.323 7.812 6.97 0 4.728-2.604 7.093-7.812 7.093h-10.157v-6.25h10.157c1.041 0 1.562-.281 1.562-.844 0-.479-.521-.719-1.562-.719h-4.688z" fill="#F6E9FA"/></svg>