<svg width="451" height="110" viewBox="0 0 451 110" fill="none" xmlns="http://www.w3.org/2000/svg">
<mask id="mask0_382_454" style="mask-type:alpha" maskUnits="userSpaceOnUse" x="0" y="0" width="451" height="110">
<path d="M0 0H451V110H0V0Z" fill="#D9D9D9"/>
</mask>
<g mask="url(#mask0_382_454)">
<path d="M328.401 50.9717L404.282 -19.1124L534.917 31.7521L459.036 101.836L328.401 50.9717Z" fill="#EED8F3"/>
<path d="M170.624 -15H511.173L469.992 68H129.443L170.624 -15Z" fill="#D3A7DD"/>
<mask id="path-4-outside-1_382_454" maskUnits="userSpaceOnUse" x="163.845" y="8.99421" width="285.358" height="57.0178" fill="black">
<rect fill="white" x="163.845" y="8.99421" width="285.358" height="57.0178"/>
<path d="M443.877 21.1497L425.689 21.2916L421.729 59.1539L409.246 59.2512L413.205 21.3889L395.1 21.5301L395.856 14.3045L444.632 13.9241L443.877 21.1497Z"/>
<path d="M392.063 44.2527C391.024 54.1951 379.7 60.5791 365.15 60.6925C350.186 60.8092 340.599 54.5306 341.633 44.646L344.765 14.703L357.165 14.6062L354.113 43.7978C353.436 50.272 358.057 53.4704 365.911 53.4091C373.765 53.3479 379.395 50.0695 380.072 43.5953L383.125 14.4038L395.195 14.3097L392.063 44.2527Z"/>
<path d="M338.644 37.1607C337.181 51.1496 325.164 61.0044 307.306 61.1436C289.366 61.2836 279.31 51.6009 280.773 37.6121C282.206 23.9123 294.311 13.999 312.251 13.8591C330.109 13.7199 340.07 23.5188 338.644 37.1607ZM326.16 37.2581C327.2 27.3156 321.15 21.1827 311.478 21.2582C302.218 21.3304 294.296 27.5722 293.256 37.5147C292.211 47.515 298.407 53.82 308.08 53.7446C317.422 53.6717 325.114 47.2584 326.16 37.2581Z"/>
<path d="M280.657 47.6629C279.859 55.2931 270.824 60.3308 257.348 60.4359L230.314 60.6467L235.029 15.5588L260.493 15.3602C272.398 15.2673 279.844 19.8876 279.155 26.4774C278.599 31.7955 274.357 35.2363 268.066 36.1517L268.136 36.2667C275.026 36.7328 281.388 40.6684 280.657 47.6629ZM266.839 28.1329C267.256 24.1444 262.661 22.2742 257.7 22.3129L246.54 22.3999L245.349 33.7875L257.336 33.694C262.71 33.6521 266.458 31.7747 266.839 28.1329ZM268.46 46.6028C268.907 42.3253 263.503 40.2881 257.468 40.3352L244.653 40.4351L243.299 53.3834L256.444 53.2809C263.141 53.2287 268.012 50.8804 268.46 46.6028Z"/>
<path d="M231.094 60.6406L218.611 60.738L214.051 49.0487L190.407 49.2331L183.31 61.0133L170.909 61.11L198.028 15.8473L213.571 15.7261L231.094 60.6406ZM211.252 41.8508C211.252 41.8508 205.48 28.3227 205 24.2256L204.338 24.2308C203.082 28.3414 194.634 41.9804 194.634 41.9804L211.252 41.8508Z"/>
<path d="M443.877 21.1497L444.632 13.9241L395.856 14.3045L395.1 21.5301L413.205 21.3889L409.246 59.2512L421.729 59.1539L425.689 21.2916L443.877 21.1497ZM446.271 22.9355L428.084 23.0773L424.124 60.9401L406.474 61.0778L410.433 23.215L394.251 23.3412L395.195 14.3097L393.271 14.3241L393.46 12.5177L447.405 12.097L446.271 22.9355Z"/>
<path d="M354.113 43.7978L357.165 14.6062L344.765 14.703L341.633 44.646L341.592 45.1067C340.911 54.5726 350.12 60.6134 364.452 60.6934L365.15 60.6925C379.473 60.5808 390.669 54.393 392.007 44.7159L392.063 44.2527L395.195 14.3097L383.125 14.4038L380.072 43.5953C379.395 50.0695 373.765 53.3479 365.911 53.4091L366.1 51.603C369.524 51.5763 372.156 50.8567 373.985 49.6473C375.81 48.4394 377.185 46.5105 377.488 43.6153L380.729 12.617L397.968 12.4826L397.779 14.289L395.856 14.3045L395.1 21.5301L397.023 21.5146L394.648 44.2323C394.077 49.6838 390.656 54.2678 385.26 57.4888C379.893 60.6923 372.762 62.4382 364.96 62.4991C356.961 62.5614 350.174 60.9121 345.513 57.7683C340.829 54.6092 338.485 50.0689 339.05 44.6659L342.37 12.9162L359.938 12.7792L356.697 43.7774C356.391 46.7037 357.305 48.6172 358.807 49.7891C360.298 50.9517 362.68 51.6296 366.1 51.603L365.911 53.4091L365.185 53.4057C358.013 53.2723 353.738 50.2729 354.064 44.3949L354.113 43.7978Z"/>
<path d="M338.644 37.1607C340.048 23.7322 330.417 14.0274 313.083 13.8602L312.251 13.8591C294.311 13.999 282.206 23.9123 280.773 37.6121L280.713 38.2642C279.644 51.6843 289.331 60.9825 306.471 61.1432L307.306 61.1436C325.164 61.0044 337.181 51.1496 338.644 37.1607ZM323.576 37.2778C324.069 32.5671 322.858 28.9529 320.632 26.5757C318.448 24.2444 315.242 23.0337 311.288 23.0646C304.106 23.1208 296.831 28.0243 295.84 37.4941C295.345 42.227 296.586 45.9037 298.856 48.3366C301.087 50.7288 304.338 51.9682 308.269 51.9377L308.08 53.7446C298.71 53.8174 292.602 47.9024 293.18 38.4408L293.256 37.5147C294.296 27.5722 302.218 21.3304 311.478 21.2582C321.15 21.1827 327.2 27.3156 326.16 37.2581C325.114 47.2584 317.422 53.6717 308.08 53.7446L308.269 51.9377C312.011 51.9085 315.492 50.6316 318.246 48.1854C321.035 45.707 323.082 42.0011 323.576 37.2778ZM341.227 37.1401C340.462 44.4506 336.922 50.8538 330.989 55.4843C325.012 60.1496 316.778 62.8748 307.117 62.9502C297.419 63.0257 289.703 60.4281 284.66 55.8504C282.751 54.1167 281.248 52.1182 280.158 49.9043C280.405 49.1854 280.576 48.4377 280.657 47.6629C280.98 44.5757 279.919 42.0852 278.043 40.2251C278.049 39.3756 278.098 38.5103 278.19 37.6317C278.94 30.4546 282.505 24.1085 288.467 19.5034C294.469 14.8668 302.739 12.129 312.44 12.0532C322.11 11.9778 329.777 14.6111 334.784 19.1692C339.755 23.6952 341.974 29.9936 341.227 37.1401Z"/>
<path d="M280.657 47.6629C281.388 40.6684 275.026 36.7328 268.136 36.2667L268.066 36.1517C274.16 35.2649 278.332 32.0079 279.093 26.9702L279.155 26.4774C279.844 19.8876 272.398 15.2673 260.493 15.3602L260.681 13.5533C267.103 13.5032 272.548 14.7243 276.332 17.0046C280.149 19.3055 282.141 22.6142 281.739 26.4572C281.429 29.4214 280.072 32.0162 277.714 34.0338C276.907 34.724 275.997 35.3293 275.006 35.8516C277.237 36.7161 279.19 37.9618 280.641 39.5633C280.535 43.3124 281.297 46.7126 282.847 49.6483C281.844 53.1096 279.216 56.0706 275.253 58.2527C270.598 60.816 264.328 62.1863 257.159 62.2423L227.541 62.4733L227.73 60.6669L257.348 60.4359L258.598 60.412C270.968 60.0267 279.332 55.3697 280.559 48.37L280.657 47.6629ZM232.634 13.772L260.681 13.5533L260.493 15.3602L235.029 15.5588L230.479 59.0637L228.443 53.8458L232.634 13.772ZM265.876 46.6232C266.033 45.1245 265.21 44.0748 263.759 43.34C262.224 42.5626 259.916 42.1209 257.278 42.1415L247.048 42.2213L246.072 51.5567L256.633 51.4743L256.444 53.2809L243.299 53.3834L244.653 40.4351L257.468 40.3352C263.503 40.2881 268.907 42.3253 268.46 46.6028L268.405 46.9983C267.706 51.0249 262.931 53.2303 256.444 53.2809L256.633 51.4743C259.591 51.4513 261.846 50.9216 263.332 50.1272C264.739 49.3752 265.705 48.2593 265.876 46.6232ZM264.255 28.1529C264.404 26.731 263.69 25.7886 262.563 25.1578C261.363 24.486 259.556 24.1037 257.511 24.1197L248.934 24.1866L248.121 31.9614L257.525 31.8881L257.336 33.694L245.349 33.7875L246.54 22.3999L257.7 22.3129C262.661 22.2742 267.256 24.1444 266.839 28.1329C266.458 31.7747 262.71 33.6521 257.336 33.694L257.525 31.8881C259.824 31.8701 261.432 31.4603 262.441 30.8944C263.378 30.3682 264.111 29.5324 264.255 28.1529Z"/>
<path d="M215.601 13.9048L231.059 53.5234L230.479 59.0637L213.571 15.7261L198.028 15.8473L170.909 61.11L183.31 61.0133L190.407 49.2331L214.051 49.0487L218.611 60.738L233.827 60.6193L234.53 62.4188L216.58 62.5587L212.019 50.8693L192.051 51.025L184.953 62.8054L167.087 62.9447L196.379 14.0547L215.601 13.9048ZM205 24.2256C205.479 28.3155 211.23 41.8002 211.252 41.8508L194.634 41.9804C194.634 41.9804 203.082 28.3414 204.338 24.2308L205 24.2256ZM204.062 30.459C203.217 32.0276 202.289 33.6713 201.407 35.1977C200.326 37.0668 199.281 38.8191 198.481 40.1453L207.754 40.0729C207.214 38.7592 206.513 37.0271 205.8 35.1787C205.213 33.6579 204.603 32.0204 204.062 30.459Z"/>
</mask>
<path d="M443.877 21.1497L425.689 21.2916L421.729 59.1539L409.246 59.2512L413.205 21.3889L395.1 21.5301L395.856 14.3045L444.632 13.9241L443.877 21.1497Z" fill="#A585AE"/>
<path d="M392.063 44.2527C391.024 54.1951 379.7 60.5791 365.15 60.6925C350.186 60.8092 340.599 54.5306 341.633 44.646L344.765 14.703L357.165 14.6062L354.113 43.7978C353.436 50.272 358.057 53.4704 365.911 53.4091C373.765 53.3479 379.395 50.0695 380.072 43.5953L383.125 14.4038L395.195 14.3097L392.063 44.2527Z" fill="#A585AE"/>
<path d="M338.644 37.1607C337.181 51.1496 325.164 61.0044 307.306 61.1436C289.366 61.2836 279.31 51.6009 280.773 37.6121C282.206 23.9123 294.311 13.999 312.251 13.8591C330.109 13.7199 340.07 23.5188 338.644 37.1607ZM326.16 37.2581C327.2 27.3156 321.15 21.1827 311.478 21.2582C302.218 21.3304 294.296 27.5722 293.256 37.5147C292.211 47.515 298.407 53.82 308.08 53.7446C317.422 53.6717 325.114 47.2584 326.16 37.2581Z" fill="#A585AE"/>
<path d="M280.657 47.6629C279.859 55.2931 270.824 60.3308 257.348 60.4359L230.314 60.6467L235.029 15.5588L260.493 15.3602C272.398 15.2673 279.844 19.8876 279.155 26.4774C278.599 31.7955 274.357 35.2363 268.066 36.1517L268.136 36.2667C275.026 36.7328 281.388 40.6684 280.657 47.6629ZM266.839 28.1329C267.256 24.1444 262.661 22.2742 257.7 22.3129L246.54 22.3999L245.349 33.7875L257.336 33.694C262.71 33.6521 266.458 31.7747 266.839 28.1329ZM268.46 46.6028C268.907 42.3253 263.503 40.2881 257.468 40.3352L244.653 40.4351L243.299 53.3834L256.444 53.2809C263.141 53.2287 268.012 50.8804 268.46 46.6028Z" fill="#A585AE"/>
<path d="M231.094 60.6406L218.611 60.738L214.051 49.0487L190.407 49.2331L183.31 61.0133L170.909 61.11L198.028 15.8473L213.571 15.7261L231.094 60.6406ZM211.252 41.8508C211.252 41.8508 205.48 28.3227 205 24.2256L204.338 24.2308C203.082 28.3414 194.634 41.9804 194.634 41.9804L211.252 41.8508Z" fill="#A585AE"/>
<path d="M443.877 21.1497L444.632 13.9241L395.856 14.3045L395.1 21.5301L413.205 21.3889L409.246 59.2512L421.729 59.1539L425.689 21.2916L443.877 21.1497ZM446.271 22.9355L428.084 23.0773L424.124 60.9401L406.474 61.0778L410.433 23.215L394.251 23.3412L395.195 14.3097L393.271 14.3241L393.46 12.5177L447.405 12.097L446.271 22.9355Z" fill="#A585AE"/>
<path d="M354.113 43.7978L357.165 14.6062L344.765 14.703L341.633 44.646L341.592 45.1067C340.911 54.5726 350.12 60.6134 364.452 60.6934L365.15 60.6925C379.473 60.5808 390.669 54.393 392.007 44.7159L392.063 44.2527L395.195 14.3097L383.125 14.4038L380.072 43.5953C379.395 50.0695 373.765 53.3479 365.911 53.4091L366.1 51.603C369.524 51.5763 372.156 50.8567 373.985 49.6473C375.81 48.4394 377.185 46.5105 377.488 43.6153L380.729 12.617L397.968 12.4826L397.779 14.289L395.856 14.3045L395.1 21.5301L397.023 21.5146L394.648 44.2323C394.077 49.6838 390.656 54.2678 385.26 57.4888C379.893 60.6923 372.762 62.4382 364.96 62.4991C356.961 62.5614 350.174 60.9121 345.513 57.7683C340.829 54.6092 338.485 50.0689 339.05 44.6659L342.37 12.9162L359.938 12.7792L356.697 43.7774C356.391 46.7037 357.305 48.6172 358.807 49.7891C360.298 50.9517 362.68 51.6296 366.1 51.603L365.911 53.4091L365.185 53.4057C358.013 53.2723 353.738 50.2729 354.064 44.3949L354.113 43.7978Z" fill="#A585AE"/>
<path d="M338.644 37.1607C340.048 23.7322 330.417 14.0274 313.083 13.8602L312.251 13.8591C294.311 13.999 282.206 23.9123 280.773 37.6121L280.713 38.2642C279.644 51.6843 289.331 60.9825 306.471 61.1432L307.306 61.1436C325.164 61.0044 337.181 51.1496 338.644 37.1607ZM323.576 37.2778C324.069 32.5671 322.858 28.9529 320.632 26.5757C318.448 24.2444 315.242 23.0337 311.288 23.0646C304.106 23.1208 296.831 28.0243 295.84 37.4941C295.345 42.227 296.586 45.9037 298.856 48.3366C301.087 50.7288 304.338 51.9682 308.269 51.9377L308.08 53.7446C298.71 53.8174 292.602 47.9024 293.18 38.4408L293.256 37.5147C294.296 27.5722 302.218 21.3304 311.478 21.2582C321.15 21.1827 327.2 27.3156 326.16 37.2581C325.114 47.2584 317.422 53.6717 308.08 53.7446L308.269 51.9377C312.011 51.9085 315.492 50.6316 318.246 48.1854C321.035 45.707 323.082 42.0011 323.576 37.2778ZM341.227 37.1401C340.462 44.4506 336.922 50.8538 330.989 55.4843C325.012 60.1496 316.778 62.8748 307.117 62.9502C297.419 63.0257 289.703 60.4281 284.66 55.8504C282.751 54.1167 281.248 52.1182 280.158 49.9043C280.405 49.1854 280.576 48.4377 280.657 47.6629C280.98 44.5757 279.919 42.0852 278.043 40.2251C278.049 39.3756 278.098 38.5103 278.19 37.6317C278.94 30.4546 282.505 24.1085 288.467 19.5034C294.469 14.8668 302.739 12.129 312.44 12.0532C322.11 11.9778 329.777 14.6111 334.784 19.1692C339.755 23.6952 341.974 29.9936 341.227 37.1401Z" fill="#A585AE"/>
<path d="M280.657 47.6629C281.388 40.6684 275.026 36.7328 268.136 36.2667L268.066 36.1517C274.16 35.2649 278.332 32.0079 279.093 26.9702L279.155 26.4774C279.844 19.8876 272.398 15.2673 260.493 15.3602L260.681 13.5533C267.103 13.5032 272.548 14.7243 276.332 17.0046C280.149 19.3055 282.141 22.6142 281.739 26.4572C281.429 29.4214 280.072 32.0162 277.714 34.0338C276.907 34.724 275.997 35.3293 275.006 35.8516C277.237 36.7161 279.19 37.9618 280.641 39.5633C280.535 43.3124 281.297 46.7126 282.847 49.6483C281.844 53.1096 279.216 56.0706 275.253 58.2527C270.598 60.816 264.328 62.1863 257.159 62.2423L227.541 62.4733L227.73 60.6669L257.348 60.4359L258.598 60.412C270.968 60.0267 279.332 55.3697 280.559 48.37L280.657 47.6629ZM232.634 13.772L260.681 13.5533L260.493 15.3602L235.029 15.5588L230.479 59.0637L228.443 53.8458L232.634 13.772ZM265.876 46.6232C266.033 45.1245 265.21 44.0748 263.759 43.34C262.224 42.5626 259.916 42.1209 257.278 42.1415L247.048 42.2213L246.072 51.5567L256.633 51.4743L256.444 53.2809L243.299 53.3834L244.653 40.4351L257.468 40.3352C263.503 40.2881 268.907 42.3253 268.46 46.6028L268.405 46.9983C267.706 51.0249 262.931 53.2303 256.444 53.2809L256.633 51.4743C259.591 51.4513 261.846 50.9216 263.332 50.1272C264.739 49.3752 265.705 48.2593 265.876 46.6232ZM264.255 28.1529C264.404 26.731 263.69 25.7886 262.563 25.1578C261.363 24.486 259.556 24.1037 257.511 24.1197L248.934 24.1866L248.121 31.9614L257.525 31.8881L257.336 33.694L245.349 33.7875L246.54 22.3999L257.7 22.3129C262.661 22.2742 267.256 24.1444 266.839 28.1329C266.458 31.7747 262.71 33.6521 257.336 33.694L257.525 31.8881C259.824 31.8701 261.432 31.4603 262.441 30.8944C263.378 30.3682 264.111 29.5324 264.255 28.1529Z" fill="#A585AE"/>
<path d="M215.601 13.9048L231.059 53.5234L230.479 59.0637L213.571 15.7261L198.028 15.8473L170.909 61.11L183.31 61.0133L190.407 49.2331L214.051 49.0487L218.611 60.738L233.827 60.6193L234.53 62.4188L216.58 62.5587L212.019 50.8693L192.051 51.025L184.953 62.8054L167.087 62.9447L196.379 14.0547L215.601 13.9048ZM205 24.2256C205.479 28.3155 211.23 41.8002 211.252 41.8508L194.634 41.9804C194.634 41.9804 203.082 28.3414 204.338 24.2308L205 24.2256ZM204.062 30.459C203.217 32.0276 202.289 33.6713 201.407 35.1977C200.326 37.0668 199.281 38.8191 198.481 40.1453L207.754 40.0729C207.214 38.7592 206.513 37.0271 205.8 35.1787C205.213 33.6579 204.603 32.0204 204.062 30.459Z" fill="#A585AE"/>
<path d="M443.877 21.1497L443.817 21.8974L444.549 21.8917L444.625 21.1625L443.877 21.1497ZM425.689 21.2916L425.748 20.5439L425.017 20.5497L424.941 21.2788L425.689 21.2916ZM421.729 59.1539L421.67 59.9015L422.401 59.8958L422.477 59.1666L421.729 59.1539ZM409.246 59.2512L408.497 59.2385L408.417 60.0049L409.186 59.9989L409.246 59.2512ZM413.205 21.3889L413.953 21.4017L414.034 20.6353L413.265 20.6413L413.205 21.3889ZM395.1 21.5301L394.352 21.5174L394.272 22.2838L395.04 22.2778L395.1 21.5301ZM395.856 14.3045L395.915 13.5569L395.184 13.5626L395.107 14.2918L395.856 14.3045ZM444.632 13.9241L445.381 13.9369L445.461 13.1705L444.692 13.1765L444.632 13.9241ZM344.765 14.703L344.824 13.9553L344.093 13.961L344.016 14.6902L344.765 14.703ZM357.165 14.6062L357.914 14.619L357.994 13.8526L357.225 13.8586L357.165 14.6062ZM365.911 53.4091L365.163 53.3966L365.083 54.1627L365.852 54.1567L365.911 53.4091ZM380.072 43.5953L380.82 43.6081L380.82 43.6081L380.072 43.5953ZM383.125 14.4038L383.184 13.6562L382.453 13.6619L382.376 14.391L383.125 14.4038ZM395.195 14.3097L395.943 14.3224L396.023 13.556L395.254 13.562L395.195 14.3097ZM326.16 37.2581L326.908 37.2709L326.16 37.2581ZM308.08 53.7446L307.332 53.732L307.252 54.4982L308.021 54.4922L308.08 53.7446ZM268.136 36.2667L267.485 36.6954L267.665 36.9886L268.021 37.0126L268.136 36.2667ZM266.839 28.1329L267.587 28.1457L266.839 28.1329ZM246.54 22.3999L246.599 21.6523L245.868 21.658L245.791 22.3872L246.54 22.3999ZM245.349 33.7875L244.6 33.7748L244.52 34.5412L245.289 34.5352L245.349 33.7875ZM244.653 40.4351L244.713 39.6875L243.981 39.6932L243.905 40.4224L244.653 40.4351ZM243.299 53.3834L242.551 53.3707L242.471 54.1371L243.24 54.1311L243.299 53.3834ZM256.444 53.2809L256.385 54.0286L257.116 54.0229L257.193 53.2937L256.444 53.2809ZM214.051 49.0487L214.756 48.7271L214.588 48.2973L214.11 48.301L214.051 49.0487ZM190.407 49.2331L190.466 48.4854L190.012 48.489L189.77 48.8914L190.407 49.2331ZM183.31 61.0133L183.25 61.7609L183.704 61.7574L183.946 61.3549L183.31 61.0133ZM170.909 61.11L170.271 60.7701L169.613 61.8673L170.849 61.8576L170.909 61.11ZM198.028 15.8473L198.088 15.0997L197.633 15.1032L197.39 15.5074L198.028 15.8473ZM204.338 24.2308L204.398 23.4831L203.798 23.4878L203.62 24.0719L204.338 24.2308ZM194.634 41.9804L194.003 41.6299L193.317 42.7378L194.575 42.728L194.634 41.9804ZM443.877 21.1497L443.936 20.4021L425.748 20.5439L425.689 21.2916L425.629 22.0392L443.817 21.8974L443.877 21.1497ZM425.689 21.2916L424.941 21.2788L420.981 59.1411L421.729 59.1539L422.477 59.1666L426.437 21.3043L425.689 21.2916ZM421.729 59.1539L421.789 58.4063L409.305 58.5036L409.246 59.2512L409.186 59.9989L421.67 59.9015L421.729 59.1539ZM409.246 59.2512L409.994 59.264L413.953 21.4017L413.205 21.3889L412.457 21.3762L408.497 59.2385L409.246 59.2512ZM413.205 21.3889L413.265 20.6413L395.159 20.7825L395.1 21.5301L395.04 22.2778L413.146 22.1366L413.205 21.3889ZM395.1 21.5301L395.848 21.5429L396.604 14.3173L395.856 14.3045L395.107 14.2918L394.352 21.5174L395.1 21.5301ZM395.856 14.3045L395.796 15.0521L444.573 14.6717L444.632 13.9241L444.692 13.1765L395.915 13.5569L395.856 14.3045ZM444.632 13.9241L443.884 13.9114L443.129 21.137L443.877 21.1497L444.625 21.1625L445.381 13.9369L444.632 13.9241ZM341.633 44.646L342.381 44.6587L345.513 14.7157L344.765 14.703L344.016 14.6902L340.885 44.6332L341.633 44.646ZM344.765 14.703L344.705 15.4506L357.106 15.3539L357.165 14.6062L357.225 13.8586L344.824 13.9553L344.765 14.703ZM357.165 14.6062L356.417 14.5935L353.364 43.785L354.113 43.7978L354.861 43.8106L357.914 14.619L357.165 14.6062ZM365.911 53.4091L365.852 54.1567C369.867 54.1254 373.408 53.2731 376.061 51.5184C378.747 49.7411 380.457 47.078 380.82 43.6081L380.072 43.5953L379.324 43.5826C379.009 46.5869 377.566 48.8 375.305 50.2957C373.01 51.8141 369.809 52.6315 365.971 52.6615L365.911 53.4091ZM380.072 43.5953L380.82 43.6081L383.873 14.4165L383.125 14.4038L382.376 14.391L379.324 43.5826L380.072 43.5953ZM383.125 14.4038L383.065 15.1514L395.135 15.0573L395.195 14.3097L395.254 13.562L383.184 13.6562L383.125 14.4038ZM395.195 14.3097L394.447 14.2969L391.315 44.2399L392.063 44.2527L392.812 44.2654L395.943 14.3224L395.195 14.3097ZM338.644 37.1607L337.896 37.148C337.186 43.9334 333.926 49.6874 328.691 53.7732C323.446 57.8673 316.161 60.3274 307.366 60.396L307.306 61.1436L307.247 61.8913C316.309 61.8206 323.962 59.2837 329.555 54.9183C335.159 50.5448 338.639 44.3769 339.392 37.1735L338.644 37.1607ZM280.773 37.6121L281.521 37.6248C282.215 30.9902 285.485 25.2933 290.75 21.2258C296.026 17.1505 303.355 14.6757 312.192 14.6067L312.251 13.8591L312.311 13.1115C303.207 13.1825 295.514 15.7342 289.893 20.0755C284.263 24.4246 280.763 30.5341 280.025 37.5993L280.773 37.6121ZM326.16 37.2581L326.908 37.2709C327.446 32.127 326.153 27.8989 323.407 24.9671C320.664 22.0384 316.535 20.4716 311.537 20.5105L311.478 21.2582L311.418 22.0058C316.093 21.9693 319.825 23.4312 322.265 26.0357C324.702 28.6371 325.914 32.4467 325.412 37.2454L326.16 37.2581ZM311.478 21.2582L311.537 20.5105C301.914 20.5856 293.595 27.1127 292.508 37.502L293.256 37.5147L294.005 37.5275C294.998 28.0318 302.523 22.0752 311.418 22.0058L311.478 21.2582ZM308.08 53.7446L308.021 54.4922C312.864 54.4545 317.319 52.7707 320.705 49.7619C324.094 46.7503 326.367 42.4525 326.908 37.2709L326.16 37.2581L325.412 37.2454C324.908 42.064 322.811 45.973 319.758 48.6863C316.701 51.4026 312.638 52.9619 308.14 52.997L308.08 53.7446ZM235.029 15.5588L234.97 16.3064L260.433 16.1078L260.493 15.3602L260.552 14.6125L235.089 14.8111L235.029 15.5588ZM260.493 15.3602L260.433 16.1078C266.3 16.0621 270.996 17.18 274.117 19.0613C277.227 20.9361 278.715 23.519 278.407 26.4647L279.155 26.4774L279.904 26.4902C280.285 22.846 278.393 19.824 274.977 17.7644C271.57 15.7112 266.591 14.5655 260.552 14.6125L260.493 15.3602ZM268.066 36.1517L267.414 36.5804L267.485 36.6954L268.136 36.2667L268.788 35.838L268.717 35.723L268.066 36.1517ZM268.136 36.2667L268.021 37.0126C271.353 37.2381 274.52 38.3021 276.749 40.1119C278.961 41.9081 280.246 44.4278 279.909 47.6501L280.657 47.6629L281.405 47.6756C281.8 43.9035 280.269 40.9581 277.76 38.9214C275.268 36.8982 271.809 35.7614 268.252 35.5207L268.136 36.2667ZM266.839 28.1329L267.587 28.1457C267.834 25.7864 266.569 24.1016 264.698 23.0535C262.843 22.015 260.32 21.5453 257.76 21.5653L257.7 22.3129L257.641 23.0605C260.041 23.0418 262.296 23.4878 263.875 24.3719C265.437 25.2463 266.261 26.4909 266.091 28.1202L266.839 28.1329ZM257.7 22.3129L257.76 21.5653L246.599 21.6523L246.54 22.3999L246.48 23.1476L257.641 23.0605L257.7 22.3129ZM246.54 22.3999L245.791 22.3872L244.6 33.7748L245.349 33.7875L246.097 33.8003L247.288 22.4127L246.54 22.3999ZM245.349 33.7875L245.289 34.5352L257.277 34.4417L257.336 33.694L257.396 32.9464L245.408 33.0399L245.349 33.7875ZM257.336 33.694L257.277 34.4417C260.033 34.4202 262.463 33.93 264.285 32.9069C266.147 31.862 267.366 30.2583 267.587 28.1457L266.839 28.1329L266.091 28.1202C265.931 29.6493 265.086 30.8052 263.635 31.62C262.144 32.4565 260.013 32.926 257.396 32.9464L257.336 33.694ZM268.46 46.6028L269.208 46.6156C269.474 44.0748 267.969 42.283 265.781 41.1749C263.599 40.0698 260.615 39.5635 257.527 39.5875L257.468 40.3352L257.408 41.0828C260.355 41.0598 263.091 41.5486 265.008 42.5197C266.919 43.4878 267.893 44.8533 267.711 46.5901L268.46 46.6028ZM257.468 40.3352L257.527 39.5875L244.713 39.6875L244.653 40.4351L244.594 41.1827L257.408 41.0828L257.468 40.3352ZM244.653 40.4351L243.905 40.4224L242.551 53.3707L243.299 53.3834L244.048 53.3962L245.402 40.4479L244.653 40.4351ZM243.299 53.3834L243.24 54.1311L256.385 54.0286L256.444 53.2809L256.504 52.5333L243.359 52.6358L243.299 53.3834ZM218.611 60.738L219.316 60.4164L214.756 48.7271L214.051 49.0487L213.346 49.3702L217.906 61.0595L218.611 60.738ZM214.051 49.0487L214.11 48.301L190.466 48.4854L190.407 49.2331L190.347 49.9807L213.991 49.7963L214.051 49.0487ZM190.407 49.2331L189.77 48.8914L182.673 60.6716L183.31 61.0133L183.946 61.3549L191.043 49.5747L190.407 49.2331ZM183.31 61.0133L183.369 60.2656L170.968 60.3624L170.909 61.11L170.849 61.8576L183.25 61.7609L183.31 61.0133ZM170.909 61.11L171.546 61.4499L198.666 16.1872L198.028 15.8473L197.39 15.5074L170.271 60.7701L170.909 61.11ZM198.028 15.8473L197.969 16.595L213.511 16.4737L213.571 15.7261L213.63 14.9785L198.088 15.0997L198.028 15.8473ZM205 24.2256L205.059 23.478L204.398 23.4831L204.338 24.2308L204.279 24.9784L204.94 24.9732L205 24.2256ZM204.338 24.2308L203.62 24.0719C203.33 25.0194 202.601 26.581 201.63 28.4411C200.67 30.2828 199.503 32.3614 198.371 34.3183C197.24 36.274 196.148 38.1025 195.338 39.4424C194.933 40.1122 194.599 40.6596 194.366 41.0393C194.25 41.2291 194.159 41.377 194.097 41.4774C194.066 41.5275 194.043 41.5658 194.027 41.5915C194.019 41.6043 194.013 41.614 194.009 41.6204C194.007 41.6236 194.005 41.626 194.004 41.6276C194.004 41.6284 194.004 41.629 194.003 41.6294C194.003 41.6296 194.003 41.6297 194.003 41.6298C194.003 41.6299 194.003 41.6299 194.634 41.9804C195.266 42.3308 195.266 42.3307 195.266 42.3306C195.266 42.3305 195.266 42.3303 195.266 42.3301C195.267 42.3296 195.267 42.329 195.268 42.3281C195.269 42.3264 195.27 42.3239 195.272 42.3205C195.276 42.3138 195.283 42.3039 195.291 42.2908C195.307 42.2646 195.331 42.2258 195.362 42.175C195.425 42.0736 195.516 41.9244 195.633 41.7333C195.868 41.3511 196.203 40.8008 196.61 40.1277C197.424 38.7818 198.522 36.9436 199.66 34.9758C200.797 33.0091 201.977 30.9073 202.954 29.0355C203.921 27.1822 204.718 25.4975 205.057 24.3897L204.338 24.2308ZM194.634 41.9804L194.575 42.728L211.192 42.5984L211.252 41.8508L211.311 41.1031L194.694 41.2327L194.634 41.9804ZM365.911 53.4091L366.66 53.4217L366.848 51.6156L366.1 51.603L365.351 51.5905L365.163 53.3966L365.911 53.4091ZM308.269 51.9377L307.52 51.9251L307.332 53.732L308.08 53.7446L308.828 53.7572L309.017 51.9503L308.269 51.9377ZM260.493 15.3602L261.241 15.3728L261.43 13.5659L260.681 13.5533L259.933 13.5406L259.744 15.3475L260.493 15.3602ZM256.633 51.4743L255.885 51.4616L255.696 53.2682L256.444 53.2809L257.193 53.2937L257.381 51.4871L256.633 51.4743ZM257.525 31.8881L256.777 31.8752L256.588 33.6812L257.336 33.694L258.084 33.7069L258.274 31.9009L257.525 31.8881ZM392.063 44.2527L393.56 44.2782L390.57 44.2019L392.063 44.2527ZM341.633 44.646L343.132 44.6494L340.137 44.6205L341.633 44.646ZM354.113 43.7978L355.612 43.7886L352.616 43.7723L354.113 43.7978ZM365.911 53.4091L365.792 54.9044L366.049 51.9138L365.911 53.4091ZM395.195 14.3097L396.691 14.3351L396.852 12.8028L395.314 12.8144L395.195 14.3097ZM338.644 37.1607L337.147 37.1353L340.14 37.1863L338.644 37.1607ZM307.306 61.1436L307.187 62.6389L307.438 59.6483L307.306 61.1436ZM280.773 37.6121L282.271 37.6181L279.276 37.5866L280.773 37.6121ZM312.251 13.8591L312.37 12.3638L312.119 15.3544L312.251 13.8591ZM293.256 37.5147L294.756 37.5074L291.76 37.4892L293.256 37.5147ZM308.08 53.7446L307.961 55.2399L308.199 52.2493L308.08 53.7446ZM230.314 60.6467L228.818 60.6212L228.657 62.154L230.195 62.142L230.314 60.6467ZM235.029 15.5588L236.526 15.5843L233.533 15.5332L235.029 15.5588ZM279.155 26.4774L280.652 26.5029L277.663 26.4183L279.155 26.4774ZM268.46 46.6028L269.956 46.6283L266.969 46.5279L268.46 46.6028ZM231.094 60.6406L230.975 62.1359L233.331 62.1175L232.504 59.9974L231.094 60.6406ZM211.252 41.8508L209.858 42.5332L212.645 41.1685L211.252 41.8508ZM205 24.2256L206.494 23.9264L203.505 24.5248L205 24.2256ZM446.271 22.9355L446.152 24.4308L447.615 24.4193L447.768 22.961L446.271 22.9355ZM428.084 23.0773L428.203 21.5821L426.74 21.5935L426.587 23.0518L428.084 23.0773ZM424.124 60.9401L424.005 62.4354L425.468 62.424L425.621 60.9657L424.124 60.9401ZM406.474 61.0778L404.977 61.0523L404.817 62.5851L406.355 62.5731L406.474 61.0778ZM410.433 23.215L411.93 23.2405L412.09 21.7077L410.552 21.7197L410.433 23.215ZM394.251 23.3412L392.754 23.3158L392.594 24.8484L394.132 24.8364L394.251 23.3412ZM393.271 14.3241L391.775 14.2986L391.615 15.831L393.152 15.8194L393.271 14.3241ZM393.46 12.5177L393.579 11.0225L392.116 11.0339L391.964 12.4922L393.46 12.5177ZM447.405 12.097L448.901 12.1225L449.062 10.5898L447.524 10.6018L447.405 12.097ZM341.592 45.1067L340.093 45.1033L340.092 45.1166L340.091 45.1299L341.592 45.1067ZM364.452 60.6934L364.312 62.1887L364.323 62.1887L364.452 60.6934ZM392.007 44.7159L393.498 44.7916L393.499 44.7791L393.501 44.7667L392.007 44.7159ZM366.1 51.603L365.981 53.0983L365.981 53.0983L366.1 51.603ZM373.985 49.6473L374.74 50.8701L374.74 50.87L373.985 49.6473ZM377.488 43.6153L375.991 43.5898L375.991 43.5898L377.488 43.6153ZM380.729 12.617L380.848 11.1218L379.385 11.1332L379.233 12.5915L380.729 12.617ZM397.968 12.4826L399.465 12.5081L399.625 10.9753L398.087 10.9873L397.968 12.4826ZM397.779 14.289L397.66 15.7843L399.123 15.7725L399.276 14.3145L397.779 14.289ZM397.023 21.5146L398.52 21.5401L398.68 20.007L397.142 20.0194L397.023 21.5146ZM394.648 44.2323L393.151 44.2068L393.151 44.2068L394.648 44.2323ZM385.26 57.4888L385.949 58.7533L385.949 58.7532L385.26 57.4888ZM364.96 62.4991L364.841 63.9943L364.841 63.9943L364.96 62.4991ZM345.513 57.7683L344.596 59.0286L344.596 59.0286L345.513 57.7683ZM339.05 44.6659L337.553 44.6404L337.553 44.6404L339.05 44.6659ZM342.37 12.9162L342.489 11.4209L341.026 11.4323L340.874 12.8907L342.37 12.9162ZM359.938 12.7792L361.435 12.8047L361.595 11.2719L360.057 11.2839L359.938 12.7792ZM356.697 43.7774L358.193 43.8029L358.193 43.8029L356.697 43.7774ZM358.807 49.7891L357.816 50.9957L357.816 50.9957L358.807 49.7891ZM365.185 53.4057L365.026 54.9007L365.037 54.9009L365.047 54.901L365.185 53.4057ZM354.064 44.3949L352.564 44.4041L352.563 44.4233L352.562 44.4425L354.064 44.3949ZM313.083 13.8602L313.228 12.3649L313.216 12.3649L313.083 13.8602ZM280.713 38.2642L279.215 38.2582L279.214 38.267L279.213 38.2758L280.713 38.2642ZM306.471 61.1432L306.326 62.6386L306.339 62.6386L306.471 61.1432ZM323.576 37.2778L325.073 37.3033L325.073 37.3033L323.576 37.2778ZM320.632 26.5757L321.774 25.5071L321.774 25.5071L320.632 26.5757ZM311.288 23.0646L311.407 21.5693L311.407 21.5693L311.288 23.0646ZM295.84 37.4941L294.344 37.4685L294.344 37.4686L295.84 37.4941ZM298.856 48.3366L297.712 49.4032L297.712 49.4033L298.856 48.3366ZM308.269 51.9377L308.15 53.433L308.15 53.433L308.269 51.9377ZM293.18 38.4408L291.68 38.4481L291.679 38.4641L291.678 38.4801L293.18 38.4408ZM318.246 48.1854L319.193 49.261L319.193 49.261L318.246 48.1854ZM341.227 37.1401L342.723 37.1656L342.723 37.1656L341.227 37.1401ZM330.989 55.4843L331.853 56.6295L331.853 56.6294L330.989 55.4843ZM307.117 62.9502L306.998 64.4455L306.998 64.4455L307.117 62.9502ZM284.66 55.8504L283.594 56.9936L283.594 56.9936L284.66 55.8504ZM280.158 49.9043L278.738 49.5343L278.535 50.1249L278.795 50.6527L280.158 49.9043ZM278.043 40.2251L276.538 40.345L276.534 40.9315L276.935 41.3286L278.043 40.2251ZM278.19 37.6317L276.693 37.6062L276.693 37.6062L278.19 37.6317ZM288.467 19.5034L287.61 18.353L287.61 18.3531L288.467 19.5034ZM312.44 12.0532L312.559 10.558L312.559 10.558L312.44 12.0532ZM334.784 19.1692L335.851 18.0273L335.851 18.0273L334.784 19.1692ZM279.093 26.9702L280.58 27.0646L280.583 27.047L280.585 27.0293L279.093 26.9702ZM276.332 17.0046L277.191 15.7078L277.191 15.7078L276.332 17.0046ZM281.739 26.4572L283.236 26.4827L283.236 26.4827L281.739 26.4572ZM277.714 34.0338L278.637 35.1305L278.637 35.1304L277.714 34.0338ZM275.006 35.8516L274.394 34.5435L271.417 36.1126L274.356 37.2515L275.006 35.8516ZM280.641 39.5633L282.145 39.4751L282.161 38.9116L281.798 38.5107L280.641 39.5633ZM282.847 49.6483L284.29 49.9441L284.457 49.3674L284.193 48.866L282.847 49.6483ZM275.253 58.2527L275.892 59.5463L275.892 59.5463L275.253 58.2527ZM257.159 62.2423L257.04 63.7375L257.04 63.7375L257.159 62.2423ZM227.541 62.4733L226.045 62.4477L225.884 63.9805L227.422 63.9685L227.541 62.4733ZM227.73 60.6669L227.849 59.1716L226.386 59.183L226.234 60.6413L227.73 60.6669ZM258.598 60.412L258.495 61.9071L258.505 61.9069L258.514 61.9066L258.598 60.412ZM280.559 48.37L282.041 48.5005L282.045 48.4736L282.049 48.4467L280.559 48.37ZM232.634 13.772L232.753 12.2767L231.29 12.2881L231.138 13.7465L232.634 13.772ZM230.479 59.0637L229.07 59.7069L231.976 59.0893L230.479 59.0637ZM228.443 53.8458L226.947 53.8203L226.91 54.1717L227.034 54.4889L228.443 53.8458ZM265.876 46.6232L267.373 46.6488L267.373 46.6487L265.876 46.6232ZM263.759 43.34L264.532 41.9953L264.532 41.9952L263.759 43.34ZM247.048 42.2213L247.167 40.726L245.704 40.7374L245.552 42.1957L247.048 42.2213ZM246.072 51.5567L244.576 51.5312L244.415 53.064L245.953 53.052L246.072 51.5567ZM256.633 51.4743L256.514 52.9696L256.514 52.9696L256.633 51.4743ZM268.405 46.9983L269.887 47.1262L269.892 47.0998L269.896 47.0733L268.405 46.9983ZM263.332 50.1272L263.952 51.4306L263.952 51.4306L263.332 50.1272ZM264.255 28.1529L265.752 28.1784L265.752 28.1783L264.255 28.1529ZM262.563 25.1578L263.386 23.8394L263.386 23.8393L262.563 25.1578ZM248.934 24.1866L249.054 22.6913L247.59 22.7027L247.438 24.1611L248.934 24.1866ZM248.121 31.9614L246.625 31.9359L246.465 33.4687L248.002 33.4567L248.121 31.9614ZM257.525 31.8881L257.406 33.3833L257.406 33.3833L257.525 31.8881ZM262.441 30.8944L263.091 32.1814L263.092 32.1813L262.441 30.8944ZM215.601 13.9048L217.01 13.2616L216.675 12.4021L215.72 12.4096L215.601 13.9048ZM231.059 53.5234L232.555 53.5489L232.592 53.1975L232.468 52.8802L231.059 53.5234ZM233.827 60.6193L235.237 59.9758L234.901 59.1166L233.946 59.124L233.827 60.6193ZM234.53 62.4188L234.411 63.914L236.767 63.8956L235.939 61.7753L234.53 62.4188ZM216.58 62.5587L215.17 63.2019L215.506 64.0615L216.461 64.054L216.58 62.5587ZM212.019 50.8693L213.429 50.2261L213.093 49.3666L212.138 49.374L212.019 50.8693ZM192.051 51.025L192.17 49.5298L191.262 49.5368L190.777 50.3417L192.051 51.025ZM184.953 62.8054L184.834 64.3007L185.742 64.2936L186.227 63.4887L184.953 62.8054ZM167.087 62.9447L165.812 62.2649L164.497 64.4593L166.968 64.44L167.087 62.9447ZM196.379 14.0547L196.498 12.5595L195.588 12.5666L195.104 13.3749L196.379 14.0547ZM204.062 30.459L205.489 29.865L204.412 26.7557L202.748 29.8455L204.062 30.459ZM201.407 35.1977L202.695 35.8552L202.695 35.8552L201.407 35.1977ZM198.481 40.1453L197.208 39.461L195.881 41.6599L198.362 41.6405L198.481 40.1453ZM207.754 40.0729L207.634 41.5682L210.034 41.5495L209.154 39.4075L207.754 40.0729ZM205.8 35.1787L204.389 35.8172L204.389 35.8172L205.8 35.1787ZM392.063 44.2527L390.567 44.2272C390.111 48.588 387.416 52.248 382.983 54.8941C378.519 57.5589 372.349 59.1421 365.269 59.1973L365.15 60.6925L365.03 62.1878C372.5 62.1296 379.268 60.464 384.363 57.4229C389.489 54.363 392.976 49.8598 393.56 44.2782L392.063 44.2527ZM365.15 60.6925L365.269 59.1973C357.974 59.2542 352.146 57.7472 348.309 55.1594C344.516 52.6016 342.676 49.013 343.13 44.6715L341.633 44.646L340.137 44.6205C339.557 50.1636 341.992 54.6567 346.475 57.6801C350.914 60.6736 357.361 62.2476 365.03 62.1878L365.15 60.6925ZM354.113 43.7978L352.616 43.7723C352.232 47.4406 353.362 50.3419 355.822 52.2608C358.211 54.1249 361.694 54.9363 365.792 54.9044L365.911 53.4091L366.03 51.9138C362.275 51.9431 359.519 51.186 357.804 49.8477C356.158 48.5641 355.316 46.6291 355.609 43.8233L354.113 43.7978ZM307.306 61.1436L307.425 59.6484C298.717 59.7163 292.09 57.3997 287.83 53.5329C283.593 49.6874 281.582 44.2084 282.269 37.6376L280.773 37.6121L279.276 37.5866C278.501 45.0045 280.786 51.3613 285.697 55.8194C290.585 60.2561 297.955 62.7109 307.187 62.6389L307.306 61.1436ZM312.251 13.8591L312.132 15.3544C320.793 15.2868 327.378 17.6293 331.611 21.4839C335.824 25.3195 337.816 30.7442 337.147 37.1352L338.644 37.1607L340.14 37.1863C340.899 29.9353 338.623 23.6395 333.747 19.2C328.892 14.7794 321.567 12.2921 312.37 12.3638L312.251 13.8591ZM293.256 37.5147L291.76 37.4892C291.2 42.8417 292.574 47.3325 295.505 50.4747C298.431 53.6113 302.792 55.2802 307.961 55.2399L308.08 53.7446L308.199 52.2493C303.695 52.2845 300.122 50.8386 297.793 48.3414C295.469 45.8499 294.267 42.188 294.753 37.5402L293.256 37.5147ZM280.657 47.6629L279.16 47.6374C278.829 50.8043 276.808 53.5454 273.118 55.5778C269.389 57.631 264.047 58.8893 257.467 58.9406L257.348 60.4359L257.229 61.9311C264.125 61.8773 270.038 60.5643 274.395 58.1648C278.791 55.7445 281.687 52.1517 282.153 47.6884L280.657 47.6629ZM257.348 60.4359L257.467 58.9406L230.433 59.1514L230.314 60.6467L230.195 62.142L257.229 61.9311L257.348 60.4359ZM230.314 60.6467L231.811 60.6722L236.526 15.5843L235.029 15.5588L233.533 15.5333L228.818 60.6212L230.314 60.6467ZM279.155 26.4774L277.659 26.4519C277.422 28.7145 276.422 30.5138 274.838 31.8689C273.224 33.2494 270.909 34.2457 267.976 34.6725L268.066 36.1517L268.155 37.631C271.513 37.1423 274.465 35.9605 276.684 34.0622C278.933 32.1386 280.332 29.5584 280.652 26.5029L279.155 26.4774ZM256.444 53.2809L256.325 54.7762C259.815 54.749 262.989 54.1269 265.416 52.8299C267.899 51.5028 269.665 49.413 269.956 46.6283L268.46 46.6028L266.963 46.5773C266.807 48.0702 265.914 49.2933 264.175 50.2229C262.38 51.1824 259.77 51.7607 256.563 51.7857L256.444 53.2809ZM231.094 60.6406L231.213 59.1453L218.73 59.2427L218.611 60.738L218.492 62.2332L230.975 62.1359L231.094 60.6406ZM213.571 15.7261L212.161 16.3693L229.685 61.2838L231.094 60.6406L232.504 59.9974L214.98 15.0829L213.571 15.7261ZM211.252 41.8508C212.645 41.1684 212.645 41.1684 212.645 41.1683C212.645 41.1682 212.645 41.1681 212.645 41.1679C212.645 41.1676 212.645 41.1671 212.644 41.1663C212.644 41.1648 212.643 41.1625 212.641 41.1593C212.639 41.1531 212.635 41.1436 212.629 41.131C212.619 41.1058 212.603 41.0682 212.582 41.0187C212.54 40.9198 212.478 40.7737 212.399 40.586C212.241 40.2106 212.015 39.6692 211.742 39.0064C211.196 37.6802 210.464 35.8709 209.717 33.936C208.969 31.9989 208.212 29.9472 207.613 28.1331C207.002 26.2825 206.596 24.7915 206.494 23.9265L205 24.2256L203.505 24.5248C203.643 25.7083 204.138 27.4446 204.745 29.2829C205.364 31.1576 206.139 33.2561 206.894 35.2132C207.651 37.1724 208.391 39.0013 208.942 40.3396C209.218 41.0091 209.446 41.5565 209.606 41.937C209.686 42.1272 209.749 42.2758 209.792 42.377C209.813 42.4276 209.83 42.4664 209.841 42.4927C209.847 42.5058 209.851 42.5158 209.854 42.5226C209.855 42.526 209.856 42.5285 209.857 42.5303C209.857 42.5312 209.858 42.5319 209.858 42.5324C209.858 42.5326 209.858 42.5328 209.858 42.5329C209.858 42.5331 209.858 42.5332 211.252 41.8508ZM446.271 22.9355L446.39 21.4402L428.203 21.5821L428.084 23.0773L427.965 24.5726L446.152 24.4308L446.271 22.9355ZM428.084 23.0773L426.587 23.0518L422.628 60.9146L424.124 60.9401L425.621 60.9657L429.581 23.1028L428.084 23.0773ZM424.124 60.9401L424.243 59.4449L406.593 59.5825L406.474 61.0778L406.355 62.5731L424.005 62.4354L424.124 60.9401ZM406.474 61.0778L407.97 61.1033L411.93 23.2405L410.433 23.215L408.937 23.1895L404.977 61.0523L406.474 61.0778ZM410.433 23.215L410.552 21.7197L394.37 21.8459L394.251 23.3412L394.132 24.8364L410.314 24.7102L410.433 23.215ZM394.251 23.3412L395.748 23.3666L396.691 14.3351L395.195 14.3097L393.698 14.2842L392.754 23.3158L394.251 23.3412ZM395.195 14.3097L395.314 12.8144L393.391 12.8289L393.271 14.3241L393.152 15.8194L395.075 15.8049L395.195 14.3097ZM393.271 14.3241L394.768 14.3497L394.957 12.5433L393.46 12.5177L391.964 12.4922L391.775 14.2986L393.271 14.3241ZM393.46 12.5177L393.341 14.013L447.286 13.5923L447.405 12.097L447.524 10.6018L393.579 11.0225L393.46 12.5177ZM447.405 12.097L445.908 12.0715L444.775 22.91L446.271 22.9355L447.768 22.961L448.901 12.1225L447.405 12.097ZM341.633 44.646L340.134 44.6425L340.093 45.1033L341.592 45.1067L343.09 45.1102L343.132 44.6494L341.633 44.646ZM341.592 45.1067L340.091 45.1299C339.708 50.4466 342.135 54.7535 346.475 57.6801C350.776 60.5806 356.961 62.1477 364.312 62.1887L364.452 60.6934L364.591 59.1981C357.61 59.1592 352.025 57.6658 348.309 55.1594C344.631 52.6791 342.794 49.2327 343.093 45.0836L341.592 45.1067ZM364.452 60.6934L364.323 62.1887L365.021 62.1879L365.15 60.6925L365.279 59.1972L364.58 59.1981L364.452 60.6934ZM365.15 60.6925L365.03 62.1878C372.385 62.1305 379.056 60.5153 384.122 57.5648C389.214 54.5989 392.746 50.2305 393.498 44.7916L392.007 44.7159L390.517 44.6402C389.931 48.8784 387.195 52.4424 382.774 55.0177C378.326 57.6083 372.238 59.1429 365.269 59.1973L365.15 60.6925ZM392.007 44.7159L393.501 44.7667L393.557 44.3035L392.063 44.2527L390.57 44.2019L390.514 44.6651L392.007 44.7159ZM366.1 51.603L365.981 53.0983C369.583 53.0702 372.556 52.3152 374.74 50.8701L373.985 49.6473L373.229 48.4244C371.757 49.3981 369.464 50.0824 366.219 50.1077L366.1 51.603ZM373.985 49.6473L374.74 50.87C376.991 49.3813 378.632 47.003 378.984 43.6408L377.488 43.6153L375.991 43.5898C375.737 46.018 374.63 47.4975 373.229 48.4245L373.985 49.6473ZM377.488 43.6153L378.984 43.6408L382.226 12.6425L380.729 12.617L379.233 12.5915L375.991 43.5898L377.488 43.6153ZM380.729 12.617L380.61 14.1123L397.849 13.9779L397.968 12.4826L398.087 10.9873L380.848 11.1218L380.729 12.617ZM397.968 12.4826L396.471 12.4571L396.283 14.2635L397.779 14.289L399.276 14.3145L399.465 12.5081L397.968 12.4826ZM397.779 14.289L397.898 12.7937L395.974 12.8092L395.856 14.3045L395.737 15.7998L397.66 15.7843L397.779 14.289ZM395.1 21.5301L394.981 23.0254L396.905 23.0099L397.023 21.5146L397.142 20.0194L395.219 20.0349L395.1 21.5301ZM397.023 21.5146L395.527 21.4891L393.151 44.2068L394.648 44.2323L396.144 44.2578L398.52 21.5401L397.023 21.5146ZM394.648 44.2323L393.151 44.2068C392.645 49.0481 389.62 53.2104 384.57 56.2244L385.26 57.4888L385.949 58.7532C391.693 55.3251 395.51 50.3194 396.144 44.2578L394.648 44.2323ZM385.26 57.4888L384.57 56.2244C379.519 59.2396 372.686 60.9445 365.079 61.0038L364.96 62.4991L364.841 63.9943C372.837 63.932 380.267 62.145 385.949 58.7533L385.26 57.4888ZM364.96 62.4991L365.079 61.0038C357.267 61.0647 350.791 59.4489 346.43 56.5079L345.513 57.7683L344.596 59.0286C349.558 62.3754 356.654 64.0581 364.841 63.9943L364.96 62.4991ZM345.513 57.7683L346.43 56.5079C342.091 53.5818 340.044 49.4939 340.546 44.6914L339.05 44.6659L337.553 44.6404C336.925 50.644 339.566 55.6366 344.596 59.0286L345.513 57.7683ZM339.05 44.6659L340.546 44.6914L343.867 12.9417L342.37 12.9162L340.874 12.8907L337.553 44.6404L339.05 44.6659ZM342.37 12.9162L342.251 14.4114L359.819 14.2744L359.938 12.7792L360.057 11.2839L342.489 11.4209L342.37 12.9162ZM359.938 12.7792L358.442 12.7537L355.2 43.7519L356.697 43.7774L358.193 43.8029L361.435 12.8047L359.938 12.7792ZM356.697 43.7774L355.2 43.7519C354.849 47.1107 355.908 49.5068 357.816 50.9957L358.807 49.7891L359.798 48.5826C358.702 47.7276 357.932 46.2967 358.193 43.8029L356.697 43.7774ZM358.807 49.7891L357.816 50.9957C359.643 52.4206 362.388 53.1263 365.981 53.0983L366.1 51.603L366.219 50.1077C362.972 50.133 360.952 49.4828 359.798 48.5826L358.807 49.7891ZM365.911 53.4091L366.049 51.9138L365.323 51.9104L365.185 53.4057L365.047 54.901L365.773 54.9044L365.911 53.4091ZM365.185 53.4057L365.344 51.9106C361.932 51.8472 359.41 51.1014 357.804 49.848C356.254 48.6392 355.427 46.8629 355.566 44.3472L354.064 44.3949L352.562 44.4425C352.375 47.8049 353.522 50.4673 355.822 52.2611C358.064 54.0102 361.266 54.8308 365.026 54.9007L365.185 53.4057ZM354.064 44.3949L355.564 44.3857L355.612 43.7886L354.113 43.7978L352.613 43.807L352.564 44.4041L354.064 44.3949ZM338.644 37.1607L340.14 37.1862C340.886 30.0499 338.694 23.8369 333.972 19.4087C329.27 14.9984 322.164 12.4511 313.228 12.365L313.083 13.8602L312.937 15.3555C321.336 15.4365 327.713 17.8252 331.808 21.6662C335.885 25.4893 337.805 30.8431 337.147 37.1353L338.644 37.1607ZM313.083 13.8602L313.216 12.3649L312.384 12.3638L312.251 13.8591L312.119 15.3544L312.95 15.3555L313.083 13.8602ZM280.773 37.6121L279.274 37.6061L279.215 38.2582L280.713 38.2642L282.212 38.2702L282.271 37.6181L280.773 37.6121ZM280.713 38.2642L279.213 38.2758C278.645 45.4009 280.942 51.5019 285.697 55.8192C290.432 60.1173 297.497 62.5557 306.326 62.6385L306.471 61.1432L306.616 59.648C298.304 59.5701 291.956 57.2789 287.83 53.5328C283.724 49.8058 281.711 44.5476 282.213 38.2526L280.713 38.2642ZM306.471 61.1432L306.339 62.6386L307.175 62.639L307.306 61.1436L307.438 59.6483L306.602 59.6479L306.471 61.1432ZM323.576 37.2778L325.073 37.3033C325.601 32.2472 324.31 28.2146 321.774 25.5071L320.632 26.5757L319.49 27.6443C321.407 29.6912 322.536 32.887 322.08 37.2523L323.576 37.2778ZM320.632 26.5757L321.774 25.5071C319.286 22.8512 315.682 21.536 311.407 21.5693L311.288 23.0646L311.169 24.5598C314.801 24.5315 317.61 25.6376 319.49 27.6444L320.632 26.5757ZM311.288 23.0646L311.407 21.5693C307.486 21.6 303.491 22.9544 300.323 25.6496C297.134 28.3629 294.879 32.3547 294.344 37.4685L295.84 37.4941L297.337 37.5196C297.792 33.1637 299.67 29.9688 302.162 27.8489C304.675 25.7108 307.909 24.5854 311.169 24.5598L311.288 23.0646ZM295.84 37.4941L294.344 37.4686C293.812 42.554 295.139 46.6451 297.712 49.4032L298.856 48.3366L300 47.27C298.034 45.1623 296.879 41.8999 297.337 37.5196L295.84 37.4941ZM298.856 48.3366L297.712 49.4033C300.242 52.1158 303.887 53.4661 308.15 53.433L308.269 51.9377L308.388 50.4424C304.788 50.4704 301.932 49.3419 300 47.2699L298.856 48.3366ZM308.08 53.7446L308.199 52.2493C303.836 52.2833 300.346 50.9266 298.016 48.5733C295.692 46.2262 294.414 42.7797 294.682 38.4015L293.18 38.4408L291.678 38.4801C291.367 43.5635 292.854 47.8054 295.783 50.7629C298.705 53.7144 302.954 55.2788 307.961 55.2399L308.08 53.7446ZM293.18 38.4408L294.68 38.4335L294.756 37.5074L293.256 37.5147L291.757 37.522L291.68 38.4481L293.18 38.4408ZM308.269 51.9377L308.15 53.433C312.236 53.4011 316.11 52.0005 319.193 49.261L318.246 48.1854L317.298 47.1098C314.875 49.2628 311.786 50.4159 308.388 50.4424L308.269 51.9377ZM318.246 48.1854L319.193 49.261C322.318 46.4843 324.541 42.3895 325.073 37.3033L323.576 37.2778L322.08 37.2523C321.624 41.6128 319.752 44.9297 317.298 47.1098L318.246 48.1854ZM341.227 37.1401L339.73 37.1146C339.009 44.0074 335.689 49.9967 330.126 54.3392L330.989 55.4843L331.853 56.6294C338.155 51.7109 341.915 44.8938 342.723 37.1656L341.227 37.1401ZM330.989 55.4843L330.126 54.3392C324.496 58.7332 316.631 61.3817 307.236 61.4549L307.117 62.9502L306.998 64.4455C316.926 64.368 325.528 61.566 331.853 56.6295L330.989 55.4843ZM307.117 62.9502L307.236 61.4549C297.8 61.5284 290.456 58.9999 285.727 54.7071L284.66 55.8504L283.594 56.9936C288.951 61.8563 297.038 64.523 306.998 64.4455L307.117 62.9502ZM284.66 55.8504L285.727 54.7071C283.936 53.0821 282.535 51.2163 281.521 49.1558L280.158 49.9043L278.795 50.6527C279.96 53.0201 281.565 55.1513 283.594 56.9936L284.66 55.8504ZM280.158 49.9043L281.578 50.2743C281.862 49.4464 282.06 48.5831 282.153 47.6884L280.657 47.6629L279.16 47.6373C279.092 48.2922 278.948 48.9244 278.738 49.5343L280.158 49.9043ZM280.657 47.6629L282.153 47.6884C282.526 44.1262 281.286 41.2381 279.151 39.1216L278.043 40.2251L276.935 41.3286C278.552 42.9323 279.434 45.0252 279.16 47.6374L280.657 47.6629ZM278.043 40.2251L279.547 40.1053C279.553 39.3058 279.599 38.489 279.686 37.6572L278.19 37.6317L276.693 37.6062C276.596 38.5316 276.544 39.4454 276.538 40.345L278.043 40.2251ZM278.19 37.6317L279.686 37.6573C280.392 30.9105 283.727 24.9771 289.324 20.6538L288.467 19.5034L287.61 18.3531C281.283 23.2399 277.489 29.9987 276.693 37.6062L278.19 37.6317ZM288.467 19.5034L289.324 20.6538C294.982 16.2831 302.886 13.6222 312.321 13.5485L312.44 12.0532L312.559 10.558C302.591 10.6358 293.957 13.4504 287.61 18.353L288.467 19.5034ZM312.44 12.0532L312.321 13.5485C321.723 13.4752 329.021 16.0361 333.716 20.3112L334.784 19.1692L335.851 18.0273C330.534 13.186 322.497 10.4805 312.559 10.558L312.44 12.0532ZM334.784 19.1692L333.716 20.3112C338.355 24.535 340.433 30.3977 339.73 37.1146L341.227 37.1401L342.723 37.1656C343.515 29.5895 341.154 22.8555 335.851 18.0273L334.784 19.1692ZM268.066 36.1517L268.155 37.631C271.409 37.1575 274.28 36.0335 276.474 34.2381C278.695 32.4203 280.141 29.9772 280.58 27.0646L279.093 26.9702L277.605 26.8757C277.284 29.0009 276.263 30.7052 274.685 31.997C273.079 33.3112 270.817 34.2591 267.976 34.6725L268.066 36.1517ZM279.093 26.9702L280.585 27.0293L280.648 26.5365L279.155 26.4774L277.663 26.4183L277.6 26.9111L279.093 26.9702ZM260.681 13.5533L260.562 15.0485C266.812 14.9998 271.974 16.1931 275.472 18.3015L276.332 17.0046L277.191 15.7078C273.123 13.2555 267.394 12.0066 260.8 12.058L260.681 13.5533ZM276.332 17.0046L275.472 18.3015C278.983 20.4179 280.572 23.2877 280.243 26.4317L281.739 26.4572L283.236 26.4827C283.711 21.9406 281.314 18.1931 277.191 15.7078L276.332 17.0046ZM281.739 26.4572L280.243 26.4317C279.974 28.9997 278.817 31.2039 276.79 32.9372L277.714 34.0338L278.637 35.1304C281.328 32.8284 282.885 29.8432 283.236 26.4827L281.739 26.4572ZM277.714 34.0338L276.791 32.9371C276.09 33.5361 275.288 34.0726 274.394 34.5435L275.006 35.8516L275.618 37.1597C276.706 36.586 277.723 35.912 278.637 35.1305L277.714 34.0338ZM275.006 35.8516L274.356 37.2515C276.431 38.0551 278.197 39.1951 279.484 40.6158L280.641 39.5633L281.798 38.5107C280.183 36.7286 278.044 35.3771 275.655 34.4518L275.006 35.8516ZM280.641 39.5633L279.137 39.6514C279.024 43.6316 279.834 47.2728 281.501 50.4306L282.847 49.6483L284.193 48.866C282.76 46.1525 282.046 42.9931 282.145 39.4751L280.641 39.5633ZM282.847 49.6483L281.403 49.3524C280.551 52.2946 278.29 54.9351 274.614 56.9592L275.253 58.2527L275.892 59.5463C280.142 57.2061 283.137 53.9245 284.29 49.9441L282.847 49.6483ZM275.253 58.2527L274.614 56.9592C270.274 59.3493 264.289 60.6923 257.278 60.747L257.159 62.2423L257.04 63.7375C264.368 63.6804 270.922 62.2828 275.892 59.5463L275.253 58.2527ZM257.159 62.2423L257.278 60.747L227.66 60.978L227.541 62.4733L227.422 63.9685L257.04 63.7375L257.159 62.2423ZM227.541 62.4733L229.038 62.4988L229.227 60.6924L227.73 60.6669L226.234 60.6413L226.045 62.4477L227.541 62.4733ZM227.73 60.6669L227.611 62.1621L257.229 61.9311L257.348 60.4359L257.467 58.9406L227.849 59.1716L227.73 60.6669ZM257.348 60.4359L257.246 61.9309L258.495 61.9071L258.598 60.412L258.7 58.917L257.45 58.9408L257.348 60.4359ZM258.598 60.412L258.514 61.9066C264.855 61.7091 270.308 60.4157 274.396 58.165C278.51 55.8992 281.321 52.6028 282.041 48.5005L280.559 48.37L279.077 48.2395C278.569 51.137 276.585 53.6689 273.118 55.5779C269.624 57.5019 264.71 58.7297 258.681 58.9174L258.598 60.412ZM280.559 48.37L282.049 48.4467L282.147 47.7395L280.657 47.6629L279.167 47.5862L279.068 48.2934L280.559 48.37ZM232.634 13.772L232.515 15.2673L260.562 15.0485L260.681 13.5533L260.8 12.058L232.753 12.2767L232.634 13.772ZM235.029 15.5588L233.533 15.5332L228.983 59.0382L230.479 59.0637L231.976 59.0893L236.526 15.5843L235.029 15.5588ZM230.479 59.0637L231.889 58.4206L229.853 53.2026L228.443 53.8458L227.034 54.4889L229.07 59.7069L230.479 59.0637ZM228.443 53.8458L229.94 53.8713L234.131 13.7975L232.634 13.772L231.138 13.7465L226.947 53.8203L228.443 53.8458ZM265.876 46.6232L267.373 46.6487C267.614 44.3472 266.261 42.8707 264.532 41.9953L263.759 43.34L262.986 44.6848C264.159 45.2789 264.453 45.9018 264.38 46.5977L265.876 46.6232ZM263.759 43.34L264.532 41.9952C262.733 41.0841 260.176 40.6245 257.397 40.6462L257.278 42.1415L257.159 43.6367C259.656 43.6173 261.715 44.0412 262.986 44.6849L263.759 43.34ZM257.278 42.1415L257.397 40.6462L247.167 40.726L247.048 42.2213L246.929 43.7165L257.159 43.6367L257.278 42.1415ZM247.048 42.2213L245.552 42.1957L244.576 51.5312L246.072 51.5567L247.569 51.5822L248.545 42.2468L247.048 42.2213ZM246.072 51.5567L245.953 53.052L256.514 52.9696L256.633 51.4743L256.752 49.9791L246.191 50.0614L246.072 51.5567ZM268.46 46.6028L266.969 46.5279L266.915 46.9233L268.405 46.9983L269.896 47.0733L269.95 46.6778L268.46 46.6028ZM268.405 46.9983L266.923 46.8704C266.683 48.2545 265.757 49.4226 264.007 50.3105C262.216 51.2188 259.667 51.7614 256.563 51.7857L256.444 53.2809L256.325 54.7762C259.709 54.7498 262.791 54.1644 265.184 52.9507C267.617 51.7166 269.429 49.7687 269.887 47.1262L268.405 46.9983ZM256.633 51.4743L256.514 52.9696C259.615 52.9454 262.151 52.3937 263.952 51.4306L263.332 50.1272L262.711 48.8237C261.541 49.4495 259.568 49.9571 256.752 49.9791L256.633 51.4743ZM263.332 50.1272L263.952 51.4306C265.729 50.4808 267.134 48.9322 267.373 46.6488L265.876 46.6232L264.38 46.5976C264.276 47.5865 263.748 48.2696 262.711 48.8237L263.332 50.1272ZM264.255 28.1529L265.752 28.1783C265.977 26.0269 264.823 24.6441 263.386 23.8394L262.563 25.1578L261.741 26.4763C262.557 26.933 262.831 27.4351 262.759 28.1275L264.255 28.1529ZM262.563 25.1578L263.386 23.8393C261.91 23.0133 259.836 22.6072 257.63 22.6244L257.511 24.1197L257.392 25.615C259.277 25.6003 260.816 25.9586 261.741 26.4764L262.563 25.1578ZM257.511 24.1197L257.63 22.6244L249.054 22.6913L248.934 24.1866L248.815 25.6818L257.392 25.615L257.511 24.1197ZM248.934 24.1866L247.438 24.1611L246.625 31.9359L248.121 31.9614L249.618 31.9869L250.431 24.2121L248.934 24.1866ZM248.121 31.9614L248.002 33.4567L257.406 33.3833L257.525 31.8881L257.644 30.3928L248.24 30.4662L248.121 31.9614ZM257.525 31.8881L257.406 33.3833C259.845 33.3643 261.752 32.9332 263.091 32.1814L262.441 30.8944L261.79 29.6074C261.113 29.9873 259.803 30.3759 257.644 30.3928L257.525 31.8881ZM262.441 30.8944L263.092 32.1813C264.436 31.4268 265.546 30.1448 265.752 28.1784L264.255 28.1529L262.759 28.1274C262.676 28.9201 262.321 29.3095 261.79 29.6075L262.441 30.8944ZM231.059 53.5234L229.562 53.4979L228.983 59.0382L230.479 59.0637L231.976 59.0892L232.555 53.5489L231.059 53.5234ZM230.479 59.0637L231.889 58.4206L214.98 15.0829L213.571 15.7261L212.161 16.3693L229.07 59.7069L230.479 59.0637ZM218.611 60.738L218.492 62.2332L233.708 62.1146L233.827 60.6193L233.946 59.124L218.73 59.2427L218.611 60.738ZM233.827 60.6193L232.418 61.2628L233.12 63.0622L234.53 62.4188L235.939 61.7753L235.237 59.9758L233.827 60.6193ZM234.53 62.4188L234.649 60.9235L216.699 61.0635L216.58 62.5587L216.461 64.054L234.411 63.914L234.53 62.4188ZM212.019 50.8693L212.138 49.374L192.17 49.5298L192.051 51.025L191.932 52.5203L211.9 52.3646L212.019 50.8693ZM184.953 62.8054L185.072 61.3101L167.206 61.4495L167.087 62.9447L166.968 64.44L184.834 64.3007L184.953 62.8054ZM196.379 14.0547L196.26 15.55L215.482 15.4001L215.601 13.9048L215.72 12.4096L196.498 12.5595L196.379 14.0547ZM205 24.2256L203.505 24.5248C203.643 25.7063 204.137 27.4384 204.742 29.2725C205.359 31.143 206.132 33.237 206.886 35.1913C208.395 39.1018 209.845 42.5024 209.858 42.5331L211.252 41.8508L212.645 41.1685C212.637 41.1485 211.201 37.7815 209.709 33.9145C208.962 31.9801 208.207 29.9329 207.61 28.1232C207.001 26.277 206.596 24.7898 206.494 23.9264L205 24.2256ZM204.062 30.459L202.748 29.8455C201.914 31.395 200.995 33.0234 200.118 34.5401L201.407 35.1977L202.695 35.8552C203.583 34.3193 204.52 32.6603 205.375 31.0725L204.062 30.459ZM201.407 35.1977L200.118 34.5401C199.043 36.3979 198.004 38.1409 197.208 39.461L198.481 40.1453L199.754 40.8295C200.558 39.4973 201.608 37.7357 202.695 35.8552L201.407 35.1977ZM198.481 40.1453L198.362 41.6405L207.634 41.5682L207.754 40.0729L207.873 38.5777L198.6 38.65L198.481 40.1453ZM207.754 40.0729L209.154 39.4075C208.617 38.099 207.92 36.3765 207.211 34.5401L205.8 35.1787L204.389 35.8172C205.107 37.6777 205.811 39.4193 206.353 40.7384L207.754 40.0729ZM205.8 35.1787L207.211 34.5401C206.628 33.0286 206.023 31.4068 205.489 29.865L204.062 30.459L202.634 31.0529C203.182 32.6341 203.798 34.2873 204.389 35.8172L205.8 35.1787ZM215.601 13.9048L214.191 14.548L229.649 54.1666L231.059 53.5234L232.468 52.8802L217.01 13.2616L215.601 13.9048ZM216.58 62.5587L217.989 61.9156L213.429 50.2261L212.019 50.8693L210.61 51.5125L215.17 63.2019L216.58 62.5587ZM192.051 51.025L190.777 50.3417L183.68 62.1221L184.953 62.8054L186.227 63.4887L193.324 51.7083L192.051 51.025ZM167.087 62.9447L168.363 63.6245L197.655 14.7345L196.379 14.0547L195.104 13.3749L165.812 62.2649L167.087 62.9447Z" fill="#AA8CB3" mask="url(#path-4-outside-1_382_454)"/>
<path d="M443.877 21.1497L425.689 21.2916L421.729 59.1539L409.246 59.2512L413.205 21.3889L395.1 21.5301L395.856 14.3045L444.632 13.9241L443.877 21.1497Z" fill="#A585AE"/>
<path d="M392.063 44.2527C391.024 54.1951 379.7 60.5791 365.15 60.6925C350.186 60.8092 340.599 54.5306 341.633 44.646L344.765 14.703L357.165 14.6062L354.113 43.7978C353.436 50.272 358.057 53.4704 365.911 53.4091C373.765 53.3479 379.395 50.0695 380.072 43.5953L383.125 14.4038L395.195 14.3097L392.063 44.2527Z" fill="#A585AE"/>
<path d="M338.644 37.1607C337.181 51.1496 325.164 61.0044 307.306 61.1436C289.366 61.2836 279.31 51.6009 280.773 37.6121C282.206 23.9123 294.311 13.999 312.251 13.8591C330.109 13.7199 340.07 23.5188 338.644 37.1607ZM326.16 37.2581C327.2 27.3156 321.15 21.1827 311.478 21.2582C302.218 21.3304 294.296 27.5722 293.256 37.5147C292.211 47.515 298.407 53.82 308.08 53.7446C317.422 53.6717 325.114 47.2584 326.16 37.2581Z" fill="#A585AE"/>
<path d="M280.657 47.6629C279.859 55.2931 270.824 60.3308 257.348 60.4359L230.314 60.6467L235.029 15.5588L260.493 15.3602C272.398 15.2673 279.844 19.8876 279.155 26.4774C278.599 31.7955 274.357 35.2363 268.066 36.1517L268.136 36.2667C275.026 36.7328 281.388 40.6685 280.657 47.6629ZM266.839 28.1329C267.256 24.1444 262.661 22.2742 257.7 22.3129L246.54 22.3999L245.349 33.7875L257.336 33.694C262.71 33.6521 266.458 31.7747 266.839 28.1329ZM268.46 46.6028C268.907 42.3253 263.503 40.2881 257.468 40.3352L244.653 40.4351L243.299 53.3834L256.444 53.2809C263.141 53.2287 268.012 50.8804 268.46 46.6028Z" fill="#A585AE"/>
<path d="M231.094 60.6406L218.611 60.738L214.051 49.0487L190.407 49.2331L183.31 61.0133L170.909 61.11L198.028 15.8473L213.571 15.7261L231.094 60.6406ZM211.252 41.8508C211.252 41.8508 205.48 28.3227 205 24.2256L204.338 24.2308C203.082 28.3414 194.634 41.9804 194.634 41.9804L211.252 41.8508Z" fill="#A585AE"/>
<path d="M443.877 21.1497L444.632 13.9241L395.856 14.3045L395.1 21.5301L413.205 21.3889L409.246 59.2512L421.729 59.1539L425.689 21.2916L443.877 21.1497ZM446.271 22.9355L428.084 23.0773L424.124 60.9401L406.474 61.0778L410.433 23.215L394.251 23.3412L395.195 14.3097L393.271 14.3241L393.46 12.5177L447.405 12.097L446.271 22.9355Z" fill="#A585AE"/>
<path d="M354.113 43.7978L357.165 14.6062L344.765 14.703L341.633 44.646L341.592 45.1067C340.911 54.5726 350.12 60.6134 364.452 60.6934L365.15 60.6925C379.473 60.5808 390.669 54.393 392.007 44.7159L392.063 44.2527L395.195 14.3097L383.125 14.4038L380.072 43.5953C379.395 50.0695 373.765 53.3479 365.911 53.4091L366.1 51.603C369.524 51.5763 372.156 50.8567 373.985 49.6473C375.81 48.4394 377.185 46.5105 377.488 43.6153L380.729 12.617L397.968 12.4826L397.779 14.289L395.856 14.3045L395.1 21.5301L397.023 21.5146L394.648 44.2323C394.077 49.6838 390.656 54.2678 385.26 57.4888C379.893 60.6923 372.762 62.4382 364.96 62.4991C356.961 62.5614 350.175 60.9121 345.513 57.7683C340.829 54.6092 338.485 50.0689 339.05 44.6659L342.37 12.9162L359.938 12.7792L356.697 43.7774C356.391 46.7037 357.305 48.6172 358.807 49.7891C360.298 50.9517 362.68 51.6296 366.1 51.603L365.911 53.4091L365.185 53.4057C358.013 53.2723 353.738 50.2729 354.064 44.3949L354.113 43.7978Z" fill="#A585AE"/>
<path d="M338.644 37.1607C340.048 23.7322 330.417 14.0274 313.083 13.8602L312.251 13.8591C294.311 13.999 282.206 23.9123 280.773 37.6121L280.713 38.2642C279.644 51.6843 289.331 60.9825 306.471 61.1432L307.306 61.1436C325.164 61.0044 337.181 51.1496 338.644 37.1607ZM323.576 37.2778C324.069 32.5671 322.858 28.9529 320.632 26.5757C318.448 24.2444 315.242 23.0337 311.288 23.0646C304.106 23.1208 296.831 28.0243 295.84 37.4941C295.345 42.227 296.586 45.9037 298.856 48.3366C301.087 50.7288 304.338 51.9682 308.269 51.9377L308.08 53.7446C298.71 53.8174 292.602 47.9024 293.18 38.4408L293.256 37.5147C294.296 27.5722 302.218 21.3304 311.478 21.2582C321.15 21.1827 327.2 27.3156 326.16 37.2581C325.114 47.2584 317.422 53.6717 308.08 53.7446L308.269 51.9377C312.011 51.9085 315.492 50.6316 318.246 48.1854C321.035 45.707 323.082 42.0011 323.576 37.2778ZM341.227 37.1401C340.462 44.4506 336.922 50.8538 330.989 55.4843C325.012 60.1496 316.778 62.8748 307.117 62.9502C297.419 63.0257 289.703 60.4281 284.66 55.8504C282.751 54.1167 281.248 52.1182 280.158 49.9043C280.405 49.1854 280.576 48.4377 280.657 47.6629C280.98 44.5757 279.919 42.0852 278.043 40.2251C278.049 39.3756 278.098 38.5103 278.19 37.6317C278.94 30.4546 282.505 24.1085 288.467 19.5034C294.469 14.8668 302.739 12.129 312.44 12.0532C322.11 11.9778 329.777 14.6111 334.784 19.1692C339.755 23.6952 341.974 29.9936 341.227 37.1401Z" fill="#A585AE"/>
<path d="M280.657 47.6629C281.388 40.6685 275.026 36.7328 268.136 36.2667L268.066 36.1517C274.16 35.2649 278.332 32.0079 279.093 26.9702L279.155 26.4774C279.844 19.8876 272.398 15.2673 260.493 15.3602L260.681 13.5533C267.103 13.5032 272.548 14.7243 276.332 17.0046C280.149 19.3055 282.141 22.6142 281.739 26.4572C281.429 29.4214 280.072 32.0162 277.714 34.0338C276.907 34.724 275.997 35.3293 275.006 35.8516C277.237 36.7161 279.19 37.9618 280.641 39.5633C280.535 43.3124 281.297 46.7126 282.847 49.6483C281.844 53.1096 279.216 56.0706 275.253 58.2527C270.598 60.816 264.328 62.1864 257.159 62.2423L227.541 62.4733L227.73 60.6669L257.348 60.4359L258.598 60.412C270.968 60.0267 279.332 55.3697 280.559 48.37L280.657 47.6629ZM232.634 13.772L260.681 13.5533L260.493 15.3602L235.029 15.5588L230.479 59.0637L228.443 53.8458L232.634 13.772ZM265.876 46.6232C266.033 45.1245 265.21 44.0748 263.759 43.34C262.224 42.5626 259.916 42.1209 257.278 42.1415L247.048 42.2213L246.072 51.5567L256.633 51.4743L256.444 53.2809L243.299 53.3834L244.653 40.4351L257.468 40.3352C263.503 40.2881 268.907 42.3253 268.46 46.6028L268.405 46.9983C267.706 51.0249 262.931 53.2303 256.444 53.2809L256.633 51.4743C259.591 51.4513 261.846 50.9216 263.332 50.1272C264.739 49.3752 265.705 48.2593 265.876 46.6232ZM264.255 28.1529C264.404 26.731 263.69 25.7886 262.563 25.1578C261.363 24.486 259.556 24.1037 257.511 24.1197L248.934 24.1866L248.121 31.9614L257.525 31.8881L257.336 33.694L245.349 33.7875L246.54 22.3999L257.7 22.3129C262.661 22.2742 267.256 24.1444 266.839 28.1329C266.458 31.7747 262.71 33.6521 257.336 33.694L257.525 31.8881C259.824 31.8701 261.432 31.4603 262.441 30.8944C263.378 30.3682 264.111 29.5324 264.255 28.1529Z" fill="#A585AE"/>
<path d="M215.601 13.9048L231.059 53.5234L230.479 59.0637L213.571 15.7261L198.028 15.8473L170.909 61.11L183.31 61.0133L190.407 49.2331L214.051 49.0487L218.611 60.738L233.827 60.6193L234.53 62.4188L216.58 62.5587L212.019 50.8693L192.051 51.025L184.953 62.8054L167.087 62.9447L196.379 14.0547L215.601 13.9048ZM205 24.2256C205.479 28.3155 211.23 41.8002 211.252 41.8508L194.634 41.9804C194.634 41.9804 203.082 28.3414 204.338 24.2308L205 24.2256ZM204.062 30.459C203.217 32.0276 202.289 33.6713 201.407 35.1977C200.326 37.0668 199.281 38.8191 198.481 40.1453L207.754 40.0729C207.214 38.7592 206.513 37.0271 205.8 35.1787C205.213 33.6579 204.603 32.0204 204.062 30.459Z" fill="#A585AE"/>
<path d="M395.1 21.5301L413.205 21.3889L409.246 59.2512L421.729 59.1539L425.689 21.2916L443.877 21.1497L444.632 13.9241L395.856 14.3045M395.1 21.5301L395.856 14.3045M395.1 21.5301L397.023 21.5146L394.648 44.2323C394.077 49.6838 390.656 54.2678 385.26 57.4888C379.893 60.6923 372.762 62.4382 364.96 62.4991C356.961 62.5614 350.175 60.9121 345.513 57.7683C340.829 54.6092 338.485 50.0689 339.05 44.6659L342.37 12.9162L359.938 12.7792L356.697 43.7774C356.391 46.7037 357.305 48.6172 358.807 49.7891C360.298 50.9517 362.68 51.6296 366.1 51.603M395.856 14.3045L397.779 14.289L397.968 12.4826L380.729 12.617L377.488 43.6153C377.185 46.5105 375.81 48.4394 373.985 49.6473C372.156 50.8567 369.524 51.5763 366.1 51.603M392.063 44.2527C391.024 54.1951 379.7 60.5791 365.15 60.6925M392.063 44.2527L395.195 14.3097M392.063 44.2527L392.007 44.7159C390.669 54.393 379.473 60.5808 365.15 60.6925M365.15 60.6925C350.186 60.8092 340.599 54.5306 341.633 44.646M365.15 60.6925L364.452 60.6934C350.12 60.6134 340.911 54.5726 341.592 45.1067L341.633 44.646M341.633 44.646L344.765 14.703L357.165 14.6062L354.113 43.7978M354.113 43.7978C353.436 50.272 358.057 53.4704 365.911 53.4091M354.113 43.7978L354.064 44.3949C353.738 50.2729 358.013 53.2723 365.185 53.4057L365.911 53.4091M365.911 53.4091C373.765 53.3479 379.395 50.0695 380.072 43.5953L383.125 14.4038L395.195 14.3097M365.911 53.4091L366.1 51.603M395.195 14.3097L394.251 23.3412L410.433 23.215L406.474 61.0778L424.124 60.9401L428.084 23.0773L446.271 22.9355L447.405 12.097L393.46 12.5177L393.271 14.3241L395.195 14.3097ZM338.644 37.1607C337.181 51.1496 325.164 61.0044 307.306 61.1436M338.644 37.1607C340.07 23.5188 330.109 13.7199 312.251 13.8591M338.644 37.1607C340.048 23.7322 330.417 14.0274 313.083 13.8602L312.251 13.8591M307.306 61.1436C289.366 61.2836 279.31 51.6009 280.773 37.6121M307.306 61.1436L306.471 61.1432C289.331 60.9825 279.644 51.6843 280.713 38.2642L280.773 37.6121M280.773 37.6121C282.206 23.9123 294.311 13.999 312.251 13.8591M293.256 37.5147C294.296 27.5722 302.218 21.3304 311.478 21.2582C321.15 21.1827 327.2 27.3156 326.16 37.2581C325.114 47.2584 317.422 53.6717 308.08 53.7446M293.256 37.5147C292.211 47.515 298.407 53.82 308.08 53.7446M293.256 37.5147L293.18 38.4408C292.602 47.9024 298.71 53.8174 308.08 53.7446M308.08 53.7446L308.269 51.9377M280.657 47.6629C279.859 55.2931 270.824 60.3308 257.348 60.4359M280.657 47.6629C281.388 40.6685 275.026 36.7328 268.136 36.2667L268.066 36.1517M280.657 47.6629C280.576 48.4377 280.405 49.1854 280.158 49.9043C281.248 52.1182 282.751 54.1167 284.66 55.8504C289.703 60.4281 297.419 63.0257 307.117 62.9502C316.778 62.8748 325.012 60.1496 330.989 55.4843C336.922 50.8538 340.462 44.4506 341.227 37.1401C341.974 29.9936 339.755 23.6952 334.784 19.1692C329.777 14.6111 322.11 11.9778 312.44 12.0532C302.739 12.129 294.469 14.8668 288.467 19.5034C282.505 24.1085 278.94 30.4546 278.19 37.6317C278.098 38.5103 278.049 39.3756 278.043 40.2251C279.919 42.0852 280.98 44.5757 280.657 47.6629ZM280.657 47.6629L280.559 48.37C279.332 55.3697 270.968 60.0267 258.598 60.412L257.348 60.4359M257.348 60.4359L230.314 60.6467L235.029 15.5588M257.348 60.4359L227.73 60.6669L227.541 62.4733L257.159 62.2423C264.328 62.1864 270.598 60.816 275.253 58.2527C279.216 56.0706 281.844 53.1096 282.847 49.6483C281.297 46.7126 280.535 43.3124 280.641 39.5633C279.19 37.9618 277.237 36.7161 275.006 35.8516C275.997 35.3293 276.907 34.724 277.714 34.0338C280.072 32.0162 281.429 29.4214 281.739 26.4572C282.141 22.6142 280.149 19.3055 276.332 17.0046C272.548 14.7243 267.103 13.5032 260.681 13.5533M235.029 15.5588L260.493 15.3602M235.029 15.5588L230.479 59.0637M260.493 15.3602C272.398 15.2673 279.844 19.8876 279.155 26.4774M260.493 15.3602L260.681 13.5533M279.155 26.4774C278.599 31.7955 274.357 35.2363 268.066 36.1517M279.155 26.4774L279.093 26.9702C278.332 32.0079 274.16 35.2649 268.066 36.1517M257.336 33.694L245.349 33.7875L246.54 22.3999L257.7 22.3129C262.661 22.2742 267.256 24.1444 266.839 28.1329C266.458 31.7747 262.71 33.6521 257.336 33.694ZM257.336 33.694L257.525 31.8881M268.46 46.6028C268.907 42.3253 263.503 40.2881 257.468 40.3352L244.653 40.4351L243.299 53.3834L256.444 53.2809M268.46 46.6028C268.012 50.8804 263.141 53.2287 256.444 53.2809M268.46 46.6028L268.405 46.9983C267.706 51.0249 262.931 53.2303 256.444 53.2809M256.444 53.2809L256.633 51.4743M218.611 60.738L231.094 60.6406L213.571 15.7261M218.611 60.738L214.051 49.0487L190.407 49.2331L183.31 61.0133L170.909 61.11L198.028 15.8473L213.571 15.7261M218.611 60.738L233.827 60.6193L234.53 62.4188L216.58 62.5587L212.019 50.8693L192.051 51.025L184.953 62.8054L167.087 62.9447L196.379 14.0547L215.601 13.9048L231.059 53.5234L230.479 59.0637M213.571 15.7261L230.479 59.0637M211.252 41.8508C211.252 41.8508 205.48 28.3227 205 24.2256M211.252 41.8508L194.634 41.9804C194.634 41.9804 203.082 28.3414 204.338 24.2308L205 24.2256M211.252 41.8508C211.23 41.8002 205.479 28.3155 205 24.2256M308.269 51.9377C304.338 51.9682 301.087 50.7288 298.856 48.3366C296.586 45.9037 295.345 42.227 295.84 37.4941C296.831 28.0243 304.106 23.1208 311.288 23.0646C315.242 23.0337 318.448 24.2444 320.632 26.5757C322.858 28.9529 324.069 32.5671 323.576 37.2778C323.082 42.0011 321.035 45.707 318.246 48.1854C315.492 50.6316 312.011 51.9085 308.269 51.9377ZM260.681 13.5533L232.634 13.772L228.443 53.8458L230.479 59.0637M256.633 51.4743L246.072 51.5567L247.048 42.2213L257.278 42.1415C259.916 42.1209 262.224 42.5626 263.759 43.34C265.21 44.0748 266.033 45.1245 265.876 46.6232C265.705 48.2593 264.739 49.3752 263.332 50.1272C261.846 50.9216 259.591 51.4513 256.633 51.4743ZM257.525 31.8881L248.121 31.9614L248.934 24.1866L257.511 24.1197C259.556 24.1037 261.363 24.486 262.563 25.1578C263.69 25.7886 264.404 26.731 264.255 28.1529C264.111 29.5324 263.378 30.3682 262.441 30.8944C261.432 31.4603 259.824 31.8701 257.525 31.8881ZM204.062 30.459C203.217 32.0276 202.289 33.6713 201.407 35.1977C200.326 37.0668 199.281 38.8191 198.481 40.1453L207.754 40.0729C207.214 38.7592 206.513 37.0271 205.8 35.1787C205.213 33.6579 204.603 32.0204 204.062 30.459Z" stroke="#A585AE"/>
<path d="M414.917 25.1834L399.881 24.3954L394.725 55.4837L384.405 54.9429L389.561 23.8545L374.594 23.0701L375.578 17.1373L415.901 19.2505L414.917 25.1834Z" fill="white"/>
<path d="M370.954 41.6945C369.6 49.8582 359.925 54.5696 347.897 53.9392C335.526 53.2909 327.918 47.6259 329.264 39.5097L333.342 14.9238L343.593 15.461L339.618 39.4299C338.736 44.7458 342.396 47.6186 348.889 47.9589C355.381 48.2991 360.196 45.8704 361.078 40.5546L365.053 16.5857L375.031 17.1086L370.954 41.6945Z" fill="white"/>
<path d="M327.166 33.1759C325.261 44.662 314.841 52.2069 300.079 51.4332C285.248 50.656 277.42 42.1547 279.325 30.6686C281.191 19.4199 291.687 11.8311 306.518 12.6084C321.28 13.382 329.024 21.9746 327.166 33.1759ZM316.846 32.635C318.2 24.4714 313.507 19.1027 305.51 18.6836C297.856 18.2825 290.999 23.0458 289.645 31.2095C288.283 39.4206 293.09 44.9388 301.086 45.3579C308.809 45.7627 315.484 40.8462 316.846 32.635Z" fill="white"/>
<path d="M278.729 38.9678C277.69 45.2329 269.974 48.9458 258.834 48.362L236.485 47.1908L242.625 10.1695L263.675 11.2727C273.517 11.7885 279.44 15.9768 278.543 21.3876C277.819 25.7542 274.142 28.3862 268.898 28.8295L268.951 28.9281C274.621 29.6561 279.682 33.2247 278.729 38.9678ZM268.284 22.1426C268.827 18.8677 265.123 17.0936 261.022 16.8787L251.796 16.3952L250.245 25.7454L260.155 26.2648C264.597 26.4976 267.788 25.1328 268.284 22.1426ZM268.704 37.4848C269.286 33.9726 264.922 32.0203 259.933 31.7589L249.34 31.2037L247.576 41.8354L258.443 42.4049C263.979 42.6951 268.121 40.9971 268.704 37.4848Z" fill="white"/>
<path d="M237.13 47.2246L226.81 46.6837L223.624 36.798L204.078 35.7736L197.627 45.1543L187.376 44.617L212.037 8.56647L224.886 9.23984L237.13 47.2246ZM221.669 30.7111C221.669 30.7111 217.573 19.2456 217.381 15.8364L216.834 15.8077C215.591 19.1418 207.932 29.9911 207.932 29.9911L221.669 30.7111Z" fill="white"/>
<path d="M414.917 25.1834L415.901 19.2505L375.578 17.1373L374.594 23.0701L389.561 23.8545L384.405 54.9429L394.725 55.4837L399.881 24.3954L414.917 25.1834ZM416.806 26.7781L401.771 25.9901L396.615 57.0789L382.023 56.3142L387.18 25.2254L373.802 24.5243L375.031 17.1086L373.441 17.0249L373.687 15.5416L418.282 17.8788L416.806 26.7781Z" fill="white"/>
<path d="M339.618 39.4299L343.593 15.461L333.342 14.9238L329.264 39.5097L329.207 39.8883C328.173 47.676 335.481 53.1258 347.32 53.9052L347.897 53.9392C359.737 54.5598 369.297 50.004 370.884 42.0745L370.954 41.6945L375.031 17.1086L365.053 16.5857L361.078 40.5546C360.196 45.8704 355.381 48.2991 348.889 47.9589L349.134 46.4759C351.965 46.6242 354.176 46.1606 355.747 45.2523C357.315 44.3451 358.547 42.8197 358.941 40.4424L363.163 14.9901L377.414 15.7369L377.168 17.2202L375.578 17.1373L374.594 23.0701L376.184 23.1531L373.09 41.8063C372.348 46.2824 369.292 49.8999 364.673 52.2929C360.079 54.6728 354.1 55.7605 347.65 55.4225C341.037 55.0759 335.512 53.3754 331.816 50.5456C328.103 47.7021 326.392 43.8339 327.128 39.3976L331.452 13.3282L345.975 14.0893L341.754 39.5417C341.355 41.9444 342.016 43.5711 343.199 44.6142C344.372 45.649 346.307 46.3277 349.134 46.4759L348.889 47.9589L348.289 47.9199C342.369 47.4527 338.986 44.7616 339.548 39.9209L339.618 39.4299Z" fill="white"/>
<path d="M327.166 33.1759C328.995 22.1498 321.52 13.6515 307.205 12.6506L306.518 12.6084C291.687 11.8311 281.191 19.4199 279.325 30.6686L279.244 31.2046C277.692 42.2402 285.234 50.4054 299.388 51.3913L300.079 51.4332C314.841 52.2069 325.261 44.662 327.166 33.1759ZM314.71 32.5227C315.351 28.6548 314.531 25.6082 312.81 23.5331C311.121 21.498 308.532 20.3381 305.264 20.1668C299.327 19.8559 293.071 23.5455 291.781 31.321C291.137 35.2072 291.979 38.307 293.733 40.4302C295.458 42.518 298.082 43.7039 301.332 43.8743L301.086 45.3579C293.34 44.9518 288.587 39.7602 289.536 31.9709L289.645 31.2095C290.999 23.0458 297.856 18.2825 305.51 18.6836C313.507 19.1027 318.2 24.4714 316.846 32.635C315.484 40.8462 308.809 45.7627 301.086 45.3579L301.332 43.8743C304.425 44.0364 307.366 43.1546 309.763 41.2703C312.191 39.3612 314.067 36.401 314.71 32.5227ZM329.302 33.2874C328.306 39.2899 325.062 44.4047 319.929 47.9356C314.758 51.493 307.819 53.3351 299.832 52.9165C291.815 52.4963 285.569 49.9658 281.63 45.9323C280.138 44.4047 278.996 42.6786 278.206 40.795C278.445 40.2133 278.624 39.604 278.729 38.9678C279.15 36.4329 278.397 34.3223 276.939 32.6919C276.987 31.9903 277.07 31.2777 277.19 30.5563C278.167 24.6632 281.429 19.5969 286.584 16.0885C291.775 12.556 298.744 10.7053 306.764 11.1256C314.758 11.5445 320.962 14.1019 324.872 18.1175C328.754 22.1047 330.275 27.4195 329.302 33.2874Z" fill="white"/>
<path d="M278.729 38.9678C279.682 33.2247 274.621 29.6561 268.951 28.9281L268.898 28.8295C273.978 28.4001 277.588 25.9165 278.467 21.7917L278.543 21.3876C279.44 15.9768 273.517 11.7885 263.675 11.2727L263.921 9.78906C269.23 10.0673 273.669 11.3473 276.681 13.4198C279.721 15.511 281.203 18.3441 280.679 21.4995C280.276 23.9334 279.025 26.0099 276.976 27.5597C276.274 28.0899 275.493 28.5447 274.648 28.927C276.449 29.7523 278 30.8789 279.119 32.2743C278.845 35.3669 279.306 38.2145 280.44 40.7173C279.439 43.5275 277.12 45.8433 273.737 47.4492C269.763 49.3356 264.514 50.1558 258.588 49.8452L234.103 48.562L234.349 47.0788L258.834 48.362L259.867 48.4045C270.108 48.7018 277.251 45.27 278.613 39.5472L278.729 38.9678ZM240.735 8.57393L263.921 9.78906L263.675 11.2727L242.625 10.1695L236.7 45.891L235.278 41.4781L240.735 8.57393ZM266.568 37.3731C266.772 36.1425 266.144 35.2342 264.982 34.5549C263.752 33.8361 261.867 33.3563 259.686 33.242L251.23 32.7988L249.958 40.464L258.689 40.9216L258.443 42.4049L247.576 41.8354L249.34 31.2037L259.933 31.7589C264.922 32.0203 269.286 33.9726 268.704 37.4848L268.639 37.8089C267.861 41.1013 263.806 42.686 258.443 42.4049L258.689 40.9216C261.135 41.0497 263.023 40.7242 264.291 40.1418C265.491 39.5904 266.345 38.7165 266.568 37.3731ZM266.148 22.0305C266.341 20.863 265.798 20.0488 264.899 19.4715C263.94 18.8566 262.467 18.4509 260.776 18.3623L253.686 17.9907L252.627 24.3745L260.401 24.7819L260.155 26.2648L250.245 25.7454L251.796 16.3952L261.022 16.8787C265.123 17.0936 268.827 18.8677 268.284 22.1426C267.788 25.1328 264.597 26.4976 260.155 26.2648L260.401 24.7819C262.301 24.8815 263.651 24.6229 264.512 24.2055C265.313 23.8173 265.96 23.1632 266.148 22.0305Z" fill="white"/>
<path d="M226.654 7.83596L237.455 41.3419L236.7 45.891L224.886 9.23984L212.037 8.56647L187.376 44.617L197.627 45.1543L204.078 35.7736L223.624 36.798L226.81 46.6837L239.389 47.343L239.88 48.8648L225.041 48.0871L221.855 38.2012L205.347 37.3361L198.896 46.7169L184.127 45.9429L210.764 7.00319L226.654 7.83596ZM217.381 15.8364C217.573 19.2397 221.654 30.6682 221.669 30.7111L207.932 29.9911C207.932 29.9911 215.591 19.1418 216.834 15.8077L217.381 15.8364ZM216.295 20.9403C215.519 22.1944 214.671 23.5064 213.866 24.7237C212.879 26.2143 211.929 27.6103 211.202 28.6662L218.867 29.068C218.487 27.9555 217.994 26.4895 217.497 24.9266C217.087 23.6408 216.665 22.2574 216.295 20.9403Z" fill="white"/>
<path d="M414.917 25.1834L399.881 24.3954L394.725 55.4837L384.405 54.9429L389.561 23.8545L374.594 23.0701L375.578 17.1373L415.901 19.2505L414.917 25.1834Z" fill="white"/>
<path d="M370.954 41.6945C369.6 49.8582 359.925 54.5696 347.897 53.9392C335.526 53.2909 327.918 47.6259 329.264 39.5097L333.342 14.9238L343.593 15.461L339.618 39.4299C338.736 44.7458 342.396 47.6186 348.889 47.9589C355.381 48.2991 360.196 45.8704 361.078 40.5546L365.053 16.5857L375.031 17.1086L370.954 41.6945Z" fill="white"/>
<path d="M327.166 33.1759C325.261 44.662 314.841 52.2069 300.079 51.4332C285.248 50.656 277.42 42.1547 279.325 30.6686C281.191 19.4199 291.687 11.8311 306.518 12.6084C321.28 13.382 329.024 21.9746 327.166 33.1759ZM316.846 32.635C318.2 24.4714 313.507 19.1027 305.51 18.6836C297.856 18.2825 290.999 23.0458 289.645 31.2095C288.283 39.4206 293.09 44.9388 301.086 45.3579C308.809 45.7627 315.484 40.8462 316.846 32.635Z" fill="white"/>
<path d="M278.729 38.9678C277.69 45.2329 269.974 48.9458 258.834 48.362L236.485 47.1908L242.625 10.1695L263.675 11.2727C273.517 11.7885 279.44 15.9768 278.543 21.3876C277.819 25.7542 274.142 28.3862 268.898 28.8295L268.951 28.9281C274.621 29.6561 279.682 33.2247 278.729 38.9678ZM268.284 22.1426C268.827 18.8677 265.123 17.0936 261.022 16.8787L251.796 16.3952L250.245 25.7454L260.155 26.2648C264.597 26.4976 267.788 25.1328 268.284 22.1426ZM268.704 37.4848C269.286 33.9726 264.922 32.0203 259.933 31.7589L249.34 31.2037L247.576 41.8354L258.443 42.4049C263.979 42.6951 268.121 40.9971 268.704 37.4848Z" fill="white"/>
<path d="M237.13 47.2246L226.81 46.6837L223.624 36.798L204.078 35.7736L197.627 45.1543L187.376 44.617L212.037 8.56647L224.886 9.23984L237.13 47.2246ZM221.669 30.7111C221.669 30.7111 217.573 19.2456 217.381 15.8364L216.834 15.8077C215.591 19.1418 207.932 29.9911 207.932 29.9911L221.669 30.7111Z" fill="white"/>
<path d="M414.917 25.1834L415.901 19.2505L375.578 17.1373L374.594 23.0701L389.561 23.8545L384.405 54.9429L394.725 55.4837L399.881 24.3954L414.917 25.1834ZM416.806 26.7781L401.771 25.9901L396.615 57.0789L382.023 56.3142L387.18 25.2254L373.802 24.5243L375.031 17.1086L373.441 17.0249L373.687 15.5416L418.282 17.8788L416.806 26.7781Z" fill="white"/>
<path d="M339.618 39.4299L343.593 15.461L333.342 14.9238L329.264 39.5097L329.207 39.8883C328.173 47.676 335.481 53.1258 347.32 53.9052L347.897 53.9392C359.737 54.5598 369.297 50.004 370.884 42.0745L370.954 41.6945L375.031 17.1086L365.053 16.5857L361.078 40.5546C360.196 45.8704 355.381 48.2991 348.889 47.9589L349.134 46.4759C351.965 46.6242 354.176 46.1606 355.747 45.2523C357.315 44.3451 358.547 42.8197 358.941 40.4424L363.163 14.9901L377.414 15.7369L377.168 17.2202L375.578 17.1373L374.594 23.0701L376.184 23.1531L373.09 41.8063C372.348 46.2824 369.292 49.8999 364.673 52.2929C360.079 54.6728 354.1 55.7605 347.65 55.4225C341.037 55.0759 335.512 53.3754 331.816 50.5456C328.103 47.7021 326.392 43.8339 327.128 39.3976L331.452 13.3282L345.975 14.0893L341.754 39.5417C341.355 41.9444 342.016 43.5711 343.199 44.6142C344.372 45.649 346.307 46.3277 349.134 46.4759L348.889 47.9589L348.289 47.9199C342.369 47.4527 338.986 44.7616 339.548 39.9209L339.618 39.4299Z" fill="white"/>
<path d="M327.166 33.1759C328.995 22.1498 321.52 13.6515 307.205 12.6506L306.518 12.6084C291.687 11.8311 281.191 19.4199 279.325 30.6686L279.244 31.2046C277.692 42.2402 285.234 50.4054 299.388 51.3913L300.079 51.4332C314.841 52.2069 325.261 44.662 327.166 33.1759ZM314.71 32.5227C315.351 28.6548 314.531 25.6082 312.81 23.5331C311.121 21.498 308.532 20.3381 305.264 20.1668C299.327 19.8559 293.071 23.5455 291.781 31.321C291.137 35.2072 291.979 38.307 293.733 40.4302C295.458 42.518 298.082 43.7039 301.332 43.8743L301.086 45.3579C293.34 44.9518 288.587 39.7602 289.536 31.9709L289.645 31.2095C290.999 23.0458 297.856 18.2825 305.51 18.6836C313.507 19.1027 318.2 24.4714 316.846 32.635C315.484 40.8462 308.809 45.7627 301.086 45.3579L301.332 43.8743C304.425 44.0364 307.366 43.1546 309.763 41.2703C312.191 39.3612 314.067 36.401 314.71 32.5227ZM329.302 33.2874C328.306 39.2899 325.062 44.4047 319.929 47.9356C314.758 51.493 307.819 53.3351 299.832 52.9165C291.815 52.4963 285.569 49.9658 281.63 45.9323C280.138 44.4047 278.996 42.6786 278.206 40.795C278.445 40.2133 278.624 39.604 278.729 38.9678C279.15 36.4329 278.397 34.3223 276.939 32.6919C276.987 31.9903 277.07 31.2777 277.19 30.5563C278.167 24.6632 281.429 19.5969 286.584 16.0885C291.775 12.556 298.744 10.7053 306.764 11.1256C314.758 11.5445 320.962 14.1019 324.872 18.1175C328.754 22.1047 330.275 27.4195 329.302 33.2874Z" fill="white"/>
<path d="M278.729 38.9678C279.682 33.2247 274.621 29.6561 268.951 28.9281L268.898 28.8295C273.978 28.4001 277.588 25.9165 278.467 21.7917L278.543 21.3876C279.44 15.9768 273.517 11.7885 263.675 11.2727L263.921 9.78906C269.23 10.0673 273.669 11.3473 276.681 13.4198C279.721 15.511 281.203 18.3441 280.679 21.4995C280.276 23.9334 279.025 26.0099 276.976 27.5597C276.274 28.0899 275.493 28.5447 274.648 28.927C276.449 29.7523 278 30.8789 279.119 32.2743C278.845 35.3669 279.306 38.2145 280.44 40.7173C279.439 43.5275 277.12 45.8433 273.737 47.4492C269.763 49.3356 264.514 50.1558 258.588 49.8452L234.103 48.562L234.349 47.0788L258.834 48.362L259.867 48.4045C270.108 48.7018 277.251 45.27 278.613 39.5472L278.729 38.9678ZM240.735 8.57393L263.921 9.78906L263.675 11.2727L242.625 10.1695L236.7 45.891L235.278 41.4781L240.735 8.57393ZM266.568 37.3731C266.772 36.1425 266.144 35.2342 264.982 34.5549C263.752 33.8361 261.867 33.3563 259.686 33.242L251.23 32.7988L249.958 40.464L258.689 40.9216L258.443 42.4049L247.576 41.8354L249.34 31.2037L259.933 31.7589C264.922 32.0203 269.286 33.9726 268.704 37.4848L268.639 37.8089C267.861 41.1013 263.806 42.686 258.443 42.4049L258.689 40.9216C261.135 41.0497 263.023 40.7242 264.291 40.1418C265.491 39.5904 266.345 38.7165 266.568 37.3731ZM266.148 22.0305C266.341 20.863 265.798 20.0488 264.899 19.4715C263.94 18.8566 262.467 18.4509 260.776 18.3622L253.686 17.9907L252.627 24.3745L260.401 24.7819L260.155 26.2648L250.245 25.7454L251.796 16.3952L261.022 16.8787C265.123 17.0936 268.827 18.8677 268.284 22.1426C267.788 25.1328 264.597 26.4976 260.155 26.2648L260.401 24.7819C262.301 24.8815 263.651 24.6229 264.512 24.2055C265.313 23.8173 265.96 23.1632 266.148 22.0305Z" fill="white"/>
<path d="M226.654 7.83596L237.455 41.3419L236.7 45.891L224.886 9.23984L212.037 8.56647L187.376 44.617L197.627 45.1543L204.078 35.7736L223.624 36.798L226.81 46.6837L239.389 47.343L239.88 48.8648L225.041 48.0871L221.855 38.2012L205.347 37.3361L198.896 46.7169L184.127 45.9429L210.764 7.00319L226.654 7.83596ZM217.381 15.8364C217.573 19.2397 221.654 30.6682 221.669 30.7111L207.932 29.9911C207.932 29.9911 215.591 19.1418 216.834 15.8077L217.381 15.8364ZM216.295 20.9403C215.519 22.1944 214.671 23.5064 213.866 24.7237C212.879 26.2143 211.929 27.6103 211.202 28.6662L218.867 29.068C218.487 27.9555 217.994 26.4895 217.497 24.9266C217.087 23.6408 216.665 22.2574 216.295 20.9403Z" fill="white"/>
<path d="M374.594 23.0701L389.561 23.8545L384.405 54.9429L394.725 55.4837L399.881 24.3954L414.917 25.1834L415.901 19.2505L375.578 17.1373M374.594 23.0701L375.578 17.1373M374.594 23.0701L376.184 23.1531L373.09 41.8063C372.348 46.2824 369.292 49.8999 364.673 52.2929C360.079 54.6728 354.1 55.7605 347.65 55.4225C341.037 55.0759 335.512 53.3754 331.816 50.5456C328.103 47.7021 326.392 43.8339 327.128 39.3976L331.452 13.3282L345.975 14.0893L341.754 39.5417C341.355 41.9444 342.016 43.5711 343.199 44.6142C344.372 45.649 346.307 46.3277 349.134 46.4759M375.578 17.1373L377.168 17.2202L377.414 15.7369L363.163 14.9901L358.941 40.4424C358.547 42.8197 357.315 44.3451 355.747 45.2523C354.176 46.1606 351.965 46.6242 349.134 46.4759M370.954 41.6945C369.6 49.8582 359.925 54.5696 347.897 53.9392M370.954 41.6945L375.031 17.1086M370.954 41.6945L370.884 42.0745C369.297 50.004 359.737 54.5598 347.897 53.9392M347.897 53.9392C335.526 53.2909 327.918 47.6259 329.264 39.5097M347.897 53.9392L347.32 53.9052C335.481 53.1258 328.173 47.676 329.207 39.8883L329.264 39.5097M329.264 39.5097L333.342 14.9238L343.593 15.461L339.618 39.4299M339.618 39.4299C338.736 44.7458 342.396 47.6186 348.889 47.9589M339.618 39.4299L339.548 39.9209C338.986 44.7616 342.369 47.4527 348.289 47.9199L348.889 47.9589M348.889 47.9589C355.381 48.2991 360.196 45.8704 361.078 40.5546L365.053 16.5857L375.031 17.1086M348.889 47.9589L349.134 46.4759M375.031 17.1086L373.802 24.5243L387.18 25.2254L382.023 56.3142L396.615 57.0789L401.771 25.9901L416.806 26.7781L418.282 17.8788L373.687 15.5416L373.441 17.0249L375.031 17.1086ZM327.166 33.1759C325.261 44.662 314.841 52.2069 300.079 51.4332M327.166 33.1759C329.024 21.9746 321.28 13.382 306.518 12.6084M327.166 33.1759C328.995 22.1498 321.52 13.6515 307.205 12.6506L306.518 12.6084M300.079 51.4332C285.248 50.656 277.42 42.1547 279.325 30.6686M300.079 51.4332L299.388 51.3913C285.234 50.4054 277.692 42.2402 279.244 31.2046L279.325 30.6686M279.325 30.6686C281.191 19.4199 291.687 11.8311 306.518 12.6084M289.645 31.2095C290.999 23.0458 297.856 18.2825 305.51 18.6836C313.507 19.1027 318.2 24.4714 316.846 32.635C315.484 40.8462 308.809 45.7627 301.086 45.3579M289.645 31.2095C288.283 39.4206 293.09 44.9388 301.086 45.3579M289.645 31.2095L289.536 31.9709C288.587 39.7602 293.34 44.9518 301.086 45.3579M301.086 45.3579L301.332 43.8743M278.729 38.9678C277.69 45.2329 269.974 48.9458 258.834 48.362M278.729 38.9678C279.682 33.2247 274.621 29.6561 268.951 28.9281L268.898 28.8295M278.729 38.9678C278.624 39.604 278.445 40.2133 278.206 40.795C278.996 42.6786 280.138 44.4047 281.63 45.9323C285.569 49.9658 291.815 52.4963 299.832 52.9165C307.819 53.3351 314.758 51.493 319.929 47.9356C325.062 44.4047 328.306 39.2899 329.302 33.2874C330.275 27.4195 328.754 22.1047 324.872 18.1175C320.962 14.1019 314.758 11.5445 306.764 11.1256C298.744 10.7053 291.775 12.556 286.584 16.0885C281.429 19.5969 278.167 24.6632 277.19 30.5563C277.07 31.2777 276.987 31.9903 276.939 32.6919C278.397 34.3223 279.15 36.4329 278.729 38.9678ZM278.729 38.9678L278.613 39.5472C277.251 45.27 270.108 48.7018 259.867 48.4045L258.834 48.362M258.834 48.362L236.485 47.1908L242.625 10.1695M258.834 48.362L234.349 47.0788L234.103 48.562L258.588 49.8452C264.514 50.1558 269.763 49.3356 273.737 47.4492C277.12 45.8433 279.439 43.5275 280.44 40.7173C279.306 38.2145 278.845 35.3669 279.119 32.2743C278 30.8789 276.449 29.7523 274.648 28.927C275.493 28.5447 276.274 28.0899 276.976 27.5597C279.025 26.0099 280.276 23.9334 280.679 21.4995C281.203 18.3441 279.721 15.511 276.681 13.4198C273.669 11.3473 269.23 10.0673 263.921 9.78906M242.625 10.1695L263.675 11.2727M242.625 10.1695L236.7 45.891M263.675 11.2727C273.517 11.7885 279.44 15.9768 278.543 21.3876M263.675 11.2727L263.921 9.78906M278.543 21.3876C277.819 25.7542 274.142 28.3862 268.898 28.8295M278.543 21.3876L278.467 21.7917C277.588 25.9165 273.978 28.4001 268.898 28.8295M260.155 26.2648L250.245 25.7454L251.796 16.3952L261.022 16.8787C265.123 17.0936 268.827 18.8677 268.284 22.1426C267.788 25.1328 264.597 26.4976 260.155 26.2648ZM260.155 26.2648L260.401 24.7819M268.704 37.4848C269.286 33.9726 264.922 32.0203 259.933 31.7589L249.34 31.2037L247.576 41.8354L258.443 42.4049M268.704 37.4848C268.121 40.9971 263.979 42.6951 258.443 42.4049M268.704 37.4848L268.639 37.8089C267.861 41.1013 263.806 42.686 258.443 42.4049M258.443 42.4049L258.689 40.9216M226.81 46.6837L237.13 47.2246L224.886 9.23984M226.81 46.6837L223.624 36.798L204.078 35.7736L197.627 45.1543L187.376 44.617L212.037 8.56647L224.886 9.23984M226.81 46.6837L239.389 47.343L239.88 48.8648L225.041 48.0871L221.855 38.2012L205.347 37.3361L198.896 46.7169L184.127 45.9429L210.764 7.00319L226.654 7.83596L237.455 41.3419L236.7 45.891M224.886 9.23984L236.7 45.891M221.669 30.7111C221.669 30.7111 217.573 19.2456 217.381 15.8364M221.669 30.7111L207.932 29.9911C207.932 29.9911 215.591 19.1418 216.834 15.8077L217.381 15.8364M221.669 30.7111C221.654 30.6682 217.573 19.2397 217.381 15.8364M301.332 43.8743C298.082 43.7039 295.458 42.518 293.733 40.4302C291.979 38.307 291.137 35.2072 291.781 31.321C293.071 23.5455 299.327 19.8559 305.264 20.1668C308.532 20.3381 311.121 21.498 312.81 23.5331C314.531 25.6082 315.351 28.6548 314.71 32.5227C314.067 36.401 312.191 39.3612 309.763 41.2703C307.366 43.1546 304.425 44.0364 301.332 43.8743ZM263.921 9.78906L240.735 8.57393L235.278 41.4781L236.7 45.891M258.689 40.9216L249.958 40.464L251.23 32.7988L259.686 33.242C261.867 33.3563 263.752 33.8361 264.982 34.5549C266.144 35.2342 266.772 36.1425 266.568 37.3731C266.345 38.7165 265.491 39.5904 264.291 40.1418C263.023 40.7242 261.135 41.0497 258.689 40.9216ZM260.401 24.7819L252.627 24.3745L253.686 17.9907L260.776 18.3622C262.467 18.4509 263.94 18.8566 264.899 19.4715C265.798 20.0488 266.341 20.863 266.148 22.0305C265.96 23.1632 265.313 23.8173 264.512 24.2055C263.651 24.6229 262.301 24.8815 260.401 24.7819ZM216.295 20.9403C215.519 22.1944 214.671 23.5064 213.866 24.7237C212.879 26.2143 211.929 27.6103 211.202 28.6662L218.867 29.068C218.487 27.9555 217.994 26.4895 217.497 24.9266C217.087 23.6408 216.665 22.2574 216.295 20.9403Z" stroke="white"/>
</g>
</svg>
