<svg width="209" height="68" viewBox="0 0 209 68" fill="none" xmlns="http://www.w3.org/2000/svg">
<path d="M11.8856 0H208.624L196.738 67.4067H4.6209e-06L11.8856 0Z" fill="#D3A7E0"/>
<path d="M187.748 50.9428L186.257 57.2274C176.83 57.2274 173.474 55.3101 173.474 48.2798V32.9411H169.267V27.0292H173.794V17.7621H181.037V27.0292H186.097V32.9411H181.037V46.682C181.037 50.7298 181.73 50.9428 187.748 50.9428Z" fill="#A585AE"/>
<path d="M170.846 56.5883H163.923V52.8601C162.431 55.7894 158.757 57.2274 154.496 57.2274C148.105 57.2274 143.631 53.0732 143.631 47.1081V27.0292H151.194V45.3505C151.194 48.8657 153.431 50.8363 156.52 50.8363C159.555 50.8363 162.325 49.1852 163.284 46.0429V27.0292H170.846V56.5883Z" fill="#A585AE"/>
<path d="M144.621 41.8354C144.621 51.1559 138.922 57.2274 129.548 57.2274C120.281 57.2274 114.422 51.1559 114.422 41.8354C114.422 32.4617 120.281 26.3901 129.548 26.3901C138.922 26.3901 144.621 32.4617 144.621 41.8354ZM136.951 41.8354C136.951 35.9769 134.022 32.4617 129.548 32.4617C125.234 32.4617 122.092 35.9769 122.092 41.8354C122.092 47.5875 125.234 51.2091 129.548 51.2091C134.022 51.2091 136.951 47.694 136.951 41.8354Z" fill="#A585AE"/>
<path d="M116.957 41.7822C116.957 51.9547 111.737 57.2274 104.121 57.2274C100.233 57.2274 96.6117 55.5764 95.1737 53.1797L93.8422 56.5883H88.3564V15.0458H95.9193V29.9053C97.1975 27.7216 100.446 26.3901 104.068 26.3901C111.897 26.3901 116.957 31.7161 116.957 41.7822ZM109.287 41.7822C109.287 35.4975 106.518 32.4617 102.204 32.4617C98.6355 32.4617 95.7595 35.3377 95.7595 39.1192V47.2679C97.091 49.4515 99.1149 51.3156 102.257 51.3156C106.305 51.3156 109.287 48.1733 109.287 41.7822Z" fill="#A585AE"/>
<path d="M91.3091 50.783L89.8178 56.9611C89.0189 57.1742 88.22 57.2274 87.4211 57.2274C84.4386 57.2274 81.8289 55.9492 81.3495 53.446C79.5387 56.0557 75.278 57.2274 70.8574 57.2274C64.8391 57.2274 61.75 54.2449 61.6435 49.2918C61.6435 49.1852 61.6435 49.132 61.6435 49.0255C61.6435 43.38 65.1586 40.3974 71.9226 38.8529C75.9171 38.0007 79.2192 36.8823 79.2192 35.2312C79.2192 32.9411 77.6746 32.2487 74.1595 32.2487C71.4433 32.2487 67.076 34.166 65.3184 36.7758L62.2293 31.3433C64.8923 28.201 69.2064 26.3901 74.7454 26.3901C82.9473 26.3901 87.1548 29.3194 87.1548 35.7638V48.3863C87.1548 50.1972 88.1668 50.9428 89.7646 50.9428C90.2439 50.9428 90.7765 50.8896 91.3091 50.783ZM79.4855 47.3212V41.2496C78.4735 42.2615 76.3964 43.0071 73.7867 43.6995C70.8574 44.4451 68.9933 45.5103 68.9933 48.2266C68.9933 48.3331 68.9933 48.4396 68.9933 48.5461C69.0466 50.4635 70.3248 51.4754 72.7747 51.4754C75.3312 51.4754 78.7931 49.9841 79.4855 47.3212Z" fill="#A585AE"/>
<path d="M149.468 40.9566L147.976 47.2413C138.549 47.2413 135.194 45.3239 135.194 38.2936V22.9549H130.987V17.0431H135.514V7.77589H142.757V17.0431H147.817V22.9549H142.757V36.6959C142.757 40.7436 143.449 40.9566 149.468 40.9566Z" fill="white"/>
<path d="M132.566 46.6022H125.642V42.874C124.151 45.8033 120.476 47.2413 116.215 47.2413C109.824 47.2413 105.35 43.087 105.35 37.1219V17.0431H112.913V35.3644C112.913 38.8795 115.15 40.8501 118.239 40.8501C121.275 40.8501 124.045 39.1991 125.003 36.0568V17.0431H132.566V46.6022Z" fill="white"/>
<path d="M106.34 31.8492C106.34 41.1697 100.642 47.2413 91.2679 47.2413C82.0007 47.2413 76.1422 41.1697 76.1422 31.8492C76.1422 22.4756 82.0007 16.404 91.2679 16.404C100.642 16.404 106.34 22.4756 106.34 31.8492ZM98.671 31.8492C98.671 25.9907 95.7417 22.4756 91.2679 22.4756C86.9539 22.4756 83.8115 25.9907 83.8115 31.8492C83.8115 37.6013 86.9539 41.2229 91.2679 41.2229C95.7417 41.2229 98.671 37.7078 98.671 31.8492Z" fill="white"/>
<path d="M78.6765 31.796C78.6765 41.9686 73.4571 47.2413 65.841 47.2413C61.953 47.2413 58.3313 45.5902 56.8933 43.1935L55.5619 46.6021H50.0761V5.05966H57.639V19.9191C58.9172 17.7354 62.166 16.404 65.7877 16.404C73.6169 16.404 78.6765 21.7299 78.6765 31.796ZM71.0071 31.796C71.0071 25.5113 68.2376 22.4756 63.9236 22.4756C60.3552 22.4756 57.4792 25.3516 57.4792 29.133V37.2817C58.8107 39.4654 60.8345 41.3294 63.9769 41.3294C68.0246 41.3294 71.0071 38.1871 71.0071 31.796Z" fill="white"/>
<path d="M53.0288 40.7969L51.5375 46.975C50.7386 47.188 49.9397 47.2413 49.1408 47.2413C46.1583 47.2413 43.5485 45.963 43.0692 43.4598C41.2584 46.0696 36.9976 47.2413 32.5771 47.2413C26.5587 47.2413 23.4697 44.2587 23.3632 39.3056C23.3632 39.1991 23.3632 39.1458 23.3632 39.0393C23.3632 33.3938 26.8783 30.4112 33.6423 28.8667C37.6367 28.0146 40.9388 26.8961 40.9388 25.2451C40.9388 22.9549 39.3943 22.2625 35.8792 22.2625C33.1629 22.2625 28.7956 24.1799 27.0381 26.7896L23.949 21.3571C26.612 18.2148 30.926 16.404 36.465 16.404C44.667 16.404 48.8745 19.3332 48.8745 25.7776V38.4002C48.8745 40.211 49.8864 40.9566 51.4842 40.9566C51.9636 40.9566 52.4962 40.9034 53.0288 40.7969ZM41.2051 37.335V31.2634C40.1932 32.2753 38.1161 33.021 35.5063 33.7133C32.5771 34.459 30.713 35.5242 30.713 38.2404C30.713 38.3469 30.713 38.4534 30.713 38.56C30.7662 40.4773 32.0445 41.4892 34.4944 41.4892C37.0509 41.4892 40.5127 39.998 41.2051 37.335Z" fill="white"/>
</svg>
