<svg width="209" height="68" viewBox="0 0 209 68" fill="none" xmlns="http://www.w3.org/2000/svg">
<path d="M11.8856 0H208.624L196.738 67.4067H4.6209e-06L11.8856 0Z" fill="#D3A7E0"/>
<path d="M189.231 60.7492H181.615V42.1084C181.615 38.5932 179.378 36.6226 176.343 36.6226C173.253 36.6226 170.484 38.3269 169.525 41.416V60.7492H161.962V31.1901H168.886V34.9716C170.271 32.2553 173.573 30.551 178.473 30.551C184.917 30.551 189.231 35.0781 189.231 41.0432V60.7492Z" fill="#A585AE"/>
<path d="M162.899 45.9963C162.899 55.3167 157.2 61.3883 147.827 61.3883C138.559 61.3883 132.701 55.3167 132.701 45.9963C132.701 36.6226 138.559 30.551 147.827 30.551C157.2 30.551 162.899 36.6226 162.899 45.9963ZM155.23 45.9963C155.23 40.1378 152.3 36.6226 147.827 36.6226C143.513 36.6226 140.37 40.1378 140.37 45.9963C140.37 51.7484 143.513 55.37 147.827 55.37C152.3 55.37 155.23 51.8549 155.23 45.9963Z" fill="#A585AE"/>
<path d="M133.657 26.8761H125.775V19.2067H133.657V26.8761ZM133.551 60.7492H125.935V31.1901H133.551V60.7492Z" fill="#A585AE"/>
<path d="M126.914 52.494C126.914 58.1928 122.547 61.3883 114.185 61.3883C108.806 61.3883 103.799 59.3112 101.083 55.6896L104.332 50.3636C106.675 53.4527 111.043 55.583 114.398 55.583C117.647 55.583 119.138 54.4113 119.138 52.5472C119.138 50.3103 117.38 49.1919 112.321 48.1267C105.024 46.6354 102.042 43.4399 102.042 39.0726C102.042 34.1727 106.356 30.551 114.132 30.551C119.511 30.551 124.038 32.3619 126.168 35.1846L123.132 40.2975C121.002 37.6346 117.647 36.0368 114.025 36.0368C111.043 36.0368 109.605 37.2085 109.605 38.8595C109.605 40.4573 110.616 41.3627 115.303 42.3214C123.292 43.9725 126.914 47.1148 126.914 52.494Z" fill="#A585AE"/>
<path d="M104.139 52.494C104.139 58.1928 99.7719 61.3883 91.4101 61.3883C86.0309 61.3883 81.0245 59.3112 78.3083 55.6896L81.5571 50.3636C83.9005 53.4527 88.2678 55.583 91.6232 55.583C94.872 55.583 96.3633 54.4113 96.3633 52.5472C96.3633 50.3103 94.6057 49.1919 89.5461 48.1267C82.2495 46.6354 79.267 43.4399 79.267 39.0726C79.267 34.1727 83.581 30.551 91.3569 30.551C96.7361 30.551 101.263 32.3619 103.394 35.1846L100.358 40.2975C98.2274 37.6346 94.872 36.0368 91.2504 36.0368C88.2678 36.0368 86.8298 37.2085 86.8298 38.8595C86.8298 40.4573 87.8418 41.3627 92.5286 42.3214C100.518 43.9725 104.139 47.1148 104.139 52.494Z" fill="#A585AE"/>
<path d="M79.5844 26.8761H71.702V19.2067H79.5844V26.8761ZM79.4779 60.7492H71.8617V31.1901H79.4779V60.7492Z" fill="#A585AE"/>
<path d="M71.1016 60.7492H63.5387V42.1084C63.5387 38.4867 62.154 36.7291 59.2247 36.7291C56.4019 36.7291 54.5379 38.9661 54.4313 41.7888V60.7492H46.9217V42.1084C46.9217 38.54 45.5902 36.7291 42.7142 36.7291C40.3175 36.7291 38.773 38.4867 37.9741 40.9367V60.7492H30.4113V31.1901H37.335V34.5988C38.6132 32.2553 41.223 30.551 45.4837 30.551C49.2652 30.551 52.0879 32.3619 53.2596 35.1846C54.4846 32.3619 57.8932 30.551 62.1007 30.551C67.4799 30.551 71.1016 34.439 71.1016 40.2975V60.7492Z" fill="#A585AE"/>
<path d="M177.581 49.9309H169.965V31.29C169.965 27.7749 167.728 25.8043 164.692 25.8043C161.603 25.8043 158.833 27.5086 157.875 30.5976V49.9309H150.312V20.3718H157.236V24.1532C158.62 21.437 161.923 19.7327 166.822 19.7327C173.267 19.7327 177.581 24.2597 177.581 30.2248V49.9309Z" fill="white"/>
<path d="M151.249 35.178C151.249 44.4984 145.55 50.57 136.176 50.57C126.909 50.57 121.05 44.4984 121.05 35.178C121.05 25.8043 126.909 19.7327 136.176 19.7327C145.55 19.7327 151.249 25.8043 151.249 35.178ZM143.579 35.178C143.579 29.3194 140.65 25.8043 136.176 25.8043C131.862 25.8043 128.72 29.3194 128.72 35.178C128.72 40.93 131.862 44.5516 136.176 44.5516C140.65 44.5516 143.579 41.0365 143.579 35.178Z" fill="white"/>
<path d="M122.007 16.0578H114.125V8.38838H122.007V16.0578ZM121.9 49.9309H114.284V20.3718H121.9V49.9309Z" fill="white"/>
<path d="M115.263 41.6756C115.263 47.3744 110.896 50.57 102.534 50.57C97.1551 50.57 92.1487 48.4929 89.4325 44.8712L92.6813 39.5452C95.0248 42.6343 99.392 44.7647 102.747 44.7647C105.996 44.7647 107.487 43.593 107.487 41.7289C107.487 39.492 105.73 38.3735 100.67 37.3083C93.3737 35.8171 90.3912 32.6215 90.3912 28.2542C90.3912 23.3543 94.7052 19.7327 102.481 19.7327C107.86 19.7327 112.387 21.5435 114.518 24.3663L111.482 29.4792C109.352 26.8162 105.996 25.2184 102.375 25.2184C99.392 25.2184 97.954 26.3901 97.954 28.0412C97.954 29.639 98.966 30.5444 103.653 31.503C111.642 33.1541 115.263 36.2964 115.263 41.6756Z" fill="white"/>
<path d="M92.4887 41.6756C92.4887 47.3744 88.1214 50.57 79.7596 50.57C74.3804 50.57 69.374 48.4929 66.6578 44.8712L69.9066 39.5452C72.25 42.6343 76.6173 44.7647 79.9727 44.7647C83.2215 44.7647 84.7128 43.593 84.7128 41.7289C84.7128 39.492 82.9552 38.3735 77.8956 37.3083C70.599 35.8171 67.6164 32.6215 67.6164 28.2542C67.6164 23.3543 71.9305 19.7327 79.7064 19.7327C85.0856 19.7327 89.6127 21.5435 91.743 24.3663L88.7072 29.4792C86.5769 26.8162 83.2215 25.2184 79.5999 25.2184C76.6173 25.2184 75.1793 26.3901 75.1793 28.0412C75.1793 29.639 76.1912 30.5444 80.8781 31.503C88.867 33.1541 92.4887 36.2964 92.4887 41.6756Z" fill="white"/>
<path d="M67.9339 16.0578H60.0515V8.38838H67.9339V16.0578ZM67.8274 49.9309H60.2112V20.3718H67.8274V49.9309Z" fill="white"/>
<path d="M59.4511 49.9309H51.8882V31.29C51.8882 27.6684 50.5035 25.9108 47.5742 25.9108C44.7514 25.9108 42.8873 28.1477 42.7808 30.9705V49.9309H35.2712V31.29C35.2712 27.7216 33.9397 25.9108 31.0637 25.9108C28.667 25.9108 27.1225 27.6684 26.3236 30.1183V49.9309H18.7607V20.3718H25.6845V23.7804C26.9627 21.437 29.5724 19.7327 33.8332 19.7327C37.6146 19.7327 40.4374 21.5435 41.6091 24.3663C42.8341 21.5435 46.2427 19.7327 50.4502 19.7327C55.8294 19.7327 59.4511 23.6206 59.4511 29.4792V49.9309Z" fill="white"/>
</svg>
