<svg width="346" height="178" viewBox="0 0 346 178" fill="none" xmlns="http://www.w3.org/2000/svg">
<rect width="245.948" height="66.6004" transform="matrix(0.987688 0.156434 -0.34202 0.939693 102.093 14.2701)" fill="#D3A7E0"/>
<mask id="path-2-outside-1_370_436" maskUnits="userSpaceOnUse" x="16.2474" y="20.6582" width="308.605" height="99.2216" fill="black">
<rect fill="white" x="16.2474" y="20.6582" width="308.605" height="99.2216"/>
<path d="M23.7543 56.5629L26.9132 43.8289C29.687 32.6478 39.1059 23.7582 53.4473 25.7565C63.9063 27.2138 69.9075 33.7534 70.5597 42.3593L57.9898 44.7851C58.0428 40.9366 55.5862 37.6221 50.5944 36.9265C44.4933 36.0765 40.5622 40.0272 39.4643 44.4531L35.8238 59.1282C34.668 63.787 36.4033 68.688 42.5836 69.5491C47.8131 70.2778 53.1319 66.681 54.3454 61.7893L54.4417 61.4011L43.1904 59.8334L45.6559 49.8946L68.9509 53.1404L66.2735 63.9333C63.4612 75.2697 51.7143 82.3086 39.8291 80.6526C25.4877 78.6543 20.6916 68.9087 23.7543 56.5629ZM57.1163 82.5793L91.916 31.5182L101.503 32.8541L109.49 89.8769L96.6543 88.0883L95.2693 76.4885L76.8077 73.9161L69.9523 84.3678L57.1163 82.5793ZM83.115 64.352L93.9701 65.8645L93.451 59.3657L92.8605 48.1979L92.5436 48.1537L86.7546 58.272L83.115 64.352ZM107.205 89.5584L120.611 35.5165L132.813 37.2167L122.065 80.5434L148.846 84.275L146.188 94.9902L107.205 89.5584ZM145.631 94.9125L159.037 40.8705L171.239 42.5707L160.491 85.8974L187.272 89.629L184.614 100.344L145.631 94.9125ZM184.056 100.267L197.463 46.2246L236.446 51.6564L233.788 62.3716L207.007 58.64L204.291 69.5881L227.11 72.7677L224.548 83.0947L201.729 79.9151L198.917 91.2515L225.698 94.9831L223.04 105.698L184.056 100.267ZM222.482 105.621L235.888 51.5786L260.292 54.979C269.959 56.3259 276.676 63.2865 274.095 73.6912C272.496 80.1358 267.623 85.2406 260.273 87.1085L265.11 111.56L251.323 109.639L247.789 87.5379L239.865 86.4339L234.684 107.321L222.482 105.621ZM242.524 75.7187L252.586 77.1208C257.024 77.739 260.396 76.04 261.398 72.0024C262.399 67.9648 260.031 65.9478 255.91 65.3737L245.451 63.9164L242.524 75.7187ZM279.003 113.496L284.493 91.3668L274.661 56.9811L287.735 58.8027L290.471 71.2335L292.625 82.3782L292.942 82.4224L300.198 72.6691L308.811 61.7394L321.885 63.561L296.141 92.9897L290.651 115.119L279.003 113.496Z"/>
</mask>
<path d="M23.7543 56.5629L26.9132 43.8289C29.687 32.6478 39.1059 23.7582 53.4473 25.7565C63.9063 27.2138 69.9075 33.7534 70.5597 42.3593L57.9898 44.7851C58.0428 40.9366 55.5862 37.6221 50.5944 36.9265C44.4933 36.0765 40.5622 40.0272 39.4643 44.4531L35.8238 59.1282C34.668 63.787 36.4033 68.688 42.5836 69.5491C47.8131 70.2778 53.1319 66.681 54.3454 61.7893L54.4417 61.4011L43.1904 59.8334L45.6559 49.8946L68.9509 53.1404L66.2735 63.9333C63.4612 75.2697 51.7143 82.3086 39.8291 80.6526C25.4877 78.6543 20.6916 68.9087 23.7543 56.5629ZM57.1163 82.5793L91.916 31.5182L101.503 32.8541L109.49 89.8769L96.6543 88.0883L95.2693 76.4885L76.8077 73.9161L69.9523 84.3678L57.1163 82.5793ZM83.115 64.352L93.9701 65.8645L93.451 59.3657L92.8605 48.1979L92.5436 48.1537L86.7546 58.272L83.115 64.352ZM107.205 89.5584L120.611 35.5165L132.813 37.2167L122.065 80.5434L148.846 84.275L146.188 94.9902L107.205 89.5584ZM145.631 94.9125L159.037 40.8705L171.239 42.5707L160.491 85.8974L187.272 89.629L184.614 100.344L145.631 94.9125ZM184.056 100.267L197.463 46.2246L236.446 51.6564L233.788 62.3716L207.007 58.64L204.291 69.5881L227.11 72.7677L224.548 83.0947L201.729 79.9151L198.917 91.2515L225.698 94.9831L223.04 105.698L184.056 100.267ZM222.482 105.621L235.888 51.5786L260.292 54.979C269.959 56.3259 276.676 63.2865 274.095 73.6912C272.496 80.1358 267.623 85.2406 260.273 87.1085L265.11 111.56L251.323 109.639L247.789 87.5379L239.865 86.4339L234.684 107.321L222.482 105.621ZM242.524 75.7187L252.586 77.1208C257.024 77.739 260.396 76.04 261.398 72.0024C262.399 67.9648 260.031 65.9478 255.91 65.3737L245.451 63.9164L242.524 75.7187ZM279.003 113.496L284.493 91.3668L274.661 56.9811L287.735 58.8027L290.471 71.2335L292.625 82.3782L292.942 82.4224L300.198 72.6691L308.811 61.7394L321.885 63.561L296.141 92.9897L290.651 115.119L279.003 113.496Z" fill="white"/>
<path d="M70.5597 42.3593L70.6652 43.3199L71.6473 43.1304L71.5764 42.1943L70.5597 42.3593ZM57.9898 44.7851L56.9707 44.8674L56.9555 45.9657L58.0953 45.7457L57.9898 44.7851ZM54.4417 61.4011L55.4321 61.5391L55.6729 60.5685L54.6825 60.4305L54.4417 61.4011ZM43.1904 59.8334L42.1999 59.6954L41.9592 60.6659L42.9496 60.8039L43.1904 59.8334ZM45.6559 49.8946L45.8967 48.924L44.9063 48.786L44.6655 49.7566L45.6559 49.8946ZM68.9509 53.1404L69.9413 53.2784L70.1821 52.3078L69.1916 52.1698L68.9509 53.1404ZM23.7543 56.5629L24.7447 56.7009L27.9037 43.9669L26.9132 43.8289L25.9228 43.6909L22.7638 56.4249L23.7543 56.5629ZM26.9132 43.8289L27.9037 43.9669C29.2433 38.5667 32.1707 33.787 36.4189 30.6012C40.6477 27.43 46.2843 25.7626 53.2066 26.7271L53.4473 25.7565L53.6881 24.7859C46.2689 23.7522 40.0253 25.5304 35.2659 29.0996C30.5258 32.6543 27.3569 37.91 25.9228 43.6909L26.9132 43.8289ZM53.4473 25.7565L53.2066 26.7271C63.2622 28.1282 68.9247 34.3644 69.5431 42.5244L70.5597 42.3593L71.5764 42.1943C70.8904 33.1425 64.5504 26.2994 53.6881 24.7859L53.4473 25.7565ZM70.5597 42.3593L70.4542 41.3987L57.8844 43.8245L57.9898 44.7851L58.0953 45.7457L70.6652 43.3199L70.5597 42.3593ZM57.9898 44.7851L59.009 44.7028C59.0684 40.3942 56.284 36.7152 50.8351 35.956L50.5944 36.9265L50.3536 37.8971C54.8883 38.529 57.0173 41.479 56.9707 44.8674L57.9898 44.7851ZM50.5944 36.9265L50.8351 35.956C47.524 35.4946 44.7112 36.3338 42.5695 37.9659C40.4501 39.5809 39.0711 41.9074 38.4738 44.3151L39.4643 44.4531L40.4547 44.5911C40.9554 42.5729 42.0909 40.711 43.7368 39.4567C45.3604 38.2195 47.5637 37.5084 50.3536 37.8971L50.5944 36.9265ZM39.4643 44.4531L38.4738 44.3151L34.8333 58.9902L35.8238 59.1282L36.8142 59.2662L40.4547 44.5911L39.4643 44.4531ZM35.8238 59.1282L34.8333 58.9902C34.2101 61.5026 34.351 64.1379 35.5427 66.2873C36.7485 68.4622 38.9836 70.0516 42.3428 70.5197L42.5836 69.5491L42.8244 68.5785C40.0032 68.1854 38.2806 66.8938 37.3626 65.2383C36.4306 63.5572 36.2817 61.4127 36.8142 59.2662L35.8238 59.1282ZM42.5836 69.5491L42.3428 70.5197C48.103 71.3223 53.9854 67.3709 55.3358 61.9273L54.3454 61.7893L53.3549 61.6513C52.2783 65.9911 47.5231 69.2332 42.8244 68.5785L42.5836 69.5491ZM54.3454 61.7893L55.3358 61.9273L55.4321 61.5391L54.4417 61.4011L53.4513 61.2631L53.3549 61.6513L54.3454 61.7893ZM54.4417 61.4011L54.6825 60.4305L43.4312 58.8628L43.1904 59.8334L42.9496 60.8039L54.2009 62.3716L54.4417 61.4011ZM43.1904 59.8334L44.1808 59.9714L46.6463 50.0326L45.6559 49.8946L44.6655 49.7566L42.1999 59.6954L43.1904 59.8334ZM45.6559 49.8946L45.4151 50.8652L68.7101 54.111L68.9509 53.1404L69.1916 52.1698L45.8967 48.924L45.6559 49.8946ZM68.9509 53.1404L67.9604 53.0024L65.283 63.7953L66.2735 63.9333L67.2639 64.0713L69.9413 53.2784L68.9509 53.1404ZM66.2735 63.9333L65.283 63.7953C62.6225 74.5199 51.4887 81.273 40.0699 79.682L39.8291 80.6526L39.5883 81.6231C51.9399 83.3441 64.2999 76.0195 67.2639 64.0713L66.2735 63.9333ZM39.8291 80.6526L40.0699 79.682C33.1123 78.7125 28.5972 75.8883 26.1551 71.9293C23.7046 67.9565 23.2559 62.7022 24.7447 56.7009L23.7543 56.5629L22.7638 56.4249C21.19 62.7694 21.608 68.5607 24.3752 73.0468C27.1508 77.5466 32.2044 80.5943 39.5883 81.6231L39.8291 80.6526ZM57.1163 82.5793L56.28 82.0996L55.429 83.3483L56.8755 83.5499L57.1163 82.5793ZM91.916 31.5182L92.1567 30.5476L91.4786 30.4531L91.0797 31.0385L91.916 31.5182ZM101.503 32.8541L102.514 32.6317L102.422 31.978L101.744 31.8835L101.503 32.8541ZM109.49 89.8769L109.25 90.8474L110.696 91.049L110.501 89.6545L109.49 89.8769ZM96.6543 88.0883L95.6415 88.2925L95.7215 88.9625L96.4136 89.0589L96.6543 88.0883ZM95.2693 76.4885L96.2822 76.2843L96.2022 75.6143L95.5101 75.5179L95.2693 76.4885ZM76.8077 73.9161L77.0485 72.9455L76.3564 72.8491L75.9605 73.4528L76.8077 73.9161ZM69.9523 84.3678L69.7115 85.3384L70.4036 85.4348L70.7995 84.8311L69.9523 84.3678ZM83.115 64.352L82.2437 63.9271L81.5212 65.134L82.8742 65.3226L83.115 64.352ZM93.9701 65.8645L93.7294 66.8351L95.0927 67.025L94.9865 65.6957L93.9701 65.8645ZM93.451 59.3657L92.433 59.5099L92.4337 59.5222L92.4347 59.5345L93.451 59.3657ZM92.8605 48.1979L93.8785 48.0537L93.8403 47.3302L93.1013 47.2273L92.8605 48.1979ZM92.5436 48.1537L92.7844 47.1831L92.0433 47.0799L91.6614 47.7474L92.5436 48.1537ZM86.7546 58.272L87.6259 58.6969L87.6315 58.6876L87.6368 58.6783L86.7546 58.272ZM57.1163 82.5793L57.9526 83.059L92.7523 31.9979L91.916 31.5182L91.0797 31.0385L56.28 82.0996L57.1163 82.5793ZM91.916 31.5182L91.6752 32.4888L101.263 33.8246L101.503 32.8541L101.744 31.8835L92.1567 30.5476L91.916 31.5182ZM101.503 32.8541L100.493 33.0764L108.48 90.0992L109.49 89.8769L110.501 89.6545L102.514 32.6317L101.503 32.8541ZM109.49 89.8769L109.731 88.9063L96.8951 87.1178L96.6543 88.0883L96.4136 89.0589L109.25 90.8474L109.49 89.8769ZM96.6543 88.0883L97.6672 87.8842L96.2822 76.2843L95.2693 76.4885L94.2565 76.6926L95.6415 88.2925L96.6543 88.0883ZM95.2693 76.4885L95.5101 75.5179L77.0485 72.9455L76.8077 73.9161L76.5669 74.8867L95.0286 77.459L95.2693 76.4885ZM76.8077 73.9161L75.9605 73.4528L69.1051 83.9045L69.9523 84.3678L70.7995 84.8311L77.6549 74.3794L76.8077 73.9161ZM69.9523 84.3678L70.1931 83.3972L57.3571 81.6087L57.1163 82.5793L56.8755 83.5499L69.7115 85.3384L69.9523 84.3678ZM83.115 64.352L82.8742 65.3226L93.7294 66.8351L93.9701 65.8645L94.2109 64.8939L83.3558 63.3814L83.115 64.352ZM93.9701 65.8645L94.9865 65.6957L94.4674 59.197L93.451 59.3657L92.4347 59.5345L92.9538 66.0332L93.9701 65.8645ZM93.451 59.3657L94.469 59.2216L93.8785 48.0537L92.8605 48.1979L91.8426 48.342L92.433 59.5099L93.451 59.3657ZM92.8605 48.1979L93.1013 47.2273L92.7844 47.1831L92.5436 48.1537L92.3028 49.1243L92.6198 49.1684L92.8605 48.1979ZM92.5436 48.1537L91.6614 47.7474L85.8723 57.8658L86.7546 58.272L87.6368 58.6783L93.4258 48.56L92.5436 48.1537ZM86.7546 58.272L85.8833 57.8471L82.2437 63.9271L83.115 64.352L83.9863 64.7769L87.6259 58.6969L86.7546 58.272ZM107.205 89.5584L106.214 89.4204L105.974 90.391L106.964 90.529L107.205 89.5584ZM120.611 35.5165L120.852 34.5459L119.862 34.4079L119.621 35.3785L120.611 35.5165ZM132.813 37.2167L133.804 37.3547L134.045 36.3841L133.054 36.2461L132.813 37.2167ZM122.065 80.5434L121.075 80.4054L120.834 81.376L121.824 81.514L122.065 80.5434ZM148.846 84.275L149.837 84.413L150.078 83.4424L149.087 83.3044L148.846 84.275ZM146.188 94.9902L145.948 95.9608L146.938 96.0988L147.179 95.1282L146.188 94.9902ZM107.205 89.5584L108.195 89.6964L121.602 35.6545L120.611 35.5165L119.621 35.3785L106.214 89.4204L107.205 89.5584ZM120.611 35.5165L120.37 36.487L132.573 38.1872L132.813 37.2167L133.054 36.2461L120.852 34.5459L120.611 35.5165ZM132.813 37.2167L131.823 37.0787L121.075 80.4054L122.065 80.5434L123.056 80.6814L133.804 37.3547L132.813 37.2167ZM122.065 80.5434L121.824 81.514L148.606 85.2456L148.846 84.275L149.087 83.3044L122.306 79.5728L122.065 80.5434ZM148.846 84.275L147.856 84.137L145.198 94.8522L146.188 94.9902L147.179 95.1282L149.837 84.413L148.846 84.275ZM146.188 94.9902L146.429 94.0196L107.446 88.5878L107.205 89.5584L106.964 90.529L145.948 95.9608L146.188 94.9902ZM145.631 94.9125L144.64 94.7745L144.399 95.7451L145.39 95.8831L145.631 94.9125ZM159.037 40.8705L159.278 39.8999L158.287 39.7619L158.046 40.7325L159.037 40.8705ZM171.239 42.5707L172.229 42.7087L172.47 41.7381L171.48 41.6001L171.239 42.5707ZM160.491 85.8974L159.5 85.7594L159.26 86.73L160.25 86.868L160.491 85.8974ZM187.272 89.629L188.263 89.767L188.503 88.7965L187.513 88.6585L187.272 89.629ZM184.614 100.344L184.373 101.315L185.364 101.453L185.604 100.482L184.614 100.344ZM145.631 94.9125L146.621 95.0505L160.027 41.0085L159.037 40.8705L158.046 40.7325L144.64 94.7745L145.631 94.9125ZM159.037 40.8705L158.796 41.8411L170.998 43.5413L171.239 42.5707L171.48 41.6001L159.278 39.8999L159.037 40.8705ZM171.239 42.5707L170.249 42.4327L159.5 85.7594L160.491 85.8974L161.481 86.0355L172.229 42.7087L171.239 42.5707ZM160.491 85.8974L160.25 86.868L187.031 90.5996L187.272 89.629L187.513 88.6585L160.732 84.9269L160.491 85.8974ZM187.272 89.629L186.282 89.491L183.624 100.206L184.614 100.344L185.604 100.482L188.263 89.767L187.272 89.629ZM184.614 100.344L184.855 99.3737L145.871 93.9419L145.631 94.9125L145.39 95.8831L184.373 101.315L184.614 100.344ZM184.056 100.267L183.066 100.129L182.825 101.099L183.815 101.237L184.056 100.267ZM197.463 46.2246L197.703 45.254L196.713 45.116L196.472 46.0866L197.463 46.2246ZM236.446 51.6564L237.436 51.7944L237.677 50.8238L236.687 50.6858L236.446 51.6564ZM233.788 62.3716L233.547 63.3422L234.537 63.4802L234.778 62.5096L233.788 62.3716ZM207.007 58.64L207.247 57.6694L206.257 57.5314L206.016 58.502L207.007 58.64ZM204.291 69.5881L203.3 69.4501L203.059 70.4207L204.05 70.5587L204.291 69.5881ZM227.11 72.7677L228.101 72.9057L228.341 71.9351L227.351 71.7971L227.11 72.7677ZM224.548 83.0947L224.308 84.0653L225.298 84.2033L225.539 83.2327L224.548 83.0947ZM201.729 79.9151L201.97 78.9445L200.979 78.8065L200.738 79.7771L201.729 79.9151ZM198.917 91.2515L197.926 91.1135L197.685 92.0841L198.676 92.2221L198.917 91.2515ZM225.698 94.9831L226.688 95.1211L226.929 94.1505L225.939 94.0125L225.698 94.9831ZM223.04 105.698L222.799 106.669L223.789 106.807L224.03 105.836L223.04 105.698ZM184.056 100.267L185.047 100.405L198.453 46.3626L197.463 46.2246L196.472 46.0866L183.066 100.129L184.056 100.267ZM197.463 46.2246L197.222 47.1952L236.205 52.6269L236.446 51.6564L236.687 50.6858L197.703 45.254L197.463 46.2246ZM236.446 51.6564L235.456 51.5184L232.797 62.2336L233.788 62.3716L234.778 62.5096L237.436 51.7944L236.446 51.6564ZM233.788 62.3716L234.029 61.401L207.247 57.6694L207.007 58.64L206.766 59.6106L233.547 63.3422L233.788 62.3716ZM207.007 58.64L206.016 58.502L203.3 69.4501L204.291 69.5881L205.281 69.7261L207.997 58.778L207.007 58.64ZM204.291 69.5881L204.05 70.5587L226.869 73.7383L227.11 72.7677L227.351 71.7971L204.531 68.6176L204.291 69.5881ZM227.11 72.7677L226.12 72.6297L223.558 82.9567L224.548 83.0947L225.539 83.2327L228.101 72.9057L227.11 72.7677ZM224.548 83.0947L224.789 82.1241L201.97 78.9445L201.729 79.9151L201.488 80.8857L224.308 84.0653L224.548 83.0947ZM201.729 79.9151L200.738 79.7771L197.926 91.1135L198.917 91.2515L199.907 91.3895L202.719 80.0531L201.729 79.9151ZM198.917 91.2515L198.676 92.2221L225.457 95.9537L225.698 94.9831L225.939 94.0125L199.157 90.2809L198.917 91.2515ZM225.698 94.9831L224.707 94.8451L222.049 105.56L223.04 105.698L224.03 105.836L226.688 95.1211L225.698 94.9831ZM223.04 105.698L223.28 104.728L184.297 99.296L184.056 100.267L183.815 101.237L222.799 106.669L223.04 105.698ZM222.482 105.621L221.491 105.483L221.251 106.453L222.241 106.591L222.482 105.621ZM235.888 51.5786L236.129 50.6081L235.139 50.4701L234.898 51.4406L235.888 51.5786ZM260.273 87.1085L260.105 86.162L259.082 86.422L259.271 87.3804L260.273 87.1085ZM265.11 111.56L264.869 112.531L266.4 112.744L266.112 111.288L265.11 111.56ZM251.323 109.639L250.315 109.879L250.417 110.517L251.083 110.61L251.323 109.639ZM247.789 87.5379L248.797 87.2983L248.695 86.66L248.03 86.5673L247.789 87.5379ZM239.865 86.4339L240.106 85.4633L239.116 85.3253L238.875 86.2959L239.865 86.4339ZM234.684 107.321L234.443 108.291L235.434 108.429L235.674 107.459L234.684 107.321ZM242.524 75.7187L241.533 75.5807L241.292 76.5512L242.283 76.6892L242.524 75.7187ZM245.451 63.9164L245.692 62.9458L244.702 62.8078L244.461 63.7784L245.451 63.9164ZM222.482 105.621L223.472 105.759L236.879 51.7166L235.888 51.5786L234.898 51.4406L221.491 105.483L222.482 105.621ZM235.888 51.5786L235.647 52.5492L260.052 55.9496L260.292 54.979L260.533 54.0084L236.129 50.6081L235.888 51.5786ZM260.292 54.979L260.052 55.9496C264.689 56.5957 268.557 58.5797 270.956 61.5819C273.342 64.5674 274.328 68.6205 273.104 73.5532L274.095 73.6912L275.085 73.8292C276.442 68.3572 275.36 63.7277 272.617 60.295C269.887 56.879 265.563 54.7092 260.533 54.0084L260.292 54.979ZM274.095 73.6912L273.104 73.5532C271.6 79.6154 267.046 84.3979 260.105 86.162L260.273 87.1085L260.442 88.055C268.2 86.0833 273.391 80.6562 275.085 73.8292L274.095 73.6912ZM260.273 87.1085L259.271 87.3804L264.108 111.832L265.11 111.56L266.112 111.288L261.276 86.8366L260.273 87.1085ZM265.11 111.56L265.351 110.59L251.564 108.669L251.323 109.639L251.083 110.61L264.869 112.531L265.11 111.56ZM251.323 109.639L252.331 109.4L248.797 87.2983L247.789 87.5379L246.781 87.7775L250.315 109.879L251.323 109.639ZM247.789 87.5379L248.03 86.5673L240.106 85.4633L239.865 86.4339L239.625 87.4045L247.548 88.5085L247.789 87.5379ZM239.865 86.4339L238.875 86.2959L233.694 107.183L234.684 107.321L235.674 107.459L240.856 86.5719L239.865 86.4339ZM234.684 107.321L234.925 106.35L222.723 104.65L222.482 105.621L222.241 106.591L234.443 108.291L234.684 107.321ZM242.524 75.7187L242.283 76.6892L252.346 78.0914L252.586 77.1208L252.827 76.1502L242.764 74.7481L242.524 75.7187ZM252.586 77.1208L252.346 78.0914C254.709 78.4206 256.922 78.1527 258.727 77.1431C260.564 76.1148 261.827 74.401 262.388 72.1404L261.398 72.0024L260.407 71.8644C259.966 73.6414 259.042 74.7959 257.834 75.472C256.593 76.1667 254.901 76.4392 252.827 76.1502L252.586 77.1208ZM261.398 72.0024L262.388 72.1404C262.948 69.8833 262.588 68.0447 261.37 66.7046C260.19 65.4058 258.32 64.7053 256.151 64.4031L255.91 65.3737L255.67 66.3443C257.621 66.6162 258.996 67.2113 259.78 68.0738C260.526 68.8952 260.849 70.0839 260.407 71.8644L261.398 72.0024ZM255.91 65.3737L256.151 64.4031L245.692 62.9458L245.451 63.9164L245.211 64.887L255.67 66.3443L255.91 65.3737ZM245.451 63.9164L244.461 63.7784L241.533 75.5807L242.524 75.7187L243.514 75.8567L246.442 64.0544L245.451 63.9164ZM279.003 113.496L278.013 113.358L277.772 114.329L278.763 114.467L279.003 113.496ZM284.493 91.3668L285.483 91.5048L285.545 91.2575L285.478 91.0235L284.493 91.3668ZM274.661 56.9811L274.902 56.0105L273.234 55.7781L273.676 57.3244L274.661 56.9811ZM287.735 58.8027L288.733 58.5122L288.603 57.9195L287.976 57.8321L287.735 58.8027ZM290.471 71.2335L291.474 70.9655L291.472 70.9542L291.469 70.943L290.471 71.2335ZM292.625 82.3782L291.622 82.6463L291.741 83.2591L292.384 83.3488L292.625 82.3782ZM292.942 82.4224L292.701 83.393L293.347 83.483L293.751 82.9398L292.942 82.4224ZM300.198 72.6691L299.407 72.1268L299.398 72.1392L299.388 72.1517L300.198 72.6691ZM308.811 61.7394L309.052 60.7688L308.427 60.6817L308.021 61.1971L308.811 61.7394ZM321.885 63.561L322.638 64.1482L323.797 62.8233L322.126 62.5905L321.885 63.561ZM296.141 92.9897L295.387 92.4026L295.212 92.6034L295.15 92.8517L296.141 92.9897ZM290.651 115.119L290.41 116.09L291.401 116.228L291.641 115.257L290.651 115.119ZM279.003 113.496L279.994 113.634L285.483 91.5048L284.493 91.3668L283.503 91.2288L278.013 113.358L279.003 113.496ZM284.493 91.3668L285.478 91.0235L275.646 56.6378L274.661 56.9811L273.676 57.3244L283.508 91.7101L284.493 91.3668ZM274.661 56.9811L274.42 57.9517L287.494 59.7733L287.735 58.8027L287.976 57.8321L274.902 56.0105L274.661 56.9811ZM287.735 58.8027L286.737 59.0932L289.473 71.5241L290.471 71.2335L291.469 70.943L288.733 58.5122L287.735 58.8027ZM290.471 71.2335L289.468 71.5016L291.622 82.6463L292.625 82.3782L293.628 82.1102L291.474 70.9655L290.471 71.2335ZM292.625 82.3782L292.384 83.3488L292.701 83.393L292.942 82.4224L293.183 81.4518L292.866 81.4077L292.625 82.3782ZM292.942 82.4224L293.751 82.9398L301.007 73.1866L300.198 72.6691L299.388 72.1517L292.132 81.905L292.942 82.4224ZM300.198 72.6691L300.988 73.2114L309.602 62.2817L308.811 61.7394L308.021 61.1971L299.407 72.1268L300.198 72.6691ZM308.811 61.7394L308.57 62.71L321.644 64.5316L321.885 63.561L322.126 62.5905L309.052 60.7688L308.811 61.7394ZM321.885 63.561L321.132 62.9739L295.387 92.4026L296.141 92.9897L296.894 93.5768L322.638 64.1482L321.885 63.561ZM296.141 92.9897L295.15 92.8517L289.66 114.981L290.651 115.119L291.641 115.257L297.131 93.1277L296.141 92.9897ZM290.651 115.119L290.892 114.148L279.244 112.525L279.003 113.496L278.763 114.467L290.41 116.09L290.651 115.119Z" fill="white" mask="url(#path-2-outside-1_370_436)"/>
</svg>
