<svg width="460" height="130" viewBox="0 0 460 130" fill="none" xmlns="http://www.w3.org/2000/svg">
<rect width="401.613" height="142.333" transform="matrix(1 0 -0.410212 0.91199 58.3866 0)" fill="#A585AE"/>
<path d="M444.216 102.204H381.871V27.3241H442.046V39.3241H398.77V57.8521H436.337V69.5641H398.77V90.2041H444.216V102.204Z" fill="white"/>
<path d="M380.718 102.204H323.512V27.3241H340.639V89.3401H380.718V102.204Z" fill="white"/>
<path d="M314.857 102.204H297.501V27.3241H314.857V102.204Z" fill="white"/>
<path d="M295.132 39.3241H254.14V59.8681H290.108V71.4841H254.14V102.204H237.012V27.3241H295.132V39.3241Z" fill="white"/>
<path d="M232.94 64.5721C232.94 87.8041 217.753 104.028 193.089 104.028C168.311 104.028 153.01 87.8041 153.01 64.5721C153.01 41.8201 168.311 25.5001 193.089 25.5001C217.753 25.5001 232.94 41.9161 232.94 64.5721ZM215.698 64.5721C215.698 48.0601 206.449 37.7881 193.089 37.7881C180.3 37.7881 170.252 48.0601 170.252 64.5721C170.252 81.1801 179.729 91.7401 193.089 91.7401C205.992 91.7401 215.698 81.1801 215.698 64.5721Z" fill="white"/>
<path d="M157.739 102.204H137.757L120.058 72.1561H103.958V102.204H87.2868V27.3241H123.255C140.04 27.3241 151.915 35.4841 151.915 48.9241C151.915 60.9241 145.407 67.2601 135.93 69.7561L157.739 102.204ZM134.674 49.5961C134.674 42.8761 128.508 39.2281 120.172 39.2281H103.958V60.9241H120.4C128.964 60.9241 134.674 56.9881 134.674 49.5961Z" fill="white"/>
<path d="M84.5267 52.1881C84.5267 67.2601 73.5649 77.1481 55.4095 77.1481H36.6831V102.204H19.7838V27.3241H55.6379C72.994 27.3241 84.5267 37.6921 84.5267 52.1881ZM67.6273 52.2841C67.6273 43.7401 60.662 39.3241 51.7556 39.3241H36.4548V65.1481H51.8698C60.5478 65.1481 67.6273 60.8281 67.6273 52.2841Z" fill="white"/>
<path d="M443.83 25.8242V40.8242H400.554V56.3525H438.121V71.0645H400.554V88.7041H446V103.704H380.087V25.8242H443.83ZM383.655 100.704H442.432V91.7041H396.986V68.0645H434.553V59.3525H396.986V37.8242H440.262V28.8242H383.655V100.704Z" fill="white"/>
<path d="M342.423 25.8242V87.8398H382.503V103.704H321.727V25.8242H342.423ZM325.295 100.704H378.934V90.8398H338.855V28.8242H325.295V100.704Z" fill="white"/>
<path d="M316.64 25.8242V103.704H295.716V25.8242H316.64ZM299.285 100.704H313.072V28.8242H299.285V100.704Z" fill="white"/>
<path d="M296.916 25.8242V40.8242H255.924V58.3682H291.892V72.9844H255.924V103.704H235.227V25.8242H296.916ZM238.796 100.704H252.356V69.9844H288.324V61.3682H252.356V37.8242H293.348V28.8242H238.796V100.704Z" fill="white"/>
<path d="M231.155 64.5723C231.155 53.5147 227.449 44.1113 220.893 37.501C214.363 30.9177 204.909 27 193.089 27C181.205 27.0001 171.693 30.8985 165.123 37.4697C158.527 44.0672 154.795 53.4684 154.795 64.5723C154.795 75.923 158.532 85.4194 165.127 92.0498C171.694 98.6526 181.202 102.528 193.089 102.528C204.915 102.528 214.366 98.6553 220.892 92.0537C227.445 85.4236 231.155 75.9256 231.155 64.5723ZM213.914 64.5723C213.914 56.5327 211.659 50.1733 207.958 45.8672C204.289 41.5995 199.159 39.2881 193.089 39.2881C181.734 39.2883 172.037 48.4525 172.037 64.5723C172.037 72.6543 174.344 79.1133 178.108 83.5078C181.843 87.8685 187.034 90.2401 193.089 90.2402C198.899 90.2402 204.039 87.881 207.785 83.5078C211.553 79.1083 213.914 72.6463 213.914 64.5723ZM217.482 64.5723C217.482 73.1059 214.991 80.2284 210.68 85.2607C206.347 90.3195 200.182 93.2402 193.089 93.2402C185.784 93.2401 179.556 90.3319 175.212 85.2607C170.898 80.2234 168.468 73.0981 168.468 64.5723C168.468 47.6684 178.866 36.2883 193.089 36.2881C200.378 36.2881 206.553 39.1132 210.849 44.1094C215.111 49.0673 217.482 56.1001 217.482 64.5723ZM234.723 64.5723C234.723 76.4508 230.841 86.6809 223.635 93.9707C216.401 101.289 205.927 105.528 193.089 105.528C180.197 105.528 169.666 101.292 162.389 93.9746C155.139 86.6851 151.226 76.4534 151.226 64.5723C151.226 52.9243 155.143 42.7896 162.392 35.5391C169.667 28.2625 180.194 24.0001 193.089 24C205.933 24 216.404 28.2904 223.634 35.5791C230.837 42.8408 234.723 52.9738 234.723 64.5723Z" fill="white"/>
<path d="M150.131 48.9238C150.131 42.602 147.355 37.6267 142.706 34.2139C138.031 30.7816 131.314 28.8242 123.255 28.8242H89.0706V100.704H102.174V70.6562H121.165L138.864 100.704H154.682L133.291 68.8789L135.397 68.3242C139.825 67.1579 143.464 65.1249 146.012 62.0469C148.567 58.9607 150.131 54.697 150.131 48.9238ZM132.889 49.5957C132.889 46.6611 131.566 44.5094 129.429 43.0596C127.244 41.5782 124.052 40.7286 120.172 40.7285H105.742V59.4238H120.4C124.371 59.4238 127.465 58.513 129.548 56.9219C131.606 55.3499 132.889 52.9525 132.889 49.5957ZM136.457 49.5957C136.457 53.6309 134.886 56.8986 131.948 59.1426C129.036 61.3673 124.993 62.4238 120.4 62.4238H102.174V37.7285H120.172C124.628 37.7286 128.687 38.702 131.669 40.7246C134.698 42.7787 136.457 45.8109 136.457 49.5957ZM153.699 48.9238C153.699 55.1506 152.009 60.055 148.94 63.7607C146.293 66.9584 142.696 69.1668 138.525 70.5684L160.796 103.704H136.649L118.95 73.6562H105.742V103.704H85.5024V25.8242H123.255C131.981 25.8242 139.594 27.9466 145.053 31.9541C150.538 35.9812 153.699 41.8059 153.699 48.9238Z" fill="white"/>
<path d="M82.7425 52.1885C82.7425 45.2789 79.9991 39.4517 75.3063 35.3613C70.6199 31.2768 63.8764 28.8242 55.6377 28.8242H21.5683V100.704H34.8994V75.6484H55.4101C64.0912 75.6483 70.8759 73.2919 75.4933 69.2773C80.1183 65.256 82.7424 59.4188 82.7425 52.1885ZM65.8431 52.2842C65.8431 48.3761 64.2657 45.5617 61.8346 43.7119C59.3771 41.8421 55.8694 40.8243 51.7558 40.8242H38.2389V63.6484H51.8697C55.869 63.6484 59.3524 62.6537 61.8125 60.8027C64.2433 58.9737 65.8431 56.1839 65.8431 52.2842ZM69.4114 52.2842C69.4114 56.9284 67.471 60.5712 64.1925 63.0381C60.9434 65.4828 56.548 66.6484 51.8697 66.6484H34.6706V37.8242H51.7558C56.5485 37.8243 60.9769 39.0142 64.2286 41.4883C67.5065 43.9825 69.4114 47.6484 69.4114 52.2842ZM86.3108 52.1885C86.3107 60.0296 83.4535 66.6718 78.0591 71.3623C72.6569 76.0594 64.8837 78.6483 55.4101 78.6484H38.4677V103.704H18V25.8242H55.6377C64.7547 25.8242 72.4555 28.5553 77.8744 33.2783C83.287 37.996 86.3108 44.602 86.3108 52.1885Z" fill="white"/>
</svg>
