<svg width="322" height="102" viewBox="0 0 322 102" fill="none" xmlns="http://www.w3.org/2000/svg">
<path d="M198.958 50.9717L274.839 -19.1124L405.474 31.7521L329.593 101.836L198.958 50.9717Z" fill="#EED8F3"/>
<path d="M41.1809 -15H381.73L340.549 68H6.32172e-05L41.1809 -15Z" fill="#D3A7DD"/>
<path d="M332.527 45.7729C331.676 53.4758 324.322 58.0367 312.083 58.0367C301.706 58.0367 295.158 54.0839 293.064 47.7493L300.933 43.9486C302.613 48.6108 307.405 51.6008 312.793 51.6008C318.647 51.6008 322.063 49.5737 322.399 46.5331C322.712 43.6952 320.635 42.0229 315.349 40.5026L308.05 38.5262C300.181 36.2964 296.775 33.4078 297.396 27.7827C298.073 21.6508 305.284 16.5832 316.26 16.5832C325.373 16.5832 331.151 19.0663 333.419 24.4381L325.732 28.3908C324.344 24.6914 320.76 22.8164 315.904 22.8164C310.317 22.8164 307.227 24.8942 306.947 27.428C306.712 29.5564 308.485 30.9754 313.012 32.1409L320.776 34.1173C328.723 36.2457 333.198 39.6917 332.527 45.7729Z" fill="#A585AE"/>
<path d="M298.225 23.8806H283.591L279.927 57.0739H269.883L273.547 23.8806H258.98L259.679 17.546H298.924L298.225 23.8806Z" fill="#A585AE"/>
<path d="M259.894 50.2325C256.115 54.9454 248.856 58.0367 239.942 58.0367C225.442 58.0367 216.542 50.0805 217.969 37.1579C219.334 24.7928 230.018 16.5832 244.452 16.5832C253.698 16.5832 260.119 19.8772 262.36 24.286L255.62 28.6949C254.038 25.5529 249.573 23.2218 244.518 23.2218C236.402 23.2218 229.507 28.4415 228.545 37.1579C227.493 46.6851 233.569 51.2967 241.485 51.2967C246.473 51.2967 251.913 49.0163 254.422 45.5702L259.894 50.2325Z" fill="#A585AE"/>
<path d="M216.32 57.0739H180.002L184.365 17.546H219.42L218.72 23.8806H193.511L192.431 33.6612H214.315L213.632 39.8438H191.748L190.545 50.7393H217.019L216.32 57.0739Z" fill="#A585AE"/>
<path d="M175.063 48.5602C174.369 54.8441 168.363 58.0367 159.583 58.0367C155.791 58.0367 152.638 57.682 150.238 57.1245L150.367 50.5366C152.882 51.246 156.158 51.7021 158.353 51.7021C162.011 51.7021 164.901 50.2325 165.248 47.0905L168.509 17.546H178.487L175.063 48.5602Z" fill="#A585AE"/>
<path d="M153.59 37.2086C152.236 49.4723 142.444 58.0367 128.076 58.0367C113.642 58.0367 105.674 49.4723 107.028 37.2086C108.354 25.1982 118.218 16.5832 132.652 16.5832C147.02 16.5832 154.91 25.2489 153.59 37.2086ZM143.546 37.2086C144.508 28.4922 139.719 23.0698 131.936 23.0698C124.486 23.0698 118.034 28.4922 117.072 37.2086C116.104 45.9757 121.01 51.5501 128.792 51.5501C136.309 51.5501 142.578 45.9757 143.546 37.2086Z" fill="#A585AE"/>
<path d="M106.924 57.0739H95.284L86.725 41.2121H77.3461L75.595 57.0739H65.8835L70.2472 17.546H91.2001C100.978 17.546 107.42 21.8536 106.637 28.9483C105.938 35.2829 101.777 38.6275 96.1107 39.9451L106.924 57.0739ZM96.5538 29.303C96.9454 25.7557 93.5661 23.83 88.7104 23.83H79.265L78.0006 35.2829H87.5791C92.5678 35.2829 96.1231 33.2051 96.5538 29.303Z" fill="#A585AE"/>
<path d="M66.5251 30.6713C65.6468 38.6275 58.6849 43.8472 48.1088 43.8472H37.2L35.7398 57.0739H25.8953L30.259 17.546H51.1453C61.2559 17.546 67.3699 23.0191 66.5251 30.6713ZM56.675 30.722C57.173 26.2118 53.3728 23.8806 48.1844 23.8806H39.2712L37.7663 37.5127H46.746C51.8013 37.5127 56.1771 35.2322 56.675 30.722Z" fill="#A585AE"/>
<path d="M302.949 43.4139C304.449 47.5764 308.625 50.0175 312.968 50.0176L312.793 51.6008L312.289 51.5919C307.109 51.4119 302.561 48.4648 300.933 43.9486L293.064 47.7493C295.093 53.8861 301.301 57.7878 311.122 58.0255L312.083 58.0367C323.939 58.0367 331.212 53.7566 332.428 46.4863L332.527 45.7729C333.198 39.6917 328.723 36.2457 320.776 34.1173L313.012 32.1409C308.627 31.0119 306.827 29.645 306.932 27.6259L306.947 27.428C307.227 24.8942 310.317 22.8164 315.904 22.8164L316.356 22.8223C320.982 22.9359 324.388 24.8071 325.732 28.3908L333.419 24.4381C331.222 19.2344 325.73 16.7416 317.105 16.5909L316.26 16.5832C305.284 16.5832 298.073 21.6508 297.396 27.7827L297.35 28.3022C296.993 33.5878 300.427 36.3661 308.05 38.5262L315.349 40.5026C320.635 42.0229 322.712 43.6952 322.399 46.5331L322.359 46.8152C321.847 49.6984 318.464 51.6008 312.793 51.6008L312.968 50.0176C315.611 50.0176 317.426 49.557 318.545 48.9474C319.595 48.3755 320.204 47.5846 320.321 46.5327C320.436 45.4911 320.129 44.7761 319.371 44.1366C318.527 43.4244 317.022 42.7239 314.47 41.99L307.207 40.0228L307.194 40.0198L307.181 40.0156C303.117 38.8641 299.922 37.4692 297.857 35.4668C295.738 33.4123 294.975 30.8856 295.318 27.7826C295.469 26.4147 295.898 25.1048 296.574 23.8802L298.225 23.8806L298.514 21.2686C302.135 17.4834 308.528 15 316.434 15C321.223 15 325.327 15.6507 328.579 17.1167C331.867 18.5986 334.149 20.8522 335.411 23.8431L335.899 24.9999L324.451 30.886L323.722 28.9404C323.128 27.3568 322.099 26.2445 320.797 25.5216C319.493 24.7972 317.8 24.3998 315.73 24.3998C313.253 24.3998 311.583 24.861 310.572 25.4226C309.602 25.9608 309.112 26.6536 309.027 27.4279C308.957 28.0605 309.156 28.5303 309.75 28.9951C310.427 29.5246 311.669 30.0802 313.819 30.6344L321.586 32.6108L321.599 32.615L321.613 32.6191C325.759 33.7297 329.218 35.2381 331.543 37.402C333.912 39.6065 334.981 42.3766 334.606 45.7728C334.139 50.0043 331.845 53.545 327.789 55.9995C323.784 58.4231 318.339 59.6205 311.908 59.6205C306.369 59.6205 301.717 58.5629 298.144 56.5728C294.566 54.58 292.182 51.7135 291.038 48.2535L290.658 47.107L302.26 41.5034L302.949 43.4139Z" fill="#A585AE"/>
<path d="M298.225 23.8806L298.924 17.546H259.679L259.327 20.7386C258.741 20.2837 258.095 19.8575 257.389 19.4643L257.775 15.9619H301.178L300.537 21.7676C299.382 22.8838 298.519 24.1311 297.984 25.4638H285.495L281.83 58.6575H267.629L271.293 25.4638H260.559L262.36 24.286C262.29 24.1497 262.217 24.0143 262.14 23.8802L273.547 23.8806L269.883 57.0739H279.927L283.591 23.8806H298.225Z" fill="#A585AE"/>
<path d="M215.89 37.1576C216.607 30.6606 219.792 25.1157 224.881 21.1748C229.988 17.2194 236.864 15 244.627 15C250.801 15.0001 255.94 16.3818 259.557 18.657L259.327 20.7386C256.235 18.3356 251.426 16.7304 245.311 16.5929L244.452 16.5832C230.018 16.5832 219.334 24.7928 217.969 37.1579C216.564 49.8785 225.166 57.7866 239.267 58.0306L239.942 58.0367C248.856 58.0367 256.115 54.9454 259.894 50.2325L254.422 45.5702C251.913 49.0163 246.473 51.2967 241.485 51.2967L241.66 49.7134C245.925 49.7132 250.551 47.7319 252.616 44.8954L254.117 42.8334L262.471 49.9495L261.651 50.9702C257.387 56.2878 249.318 59.6204 239.768 59.6205C231.992 59.6205 225.575 57.4751 221.321 53.5024C217.084 49.5454 215.143 43.918 215.89 37.1576ZM228.545 37.1579C229.507 28.4415 236.402 23.2218 244.518 23.2218C249.573 23.2218 254.038 25.5529 255.62 28.6949L262.36 24.286C262.29 24.1497 262.217 24.0143 262.14 23.8802L264.451 23.8802L264.848 24.6607L254.652 31.3303L253.663 29.3662C252.372 26.8017 248.621 24.805 244.342 24.805C240.911 24.8051 237.768 25.8956 235.34 27.929C232.891 29.9808 231.073 33.0832 230.623 37.1576C230.127 41.6527 231.333 44.7864 233.344 46.7698C235.337 48.7347 238.26 49.7134 241.66 49.7134L241.485 51.2967L240.748 51.2836C233.196 51.004 227.526 46.3873 228.545 37.1579Z" fill="#A585AE"/>
<path d="M217.019 50.7393H190.545L191.748 39.8438H213.632L214.315 33.6612H192.431L193.511 23.8806H218.72L219.42 17.546H184.365L180.002 57.0739H216.32L217.019 50.7393ZM220.625 25.4638H195.414L194.684 32.0778H216.568L215.536 41.4271H193.652L192.799 49.1556H219.273L218.224 58.6575H177.749L182.462 15.9619H221.674L220.625 25.4638Z" fill="#A585AE"/>
<path d="M151.234 49.0463C153.562 49.7028 156.603 50.1185 158.527 50.1186L158.353 51.7021L157.929 51.6971C155.752 51.6444 152.725 51.2017 150.367 50.5366L150.238 57.1245C152.488 57.6472 155.4 57.9917 158.88 58.0327L159.583 58.0367C168.088 58.0366 173.992 55.0404 174.983 49.1401L175.063 48.5602L178.487 17.546H168.509L165.248 47.0905L165.208 47.3802C164.719 50.3229 161.897 51.7021 158.353 51.7021L158.527 50.1186C160.015 50.1186 161.102 49.8195 161.804 49.3835C162.459 48.9763 163.037 48.2908 163.169 47.0905L166.606 15.9619H180.741L177.142 48.5597C176.752 52.0917 174.824 54.9419 171.546 56.8749C168.331 58.7701 164.096 59.6204 159.408 59.6205C155.456 59.6205 152.099 59.2509 149.477 58.642L148.13 58.3296L148.299 49.6773C148.631 49.2918 148.95 48.8952 149.253 48.4875L151.234 49.0463Z" fill="#A585AE"/>
<path d="M153.59 37.2086C154.889 25.436 147.264 16.8552 133.321 16.5898L132.652 16.5832C118.218 16.5832 108.354 25.1982 107.028 37.2086L106.972 37.7804C105.941 49.5478 113.617 57.7724 127.404 58.0306L128.076 58.0367C142.444 58.0367 152.236 49.4723 153.59 37.2086ZM141.467 37.2082C141.922 33.0784 140.995 29.899 139.233 27.798C137.506 25.7376 134.942 24.6534 131.761 24.6534C125.983 24.6536 120.068 28.9061 119.151 37.2082C118.693 41.3574 119.645 44.5919 121.44 46.742C123.205 48.8562 125.804 49.9659 128.967 49.966L128.792 51.5501C121.253 51.5499 116.414 46.3183 116.999 38.0206L117.072 37.2086C118.034 28.4922 124.486 23.0698 131.936 23.0698C139.719 23.0698 144.508 28.4922 143.546 37.2086C142.578 45.9757 136.309 51.5501 128.792 51.5501L128.967 49.966C131.977 49.966 134.794 48.8695 137.04 46.742C139.316 44.5866 141.009 41.3491 141.467 37.2082ZM155.668 37.2082C154.96 43.6171 152.031 49.2111 147.2 53.2333C142.332 57.2857 135.674 59.6205 127.901 59.6205C120.098 59.6204 113.924 57.2884 109.925 53.2374C105.954 49.2154 104.242 43.62 104.949 37.2082C105.644 30.9161 108.592 25.3724 113.446 21.3727C118.334 17.3456 125.021 15.0001 132.827 15C140.607 15 146.742 17.3628 150.712 21.3964C154.654 25.4016 156.36 30.943 155.668 37.2082Z" fill="#A585AE"/>
<path d="M106.637 28.9483C107.42 21.8536 100.978 17.546 91.2001 17.546L91.3749 15.9619C96.6527 15.9619 101.219 17.1268 104.377 19.3942C107.564 21.6821 109.153 24.981 108.715 28.9487C108.339 32.3552 107.013 35.1132 104.843 37.2329C103.232 38.8056 101.23 39.9518 99.0024 40.7445L110.312 58.6575H93.819L85.2594 42.7952H79.2494L77.4983 58.6575H63.6298L68.3432 15.9619H91.3749L91.2001 17.546H70.2472L65.8835 57.0739H75.595L77.3461 41.2121H86.725L95.284 57.0739H106.924L96.1107 39.9451C101.6 38.6687 105.676 35.4899 106.561 29.5332L106.637 28.9483ZM94.4748 29.3033C94.621 27.9785 94.0773 27.0749 93.1583 26.469C92.1889 25.8299 90.6274 25.4133 88.5356 25.4133H81.1683L80.2536 33.6996H87.7535L87.5791 35.2829H78.0006L79.265 23.83H88.7104C93.5661 23.83 96.9454 25.7557 96.5538 29.303L96.5042 29.6631C95.8995 33.3328 92.4121 35.2829 87.5791 35.2829L87.7535 33.6996C89.8853 33.6996 91.4615 33.2568 92.5076 32.584C93.522 31.9316 94.2989 30.8959 94.4748 29.3033Z" fill="#A585AE"/>
<path d="M66.5251 30.6713C67.3699 23.0191 61.2559 17.546 51.1453 17.546L51.3202 15.9619C56.8872 15.9619 61.4847 17.4777 64.561 20.1396C67.6304 22.7955 69.0663 26.4881 68.6045 30.6715C68.1297 34.9719 65.9864 38.691 62.3271 41.3436C58.6579 44.0032 53.6838 45.4305 47.9343 45.4305H39.1041L37.6439 58.6575H23.6414L28.3548 15.9619H51.3202L51.1453 17.546H30.259L25.8953 57.0739H35.7398L37.2 43.8472H48.1088L49.0892 43.8325C58.7908 43.529 65.248 38.7054 66.4255 31.4087L66.5251 30.6713ZM54.5964 30.722C54.8029 28.8512 54.118 27.5909 53.0377 26.7845C51.9288 25.957 50.2084 25.4638 48.0099 25.4638H41.1757L40.0205 35.9287H46.9209L46.746 37.5127H37.7663L39.2712 23.8806H48.1844C53.3728 23.8806 57.173 26.2118 56.675 30.722L56.6169 31.1385C55.9026 35.3726 51.6432 37.5127 46.746 37.5127L46.9209 35.9287C49.0531 35.9287 50.8697 35.449 52.1636 34.6285C53.4207 33.8314 54.3908 32.5841 54.5964 30.722Z" fill="#A585AE"/>
<path d="M332.527 45.7729C331.676 53.4758 324.322 58.0367 312.083 58.0367M332.527 45.7729C333.198 39.6917 328.723 36.2457 320.776 34.1173L313.012 32.1409M332.527 45.7729L332.428 46.4863C331.212 53.7566 323.939 58.0367 312.083 58.0367M312.083 58.0367C301.706 58.0367 295.158 54.0839 293.064 47.7493M312.083 58.0367L311.122 58.0255C301.301 57.7878 295.093 53.8861 293.064 47.7493M293.064 47.7493L300.933 43.9486M300.933 43.9486C302.613 48.6108 307.405 51.6008 312.793 51.6008M300.933 43.9486C302.561 48.4648 307.109 51.4119 312.289 51.5919L312.793 51.6008M312.793 51.6008C318.647 51.6008 322.063 49.5737 322.399 46.5331M312.793 51.6008L312.968 50.0176M312.793 51.6008C318.464 51.6008 321.847 49.6984 322.359 46.8152L322.399 46.5331M322.399 46.5331C322.712 43.6952 320.635 42.0229 315.349 40.5026L308.05 38.5262M308.05 38.5262C300.181 36.2964 296.775 33.4078 297.396 27.7827M308.05 38.5262C300.427 36.3661 296.993 33.5878 297.35 28.3022L297.396 27.7827M297.396 27.7827C298.073 21.6508 305.284 16.5832 316.26 16.5832M316.26 16.5832C325.373 16.5832 331.151 19.0663 333.419 24.4381M316.26 16.5832L317.105 16.5909C325.73 16.7416 331.222 19.2344 333.419 24.4381M333.419 24.4381L325.732 28.3908M325.732 28.3908C324.344 24.6914 320.76 22.8164 315.904 22.8164M325.732 28.3908C324.388 24.8071 320.982 22.9359 316.356 22.8223L315.904 22.8164M315.904 22.8164C310.317 22.8164 307.227 24.8942 306.947 27.428M306.947 27.428C306.712 29.5564 308.485 30.9754 313.012 32.1409M306.947 27.428L306.932 27.6259C306.827 29.645 308.627 31.0119 313.012 32.1409M298.225 23.8806H283.591L279.927 57.0739H269.883L273.547 23.8806M298.225 23.8806L298.924 17.546H259.679M298.225 23.8806L296.574 23.8802C295.898 25.1048 295.469 26.4147 295.318 27.7826C294.975 30.8856 295.738 33.4123 297.857 35.4668C299.922 37.4692 303.117 38.8641 307.181 40.0156L307.194 40.0198L307.207 40.0228L314.47 41.99C317.022 42.7239 318.527 43.4244 319.371 44.1366C320.129 44.7761 320.436 45.4911 320.321 46.5327C320.204 47.5846 319.595 48.3755 318.545 48.9474C317.426 49.557 315.611 50.0176 312.968 50.0176M298.225 23.8806L298.514 21.2686C302.135 17.4834 308.528 15 316.434 15C321.223 15 325.327 15.6507 328.579 17.1167C331.867 18.5986 334.149 20.8522 335.411 23.8431L335.899 24.9999L324.451 30.886L323.722 28.9404C323.128 27.3568 322.099 26.2445 320.797 25.5216C319.493 24.7972 317.8 24.3998 315.73 24.3998C313.253 24.3998 311.583 24.861 310.572 25.4226C309.602 25.9608 309.112 26.6536 309.027 27.4279C308.957 28.0605 309.156 28.5303 309.75 28.9951C310.427 29.5246 311.669 30.0802 313.819 30.6344L321.586 32.6108L321.599 32.615L321.613 32.6191C325.759 33.7297 329.218 35.2381 331.543 37.402C333.912 39.6065 334.981 42.3766 334.606 45.7728C334.139 50.0043 331.845 53.545 327.789 55.9995C323.784 58.4231 318.339 59.6205 311.908 59.6205C306.369 59.6205 301.717 58.5629 298.144 56.5728C294.566 54.58 292.182 51.7135 291.038 48.2535L290.658 47.107L302.26 41.5034L302.949 43.4139C304.449 47.5764 308.625 50.0175 312.968 50.0176M273.547 23.8806H258.98L259.679 17.546M273.547 23.8806L262.14 23.8802M259.679 17.546L259.327 20.7386M239.942 58.0367C248.856 58.0367 256.115 54.9454 259.894 50.2325L254.422 45.5702C251.913 49.0163 246.473 51.2967 241.485 51.2967M239.942 58.0367C225.442 58.0367 216.542 50.0805 217.969 37.1579M239.942 58.0367L239.267 58.0306C225.166 57.7866 216.564 49.8785 217.969 37.1579M217.969 37.1579C219.334 24.7928 230.018 16.5832 244.452 16.5832M244.452 16.5832C253.698 16.5832 260.119 19.8772 262.36 24.286M244.452 16.5832L245.311 16.5929C251.426 16.7304 256.235 18.3356 259.327 20.7386M262.36 24.286L255.62 28.6949C254.038 25.5529 249.573 23.2218 244.518 23.2218C236.402 23.2218 229.507 28.4415 228.545 37.1579M262.36 24.286L260.559 25.4638H271.293L267.629 58.6575H281.83L285.495 25.4638H297.984C298.519 24.1311 299.382 22.8838 300.537 21.7676L301.178 15.9619H257.775L257.389 19.4643C258.095 19.8575 258.741 20.2837 259.327 20.7386M262.36 24.286C262.29 24.1497 262.217 24.0143 262.14 23.8802M228.545 37.1579C227.493 46.6851 233.569 51.2967 241.485 51.2967M228.545 37.1579C227.526 46.3873 233.196 51.004 240.748 51.2836L241.485 51.2967M241.485 51.2967L241.66 49.7134M175.063 48.5602C174.369 54.8441 168.363 58.0367 159.583 58.0367M175.063 48.5602L178.487 17.546H168.509L165.248 47.0905M175.063 48.5602L174.983 49.1401C173.992 55.0404 168.088 58.0366 159.583 58.0367M159.583 58.0367C155.791 58.0367 152.638 57.682 150.238 57.1245M159.583 58.0367L158.88 58.0327C155.4 57.9917 152.488 57.6472 150.238 57.1245M150.238 57.1245L150.367 50.5366M150.367 50.5366C152.882 51.246 156.158 51.7021 158.353 51.7021M150.367 50.5366C152.725 51.2017 155.752 51.6444 157.929 51.6971L158.353 51.7021M158.353 51.7021C162.011 51.7021 164.901 50.2325 165.248 47.0905M158.353 51.7021L158.527 50.1186M158.353 51.7021C161.897 51.7021 164.719 50.3229 165.208 47.3802L165.248 47.0905M153.59 37.2086C152.236 49.4723 142.444 58.0367 128.076 58.0367M153.59 37.2086C154.91 25.2489 147.02 16.5832 132.652 16.5832M153.59 37.2086C154.889 25.436 147.264 16.8552 133.321 16.5898L132.652 16.5832M128.076 58.0367C113.642 58.0367 105.674 49.4723 107.028 37.2086M128.076 58.0367L127.404 58.0306C113.617 57.7724 105.941 49.5478 106.972 37.7804L107.028 37.2086M107.028 37.2086C108.354 25.1982 118.218 16.5832 132.652 16.5832M117.072 37.2086C118.034 28.4922 124.486 23.0698 131.936 23.0698C139.719 23.0698 144.508 28.4922 143.546 37.2086C142.578 45.9757 136.309 51.5501 128.792 51.5501M117.072 37.2086C116.104 45.9757 121.01 51.5501 128.792 51.5501M117.072 37.2086L116.999 38.0206C116.414 46.3183 121.253 51.5499 128.792 51.5501M128.792 51.5501L128.967 49.966M91.2001 17.546H70.2472L65.8835 57.0739H75.595L77.3461 41.2121H86.725L95.284 57.0739H106.924L96.1107 39.9451M91.2001 17.546C100.978 17.546 107.42 21.8536 106.637 28.9483M91.2001 17.546L91.3749 15.9619M106.637 28.9483C105.938 35.2829 101.777 38.6275 96.1107 39.9451M106.637 28.9483L106.561 29.5332C105.676 35.4899 101.6 38.6687 96.1107 39.9451M96.5538 29.303C96.9454 25.7557 93.5661 23.83 88.7104 23.83H79.265L78.0006 35.2829H87.5791M96.5538 29.303C96.1231 33.2051 92.5678 35.2829 87.5791 35.2829M96.5538 29.303L96.5042 29.6631C95.8995 33.3328 92.4121 35.2829 87.5791 35.2829M87.5791 35.2829L87.7535 33.6996M66.5251 30.6713C65.6468 38.6275 58.6849 43.8472 48.1088 43.8472M66.5251 30.6713C67.3699 23.0191 61.2559 17.546 51.1453 17.546M66.5251 30.6713L66.4255 31.4087C65.248 38.7054 58.7908 43.529 49.0892 43.8325L48.1088 43.8472M48.1088 43.8472H37.2L35.7398 57.0739H25.8953L30.259 17.546H51.1453M51.1453 17.546L51.3202 15.9619M56.675 30.722C57.173 26.2118 53.3728 23.8806 48.1844 23.8806H39.2712L37.7663 37.5127H46.746M56.675 30.722C56.1771 35.2322 51.8013 37.5127 46.746 37.5127M56.675 30.722L56.6169 31.1385C55.9026 35.3726 51.6432 37.5127 46.746 37.5127M46.746 37.5127L46.9209 35.9287M259.327 20.7386L259.557 18.657C255.94 16.3818 250.801 15.0001 244.627 15C236.864 15 229.988 17.2194 224.881 21.1748C219.792 25.1157 216.607 30.6606 215.89 37.1576C215.143 43.918 217.084 49.5454 221.321 53.5024C225.575 57.4751 231.992 59.6205 239.768 59.6205C249.318 59.6204 257.387 56.2878 261.651 50.9702L262.471 49.9495L254.117 42.8334L252.616 44.8954C250.551 47.7319 245.925 49.7132 241.66 49.7134M262.14 23.8802L264.451 23.8802L264.848 24.6607L254.652 31.3303L253.663 29.3662C252.372 26.8017 248.621 24.805 244.342 24.805C240.911 24.8051 237.768 25.8956 235.34 27.929C232.891 29.9808 231.073 33.0832 230.623 37.1576C230.127 41.6527 231.333 44.7864 233.344 46.7698C235.337 48.7347 238.26 49.7134 241.66 49.7134M158.527 50.1186C156.603 50.1185 153.562 49.7028 151.234 49.0463L149.253 48.4875C148.95 48.8952 148.631 49.2918 148.299 49.6773L148.13 58.3296L149.477 58.642C152.099 59.2509 155.456 59.6205 159.408 59.6205C164.096 59.6204 168.331 58.7701 171.546 56.8749C174.824 54.9419 176.752 52.0917 177.142 48.5597L180.741 15.9619H166.606L163.169 47.0905C163.037 48.2908 162.459 48.9763 161.804 49.3835C161.102 49.8195 160.015 50.1186 158.527 50.1186ZM128.967 49.966C125.804 49.9659 123.205 48.8562 121.44 46.742C119.645 44.5919 118.693 41.3574 119.151 37.2082C120.068 28.9061 125.983 24.6536 131.761 24.6534C134.942 24.6534 137.506 25.7376 139.233 27.798C140.995 29.899 141.922 33.0784 141.467 37.2082C141.009 41.3491 139.316 44.5866 137.04 46.742C134.794 48.8695 131.977 49.966 128.967 49.966ZM91.3749 15.9619C96.6527 15.9619 101.219 17.1268 104.377 19.3942C107.564 21.6821 109.153 24.981 108.715 28.9487C108.339 32.3552 107.013 35.1132 104.843 37.2329C103.232 38.8056 101.23 39.9518 99.0024 40.7445L110.312 58.6575H93.819L85.2594 42.7952H79.2494L77.4983 58.6575H63.6298L68.3432 15.9619H91.3749ZM87.7535 33.6996H80.2536L81.1683 25.4133H88.5356C90.6274 25.4133 92.1889 25.8299 93.1583 26.469C94.0773 27.0749 94.621 27.9785 94.4748 29.3033C94.2989 30.8959 93.522 31.9316 92.5076 32.584C91.4615 33.2568 89.8853 33.6996 87.7535 33.6996ZM51.3202 15.9619C56.8872 15.9619 61.4847 17.4777 64.561 20.1396C67.6304 22.7955 69.0663 26.4881 68.6045 30.6715C68.1297 34.9719 65.9864 38.691 62.3271 41.3436C58.6579 44.0032 53.6838 45.4305 47.9343 45.4305H39.1041L37.6439 58.6575H23.6414L28.3548 15.9619H51.3202ZM46.9209 35.9287H40.0205L41.1757 25.4638H48.0099C50.2084 25.4638 51.9288 25.957 53.0377 26.7845C54.118 27.5909 54.8029 28.8512 54.5964 30.722C54.3908 32.5841 53.4207 33.8314 52.1636 34.6285C50.8697 35.449 49.0531 35.9287 46.9209 35.9287ZM216.32 57.0739H180.002L184.365 17.546H219.42L218.72 23.8806H193.511L192.431 33.6612H214.315L213.632 39.8438H191.748L190.545 50.7393H217.019L216.32 57.0739ZM220.625 25.4638H195.414L194.684 32.0778H216.568L215.536 41.4271H193.652L192.799 49.1556H219.273L218.224 58.6575H177.749L182.462 15.9619H221.674L220.625 25.4638ZM155.668 37.2082C154.96 43.6171 152.031 49.2111 147.2 53.2333C142.332 57.2857 135.674 59.6205 127.901 59.6205C120.098 59.6204 113.924 57.2884 109.925 53.2374C105.954 49.2154 104.242 43.62 104.949 37.2082C105.644 30.9161 108.592 25.3724 113.446 21.3727C118.334 17.3456 125.021 15.0001 132.827 15C140.607 15 146.742 17.3628 150.712 21.3964C154.654 25.4016 156.36 30.943 155.668 37.2082Z" stroke="#A585AE"/>
<path d="M321.334 50.0552C320.152 57.2704 312.998 61.2043 301.467 60.5999C291.69 60.0876 285.717 56.0402 284.056 49.9687L291.658 46.7764C293.011 51.2519 297.378 54.3054 302.454 54.5715C307.969 54.8605 311.288 53.1194 311.754 50.2713C312.189 47.6131 310.315 45.935 305.41 44.2416L298.631 42.0192C291.328 39.5299 288.261 36.6403 289.124 31.3713C290.065 25.6276 297.109 21.2092 307.449 21.7512C316.035 22.2011 321.357 24.8259 323.227 29.9988L315.79 33.3433C314.666 29.7895 311.381 27.8459 306.806 27.6062C301.542 27.3303 298.529 29.1353 298.14 31.5087C297.814 33.5024 299.413 34.9267 303.621 36.2484L310.838 38.4938C318.22 40.8914 322.266 44.359 321.334 50.0552Z" fill="white"/>
<path d="M290.097 27.7359L276.31 27.0133L271.219 58.1051L261.756 57.6092L266.847 26.5174L253.123 25.7981L254.095 19.8646L291.069 21.8024L290.097 27.7359Z" fill="white"/>
<path d="M252.683 50.6705C248.89 54.9241 241.898 57.4781 233.501 57.038C219.839 56.322 211.847 48.3867 213.829 36.2823C215.726 24.7 226.197 17.4929 239.796 18.2056C248.507 18.6621 254.394 22.0826 256.287 26.347L249.72 30.168C248.385 27.1297 244.293 24.713 239.53 24.4634C231.884 24.0627 225.13 28.6399 223.793 36.8045C222.332 45.7285 227.829 50.3733 235.286 50.7641C239.987 51.0104 245.224 49.1305 247.758 46.0078L252.683 50.6705Z" fill="white"/>
<path d="M211.292 54.9645L177.075 53.1712L183.138 16.146L216.165 17.8768L215.193 23.8103L191.442 22.5656L189.942 31.727L210.559 32.8075L209.611 38.5986L188.993 37.5181L187.322 47.7238L212.264 49.0309L211.292 54.9645Z" fill="white"/>
<path d="M172.843 44.9063C171.879 50.7924 166.063 53.5037 157.79 53.0702C154.218 52.883 151.265 52.3931 149.031 51.7494L149.478 45.5489C151.813 46.3416 154.877 46.933 156.945 47.0414C160.391 47.222 163.186 45.9801 163.668 43.0371L168.2 15.3631L177.6 15.8557L172.843 44.9063Z" fill="white"/>
<path d="M153.173 33.1513C151.292 44.6386 141.643 52.2239 128.107 51.5145C114.508 50.8018 107.424 42.3396 109.305 30.8523C111.147 19.6023 120.866 11.9728 134.465 12.6855C148.001 13.3949 155.007 21.9488 153.173 33.1513ZM143.71 32.6553C145.047 24.4908 140.802 19.1457 133.47 18.7614C126.451 18.3936 120.105 23.1836 118.768 31.3482C117.423 39.5602 121.77 45.0543 129.102 45.4386C136.183 45.8097 142.365 40.8674 143.71 32.6553Z" fill="white"/>
<path d="M108.227 49.563L97.2596 48.9883L89.979 33.6216L81.1428 33.1585L78.7098 48.0161L69.5603 47.5366L75.6232 10.5113L95.3637 11.5459C104.576 12.0287 110.433 16.405 109.345 23.0506C108.373 28.9841 104.288 31.9298 98.8842 32.8914L108.227 49.563ZM99.8272 22.887C100.371 19.5642 97.2826 17.583 92.7078 17.3433L83.8089 16.8769L82.0522 27.6047L91.0765 28.0777C95.7766 28.324 99.2287 26.542 99.8272 22.887Z" fill="white"/>
<path d="M71.4684 22.6934C70.2481 30.1459 63.4313 34.7198 53.467 34.1976L43.1894 33.659L41.1607 46.0482L31.8858 45.5622L37.9487 8.53688L57.6266 9.56816C67.1521 10.0674 72.6421 15.5257 71.4684 22.6934ZM62.1857 22.2548C62.8775 18.0301 59.4123 15.6462 54.5242 15.39L46.1267 14.9499L44.0357 27.7189L52.4959 28.1623C57.2587 28.4119 61.4939 26.4794 62.1857 22.2548Z" fill="white"/>
<path d="M293.584 46.3722C294.792 50.368 298.605 52.8741 302.697 53.0885L302.454 54.5715L301.98 54.5383C297.108 54.1129 292.969 51.1117 291.658 46.7764L284.056 49.9687C285.665 55.8506 291.322 59.8331 300.562 60.5419L301.467 60.5999C312.637 61.1854 319.701 57.512 321.206 50.7224L321.334 50.0552C322.266 44.359 318.22 40.8914 310.838 38.4938L303.621 36.2484C299.545 34.9681 297.917 33.5915 298.115 31.6943L298.14 31.5087C298.529 29.1353 301.542 27.3303 306.806 27.6062L307.231 27.6341C311.584 27.9694 314.701 29.9005 315.79 33.3433L323.227 29.9988C321.415 24.9878 316.364 22.3681 308.245 21.8001L307.449 21.7512C297.109 21.2092 290.065 25.6276 289.124 31.3713L289.055 31.8585C288.457 36.8205 291.556 39.6077 298.631 42.0192L305.41 44.2416C310.315 45.935 312.189 47.6131 311.754 50.2713L311.702 50.5351C311.078 53.2263 307.796 54.8514 302.454 54.5715L302.697 53.0885C305.187 53.219 306.92 52.8747 308.004 52.3556C309.021 51.8687 309.635 51.1536 309.796 50.1683C309.956 49.1926 309.702 48.5038 309.02 47.864C308.26 47.1513 306.876 46.417 304.508 45.5996L297.763 43.3876L297.751 43.3841L297.739 43.3795C293.967 42.094 291.026 40.6221 289.179 38.6335C287.284 36.5933 286.69 34.1752 287.166 31.2686C287.376 29.9872 287.845 28.7744 288.542 27.654L290.097 27.7359L290.498 25.2893C294.097 21.9018 300.243 19.8778 307.692 20.2682C312.204 20.5047 316.037 21.3203 319.029 22.8621C322.054 24.4205 324.092 26.6564 325.134 29.5366L325.536 30.6506L314.461 35.6308L313.869 33.7618C313.388 32.2405 312.473 31.1417 311.282 30.3964C310.089 29.6495 308.514 29.1916 306.564 29.0893C304.231 28.9671 302.634 29.3191 301.654 29.7983C300.714 30.2575 300.218 30.886 300.099 31.6113C300.002 32.2038 300.166 32.6563 300.703 33.1234C301.315 33.6558 302.457 34.2406 304.456 34.8689L311.675 37.1144L311.687 37.119L311.701 37.1236C315.552 38.3746 318.737 39.9666 320.82 42.12C322.943 44.3139 323.813 46.9765 323.292 50.1578C322.643 54.1213 320.307 57.3439 316.365 59.4562C312.472 61.5418 307.283 62.401 301.224 62.0834C296.005 61.8099 291.675 60.5839 288.407 58.5325C285.135 56.4784 283.029 53.66 282.123 50.3437L281.822 49.2448L293.029 44.5382L293.584 46.3722Z" fill="white"/>
<path d="M290.097 27.7359L291.069 21.8024L254.095 19.8646L253.605 22.8551C253.076 22.3975 252.488 21.9641 251.842 21.5588L252.379 18.2782L293.271 20.4212L292.38 25.8593C291.237 26.8538 290.362 27.9864 289.792 29.2156L278.026 28.5989L272.934 59.6911L259.554 58.9899L264.646 27.8977L254.533 27.3677L256.287 26.347C256.229 26.2151 256.166 26.084 256.1 25.9537L266.847 26.5174L261.756 57.6092L271.219 58.1051L276.31 27.0133L290.097 27.7359Z" fill="white"/>
<path d="M211.87 36.1794C212.867 30.0937 216.142 25.0268 221.13 21.5652C226.138 18.0908 232.725 16.3394 240.04 16.7227C245.856 17.0276 250.63 18.5832 253.924 20.9053L253.605 22.8551C250.811 20.4385 246.359 18.6886 240.605 18.2572L239.796 18.2056C226.197 17.4929 215.726 24.7 213.829 36.2823C211.878 48.1975 219.592 56.0727 232.864 56.9989L233.501 57.038C241.898 57.4781 248.89 54.9241 252.683 50.6705L247.758 46.0078C245.224 49.1305 239.987 51.0104 235.286 50.7641L235.53 49.2811C239.548 49.4915 244.004 47.8532 246.09 45.2829L247.606 43.4142L255.125 50.531L254.302 51.4523C250.022 56.2516 242.256 58.993 233.258 58.5215C225.932 58.1376 219.992 55.7995 216.181 51.8466C212.385 47.9093 210.833 42.5117 211.87 36.1794ZM223.793 36.8045C225.13 28.6399 231.884 24.0627 239.53 24.4634C244.293 24.713 248.385 27.1297 249.72 30.168L256.287 26.347C256.229 26.2151 256.166 26.084 256.1 25.9537L258.278 26.0679L258.613 26.8228L248.678 32.6031L247.843 30.7039C246.753 28.224 243.318 26.1576 239.287 25.9463C236.054 25.777 233.039 26.6492 230.651 28.4451C228.242 30.2573 226.376 33.0904 225.751 36.9068C225.062 41.1173 226.043 44.1293 227.84 46.0972C229.621 48.0468 232.326 49.1132 235.53 49.2811L235.286 50.7641L234.593 50.7154C227.492 50.0791 222.378 45.4495 223.793 36.8045Z" fill="white"/>
<path d="M212.264 49.0309L187.322 47.7238L188.993 37.5181L209.611 38.5986L210.559 32.8075L189.942 31.727L191.442 22.5656L215.193 23.8103L216.165 17.8768L183.138 16.146L177.075 53.1712L211.292 54.9645L212.264 49.0309ZM216.909 25.3959L193.157 24.1512L192.143 30.3464L212.761 31.4269L211.327 40.1843L190.709 39.1038L189.523 46.343L214.466 47.6502L213.008 56.5505L174.875 54.552L181.424 14.5595L218.366 16.4956L216.909 25.3959Z" fill="white"/>
<path d="M150.369 44.1877C152.529 44.9211 155.374 45.463 157.187 45.5581L156.945 47.0414L156.546 47.0157C154.497 46.8586 151.667 46.2921 149.478 45.5489L149.031 51.7494C151.125 52.3529 153.852 52.8213 157.128 53.0317L157.79 53.0702C165.804 53.4901 171.514 50.9587 172.739 45.4488L172.843 44.9063L177.6 15.8557L168.2 15.3631L163.668 43.0371L163.616 43.308C163.011 46.0563 160.284 47.2164 156.945 47.0414L157.187 45.5581C158.588 45.6315 159.627 45.4034 160.31 45.0273C160.948 44.676 161.526 44.0587 161.71 42.9344L166.485 13.7766L179.802 14.4745L174.802 45.0085C174.26 48.3169 172.303 50.907 169.119 52.5662C165.997 54.1931 161.965 54.7851 157.548 54.5537C153.825 54.3586 150.679 53.8446 148.24 53.1415L146.986 52.7807L147.573 44.6373C147.904 44.2905 148.224 43.9326 148.53 43.5635L150.369 44.1877Z" fill="white"/>
<path d="M153.173 33.1513C154.978 22.124 148.218 13.6632 135.095 12.7247L134.465 12.6855C120.866 11.9728 111.147 19.6023 109.305 30.8523L109.224 31.3882C107.672 42.4239 114.498 50.5516 127.474 51.4756L128.107 51.5145C141.643 52.2239 151.292 44.6386 153.173 33.1513ZM141.751 32.5523C142.384 28.684 141.667 25.6428 140.111 23.5764C138.586 21.5498 136.224 20.4018 133.227 20.2448C127.783 19.9596 122 23.674 120.726 31.4504C120.09 35.337 120.827 38.4313 122.412 40.5457C123.971 42.6247 126.364 43.7985 129.344 43.9548L129.102 45.4386C121.999 45.0662 117.698 39.8983 118.659 32.1096L118.768 31.3482C120.105 23.1836 126.451 18.3936 133.47 18.7614C140.802 19.1457 145.047 24.4908 143.71 32.6553C142.365 40.8674 136.183 45.8097 129.102 45.4386L129.344 43.9548C132.181 44.1034 134.889 43.2095 137.11 41.316C139.36 39.3976 141.116 36.431 141.751 32.5523ZM155.131 33.2535C154.148 39.2567 151.112 44.3823 146.362 47.9333C141.575 51.5109 135.187 53.3818 127.864 52.998C120.512 52.6127 114.81 50.1108 111.243 46.0967C107.7 42.1114 106.363 36.7552 107.347 30.7492C108.312 24.8555 111.363 19.7782 116.134 16.2496C120.938 12.6968 127.354 10.8172 134.708 11.2025C142.038 11.5866 147.701 14.1157 151.242 18.1119C154.758 22.08 156.092 27.3849 155.131 33.2535Z" fill="white"/>
<path d="M109.345 23.0506C110.433 16.405 104.576 12.0287 95.3637 11.5459L95.6066 10.0621C100.579 10.3226 104.824 11.6456 107.687 13.9377C110.576 16.2506 111.911 19.4371 111.303 23.1536C110.78 26.3444 109.395 28.8774 107.245 30.7673C105.65 32.1695 103.707 33.1505 101.569 33.7874L111.339 51.2223L95.8012 50.4079L88.5201 35.0408L82.8579 34.7441L80.4248 49.6021L67.3587 48.9173L73.9076 8.92485L95.6066 10.0621L95.3637 11.5459L75.6232 10.5113L69.5603 47.5366L78.7098 48.0161L81.1428 33.1585L89.979 33.6216L97.2596 48.9883L108.227 49.563L98.8842 32.8914C104.119 31.9599 108.116 29.1662 109.244 23.598L109.345 23.0506ZM97.8684 22.7846C98.0716 21.5436 97.604 20.6655 96.7681 20.0493C95.8863 19.3993 94.4358 18.9297 92.465 18.8264L85.524 18.4626L84.253 26.2243L91.319 26.5946L91.0765 28.0777L82.0522 27.6047L83.8089 16.8769L92.7078 17.3433C97.2826 17.583 100.371 19.5642 99.8272 22.887L99.7627 23.2238C99.0118 26.6513 95.6298 28.3163 91.0765 28.0777L91.319 26.5946C93.3274 26.6999 94.8343 26.3605 95.8531 25.7783C96.841 25.2137 97.6241 24.2763 97.8684 22.7846Z" fill="white"/>
<path d="M71.4684 22.6934C72.6421 15.5257 67.1521 10.0674 57.6266 9.56816L57.8695 8.08433C63.1144 8.3592 67.3711 10.0143 70.138 12.6741C72.8986 15.3279 74.0691 18.8777 73.4274 22.7962C72.7678 26.8244 70.5649 30.2224 66.9863 32.5409C63.3981 34.8655 58.6414 35.9646 53.2245 35.6807L44.9052 35.2447L42.8764 47.6343L29.6841 46.9429L36.2329 6.95041L57.8695 8.08433L57.6266 9.56816L37.9487 8.53688L31.8858 45.5622L41.1607 46.0482L43.1894 33.659L53.467 34.1976L54.3914 34.2321C63.5467 34.4253 69.8685 30.1996 71.3381 23.3832L71.4684 22.6934ZM60.2274 22.1522C60.5143 20.3998 59.9313 19.1786 58.9532 18.3656C57.9494 17.5311 56.3529 16.9816 54.2815 16.873L47.8428 16.5355L46.2377 26.3379L52.7389 26.6786L52.4959 28.1623L44.0357 27.7189L46.1267 14.9499L54.5242 15.39C59.4123 15.6462 62.8775 18.0301 62.1857 22.2548L62.1104 22.6444C61.2284 26.5981 57.1098 28.4041 52.4959 28.1623L52.7389 26.6786C54.7477 26.7839 56.4829 26.4217 57.7424 25.7125C58.9662 25.0236 59.9417 23.8963 60.2274 22.1522Z" fill="white"/>
<path d="M321.334 50.0552C320.152 57.2704 312.998 61.2043 301.467 60.5999M321.334 50.0552C322.266 44.359 318.22 40.8914 310.838 38.4938L303.621 36.2484M321.334 50.0552L321.206 50.7224C319.701 57.512 312.637 61.1854 301.467 60.5999M301.467 60.5999C291.69 60.0876 285.717 56.0402 284.056 49.9687M301.467 60.5999L300.562 60.5419C291.322 59.8331 285.665 55.8506 284.056 49.9687M284.056 49.9687L291.658 46.7764M291.658 46.7764C293.011 51.2519 297.378 54.3054 302.454 54.5715M291.658 46.7764C292.969 51.1117 297.108 54.1129 301.98 54.5383L302.454 54.5715M302.454 54.5715C307.969 54.8605 311.288 53.1194 311.754 50.2713M302.454 54.5715L302.697 53.0885M302.454 54.5715C307.796 54.8514 311.078 53.2263 311.702 50.5351L311.754 50.2713M311.754 50.2713C312.189 47.6131 310.315 45.935 305.41 44.2416L298.631 42.0192M298.631 42.0192C291.328 39.5299 288.261 36.6403 289.124 31.3713M298.631 42.0192C291.556 39.6077 288.457 36.8205 289.055 31.8585L289.124 31.3713M289.124 31.3713C290.065 25.6276 297.109 21.2092 307.449 21.7512M307.449 21.7512C316.035 22.2011 321.357 24.8259 323.227 29.9988M307.449 21.7512L308.245 21.8001C316.364 22.3681 321.415 24.9878 323.227 29.9988M323.227 29.9988L315.79 33.3433M315.79 33.3433C314.666 29.7895 311.381 27.8459 306.806 27.6062M315.79 33.3433C314.701 29.9005 311.584 27.9694 307.231 27.6341L306.806 27.6062M306.806 27.6062C301.542 27.3303 298.529 29.1353 298.14 31.5087M298.14 31.5087C297.814 33.5024 299.413 34.9267 303.621 36.2484M298.14 31.5087L298.115 31.6943C297.917 33.5915 299.545 34.9681 303.621 36.2484M290.097 27.7359L276.31 27.0133L271.219 58.1051L261.756 57.6092L266.847 26.5174M290.097 27.7359L291.069 21.8024L254.095 19.8646M290.097 27.7359L288.542 27.654C287.845 28.7744 287.376 29.9872 287.166 31.2686C286.69 34.1752 287.284 36.5933 289.179 38.6335C291.026 40.6221 293.967 42.094 297.739 43.3795L297.751 43.3841L297.763 43.3876L304.508 45.5996C306.876 46.417 308.26 47.1513 309.02 47.864C309.702 48.5038 309.956 49.1926 309.796 50.1683C309.635 51.1536 309.021 51.8687 308.004 52.3556C306.92 52.8747 305.187 53.219 302.697 53.0885M290.097 27.7359L290.498 25.2893C294.097 21.9018 300.243 19.8778 307.692 20.2682C312.204 20.5047 316.037 21.3203 319.029 22.8621C322.054 24.4205 324.092 26.6564 325.134 29.5366L325.536 30.6506L314.461 35.6308L313.869 33.7618C313.388 32.2405 312.473 31.1417 311.282 30.3964C310.089 29.6495 308.514 29.1916 306.564 29.0893C304.231 28.9671 302.634 29.3191 301.654 29.7983C300.714 30.2575 300.218 30.886 300.099 31.6113C300.002 32.2038 300.166 32.6563 300.703 33.1234C301.315 33.6558 302.457 34.2406 304.456 34.8689L311.675 37.1144L311.687 37.119L311.701 37.1236C315.552 38.3746 318.737 39.9666 320.82 42.12C322.943 44.3139 323.813 46.9765 323.292 50.1578C322.643 54.1213 320.307 57.3439 316.365 59.4562C312.472 61.5418 307.283 62.401 301.224 62.0834C296.005 61.8099 291.675 60.5839 288.407 58.5325C285.135 56.4784 283.029 53.66 282.123 50.3437L281.822 49.2448L293.029 44.5382L293.584 46.3722C294.792 50.368 298.605 52.8741 302.697 53.0885M266.847 26.5174L253.123 25.7981L254.095 19.8646M266.847 26.5174L256.1 25.9537M254.095 19.8646L253.605 22.8551M233.501 57.038C241.898 57.4781 248.89 54.9241 252.683 50.6705L247.758 46.0078C245.224 49.1305 239.987 51.0104 235.286 50.7641M233.501 57.038C219.839 56.322 211.847 48.3867 213.829 36.2823M233.501 57.038L232.864 56.9989C219.592 56.0727 211.878 48.1975 213.829 36.2823M213.829 36.2823C215.726 24.7 226.197 17.4929 239.796 18.2056M239.796 18.2056C248.507 18.6621 254.394 22.0826 256.287 26.347M239.796 18.2056L240.605 18.2572C246.359 18.6886 250.811 20.4385 253.605 22.8551M256.287 26.347L249.72 30.168C248.385 27.1297 244.293 24.713 239.53 24.4634C231.884 24.0627 225.13 28.6399 223.793 36.8045M256.287 26.347L254.533 27.3677L264.646 27.8977L259.554 58.9899L272.934 59.6911L278.026 28.5989L289.792 29.2156C290.362 27.9864 291.237 26.8538 292.38 25.8593L293.271 20.4212L252.379 18.2782L251.842 21.5588C252.488 21.9641 253.076 22.3975 253.605 22.8551M256.287 26.347C256.229 26.2151 256.166 26.084 256.1 25.9537M223.793 36.8045C222.332 45.7285 227.829 50.3733 235.286 50.7641M223.793 36.8045C222.378 45.4495 227.492 50.0791 234.593 50.7154L235.286 50.7641M235.286 50.7641L235.53 49.2811M172.843 44.9063C171.879 50.7924 166.063 53.5037 157.79 53.0702M172.843 44.9063L177.6 15.8557L168.2 15.3631L163.668 43.0371M172.843 44.9063L172.739 45.4488C171.514 50.9587 165.804 53.4901 157.79 53.0702M157.79 53.0702C154.218 52.883 151.265 52.3931 149.031 51.7494M157.79 53.0702L157.128 53.0317C153.852 52.8213 151.125 52.3529 149.031 51.7494M149.031 51.7494L149.478 45.5489M149.478 45.5489C151.813 46.3416 154.877 46.933 156.945 47.0414M149.478 45.5489C151.667 46.2921 154.497 46.8586 156.546 47.0157L156.945 47.0414M156.945 47.0414C160.391 47.222 163.186 45.9801 163.668 43.0371M156.945 47.0414L157.187 45.5581M156.945 47.0414C160.284 47.2164 163.011 46.0563 163.616 43.308L163.668 43.0371M153.173 33.1513C151.292 44.6386 141.643 52.2239 128.107 51.5145M153.173 33.1513C155.007 21.9488 148.001 13.3949 134.465 12.6855M153.173 33.1513C154.978 22.124 148.218 13.6632 135.095 12.7247L134.465 12.6855M128.107 51.5145C114.508 50.8018 107.424 42.3396 109.305 30.8523M128.107 51.5145L127.474 51.4756C114.498 50.5516 107.672 42.4239 109.224 31.3882L109.305 30.8523M109.305 30.8523C111.147 19.6023 120.866 11.9728 134.465 12.6855M118.768 31.3482C120.105 23.1836 126.451 18.3936 133.47 18.7614C140.802 19.1457 145.047 24.4908 143.71 32.6553C142.365 40.8674 136.183 45.8097 129.102 45.4386M118.768 31.3482C117.423 39.5602 121.77 45.0543 129.102 45.4386M118.768 31.3482L118.659 32.1096C117.698 39.8983 121.999 45.0662 129.102 45.4386M129.102 45.4386L129.344 43.9548M95.3637 11.5459L75.6232 10.5113L69.5603 47.5366L78.7098 48.0161L81.1428 33.1585L89.979 33.6216L97.2596 48.9883L108.227 49.563L98.8842 32.8914M95.3637 11.5459C104.576 12.0287 110.433 16.405 109.345 23.0506M95.3637 11.5459L95.6066 10.0621M109.345 23.0506C108.373 28.9841 104.288 31.9298 98.8842 32.8914M109.345 23.0506L109.244 23.598C108.116 29.1662 104.119 31.9599 98.8842 32.8914M99.8272 22.887C100.371 19.5642 97.2826 17.583 92.7078 17.3433L83.8089 16.8769L82.0522 27.6047L91.0765 28.0777M99.8272 22.887C99.2287 26.542 95.7766 28.324 91.0765 28.0777M99.8272 22.887L99.7627 23.2238C99.0118 26.6513 95.6298 28.3163 91.0765 28.0777M91.0765 28.0777L91.319 26.5946M71.4684 22.6934C70.2481 30.1459 63.4313 34.7198 53.467 34.1976M71.4684 22.6934C72.6421 15.5257 67.1521 10.0674 57.6266 9.56816M71.4684 22.6934L71.3381 23.3832C69.8685 30.1996 63.5467 34.4253 54.3914 34.2321L53.467 34.1976M53.467 34.1976L43.1894 33.659L41.1607 46.0482L31.8858 45.5622L37.9487 8.53688L57.6266 9.56816M57.6266 9.56816L57.8695 8.08433M62.1857 22.2548C62.8775 18.0301 59.4123 15.6462 54.5242 15.39L46.1267 14.9499L44.0357 27.7189L52.4959 28.1623M62.1857 22.2548C61.4939 26.4794 57.2587 28.4119 52.4959 28.1623M62.1857 22.2548L62.1104 22.6444C61.2284 26.5981 57.1098 28.4041 52.4959 28.1623M52.4959 28.1623L52.7389 26.6786M253.605 22.8551L253.924 20.9053C250.63 18.5832 245.856 17.0276 240.04 16.7227C232.725 16.3394 226.138 18.0908 221.13 21.5652C216.142 25.0268 212.867 30.0937 211.87 36.1794C210.833 42.5117 212.385 47.9093 216.181 51.8466C219.992 55.7995 225.932 58.1376 233.258 58.5215C242.256 58.993 250.022 56.2516 254.302 51.4523L255.125 50.531L247.606 43.4142L246.09 45.2829C244.004 47.8532 239.548 49.4915 235.53 49.2811M256.1 25.9537L258.278 26.0679L258.613 26.8228L248.678 32.6031L247.843 30.7039C246.753 28.224 243.318 26.1576 239.287 25.9463C236.054 25.777 233.039 26.6492 230.651 28.4451C228.242 30.2573 226.376 33.0904 225.751 36.9068C225.062 41.1173 226.043 44.1293 227.84 46.0972C229.621 48.0468 232.326 49.1132 235.53 49.2811M157.187 45.5581C155.374 45.463 152.529 44.9211 150.369 44.1877L148.53 43.5635C148.224 43.9326 147.904 44.2905 147.573 44.6373L146.986 52.7807L148.24 53.1415C150.679 53.8446 153.825 54.3586 157.548 54.5537C161.965 54.7851 165.997 54.1931 169.119 52.5662C172.303 50.907 174.26 48.3169 174.802 45.0085L179.802 14.4745L166.485 13.7766L161.71 42.9344C161.526 44.0587 160.948 44.676 160.31 45.0273C159.627 45.4034 158.588 45.6315 157.187 45.5581ZM129.344 43.9548C126.364 43.7985 123.971 42.6247 122.412 40.5457C120.827 38.4313 120.09 35.337 120.726 31.4504C122 23.674 127.783 19.9596 133.227 20.2448C136.224 20.4018 138.586 21.5498 140.111 23.5764C141.667 25.6428 142.384 28.684 141.751 32.5523C141.116 36.431 139.36 39.3976 137.11 41.316C134.889 43.2095 132.181 44.1034 129.344 43.9548ZM95.6066 10.0621C100.579 10.3226 104.824 11.6456 107.687 13.9377C110.576 16.2506 111.911 19.4371 111.303 23.1536C110.78 26.3444 109.395 28.8774 107.245 30.7673C105.65 32.1695 103.707 33.1505 101.569 33.7874L111.339 51.2223L95.8012 50.4079L88.5201 35.0408L82.8579 34.7441L80.4248 49.6021L67.3587 48.9173L73.9076 8.92485L95.6066 10.0621ZM91.319 26.5946L84.253 26.2243L85.524 18.4626L92.465 18.8264C94.4358 18.9297 95.8863 19.3993 96.7681 20.0493C97.604 20.6655 98.0716 21.5436 97.8684 22.7846C97.6241 24.2763 96.841 25.2137 95.8531 25.7783C94.8343 26.3605 93.3274 26.6999 91.319 26.5946ZM57.8695 8.08433C63.1144 8.3592 67.3711 10.0143 70.138 12.6741C72.8986 15.3279 74.0691 18.8777 73.4274 22.7962C72.7678 26.8244 70.5649 30.2224 66.9863 32.5409C63.3981 34.8655 58.6414 35.9646 53.2245 35.6807L44.9052 35.2447L42.8764 47.6343L29.6841 46.9429L36.2329 6.95041L57.8695 8.08433ZM52.7389 26.6786L46.2377 26.3379L47.8428 16.5355L54.2815 16.873C56.3529 16.9816 57.9494 17.5311 58.9532 18.3656C59.9313 19.1786 60.5143 20.3998 60.2274 22.1522C59.9417 23.8963 58.9662 25.0236 57.7424 25.7125C56.4829 26.4217 54.7477 26.7839 52.7389 26.6786ZM211.292 54.9645L177.075 53.1712L183.138 16.146L216.165 17.8768L215.193 23.8103L191.442 22.5656L189.942 31.727L210.559 32.8075L209.611 38.5986L188.993 37.5181L187.322 47.7238L212.264 49.0309L211.292 54.9645ZM216.909 25.3959L193.157 24.1512L192.143 30.3464L212.761 31.4269L211.327 40.1843L190.709 39.1038L189.523 46.343L214.466 47.6502L213.008 56.5505L174.875 54.552L181.424 14.5595L218.366 16.4956L216.909 25.3959ZM155.131 33.2535C154.148 39.2567 151.112 44.3823 146.362 47.9333C141.575 51.5109 135.187 53.3818 127.864 52.998C120.512 52.6127 114.81 50.1108 111.243 46.0967C107.7 42.1114 106.363 36.7552 107.347 30.7492C108.312 24.8555 111.363 19.7782 116.134 16.2496C120.938 12.6968 127.354 10.8172 134.708 11.2025C142.038 11.5866 147.701 14.1157 151.242 18.1119C154.758 22.08 156.092 27.3849 155.131 33.2535Z" stroke="white"/>
</svg>
