<svg width="314" height="203" viewBox="0 0 314 203" fill="none" xmlns="http://www.w3.org/2000/svg">
<path d="M-43.6808 91.2836L290.753 21.4485L314 132L-20.8896 199.659L-43.6808 91.2836Z" fill="#4C3A51"/>
<mask id="mask0_182_2" style="mask-type:alpha" maskUnits="userSpaceOnUse" x="12" y="11" width="275" height="119">
<path d="M18.9472 11.1463L286.963 21.9523L268.915 129.04L12.0583 94.9655L18.9472 11.1463Z" fill="#D3A7E0"/>
</mask>
<g mask="url(#mask0_182_2)">
<path d="M-76.4399 -14.9287L290.034 0.505682L266.129 165.426L-85.8153 99.1441L-76.4399 -14.9287Z" fill="#D3A7E0"/>
<path d="M252.538 52.4114L242.663 46L223.429 75.6225L253.052 94.8566L272.286 65.2341L252.538 52.4114ZM249.681 78.4287L239.807 72.0173L246.034 62.4279L255.908 68.8393L249.681 78.4287Z" fill="white"/>
<path d="M194.054 113.561L191.178 40.119L162.489 41.2427L161.778 23.0796L186.072 22.1281L237.699 19.9294L237.942 37.7861L210.261 39.0184L213.79 112.985L194.054 113.561Z" fill="white"/>
<path d="M140.612 75.5106L148.206 41.9747L161.734 45.0381L154.514 76.9207C151.825 88.7944 154.329 99.4895 160.076 100.791C166 102.132 172.364 94.5517 174.985 82.9786L182.511 49.7433L196.127 52.8268L188.226 87.7153C183.155 110.11 170.495 115.939 157.321 112.956C144.059 109.952 135.336 98.807 140.612 75.5106Z" fill="white"/>
<path d="M98.2829 72.4225L99.6594 55.6747C100.868 40.9693 109.26 28.6021 124.33 29.8407C138.317 30.9902 146.093 43.4526 144.784 59.3834L143.407 76.1312C142.014 93.0832 132.133 103.169 118.396 102.04C103.327 100.801 97.0659 87.23 98.2829 72.4225ZM130.244 76.1802L131.83 56.8794C132.342 50.65 129.199 45.0455 123.038 44.5392C116.627 44.0123 113.16 49.4847 112.682 55.3056L111.095 74.6064C110.592 80.7337 113.11 86.8009 119.521 87.3277C125.682 87.8341 129.69 82.9202 130.244 76.1802Z" fill="white"/>
<path d="M68.6485 105.916L68.5872 22.3757L90.2148 22.3598C101.139 22.3518 107.199 32.0698 107.21 45.9933C107.214 51.9947 105.447 58.8378 100.8 62.322L100.8 62.8021C105.452 65.5594 108.042 74.3197 108.047 81.0414C108.058 96.0451 100.684 105.893 92.0477 105.899L68.6485 105.916ZM80.0038 89.344L89.6735 89.3369C94.4714 89.3334 96.3874 85.0109 96.3839 80.2097C96.3804 75.5286 94.4578 70.8488 89.6599 70.8523L79.9902 70.8594L80.0038 89.344ZM79.979 55.6156L88.6891 55.6092C93.4133 55.6058 95.1817 51.4034 95.1784 46.8423C95.175 42.2811 93.401 38.9216 88.6769 38.9251L79.9668 38.9315L79.979 55.6156Z" fill="white"/>
<path d="M17.5534 100.158L50.2403 4.20767L61.2614 5.11813L77.7595 105.132L63.004 103.913L59.9191 83.5313L38.6967 81.7781L32.3089 101.377L17.5534 100.158ZM44.5806 63.8379L57.059 64.8688L55.6212 53.4108L53.4917 33.6747L53.1274 33.6446L47.9024 52.4896L44.5806 63.8379Z" fill="white"/>
</g>
</svg>
