<svg width="151" height="95" viewBox="0 0 151 95" fill="none" xmlns="http://www.w3.org/2000/svg">
<rect x="1.29687" y="93.6567" width="92.1845" height="148" rx="19" transform="rotate(-90.1818 1.29687 93.6567)" fill="#D3A7E0" stroke="#373737" stroke-width="2"/>
<path d="M36.0922 65.6735L32.4648 71.6673L36.6987 71.6024L36.0922 65.6735ZM28.6547 77.9764L26.7497 81.1309L20.5004 81.2267L33.8357 59.1448L41.6473 59.0252L43.9352 80.8677L37.6859 80.9634L37.3569 77.8431L28.6547 77.9764ZM55.9507 65.0568L55.1549 68.1944L59.8419 68.1226C60.8834 68.1066 61.5368 67.5757 61.8021 66.5299C62.0673 65.484 61.6792 64.9691 60.6377 64.985L55.9507 65.0568ZM53.9769 72.9005L53.1811 76.038L57.868 75.9662C58.9096 75.9503 59.563 75.4194 59.8282 74.3735C60.0935 73.3277 59.7053 72.8127 58.6638 72.8287L53.9769 72.9005ZM45.7537 80.8398L51.2774 58.8777L62.2136 58.7102C67.4213 58.6304 69.3672 61.205 68.0513 66.4341C67.6191 68.1389 66.6391 69.4561 65.1115 70.3859C66.1878 71.2758 66.5098 72.5731 66.0775 74.2778C65.0269 78.461 61.8977 80.5926 56.69 80.6723L45.7537 80.8398ZM77.8812 80.3477C74.8607 80.394 72.553 79.3615 70.958 77.2503C69.3629 75.139 68.9485 72.567 69.7146 69.534C70.4704 66.5013 72.1859 63.8966 74.8612 61.7199C77.5365 59.5433 80.3844 58.4318 83.4049 58.3856C86.4254 58.3393 88.7331 59.3718 90.3281 61.483C91.9231 63.5942 92.3428 66.1662 91.5871 69.199C90.8209 72.2319 89.1002 74.8367 86.4249 77.0134C83.7496 79.19 80.9017 80.3015 77.8812 80.3477ZM79.4572 74.0729C80.7487 74.0531 81.9655 73.576 83.1076 72.6418C84.26 71.7074 85.0035 70.5917 85.3378 69.2947C85.6617 67.998 85.4782 66.8965 84.7871 65.9903C84.1065 65.0839 83.1204 64.6406 81.8289 64.6604C80.5374 64.6802 79.3154 65.1573 78.1629 66.0917C77.0208 67.026 76.2878 68.1415 75.9639 69.4383C75.6296 70.7353 75.8027 71.8369 76.4833 72.7432C77.1744 73.6494 78.1657 74.0926 79.4572 74.0729ZM94.2805 69.1578L97.0345 58.1768L103.284 58.0811L100.53 69.062C99.734 72.1996 100.378 73.7524 102.461 73.7205C104.544 73.6886 105.983 72.1039 106.779 68.9663L109.533 57.9853L115.782 57.8896L113.028 68.8706C111.182 76.1914 107.134 79.8997 100.885 79.9954C94.6355 80.0911 92.4341 76.4786 94.2805 69.1578ZM125.107 79.6244L118.858 79.7201L122.805 64.0328L117.337 64.1165L118.913 57.8417L136.099 57.5784L134.523 63.8533L129.055 63.9371L125.107 79.6244Z" fill="#F6E9FA"/>
</svg>
