<svg width="144" height="35" viewBox="0 0 144 35" fill="none" xmlns="http://www.w3.org/2000/svg">
<path d="M24.856 34L22.36 27.184H11.176L8.68 34H0.904L13.864 0.591998H19.672L32.632 34H24.856ZM18.808 17.104L16.84 10.48H16.648L14.728 17.008L13.48 20.944H20.056L18.808 17.104Z" fill="#D3A7E0"/>
<path d="M59.7595 24.064C59.7595 25.568 59.4715 26.928 58.8955 28.144C58.3515 29.36 57.5995 30.4 56.6395 31.264C55.7115 32.128 54.6075 32.8 53.3275 33.28C52.0795 33.76 50.7515 34 49.3435 34H34.1275V0.591998H48.1915C49.9515 0.591998 51.5195 0.831998 52.8955 1.312C54.2715 1.76 55.4235 2.4 56.3515 3.232C57.3115 4.064 58.0315 5.072 58.5115 6.256C58.9915 7.408 59.2315 8.672 59.2315 10.048C59.2315 11.264 58.9115 12.48 58.2715 13.696C57.6315 14.912 56.5595 15.872 55.0555 16.576V16.768C55.8235 17.056 56.4955 17.472 57.0715 18.016C57.6475 18.56 58.1275 19.168 58.5115 19.84C58.9275 20.512 59.2315 21.216 59.4235 21.952C59.6475 22.688 59.7595 23.392 59.7595 24.064ZM51.4075 10.384C51.4075 9.456 51.0875 8.704 50.4475 8.128C49.8075 7.52 48.7195 7.216 47.1835 7.216H41.5195V13.888H47.1835C48.7195 13.888 49.8075 13.536 50.4475 12.832C51.0875 12.128 51.4075 11.312 51.4075 10.384ZM52.1755 23.728C52.1755 23.248 52.0955 22.784 51.9355 22.336C51.7755 21.888 51.5195 21.488 51.1675 21.136C50.8155 20.784 50.3515 20.512 49.7755 20.32C49.2315 20.096 48.5755 19.984 47.8075 19.984H41.5195V27.376H47.8075C49.3755 27.376 50.4955 27.008 51.1675 26.272C51.8395 25.536 52.1755 24.688 52.1755 23.728ZM74.29 0.351998C76.306 0.351998 78.114 0.687999 79.714 1.36C81.346 2 82.722 2.896 83.842 4.048C84.994 5.2 85.874 6.576 86.482 8.176C87.09 9.776 87.394 11.504 87.394 13.36V21.232C87.394 23.216 87.074 25.024 86.434 26.656C85.826 28.256 84.946 29.632 83.794 30.784C82.674 31.904 81.298 32.768 79.666 33.376C78.066 33.984 76.274 34.288 74.29 34.288C72.114 34.288 70.21 33.936 68.578 33.232C66.978 32.528 65.634 31.584 64.546 30.4C63.49 29.184 62.69 27.792 62.146 26.224C61.634 24.624 61.378 22.96 61.378 21.232V13.36C61.378 11.632 61.634 9.984 62.146 8.416C62.69 6.848 63.49 5.472 64.546 4.288C65.634 3.072 66.978 2.112 68.578 1.408C70.21 0.703999 72.114 0.351998 74.29 0.351998ZM74.242 7.264C73.314 7.264 72.514 7.424 71.842 7.744C71.17 8.032 70.61 8.432 70.162 8.944C69.714 9.456 69.378 10.048 69.154 10.72C68.93 11.36 68.818 12.016 68.818 12.688V21.76C68.818 22.496 68.93 23.2 69.154 23.872C69.378 24.544 69.714 25.136 70.162 25.648C70.61 26.16 71.17 26.576 71.842 26.896C72.514 27.216 73.314 27.376 74.242 27.376C76.034 27.376 77.41 26.848 78.37 25.792C79.362 24.704 79.858 23.36 79.858 21.76V12.688C79.858 11.216 79.362 9.952 78.37 8.896C77.41 7.808 76.034 7.264 74.242 7.264ZM116.243 22.336C116.243 24.128 115.891 25.76 115.187 27.232C114.515 28.672 113.587 29.92 112.403 30.976C111.251 32 109.875 32.8 108.275 33.376C106.707 33.952 105.027 34.24 103.235 34.24C101.443 34.24 99.7471 33.952 98.1471 33.376C96.5791 32.768 95.2031 31.936 94.0191 30.88C92.8351 29.792 91.9071 28.496 91.2351 26.992C90.5631 25.456 90.2271 23.76 90.2271 21.904V0.591998H97.5711V21.376C97.5711 23.296 98.1151 24.784 99.2031 25.84C100.323 26.864 101.667 27.376 103.235 27.376C104.867 27.376 106.211 26.912 107.267 25.984C108.323 25.056 108.851 23.664 108.851 21.808V0.591998H116.243V22.336ZM133.918 7.216V34H126.574V7.216H117.454V0.591998H143.038V7.216H133.918Z" fill="#FBEDFF"/>
</svg>
