<svg width="301" height="152" viewBox="0 0 301 152" fill="none" xmlns="http://www.w3.org/2000/svg">
<path d="M190 43H301V152H190V43Z" fill="#6F5577"/>
<mask id="mask0_70_2074" style="mask-type:alpha" maskUnits="userSpaceOnUse" x="0" y="0" width="301" height="110">
<path d="M0 0H300.929V109.01H0V0Z" fill="#D3A7E0"/>
</mask>
<g mask="url(#mask0_70_2074)">
<path d="M0 0H300.929V109.01H0V0Z" fill="#D3A7E0"/>
<path d="M307.212 30.7071L295.626 19.1214L260.869 53.8785L295.626 88.6355L330.383 53.8785L307.212 30.7071ZM295.793 65.2971L284.207 53.7114L295.459 42.4598L307.045 54.0455L295.793 65.2971Z" fill="white"/>
<path d="M237.079 113.709L225.566 19.1413L188.625 23.6387L185.778 0.251017L217.06 -3.55746L283.519 -11.8791L285.728 11.1626L250.1 15.6935L262.513 110.87L237.079 113.709Z" fill="white"/>
<path d="M164.001 70.2291L170.251 26.1008L188.052 28.6219L182.11 70.5747C179.897 86.1988 184.267 99.749 191.83 100.82C199.624 101.924 207.041 91.4555 209.198 76.227L215.392 32.4942L233.308 35.0318L226.806 80.9401C222.632 110.408 206.897 119.282 189.562 116.827C172.111 114.356 159.66 100.884 164.001 70.2291Z" fill="white"/>
<path d="M122.06 79.8892V62.794C122.06 47.7836 129.539 34.5452 144.921 34.5452C159.198 34.5452 168.121 46.5327 168.121 62.794V79.8892C168.121 97.1929 158.943 108.242 144.921 108.242C129.539 108.242 122.06 95.0038 122.06 79.8892ZM154.779 81.0358V61.3346C154.779 54.9761 151.124 49.5556 144.836 49.5556C138.292 49.5556 135.233 55.393 135.233 61.3346V81.0358C135.233 87.2902 138.292 93.2318 144.836 93.2318C151.124 93.2318 154.779 87.9156 154.779 81.0358Z" fill="white"/>
<path d="M80.4626 119.091L59.8787 12.7826L87.4006 7.45371C101.302 4.76196 111.4 15.6427 114.831 33.3608C116.31 40.9979 115.741 50.1407 110.681 55.716L110.799 56.327C117.397 58.6942 122.844 69.2079 124.5 77.7614C128.197 96.8542 121.229 111.198 110.239 113.326L80.4626 119.091ZM90.8468 95.2119L103.152 92.8293C109.257 91.6471 110.635 85.6755 109.452 79.5659C108.298 73.6089 104.703 68.1248 98.5973 69.307L86.2923 71.6896L90.8468 95.2119ZM82.5363 52.2913L93.6202 50.1452C99.6318 48.9812 100.851 43.1987 99.7272 37.3945C98.6034 31.5903 95.5209 27.7501 89.5093 28.9141L78.4254 31.0602L82.5363 52.2913Z" fill="white"/>
<path d="M7.65004 115.135L39.6882 -12.2859L54.022 -12.2799L85.953 115.168L66.7623 115.16L60.6132 89.1577L33.0117 89.1461L26.8408 115.143L7.65004 115.135ZM38.7079 65.3461L54.9371 65.3529L51.8633 50.704L47.017 25.4348L46.5431 25.4346L41.7942 50.3336L38.7079 65.3461Z" fill="white"/>
</g>
</svg>
