<svg width="282" height="127" viewBox="0 0 282 127" fill="none" xmlns="http://www.w3.org/2000/svg">
<rect x="10.3881" y="98.1912" width="58.5933" height="264.569" rx="19" transform="rotate(-92.2974 10.3881 98.1912)" fill="#D3A7E0" stroke="#373737" stroke-width="2"/>
<path d="M61.6559 63.2826L62.7588 58.5573L67.4439 58.407L65.2381 67.8576L58.7961 68.0643C56.5316 68.137 54.7881 67.3918 53.5654 65.8286C52.3428 64.2655 51.9997 62.3419 52.5361 60.0579C53.0647 57.7741 54.3184 55.7993 56.2972 54.1334C58.276 52.4675 60.3977 51.5982 62.6621 51.5256L67.9329 51.3564L66.83 56.0817L61.5592 56.2509C60.591 56.2819 59.6806 56.6551 58.8281 57.3703C57.9834 58.0853 57.4478 58.931 57.2212 59.9075C56.9867 60.8843 57.1304 61.7082 57.6522 62.3793C58.1818 63.0502 58.9308 63.3701 59.899 63.339L61.6559 63.2826ZM83.2578 50.8646L82.1549 55.5899L75.1272 55.8155L74.8486 56.9969L80.705 56.8089L79.602 61.5342L73.7457 61.7222L73.467 62.9036L80.4947 62.6781L79.3917 67.4034L67.679 67.7793L71.5451 51.2405L83.2578 50.8646ZM90.6641 67.0416L85.979 67.192L88.7421 55.3785L84.6427 55.5101L85.7456 50.7848L98.6296 50.3713L97.5267 55.0966L93.4272 55.2282L90.6641 67.0416ZM116.255 49.8057L112.389 66.3445L107.704 66.4948L111.57 49.9561L116.255 49.8057ZM122.367 57.8169L120.428 66.0865L115.743 66.2368L119.609 49.6981L124.294 49.5477L128.224 57.629L130.151 49.3598L134.836 49.2094L130.97 65.7482L126.285 65.8985L122.367 57.8169ZM152.695 65.051L148.01 65.2014L150.773 53.3879L146.673 53.5195L147.776 48.7941L160.66 48.3807L159.557 53.106L155.458 53.2376L152.695 65.051ZM165.7 64.6336C163.436 64.7063 161.692 63.9611 160.47 62.3979C159.247 60.8348 158.904 58.9112 159.44 56.6272C159.969 54.3434 161.223 52.3686 163.202 50.7027C165.18 49.0368 167.302 48.1675 169.566 48.0949C171.831 48.0222 173.574 48.7674 174.797 50.3306C176.02 51.8937 176.367 53.8172 175.838 56.101C175.302 58.385 174.044 60.3599 172.065 62.0258C170.087 63.6917 167.965 64.561 165.7 64.6336ZM166.803 59.9083C167.772 59.8773 168.678 59.5042 169.523 58.7893C170.375 58.0741 170.919 57.2281 171.153 56.2513C171.38 55.2748 171.228 54.4511 170.699 53.7802C170.177 53.1091 169.432 52.7891 168.464 52.8202C167.495 52.8513 166.585 53.2244 165.732 53.9396C164.888 54.6546 164.352 55.5003 164.126 56.4768C163.891 57.4536 164.035 58.2775 164.557 58.9486C165.086 59.6195 165.835 59.9394 166.803 59.9083ZM177.858 56.0361L179.785 47.767L184.47 47.6166L182.543 55.8858C181.985 58.2486 182.487 59.405 184.049 59.3549C185.611 59.3048 186.67 58.0983 187.228 55.7354L189.155 47.4663L193.84 47.3159L191.913 55.5851C190.62 61.0981 187.631 63.9298 182.946 64.0802C178.261 64.2305 176.565 61.5492 177.858 56.0361ZM204.058 46.988L209.329 46.8188L208.226 51.5442L202.955 51.7133C201.987 51.7444 201.077 52.1175 200.224 52.8327C199.379 53.5477 198.844 54.3934 198.617 55.3699C198.383 56.3467 198.526 57.1707 199.048 57.8418C199.578 58.5126 200.327 58.8325 201.295 58.8014L206.566 58.6323L205.463 63.3576L200.192 63.5268C197.928 63.5994 196.184 62.8542 194.961 61.291C193.739 59.7279 193.396 57.8043 193.932 55.5203C194.461 53.2365 195.714 51.2617 197.693 49.5958C199.672 47.9299 201.794 47.0607 204.058 46.988ZM212.051 46.7315L216.736 46.5811L215.354 52.4879L220.625 52.3187L222.007 46.412L226.692 46.2616L222.826 62.8004L218.141 62.9508L219.522 57.044L214.251 57.2132L212.87 63.1199L208.185 63.2703L212.051 46.7315Z" fill="#F6E9FA"/>
<path d="M22.5392 62.9652L27.8205 57.3233C28.5894 56.5019 29.9692 57.02 30.0056 58.1453L30.3297 67.964C30.3762 69.3942 31.5742 70.5156 33.0043 70.4676C34.4344 70.4197 35.5552 69.2224 35.508 67.7931L35.1831 57.9751C35.1467 56.8498 36.4878 56.2419 37.3091 57.0108L42.9511 62.2921C44.9066 60.2031 44.7984 56.9246 42.7086 54.9683L35.9469 48.6389C33.8579 46.6834 30.5786 46.7909 28.6231 48.8799L22.2943 55.6408C20.3388 57.7298 20.4463 61.0091 22.5361 62.9653L22.5392 62.9652Z" fill="#F6E9FA"/>
</svg>
