<svg width="200" height="35" viewBox="0 0 200 35" fill="none" xmlns="http://www.w3.org/2000/svg">
<path d="M25.504 25.888C24.672 28.512 23.168 30.576 20.992 32.08C18.848 33.552 16.208 34.288 13.072 34.288C10.896 34.288 8.992 33.968 7.36 33.328C5.76 32.688 4.416 31.792 3.328 30.64C2.272 29.488 1.472 28.112 0.928 26.512C0.416 24.912 0.16 23.152 0.16 21.232V13.36C0.16 11.632 0.416 9.984 0.928 8.416C1.472 6.848 2.272 5.472 3.328 4.288C4.416 3.072 5.76 2.112 7.36 1.408C8.992 0.703999 10.896 0.351998 13.072 0.351998C16.272 0.351998 18.928 1.136 21.04 2.704C23.184 4.24 24.672 6.288 25.504 8.848L18.496 11.344C18.24 10.192 17.648 9.232 16.72 8.464C15.792 7.664 14.56 7.264 13.024 7.264C12.096 7.264 11.296 7.424 10.624 7.744C9.952 8.032 9.392 8.432 8.944 8.944C8.496 9.456 8.16 10.048 7.936 10.72C7.712 11.36 7.6 12.016 7.6 12.688V21.76C7.6 22.496 7.712 23.2 7.936 23.872C8.16 24.544 8.496 25.136 8.944 25.648C9.392 26.16 9.952 26.576 10.624 26.896C11.296 27.216 12.096 27.376 13.024 27.376C14.528 27.376 15.744 26.992 16.672 26.224C17.632 25.424 18.24 24.416 18.496 23.2L25.504 25.888Z" fill="#D3A7E0"/>
<path d="M45.6933 34L40.4132 21.088H35.6133V34H28.2212V0.591998H43.0053C44.4773 0.591998 45.8533 0.815998 47.1333 1.264C48.4453 1.712 49.5972 2.368 50.5893 3.232C51.5813 4.064 52.3653 5.104 52.9413 6.352C53.5173 7.6 53.8053 9.024 53.8053 10.624C53.8053 12.64 53.2773 14.464 52.2213 16.096C51.1973 17.696 49.6773 18.928 47.6613 19.792L54.0453 34H45.6933ZM46.1253 10.672C46.1253 9.424 45.7413 8.528 44.9733 7.984C44.2053 7.44 43.1973 7.168 41.9493 7.168H35.6133V14.464H41.7093C43.0533 14.464 44.1253 14.144 44.9253 13.504C45.7253 12.864 46.1253 11.92 46.1253 10.672ZM57.6137 34V0.591998H81.2298V7.216H65.0058V13.984H78.8298V20.368H65.0058V27.376H81.2298V34H57.6137ZM104.268 34L101.772 27.184H90.5879L88.0919 34H80.3159L93.2759 0.591998H99.0839L112.044 34H104.268ZM98.2199 17.104L96.2519 10.48H96.0599L94.1399 17.008L92.8919 20.944H99.4679L98.2199 17.104ZM125.106 7.216V34H117.762V7.216H108.641V0.591998H134.226V7.216H125.106ZM136.513 34V0.591998H143.905V34H136.513ZM162.719 34H156.719L145.151 0.591998H152.927L157.199 14.128L159.695 22.624H159.935L162.287 14.272L166.511 0.591998H174.239L162.719 34ZM175.795 34V0.591998H199.411V7.216H183.187V13.984H197.011V20.368H183.187V27.376H199.411V34H175.795Z" fill="#FBEDFF"/>
</svg>
