<svg width="301" height="179" viewBox="0 0 301 179" fill="none" xmlns="http://www.w3.org/2000/svg">
<path d="M-83.9029 26L279.797 84.3085L264.763 178.745L-98.6385 118.578L-83.9029 26Z" fill="#6F5577"/>
<mask id="mask0_182_3" style="mask-type:alpha" maskUnits="userSpaceOnUse" x="-10" y="0" width="310" height="126">
<path d="M-9.50001 39L291.334 -2.29149e-05L299.896 94.6668L-3.50004 126L-9.50001 39Z" fill="#D3A7E0"/>
</mask>
<g mask="url(#mask0_182_3)">
<path d="M-55 16.0519L288.304 -15L299.553 109.36L-43.7516 140.412L-55 16.0519Z" fill="#D3A7E0"/>
<path d="M202.824 85.7251L205.264 13.162L217.537 14.1232L229.868 37.3543L241.139 60.0841L241.322 59.9939L242.798 16.1016L256.593 17.182L254.153 89.7451L241.88 88.7839L226.922 60.8523L218.278 42.823L218.095 42.9132L216.619 86.8055L202.824 85.7251Z" fill="white"/>
<path d="M158.934 71.6434L156.504 54.6694C154.37 39.7655 160.269 25.3561 176.272 22.7546C187.943 20.8573 197.218 26.8691 201.794 37.3514L189.656 44.8319C187.973 40.022 183.888 36.7674 178.318 37.6729C171.51 38.7797 169.156 45.0931 170.001 50.9926L172.802 70.5541C173.691 76.764 177.733 82.2496 184.629 81.1285C190.465 80.1798 194.439 73.8147 193.506 67.2942L193.431 66.7767L180.877 68.8177L178.98 55.5697L204.974 51.344L207.034 65.7305C209.197 80.8415 200.011 93.773 186.748 95.929C170.745 98.5305 161.29 88.0999 158.934 71.6434Z" fill="white"/>
<path d="M150.503 101.186L144.054 56.147L157.67 53.9335L164.119 98.9724L150.503 101.186Z" fill="white"/>
<path d="M105.958 97.8099L112.079 84.3177C118.685 89.3864 124.831 89.9759 131.109 88.9554C137.032 87.9924 139.918 84.1342 139.37 80.3047C138.866 76.7857 137.39 73.4248 129.844 73.8042C117.981 74.3559 106.351 72.1161 104.039 55.9701C101.846 40.6521 112.097 31.9958 122.176 30.3572C129.692 29.1355 137.621 29.541 144.89 33.5489L140.435 47.2999C133.977 43.9015 127.891 44.3614 124.619 44.8932C117.9 45.9856 117.034 50.045 117.448 52.943C118.1 57.497 121.019 58.2934 131.454 58.5035C141.888 58.7136 151.456 62.3478 153.545 76.9412C155.693 91.9487 144.515 101.709 132.491 103.664C124.18 105.015 115.293 104.871 105.958 97.8099Z" fill="white"/>
<path d="M85.6604 103.854L70.0619 42.3082L105.267 31.2456L108.36 43.4486L84.1742 51.0485L87.3342 63.5168L107.942 57.0412L110.923 68.802L90.3149 75.2777L93.587 88.1881L117.773 80.5882L120.865 92.7912L85.6604 103.854Z" fill="white"/>
<path d="M25.1214 103.456L29.7444 16.9396L57.0275 17.8793C67.271 18.2322 75.7847 23.2577 79.514 34.7186C81.6377 41.143 81.3697 49.8511 80.7985 60.5413C80.1542 72.5988 79.4856 81.4176 76.8615 88.052C71.6333 100.948 61.7616 104.718 50.7301 104.338L25.1214 103.456ZM41.2063 86.824L51.1543 87.1666C61.2993 87.516 64.646 80.2838 65.2438 69.0964L66.0874 53.3098C66.725 41.3765 63.1959 35.4019 53.6419 35.0729L43.9893 34.7404L41.2063 86.824Z" fill="white"/>
<path d="M301.425 26.1512L290.454 17L263 49.9139L295.914 77.3676L323.368 44.4537L301.425 26.1512ZM294.226 57.0869L283.254 47.9357L292.142 37.2807L303.113 46.4319L294.226 57.0869Z" fill="white"/>
</g>
</svg>
