<svg width="306" height="35" viewBox="0 0 306 35" fill="none" xmlns="http://www.w3.org/2000/svg">
<path d="M7.752 27.376H12.6C13.848 27.376 14.872 27.216 15.672 26.896C16.504 26.544 17.16 26.064 17.64 25.456C18.12 24.816 18.456 24.064 18.648 23.2C18.872 22.304 18.984 21.312 18.984 20.224V14.128C18.984 11.824 18.472 10.112 17.448 8.992C16.456 7.84 14.792 7.264 12.456 7.264H7.752V27.376ZM13.656 0.591998C16.152 0.591998 18.408 1.072 20.424 2.032C22.44 2.992 23.976 4.576 25.032 6.784C25.64 8 26.008 9.44 26.136 11.104C26.264 12.768 26.328 14.64 26.328 16.72C26.328 19.056 26.264 21.088 26.136 22.816C26.008 24.544 25.672 26.064 25.128 27.376C24.584 28.624 23.88 29.68 23.016 30.544C22.184 31.376 21.24 32.048 20.184 32.56C19.128 33.072 17.976 33.44 16.728 33.664C15.48 33.888 14.184 34 12.84 34H0.36V0.591998H13.656Z" fill="#D3A7E0"/>
<path d="M29.9869 34V0.591998H53.6029V7.216H37.3789V13.984H51.2029V20.368H37.3789V27.376H53.6029V34H29.9869ZM70.305 34H64.305L52.737 0.591998H60.513L64.785 14.128L67.281 22.624H67.521L69.873 14.272L74.097 0.591998H81.825L70.305 34ZM83.3812 34V0.591998H106.997V7.216H90.7732V13.984H104.597V20.368H90.7732V27.376H106.997V34H83.3812ZM109.539 34V0.591998H116.931V27.376H133.155V34H109.539ZM144.827 0.351998C146.843 0.351998 148.651 0.687999 150.251 1.36C151.883 2 153.259 2.896 154.379 4.048C155.531 5.2 156.411 6.576 157.019 8.176C157.627 9.776 157.931 11.504 157.931 13.36V21.232C157.931 23.216 157.611 25.024 156.971 26.656C156.363 28.256 155.483 29.632 154.331 30.784C153.211 31.904 151.835 32.768 150.203 33.376C148.603 33.984 146.811 34.288 144.827 34.288C142.651 34.288 140.747 33.936 139.115 33.232C137.515 32.528 136.171 31.584 135.083 30.4C134.027 29.184 133.227 27.792 132.683 26.224C132.171 24.624 131.915 22.96 131.915 21.232V13.36C131.915 11.632 132.171 9.984 132.683 8.416C133.227 6.848 134.027 5.472 135.083 4.288C136.171 3.072 137.515 2.112 139.115 1.408C140.747 0.703999 142.651 0.351998 144.827 0.351998ZM144.779 7.264C143.851 7.264 143.051 7.424 142.379 7.744C141.707 8.032 141.147 8.432 140.699 8.944C140.251 9.456 139.915 10.048 139.691 10.72C139.467 11.36 139.355 12.016 139.355 12.688V21.76C139.355 22.496 139.467 23.2 139.691 23.872C139.915 24.544 140.251 25.136 140.699 25.648C141.147 26.16 141.707 26.576 142.379 26.896C143.051 27.216 143.851 27.376 144.779 27.376C146.571 27.376 147.947 26.848 148.907 25.792C149.899 24.704 150.395 23.36 150.395 21.76V12.688C150.395 11.216 149.899 9.952 148.907 8.896C147.947 7.808 146.571 7.264 144.779 7.264ZM186.828 11.344C186.828 12.848 186.524 14.24 185.916 15.52C185.308 16.8 184.476 17.904 183.42 18.832C182.396 19.76 181.18 20.496 179.772 21.04C178.364 21.552 176.86 21.808 175.26 21.808H168.732V34H161.34V0.591998H175.116C176.876 0.591998 178.476 0.847999 179.916 1.36C181.356 1.84 182.588 2.544 183.612 3.472C184.636 4.4 185.42 5.536 185.964 6.88C186.54 8.192 186.828 9.68 186.828 11.344ZM179.34 11.2C179.34 9.856 178.94 8.864 178.14 8.224C177.34 7.552 176.204 7.216 174.732 7.216H168.732V15.184H174.924C176.14 15.184 177.18 14.832 178.044 14.128C178.908 13.392 179.34 12.416 179.34 11.2ZM212.574 34V18.112L212.43 18.064L209.406 24.832L207.15 29.536H201.486L199.134 24.592L196.206 18.064L196.062 18.208V34H188.67V0.591998H195.342L199.854 10.288L204.174 20.32H204.366L208.542 10.288L212.958 0.591998H219.918V34H212.574ZM224.297 34V0.591998H247.913V7.216H231.689V13.984H245.513V20.368H231.689V27.376H247.913V34H224.297ZM271.383 34L262.887 21.712L257.943 13.744L257.847 13.792V34H250.455V0.591998H257.031L264.039 10.816L270.471 20.848L270.567 20.8V0.591998H277.959V34H271.383ZM296.101 7.216V34H288.757V7.216H279.637V0.591998H305.221V7.216H296.101Z" fill="#FBEDFF"/>
</svg>
