<svg width="422" height="35" viewBox="0 0 422 35" fill="none" xmlns="http://www.w3.org/2000/svg">
<path d="M13.264 0.351998C16.464 0.351998 19.12 1.136 21.232 2.704C23.376 4.24 24.864 6.288 25.696 8.848L18.688 11.344C18.432 10.192 17.84 9.232 16.912 8.464C15.984 7.664 14.752 7.264 13.216 7.264C12.288 7.264 11.488 7.424 10.816 7.744C10.144 8.032 9.584 8.432 9.136 8.944C8.688 9.456 8.352 10.048 8.128 10.72C7.904 11.36 7.792 12.016 7.792 12.688V21.76C7.792 22.496 7.904 23.2 8.128 23.872C8.352 24.544 8.688 25.152 9.136 25.696C9.584 26.208 10.144 26.624 10.816 26.944C11.52 27.264 12.336 27.424 13.264 27.424C14.064 27.424 14.8 27.28 15.472 26.992C16.176 26.672 16.784 26.256 17.296 25.744C17.84 25.232 18.256 24.64 18.544 23.968C18.864 23.296 19.024 22.576 19.024 21.808V21.568H12.208V15.424H26.32V22.096C26.32 23.856 25.968 25.488 25.264 26.992C24.592 28.464 23.664 29.744 22.48 30.832C21.296 31.92 19.904 32.768 18.304 33.376C16.736 33.984 15.056 34.288 13.264 34.288C11.088 34.288 9.184 33.968 7.552 33.328C5.952 32.688 4.608 31.792 3.52 30.64C2.464 29.488 1.664 28.112 1.12 26.512C0.608 24.912 0.352 23.152 0.352 21.232V13.36C0.352 11.632 0.608 9.984 1.12 8.416C1.664 6.848 2.464 5.472 3.52 4.288C4.608 3.072 5.952 2.112 7.552 1.408C9.184 0.703999 11.088 0.351998 13.264 0.351998Z" fill="#D3A7E0"/>
<path d="M47.4745 34L42.1945 21.088H37.3945V34H30.0025V0.591998H44.7865C46.2585 0.591998 47.6345 0.815998 48.9145 1.264C50.2265 1.712 51.3785 2.368 52.3705 3.232C53.3625 4.064 54.1465 5.104 54.7225 6.352C55.2985 7.6 55.5865 9.024 55.5865 10.624C55.5865 12.64 55.0585 14.464 54.0025 16.096C52.9785 17.696 51.4585 18.928 49.4425 19.792L55.8265 34H47.4745ZM47.9065 10.672C47.9065 9.424 47.5225 8.528 46.7545 7.984C45.9865 7.44 44.9785 7.168 43.7305 7.168H37.3945V14.464H43.4905C44.8345 14.464 45.9065 14.144 46.7065 13.504C47.5065 12.864 47.9065 11.92 47.9065 10.672ZM79.891 34L77.395 27.184H66.211L63.715 34H55.939L68.899 0.591998H74.707L87.667 34H79.891ZM73.843 17.104L71.875 10.48H71.683L69.763 17.008L68.515 20.944H75.091L73.843 17.104ZM114.65 11.344C114.65 12.848 114.346 14.24 113.738 15.52C113.13 16.8 112.298 17.904 111.242 18.832C110.218 19.76 109.002 20.496 107.594 21.04C106.186 21.552 104.682 21.808 103.082 21.808H96.5545V34H89.1625V0.591998H102.938C104.698 0.591998 106.298 0.847999 107.738 1.36C109.178 1.84 110.41 2.544 111.434 3.472C112.458 4.4 113.242 5.536 113.786 6.88C114.362 8.192 114.65 9.68 114.65 11.344ZM107.162 11.2C107.162 9.856 106.762 8.864 105.962 8.224C105.162 7.552 104.026 7.216 102.554 7.216H96.5545V15.184H102.746C103.962 15.184 105.002 14.832 105.866 14.128C106.73 13.392 107.162 12.416 107.162 11.2ZM134.829 34V20.368H123.885V34H116.492V0.591998H123.885V13.984H134.829V0.591998H142.125V34H134.829ZM147.06 34V0.591998H154.452V34H147.06ZM183.25 25.888C182.418 28.512 180.914 30.576 178.738 32.08C176.594 33.552 173.954 34.288 170.818 34.288C168.642 34.288 166.738 33.968 165.106 33.328C163.506 32.688 162.162 31.792 161.074 30.64C160.018 29.488 159.218 28.112 158.674 26.512C158.162 24.912 157.906 23.152 157.906 21.232V13.36C157.906 11.632 158.162 9.984 158.674 8.416C159.218 6.848 160.018 5.472 161.074 4.288C162.162 3.072 163.506 2.112 165.106 1.408C166.738 0.703999 168.642 0.351998 170.818 0.351998C174.018 0.351998 176.674 1.136 178.786 2.704C180.93 4.24 182.418 6.288 183.25 8.848L176.242 11.344C175.986 10.192 175.394 9.232 174.466 8.464C173.538 7.664 172.306 7.264 170.77 7.264C169.842 7.264 169.042 7.424 168.37 7.744C167.698 8.032 167.138 8.432 166.69 8.944C166.242 9.456 165.906 10.048 165.682 10.72C165.458 11.36 165.346 12.016 165.346 12.688V21.76C165.346 22.496 165.458 23.2 165.682 23.872C165.906 24.544 166.242 25.136 166.69 25.648C167.138 26.16 167.698 26.576 168.37 26.896C169.042 27.216 169.842 27.376 170.77 27.376C172.274 27.376 173.49 26.992 174.418 26.224C175.378 25.424 175.986 24.416 176.242 23.2L183.25 25.888ZM205.119 9.328C204.319 8.816 203.519 8.416 202.719 8.128C201.951 7.84 201.199 7.616 200.463 7.456C199.759 7.296 199.103 7.2 198.495 7.168C197.887 7.104 197.359 7.072 196.911 7.072C195.983 7.072 195.231 7.168 194.655 7.36C194.111 7.552 193.663 7.808 193.311 8.128C192.991 8.448 192.767 8.8 192.639 9.184C192.543 9.536 192.495 9.872 192.495 10.192C192.495 10.736 192.591 11.184 192.783 11.536C193.007 11.888 193.375 12.192 193.887 12.448C194.431 12.704 195.151 12.928 196.047 13.12C196.975 13.312 198.127 13.52 199.503 13.744C200.879 13.968 202.191 14.304 203.439 14.752C204.687 15.168 205.775 15.76 206.703 16.528C207.663 17.296 208.415 18.272 208.959 19.456C209.535 20.608 209.823 22.032 209.823 23.728C209.823 25.456 209.439 26.992 208.671 28.336C207.903 29.648 206.895 30.752 205.647 31.648C204.431 32.512 203.023 33.168 201.423 33.616C199.855 34.064 198.255 34.288 196.623 34.288C195.503 34.288 194.367 34.224 193.215 34.096C192.063 34 190.911 33.792 189.759 33.472C188.607 33.12 187.455 32.64 186.303 32.032C185.183 31.424 184.079 30.64 182.991 29.68L187.263 24.016C188.831 25.424 190.415 26.368 192.015 26.848C193.615 27.296 195.279 27.52 197.007 27.52C198.639 27.52 199.887 27.2 200.751 26.56C201.615 25.888 202.047 25.104 202.047 24.208C202.047 23.792 201.999 23.392 201.903 23.008C201.807 22.624 201.599 22.272 201.279 21.952C200.959 21.6 200.495 21.312 199.887 21.088C199.279 20.832 198.479 20.656 197.487 20.56C195.887 20.4 194.351 20.144 192.879 19.792C191.407 19.44 190.095 18.896 188.943 18.16C187.791 17.392 186.863 16.416 186.159 15.232C185.487 14.016 185.151 12.464 185.151 10.576C185.151 8.816 185.487 7.296 186.159 6.016C186.863 4.704 187.759 3.632 188.847 2.8C189.967 1.936 191.215 1.312 192.591 0.927999C193.967 0.511999 195.343 0.303999 196.719 0.303999C198.767 0.303999 200.799 0.527999 202.815 0.975999C204.831 1.424 206.735 2.24 208.527 3.424L205.119 9.328ZM241.744 31.264C240.592 32.224 239.344 32.976 238 33.52C236.688 34.032 235.296 34.288 233.824 34.288C232.096 34.288 230.592 34.048 229.312 33.568C228.064 33.056 227.024 32.384 226.192 31.552C225.392 30.72 224.8 29.76 224.416 28.672C224.032 27.584 223.84 26.448 223.84 25.264C223.84 23.28 224.288 21.504 225.184 19.936C226.08 18.336 227.504 16.816 229.456 15.376L228.832 14.608C228.224 13.872 227.696 13.024 227.248 12.064C226.832 11.104 226.624 9.984 226.624 8.704C226.624 6.208 227.36 4.192 228.832 2.656C230.336 1.12 232.656 0.351998 235.792 0.351998C237.168 0.351998 238.672 0.575998 240.304 1.024C241.968 1.44 243.584 2.32 245.152 3.664L241.456 8.752C240.24 7.728 239.184 7.088 238.288 6.832C237.424 6.544 236.576 6.4 235.744 6.4C234.944 6.4 234.288 6.624 233.776 7.072C233.264 7.488 233.008 8.016 233.008 8.656C233.008 9.2 233.088 9.648 233.248 10C233.44 10.352 233.76 10.832 234.208 11.44L241.792 21.424C242.048 20.816 242.272 20.112 242.464 19.312C242.688 18.512 242.864 17.696 242.992 16.864L249.04 18.448C248.784 19.888 248.384 21.36 247.84 22.864C247.296 24.336 246.656 25.632 245.92 26.752L251.728 34H243.808L241.744 31.264ZM233.056 20.128C232.192 20.768 231.488 21.52 230.944 22.384C230.4 23.216 230.128 24.096 230.128 25.024C230.128 25.92 230.448 26.672 231.088 27.28C231.728 27.888 232.672 28.192 233.92 28.192C234.688 28.192 235.424 28.032 236.128 27.712C236.832 27.392 237.472 27.008 238.048 26.56L233.056 20.128ZM289.378 34V18.112L289.234 18.064L286.21 24.832L283.954 29.536H278.29L275.938 24.592L273.01 18.064L272.866 18.208V34H265.474V0.591998H272.146L276.658 10.288L280.978 20.32H281.17L285.346 10.288L289.762 0.591998H296.722V34H289.378ZM312.621 0.351998C314.637 0.351998 316.445 0.687999 318.045 1.36C319.677 2 321.053 2.896 322.173 4.048C323.325 5.2 324.205 6.576 324.813 8.176C325.421 9.776 325.725 11.504 325.725 13.36V21.232C325.725 23.216 325.405 25.024 324.765 26.656C324.157 28.256 323.277 29.632 322.125 30.784C321.005 31.904 319.629 32.768 317.997 33.376C316.397 33.984 314.605 34.288 312.621 34.288C310.445 34.288 308.541 33.936 306.909 33.232C305.309 32.528 303.965 31.584 302.877 30.4C301.821 29.184 301.021 27.792 300.477 26.224C299.965 24.624 299.709 22.96 299.709 21.232V13.36C299.709 11.632 299.965 9.984 300.477 8.416C301.021 6.848 301.821 5.472 302.877 4.288C303.965 3.072 305.309 2.112 306.909 1.408C308.541 0.703999 310.445 0.351998 312.621 0.351998ZM312.573 7.264C311.645 7.264 310.845 7.424 310.173 7.744C309.501 8.032 308.941 8.432 308.493 8.944C308.045 9.456 307.709 10.048 307.485 10.72C307.261 11.36 307.149 12.016 307.149 12.688V21.76C307.149 22.496 307.261 23.2 307.485 23.872C307.709 24.544 308.045 25.136 308.493 25.648C308.941 26.16 309.501 26.576 310.173 26.896C310.845 27.216 311.645 27.376 312.573 27.376C314.365 27.376 315.741 26.848 316.701 25.792C317.693 24.704 318.189 23.36 318.189 21.76V12.688C318.189 11.216 317.693 9.952 316.701 8.896C315.741 7.808 314.365 7.264 312.573 7.264ZM342.622 7.216V34H335.278V7.216H326.158V0.591998H351.742V7.216H342.622ZM354.03 34V0.591998H361.422V34H354.03ZM377.596 0.351998C379.612 0.351998 381.42 0.687999 383.02 1.36C384.652 2 386.028 2.896 387.148 4.048C388.3 5.2 389.18 6.576 389.788 8.176C390.396 9.776 390.7 11.504 390.7 13.36V21.232C390.7 23.216 390.38 25.024 389.74 26.656C389.132 28.256 388.252 29.632 387.1 30.784C385.98 31.904 384.604 32.768 382.972 33.376C381.372 33.984 379.58 34.288 377.596 34.288C375.42 34.288 373.516 33.936 371.884 33.232C370.284 32.528 368.94 31.584 367.852 30.4C366.796 29.184 365.996 27.792 365.452 26.224C364.94 24.624 364.684 22.96 364.684 21.232V13.36C364.684 11.632 364.94 9.984 365.452 8.416C365.996 6.848 366.796 5.472 367.852 4.288C368.94 3.072 370.284 2.112 371.884 1.408C373.516 0.703999 375.42 0.351998 377.596 0.351998ZM377.548 7.264C376.62 7.264 375.82 7.424 375.148 7.744C374.476 8.032 373.916 8.432 373.468 8.944C373.02 9.456 372.684 10.048 372.46 10.72C372.236 11.36 372.124 12.016 372.124 12.688V21.76C372.124 22.496 372.236 23.2 372.46 23.872C372.684 24.544 373.02 25.136 373.468 25.648C373.916 26.16 374.476 26.576 375.148 26.896C375.82 27.216 376.62 27.376 377.548 27.376C379.34 27.376 380.716 26.848 381.676 25.792C382.668 24.704 383.164 23.36 383.164 21.76V12.688C383.164 11.216 382.668 9.952 381.676 8.896C380.716 7.808 379.34 7.264 377.548 7.264ZM415.037 34L406.541 21.712L401.597 13.744L401.501 13.792V34H394.109V0.591998H400.685L407.693 10.816L414.125 20.848L414.221 20.8V0.591998H421.613V34H415.037Z" fill="#FBEDFF"/>
</svg>
