<svg width="303" height="152" viewBox="0 0 303 152" fill="none" xmlns="http://www.w3.org/2000/svg">
<path d="M191.262 43H303V152H191.262V43Z" fill="#6F5577"/>
<mask id="mask0_70_1889" style="mask-type:alpha" maskUnits="userSpaceOnUse" x="0" y="0" width="303" height="110">
<path d="M0 0H302.929V109.01H0V0Z" fill="#D3A7E0"/>
</mask>
<g mask="url(#mask0_70_1889)">
<path d="M0 0H302.929V109.01H0V0Z" fill="#D3A7E0"/>
<path d="M205.559 110.545V-3.07071H261.199V19.4566H222.975V42.4737H255.544V64.1848H222.975V88.0181H261.199V110.545H205.559Z" fill="white"/>
<path d="M136.009 110.545V-3.07071H152.179L163.114 29.9041L173.584 64.0216H174.049L184.17 29.9041L194.873 -3.07071H211.741V110.545H193.942V56.5125L193.593 56.3492L186.264 79.3663L180.797 95.364H167.069L161.369 78.5501L154.273 56.3492L153.924 56.839V110.545H136.009Z" fill="white"/>
<path d="M79.5835 79.8756L77.994 58.9831C76.5982 40.6385 85.5829 22.9542 106.595 19.8579C126.097 16.9839 139.401 29.8379 140.913 49.7112L142.503 70.6037C144.111 91.751 132.601 107.102 113.447 109.925C92.4355 113.021 80.9889 98.3476 79.5835 79.8756ZM124.384 74.6908L122.552 50.6135C121.96 42.8425 116.465 36.9537 107.874 38.2196C98.9356 39.5368 95.2992 47.2866 95.8517 54.548L97.6836 78.6253C98.2651 86.2689 102.997 92.9145 111.935 91.5973C120.526 90.3314 125.023 83.0987 124.384 74.6908Z" fill="white"/>
<path d="M21.6378 110.545V-1.53535H39.4667V43.3936H65.8627V-1.53535H83.46V110.545H65.8627V64.8113H39.4667V110.545H21.6378Z" fill="white"/>
<path d="M309.253 30.7071L297.59 19.1214L262.602 53.8785L297.59 88.6355L332.578 53.8785L309.253 30.7071ZM297.758 65.2971L286.096 53.7115L297.422 42.4598L309.085 54.0455L297.758 65.2971Z" fill="white"/>
</g>
</svg>
