<svg width="175" height="59" fill="none" xmlns="http://www.w3.org/2000/svg"><mask id="a" maskUnits="userSpaceOnUse" x="-.193" y="-.045" width="178.788" height="60.919" fill="#000"><path fill="#fff" d="M-.193-.045h178.788v60.919H-.193z"/><path d="M1.99 44.533 13.52 1.507l9.818.859-11.529 43.026-9.818-.859zM45.788 48.365l-7.045-16.813-3.817-10.837-.144.051-6.973 26.026-9.819-.86L29.519 2.908l8.734.764 5.78 13.982 5.082 13.667.144-.05 6.974-26.026 9.818.859-11.529 43.026-8.734-.764zm42.075-31.623L78.62 51.237l-9.755-.853 9.243-34.495-12.114-1.06 2.286-8.531 33.982 2.973-2.285 8.531-12.114-1.06zm28.926 37.835-2.558-17.243-6.375-.558-4.456 16.63-9.819-.86L105.11 9.52l19.637 1.718c1.955.171 3.706.62 5.251 1.345 1.588.73 2.892 1.708 3.912 2.936 1.03 1.187 1.713 2.618 2.047 4.292.334 1.674.225 3.542-.327 5.602-.695 2.597-2.026 4.884-3.992 6.864-1.912 1.941-4.356 3.351-7.332 4.23l3.576 19.04-11.093-.97zm8.624-29.994c.43-1.608.23-2.806-.603-3.596-.832-.79-2.077-1.257-3.735-1.402l-8.416-.737-2.518 9.397 8.098.708c1.785.156 3.319-.131 4.602-.862 1.284-.732 2.141-1.901 2.572-3.508zm34.122-10.618c2.678.235 4.964.877 6.857 1.929 1.947 1.014 3.465 2.328 4.555 3.941 1.133 1.618 1.827 3.492 2.082 5.624.256 2.13.063 4.392-.577 6.782l-2.717 10.139c-.684 2.555-1.733 4.846-3.147 6.873a19.432 19.432 0 0 1-4.931 5.01c-1.874 1.312-4 2.265-6.377 2.859-2.335.597-4.82.78-7.456.55-2.89-.253-5.298-.928-7.222-2.024-1.883-1.093-3.342-2.465-4.379-4.116-.983-1.689-1.565-3.575-1.746-5.657-.128-2.12.106-4.293.702-6.519l2.717-10.138a23.124 23.124 0 0 1 2.726-6.278 20.141 20.141 0 0 1 4.612-5.038c1.865-1.44 3.982-2.52 6.35-3.24 2.411-.718 5.061-.95 7.951-.697zm-2.449 8.897c-1.232-.108-2.35.005-3.353.339a7.808 7.808 0 0 0-2.646 1.35 8.539 8.539 0 0 0-1.952 2.17 8.714 8.714 0 0 0-1.125 2.496l-3.131 11.684a8.256 8.256 0 0 0-.282 2.759c.065.891.307 1.693.726 2.404.418.712 1.018 1.313 1.801 1.803.782.49 1.789.79 3.022.897 2.38.208 4.39-.312 6.029-1.56 1.694-1.286 2.816-2.96 3.368-5.02l3.131-11.684c.508-1.896.285-3.581-.668-5.057-.9-1.513-2.539-2.373-4.92-2.581z"/></mask><path d="M1.99 44.533 13.52 1.507l9.818.859-11.529 43.026-9.818-.859z" fill="#D3A7E0"/><path d="m45.788 48.365-7.045-16.813-3.817-10.837-.144.051-6.973 26.026-9.819-.86L29.519 2.908l8.734.764 5.78 13.982 5.082 13.667.144-.05 6.974-26.026 9.818.859-11.529 43.026-8.734-.764zm42.075-31.623L78.62 51.237l-9.755-.853 9.243-34.495-12.114-1.06 2.286-8.531 33.982 2.973-2.285 8.531-12.114-1.06zm28.926 37.835-2.558-17.243-6.375-.558-4.456 16.63-9.819-.86L105.11 9.52l19.637 1.718c1.955.171 3.706.62 5.251 1.345 1.588.73 2.892 1.708 3.912 2.936 1.03 1.187 1.713 2.618 2.047 4.292.334 1.674.225 3.542-.327 5.602-.695 2.597-2.026 4.884-3.992 6.864-1.912 1.941-4.356 3.351-7.332 4.23l3.576 19.04-11.093-.97zm8.624-29.994c.43-1.608.23-2.806-.603-3.596-.832-.79-2.077-1.257-3.735-1.402l-8.416-.737-2.518 9.397 8.098.708c1.785.156 3.319-.131 4.602-.862 1.284-.732 2.141-1.901 2.572-3.508zm34.122-10.618c2.678.235 4.964.877 6.857 1.929 1.947 1.014 3.465 2.328 4.555 3.941 1.133 1.618 1.827 3.492 2.082 5.624.256 2.13.063 4.392-.577 6.782l-2.717 10.139c-.684 2.555-1.733 4.846-3.147 6.873a19.432 19.432 0 0 1-4.931 5.01c-1.874 1.312-4 2.265-6.377 2.859-2.335.597-4.82.78-7.456.55-2.89-.253-5.298-.928-7.222-2.024-1.883-1.093-3.342-2.465-4.379-4.116-.983-1.689-1.565-3.575-1.746-5.657-.128-2.12.106-4.293.702-6.519l2.717-10.138a23.124 23.124 0 0 1 2.726-6.278 20.141 20.141 0 0 1 4.612-5.038c1.865-1.44 3.982-2.52 6.35-3.24 2.411-.718 5.061-.95 7.951-.697zm-2.449 8.897c-1.232-.108-2.35.005-3.353.339a7.808 7.808 0 0 0-2.646 1.35 8.539 8.539 0 0 0-1.952 2.17 8.714 8.714 0 0 0-1.125 2.496l-3.131 11.684a8.256 8.256 0 0 0-.282 2.759c.065.891.307 1.693.726 2.404.418.712 1.018 1.313 1.801 1.803.782.49 1.789.79 3.022.897 2.38.208 4.39-.312 6.029-1.56 1.694-1.286 2.816-2.96 3.368-5.02l3.131-11.684c.508-1.896.285-3.581-.668-5.057-.9-1.513-2.539-2.373-4.92-2.581z" fill="#FBEDFF"/><path d="m1.99 44.533-.996-.087-.258.966.996.087.259-.966zM13.52 1.507l.258-.966-.996-.087-.259.966.996.087zm9.818.859.996.087.259-.966-.996-.087-.26.966zM11.809 45.392l-.259.966.996.087.26-.966-.997-.087zm-9.818-.859.996.087L14.516 1.594l-.997-.087-.996-.087L.994 44.446l.997.087zM13.519 1.507l-.258.966 9.818.859.259-.966.259-.966-9.819-.859-.259.966zm9.819.859-.996-.087-11.53 43.026.997.087.996.087 11.53-43.026-.997-.087zM11.809 45.392l.259-.966-9.819-.859-.258.966-.26.966 9.82.859.258-.966zm33.979 2.973-.967.477.186.443.522.046.259-.966zm-7.045-16.813-.983.435.008.022.009.02.966-.477zm-3.817-10.837.983-.435-.278-.79-.919.322.214.903zm-.144.051-.214-.903-.622.219-.16.597.996.087zM27.81 46.792l-.26.966.997.087.259-.966-.997-.087zm-9.819-.86-.996-.086-.259.966.996.087.259-.966zM29.519 2.908l.259-.966-.997-.087-.258.966.996.087zm8.734.764.968-.474-.184-.446-.525-.046-.259.966zm5.78 13.982.979-.448-.005-.013-.005-.014-.968.475zm5.082 13.667-.978.448.287.773.905-.318-.214-.903zm.144-.05.214.903.622-.22.16-.596-.996-.087zm6.974-26.026.259-.966-.997-.087-.258.966.996.087zm9.818.859.996.087.26-.966-.997-.087-.259.966zM54.522 49.129l-.258.966.996.087.259-.966-.997-.087zm-8.734-.764.966-.478-7.044-16.813-.967.478-.966.477 7.044 16.813.967-.477zm-7.045-16.813.983-.435L35.91 20.28l-.983.435-.983.436 3.817 10.836.983-.435zm-3.817-10.837-.214-.903-.144.051.214.903.214.903.144-.05-.214-.904zm-.144.051-.996-.087-6.974 26.026.996.087.997.087 6.973-26.026-.996-.087zM27.81 46.792l.258-.966-9.818-.859-.259.966-.259.966 9.819.859.258-.966zm-9.819-.86.996.088L30.515 2.994l-.996-.087-.996-.087-11.53 43.026.997.087zM29.519 2.908l-.259.966 8.735.764.258-.966.26-.966-8.735-.764-.26.966zm8.734.764-.968.474 5.78 13.982.969-.474.968-.474-5.78-13.982-.969.474zm5.78 13.982-.978.448 5.082 13.667.978-.448.978-.448-5.081-13.667-.978.448zm5.082 13.667.214.903.144-.05-.214-.903-.214-.903-.144.05.214.903zm.144-.05.996.087L57.23 5.33l-.996-.087-.996-.087-6.974 26.026.996.087zm6.974-26.026-.26.966 9.82.859.258-.966.26-.966-9.82-.86-.258.967zm9.818.859-.996-.087-11.529 43.026.996.087.997.087L67.048 6.19l-.997-.087zM54.522 49.129l.26-.966-8.735-.764-.26.966-.258.966 8.735.764.258-.966zm33.34-32.387.26-.966-.997-.087-.258.966.996.087zM78.62 51.237l-.259.966.996.087.26-.965-.997-.088zm-9.755-.853-.996-.087-.259.966.996.087.26-.966zm9.243-34.495.996.087.26-.966-.997-.087-.259.966zm-12.114-1.06-.996-.087-.259.966.996.087.26-.966zm2.286-8.531.26-.966-.997-.087-.259.966.996.087zm33.982 2.973.997.087.258-.966-.996-.087-.259.966zm-2.285 8.531-.26.966.997.087.259-.966-.996-.087zm-12.114-1.06-.996-.087-9.243 34.495.996.087.996.087L88.86 16.83l-.996-.087zM78.62 51.237l.259-.966-9.755-.853-.259.966-.259.966 9.755.853.259-.966zm-9.755-.853.996.087 9.243-34.495-.996-.087-.996-.087-9.243 34.495.996.087zm9.243-34.495.259-.966-12.114-1.06-.259.966-.258.966 12.113 1.06.26-.966zm-12.114-1.06.997.087 2.285-8.531-.996-.087-.996-.087-2.286 8.53.996.088zm2.286-8.531-.259.966 33.983 2.973.258-.966.259-.966-33.982-2.973-.259.966zm33.982 2.973-.996-.087-2.286 8.53.997.088.996.087 2.286-8.53-.997-.088zm-2.285 8.531.258-.966-12.113-1.06-.26.966-.258.966 12.114 1.06.259-.966zm16.812 36.775-1.02.285.092.622.669.059.259-.966zm-2.558-17.243 1.02-.285-.092-.623-.669-.058-.259.966zm-6.375-.558.258-.966-.996-.087-.259.966.997.087zm-4.456 16.63-.259.965.996.087.259-.966-.996-.087zm-9.819-.86-.996-.087-.259.966.996.087.26-.966zM105.11 9.52l.259-.966-.996-.087-.259.966.996.087zm24.888 3.063-.573.883.006.003.567-.886zm3.912 2.936-.85.672.005.006.006.006.839-.684zm2.047 4.292 1.013-.326-1.013.326zm-4.319 12.466-.696-.598-.004.004.7.594zm-7.332 4.23-.155-.922-1.035.305.175.933 1.015-.316zm3.576 19.04-.259.966 1.54.135-.266-1.417-1.015.316zm-3.072-34.56.787-.738-.787.738zm-12.151-2.139.259-.966-.996-.087-.259.966.996.087zm-2.518 9.397-.996-.087-.259.966.997.087.258-.966zm6.648 26.332 1.02-.285-2.558-17.243-1.02.285-1.02.285 2.558 17.243 1.02-.285zm-2.558-17.243.259-.966-6.376-.558-.258.966-.259.966 6.375.558.259-.966zm-6.375-.558-.997-.087-4.455 16.63.996.086.996.087 4.456-16.629-.996-.087zm-4.456 16.63.259-.967-9.819-.859-.259.966-.259.966 9.819.86.259-.967zm-9.819-.86.996.087 11.529-43.026-.996-.087-.996-.087-11.529 43.026.996.087zM105.11 9.52l-.259.966 19.637 1.718.259-.966.259-.966-19.637-1.718-.259.966zm19.637 1.718-.259.966c1.853.162 3.495.585 4.937 1.262l.573-.883.574-.883c-1.65-.774-3.508-1.248-5.566-1.428l-.259.966zm5.251 1.345-.567.886c1.483.681 2.689 1.59 3.629 2.722l.85-.672.849-.67c-1.099-1.324-2.501-2.374-4.194-3.152l-.567.886zm3.912 2.936-.839.684c.937 1.08 1.564 2.386 1.873 3.934l1.013-.326 1.013-.326c-.36-1.8-1.098-3.355-2.222-4.65l-.838.684zm2.047 4.292-1.013.326c.304 1.522.211 3.245-.31 5.19l.996.086.996.087c.584-2.177.709-4.188.344-6.015l-1.013.326zm-.327 5.602-.996-.087c-.648 2.418-1.878 4.526-3.692 6.353l.696.598.696.598c2.117-2.132 3.549-4.6 4.292-7.375l-.996-.087zm-3.992 6.864-.7-.594c-1.738 1.765-3.982 3.074-6.787 3.902l.155.922.154.922c3.148-.93 5.792-2.44 7.878-4.558l-.7-.594zm-7.332 4.23-1.015.316 3.576 19.04 1.015-.316 1.015-.316-3.577-19.04-1.014.316zm3.576 19.04.259-.966-11.094-.97-.258.966-.259.966 11.093.97.259-.966zm-2.469-30.964.996.087c.484-1.809.303-3.363-.812-4.42l-.787.737-.787.738c.55.522.77 1.364.394 2.77l.996.088zm-.603-3.596.787-.738c-1.008-.957-2.466-1.473-4.263-1.63l-.259.966-.259.965c1.518.133 2.551.552 3.207 1.175l.787-.738zm-3.735-1.402.259-.966-8.416-.737-.259.966-.259.966 8.416.736.259-.965zm-8.416-.737-.996-.087-2.518 9.397.996.087.997.087 2.517-9.396-.996-.088zm-2.518 9.397-.258.966 8.097.708.259-.966.258-.966-8.097-.708-.259.966zm8.098.708-.259.966c1.94.17 3.726-.134 5.282-1.02l-.421-.808-.42-.81c-1.011.577-2.294.849-3.924.706l-.258.966zm4.602-.862.421.808c1.631-.93 2.657-2.4 3.147-4.23l-.996-.086-.996-.087c-.372 1.384-1.06 2.253-1.996 2.786l.42.809zm43.551-12.197-.624.857.009.005.01.005.605-.867zm4.555 3.941-.894.611.007.01.887-.62zm2.082 5.624 1.024-.262-1.024.262zm-6.441 23.795-.833-.434-.006.009.839.425zm-4.931 5.01-.521-.745.521.744zm-6.377 2.858-.106-.936-.006.002.112.934zm-14.678-1.474-.638.849.005.003.633-.852zm-4.379-4.116-.921.567.006.011.007.011.908-.59zm-1.746-5.657-1.028.211.001.011.001.012 1.026-.234zm6.145-22.935-.856-.4-.005.009-.006.008.867.383zm4.612-5.038-.569-.709-.002.001.571.708zm6.35-3.24-.157-.922-.007.002.164.92zm2.149 8.539.154.922.02-.006.02-.006-.194-.91zm-2.646 1.35.579.702-.579-.702zm-1.952 2.17.855.402.004-.007.005-.006-.864-.389zm-2.011 21.146-.662.835.662-.835zm9.051-.663-.561-.716-.002.001.563.715zm5.831-21.76-.918.573.007.012.008.012.903-.598zm-2.471-11.479-.259.966c2.567.225 4.723.838 6.492 1.82l.624-.857.624-.857c-2.018-1.12-4.433-1.794-7.222-2.038l-.259.966zm6.857 1.929-.605.867c1.839.958 3.254 2.188 4.266 3.685l.894-.61.895-.611c-1.169-1.731-2.791-3.129-4.845-4.199l-.605.868zm4.555 3.941-.887.622c1.055 1.507 1.706 3.257 1.946 5.263l1.023-.261 1.024-.262c-.271-2.256-1.008-4.255-2.218-5.983l-.888.621zm2.082 5.624-1.023.261c.241 2.009.061 4.15-.55 6.434l.996.087.996.087c.669-2.497.875-4.877.605-7.131l-1.024.262zm-.577 6.782-.996-.087-2.717 10.138.996.087.996.088 2.717-10.139-.996-.087zm-2.717 10.139-.996-.088c-.656 2.45-1.655 4.622-2.984 6.528l.833.434.833.433c1.498-2.149 2.598-4.56 3.31-7.22l-.996-.087zm-3.147 6.873-.839-.424a18.189 18.189 0 0 1-4.613 4.69l.521.744.522.745a20.723 20.723 0 0 0 5.249-5.33l-.84-.424zm-4.931 5.01-.521-.744c-1.735 1.214-3.716 2.107-5.962 2.667l.106.936.105.935c2.51-.626 4.78-1.64 6.794-3.05l-.522-.744zm-6.377 2.859-.112-.934c-2.193.56-4.552.74-7.085.518l-.259.965-.259.966c2.738.24 5.349.052 7.827-.581l-.112-.934zm-7.456.55.259-.966c-2.784-.244-5.057-.89-6.849-1.91l-.632.852-.633.852c2.058 1.172 4.6 1.875 7.596 2.137l.259-.965zm-7.222-2.024.638-.85c-1.781-1.033-3.144-2.32-4.108-3.856l-.909.59-.908.59c1.109 1.766 2.664 3.223 4.649 4.375l.638-.85zm-4.379-4.116.922-.568c-.923-1.585-1.471-3.357-1.642-5.324l-1.026.235-1.026.234c.191 2.199.807 4.198 1.851 5.99l.921-.567zm-1.746-5.657 1.027-.212c-.121-2.02.101-4.091.671-6.22l-.996-.087-.996-.087c-.622 2.323-.868 4.596-.734 6.817l1.028-.211zm.702-6.519.996.087 2.717-10.138-.996-.087-.996-.087-2.717 10.138.996.087zm2.717-10.138.996.087a22.02 22.02 0 0 1 2.597-5.983l-.867-.382-.867-.383a24.227 24.227 0 0 0-2.855 6.574l.996.087zm2.726-6.278.856.399a18.891 18.891 0 0 1 4.328-4.729l-.572-.708-.571-.708a21.379 21.379 0 0 0-4.897 5.347l.856.399zm4.612-5.038.57.71c1.734-1.34 3.71-2.351 5.944-3.031l-.164-.92-.164-.919c-2.503.762-4.76 1.91-6.755 3.451l.569.71zm6.35-3.24.157.921c2.245-.668 4.751-.895 7.535-.652l.259-.966.259-.966c-2.996-.262-5.79-.025-8.367.741l.157.921zm5.502 8.2.259-.966c-1.345-.118-2.621 0-3.807.395l.195.91.194.91c.821-.274 1.78-.381 2.9-.283l.259-.966zm-3.353.339-.155-.922a9.076 9.076 0 0 0-3.07 1.57l.579.702.579.702c.636-.5 1.37-.879 2.221-1.13l-.154-.922zm-2.646 1.35-.579-.701a9.79 9.79 0 0 0-2.236 2.483l.863.388.864.389a7.28 7.28 0 0 1 1.667-1.857l-.579-.702zm-1.952 2.17-.854-.4a9.778 9.778 0 0 0-1.267 2.809l.996.087.996.087c.203-.756.53-1.481.984-2.181l-.855-.402zm-1.125 2.496-.996-.087-3.131 11.684.996.087.997.087 3.13-11.684-.996-.087zm-3.131 11.684-.996-.087a9.177 9.177 0 0 0-.313 3.069l1.027-.223 1.027-.223a7.31 7.31 0 0 1 .252-2.449l-.997-.087zm-.282 2.759-1.027.223c.074 1.011.351 1.932.833 2.752l.92-.57.92-.571c-.355-.603-.562-1.285-.619-2.057l-1.027.223zm.726 2.404-.92.57c.487.829 1.179 1.516 2.059 2.068l.662-.835.662-.835c-.685-.429-1.193-.943-1.543-1.538l-.92.57zm1.801 1.803-.662.835c.924.579 2.08.91 3.425 1.028l.259-.966.259-.966c-1.12-.098-1.98-.365-2.619-.766l-.662.835zm3.022.897-.259.966c2.584.226 4.91-.334 6.851-1.812l-.563-.714-.563-.715c-1.337 1.019-3.031 1.5-5.207 1.309l-.259.966zm6.029-1.56.562.715c1.928-1.464 3.192-3.37 3.803-5.648l-.997-.087-.996-.087c-.494 1.842-1.475 3.283-2.933 4.391l.561.716zm3.368-5.02.997.087 3.13-11.684-.996-.087-.996-.087-3.131 11.684.996.087zm3.131-11.684.996.087c.573-2.137.32-4.069-.761-5.742l-.903.598-.903.598c.825 1.278 1.018 2.717.575 4.372l.996.087zm-.668-5.057.918-.574c-1.063-1.788-2.986-2.746-5.579-2.973l-.259.966-.259.966c2.168.19 3.525.952 4.261 2.189l.918-.574z" fill="#000" mask="url(#a)"/></svg>