<svg width="175" height="59" viewBox="0 0 175 59" fill="none" xmlns="http://www.w3.org/2000/svg">
<mask id="path-1-outside-1_70_2098" maskUnits="userSpaceOnUse" x="-0.192692" y="-0.0451999" width="178.788" height="60.9195" fill="black">
<rect fill="white" x="-0.192692" y="-0.0451999" width="178.788" height="60.9195"/>
<path d="M1.99058 44.5331L13.5194 1.50691L23.3379 2.36592L11.8091 45.3921L1.99058 44.5331Z"/>
<path d="M45.7878 48.3649L38.7434 31.5518L34.9262 20.7153L34.7821 20.766L27.8085 46.7919L17.99 45.9329L29.5188 2.90667L38.2534 3.67086L44.0337 17.6527L49.1151 31.3204L49.2591 31.2698L56.2328 5.24384L66.0513 6.10285L54.5224 49.1291L45.7878 48.3649ZM87.8628 16.7422L78.6199 51.2373L68.8651 50.3839L78.1081 15.8887L65.9944 14.8289L68.2802 6.29786L102.262 9.27092L99.9766 17.802L87.8628 16.7422ZM116.789 54.5766L114.231 37.3337L107.856 36.7759L103.4 53.4053L93.5812 52.5463L105.11 9.52005L124.747 11.2381C126.702 11.4091 128.453 11.8575 129.998 12.5832C131.586 13.3127 132.89 14.2914 133.91 15.5194C134.94 16.7063 135.623 18.1368 135.957 19.811C136.291 21.4853 136.182 23.3527 135.63 25.4133C134.935 28.0097 133.604 30.2975 131.638 32.2767C129.726 34.2183 127.282 35.6284 124.306 36.5068L127.882 55.5472L116.789 54.5766ZM125.413 24.5827C125.843 22.9754 125.643 21.7768 124.81 20.9869C123.978 20.1971 122.733 19.7296 121.075 19.5846L112.659 18.8483L110.141 28.2448L118.239 28.9532C120.024 29.1094 121.558 28.8219 122.841 28.0906C124.125 27.3593 124.982 26.19 125.413 24.5827ZM159.535 13.9653C162.213 14.1996 164.499 14.8424 166.392 15.8938C168.339 16.9077 169.857 18.2216 170.947 19.8354C172.08 21.4529 172.774 23.3273 173.029 25.4586C173.285 27.5899 173.092 29.8508 172.452 32.2411L169.735 42.3795C169.051 44.9347 168.002 47.226 166.588 49.2535C165.229 51.2435 163.585 52.9134 161.657 54.2632C159.783 55.5754 157.657 56.5283 155.28 57.1217C152.945 57.7188 150.46 57.9021 147.824 57.6715C144.934 57.4187 142.526 56.744 140.602 55.6477C138.719 54.5551 137.26 53.1831 136.223 51.5318C135.24 49.843 134.658 47.9573 134.477 45.8747C134.349 43.7545 134.583 41.5817 135.179 39.3562L137.896 29.2178C138.492 26.9924 139.401 24.8996 140.622 22.9397C141.886 20.9835 143.423 19.3043 145.234 17.9022C147.099 16.4625 149.216 15.3823 151.584 14.6615C153.995 13.9445 156.645 13.7124 159.535 13.9653ZM157.086 22.8617C155.854 22.7539 154.736 22.867 153.733 23.201C152.741 23.4938 151.859 23.9439 151.087 24.5512C150.315 25.1586 149.665 25.882 149.135 26.7214C148.617 27.5196 148.242 28.3515 148.01 29.217L144.879 40.9008C144.625 41.8487 144.531 42.7684 144.597 43.6599C144.662 44.5514 144.904 45.3529 145.323 46.0643C145.741 46.7758 146.341 47.3767 147.124 47.8669C147.906 48.3571 148.913 48.6561 150.146 48.764C152.526 48.9722 154.536 48.4521 156.175 47.2036C157.869 45.9177 158.991 44.2444 159.543 42.1837L162.674 30.4999C163.182 28.6041 162.959 26.9186 162.006 25.4433C161.106 23.9305 159.467 23.0699 157.086 22.8617Z"/>
</mask>
<path d="M1.99058 44.5331L13.5194 1.50691L23.3379 2.36592L11.8091 45.3921L1.99058 44.5331Z" fill="#D3A7E0"/>
<path d="M45.7878 48.3649L38.7434 31.5518L34.9262 20.7153L34.7821 20.766L27.8085 46.7919L17.99 45.9329L29.5188 2.90667L38.2534 3.67086L44.0337 17.6527L49.1151 31.3204L49.2591 31.2698L56.2328 5.24384L66.0513 6.10285L54.5224 49.1291L45.7878 48.3649ZM87.8628 16.7422L78.6199 51.2373L68.8651 50.3839L78.1081 15.8887L65.9944 14.8289L68.2802 6.29786L102.262 9.27092L99.9766 17.802L87.8628 16.7422ZM116.789 54.5766L114.231 37.3337L107.856 36.7759L103.4 53.4053L93.5812 52.5463L105.11 9.52005L124.747 11.2381C126.702 11.4091 128.453 11.8575 129.998 12.5832C131.586 13.3127 132.89 14.2914 133.91 15.5194C134.94 16.7063 135.623 18.1368 135.957 19.811C136.291 21.4853 136.182 23.3527 135.63 25.4133C134.935 28.0097 133.604 30.2975 131.638 32.2767C129.726 34.2183 127.282 35.6284 124.306 36.5068L127.882 55.5472L116.789 54.5766ZM125.413 24.5827C125.843 22.9754 125.643 21.7768 124.81 20.9869C123.978 20.1971 122.733 19.7296 121.075 19.5846L112.659 18.8483L110.141 28.2448L118.239 28.9532C120.024 29.1094 121.558 28.8219 122.841 28.0906C124.125 27.3593 124.982 26.19 125.413 24.5827ZM159.535 13.9653C162.213 14.1996 164.499 14.8424 166.392 15.8938C168.339 16.9077 169.857 18.2216 170.947 19.8354C172.08 21.4529 172.774 23.3273 173.029 25.4586C173.285 27.5899 173.092 29.8508 172.452 32.2411L169.735 42.3795C169.051 44.9347 168.002 47.226 166.588 49.2535C165.229 51.2435 163.585 52.9134 161.657 54.2632C159.783 55.5754 157.657 56.5283 155.28 57.1217C152.945 57.7188 150.46 57.9021 147.824 57.6715C144.934 57.4187 142.526 56.744 140.602 55.6477C138.719 54.5551 137.26 53.1831 136.223 51.5318C135.24 49.843 134.658 47.9573 134.477 45.8747C134.349 43.7545 134.583 41.5817 135.179 39.3562L137.896 29.2178C138.492 26.9924 139.401 24.8996 140.622 22.9397C141.886 20.9835 143.423 19.3043 145.234 17.9022C147.099 16.4625 149.216 15.3823 151.584 14.6615C153.995 13.9445 156.645 13.7124 159.535 13.9653ZM157.086 22.8617C155.854 22.7539 154.736 22.867 153.733 23.201C152.741 23.4938 151.859 23.9439 151.087 24.5512C150.315 25.1586 149.665 25.882 149.135 26.7214C148.617 27.5196 148.242 28.3515 148.01 29.217L144.879 40.9008C144.625 41.8487 144.531 42.7684 144.597 43.6599C144.662 44.5514 144.904 45.3529 145.323 46.0643C145.741 46.7758 146.341 47.3767 147.124 47.8669C147.906 48.3571 148.913 48.6561 150.146 48.764C152.526 48.9722 154.536 48.4521 156.175 47.2036C157.869 45.9177 158.991 44.2444 159.543 42.1837L162.674 30.4999C163.182 28.6041 162.959 26.9186 162.006 25.4433C161.106 23.9305 159.467 23.0699 157.086 22.8617Z" fill="#FBEDFF"/>
<path d="M1.99058 44.5331L0.99439 44.446L0.73557 45.4119L1.73177 45.499L1.99058 44.5331ZM13.5194 1.50691L13.7782 0.540984L12.782 0.453829L12.5232 1.41975L13.5194 1.50691ZM23.3379 2.36592L24.3341 2.45307L24.5929 1.48715L23.5967 1.39999L23.3379 2.36592ZM11.8091 45.3921L11.5503 46.358L12.5465 46.4452L12.8053 45.4793L11.8091 45.3921ZM1.99058 44.5331L2.98678 44.6203L14.5156 1.59407L13.5194 1.50691L12.5232 1.41975L0.99439 44.446L1.99058 44.5331ZM13.5194 1.50691L13.2606 2.47284L23.0791 3.33184L23.3379 2.36592L23.5967 1.39999L13.7782 0.540984L13.5194 1.50691ZM23.3379 2.36592L22.3417 2.27876L10.8129 45.305L11.8091 45.3921L12.8053 45.4793L24.3341 2.45307L23.3379 2.36592ZM11.8091 45.3921L12.0679 44.4262L2.2494 43.5672L1.99058 44.5331L1.73177 45.499L11.5503 46.358L11.8091 45.3921ZM45.7878 48.3649L44.8212 48.8425L45.0066 49.2851L45.529 49.3308L45.7878 48.3649ZM38.7434 31.5518L37.7604 31.9871L37.768 32.0086L37.7768 32.0295L38.7434 31.5518ZM34.9262 20.7153L35.9091 20.2801L35.6306 19.4894L34.7122 19.8124L34.9262 20.7153ZM34.7821 20.766L34.5681 19.863L33.9459 20.0818L33.7859 20.6788L34.7821 20.766ZM27.8085 46.7919L27.5496 47.7578L28.5458 47.845L28.8047 46.879L27.8085 46.7919ZM17.99 45.9329L16.9938 45.8457L16.735 46.8116L17.7312 46.8988L17.99 45.9329ZM29.5188 2.90667L29.7776 1.94075L28.7814 1.85359L28.5226 2.81952L29.5188 2.90667ZM38.2534 3.67086L39.2215 3.19663L39.0372 2.75086L38.5123 2.70493L38.2534 3.67086ZM44.0337 17.6527L45.012 17.2048L45.0071 17.1915L45.0017 17.1785L44.0337 17.6527ZM49.1151 31.3204L48.1367 31.7684L48.4242 32.5415L49.3291 32.2233L49.1151 31.3204ZM49.2591 31.2698L49.4732 32.1727L50.0954 31.9539L50.2553 31.3569L49.2591 31.2698ZM56.2328 5.24384L56.4916 4.27792L55.4954 4.19076L55.2366 5.15669L56.2328 5.24384ZM66.0513 6.10285L67.0475 6.19001L67.3063 5.22408L66.3101 5.13692L66.0513 6.10285ZM54.5224 49.1291L54.2636 50.095L55.2598 50.1821L55.5186 49.2162L54.5224 49.1291ZM45.7878 48.3649L46.7544 47.8872L39.71 31.0742L38.7434 31.5518L37.7768 32.0295L44.8212 48.8425L45.7878 48.3649ZM38.7434 31.5518L39.7263 31.1166L35.9091 20.2801L34.9262 20.7153L33.9432 21.1505L37.7604 31.9871L38.7434 31.5518ZM34.9262 20.7153L34.7122 19.8124L34.5681 19.863L34.7821 20.766L34.9961 21.6689L35.1402 21.6182L34.9262 20.7153ZM34.7821 20.766L33.7859 20.6788L26.8123 46.7047L27.8085 46.7919L28.8047 46.879L35.7783 20.8531L34.7821 20.766ZM27.8085 46.7919L28.0673 45.826L18.2488 44.967L17.99 45.9329L17.7312 46.8988L27.5496 47.7578L27.8085 46.7919ZM17.99 45.9329L18.9862 46.02L30.515 2.99383L29.5188 2.90667L28.5226 2.81952L16.9938 45.8457L17.99 45.9329ZM29.5188 2.90667L29.26 3.8726L37.9946 4.63678L38.2534 3.67086L38.5123 2.70493L29.7776 1.94075L29.5188 2.90667ZM38.2534 3.67086L37.2854 4.14508L43.0656 18.127L44.0337 17.6527L45.0017 17.1785L39.2215 3.19663L38.2534 3.67086ZM44.0337 17.6527L43.0553 18.1007L48.1367 31.7684L49.1151 31.3204L50.0934 30.8724L45.012 17.2048L44.0337 17.6527ZM49.1151 31.3204L49.3291 32.2233L49.4732 32.1727L49.2591 31.2698L49.0451 30.3668L48.9011 30.4175L49.1151 31.3204ZM49.2591 31.2698L50.2553 31.3569L57.229 5.331L56.2328 5.24384L55.2366 5.15669L48.2629 31.1826L49.2591 31.2698ZM56.2328 5.24384L55.9739 6.20977L65.7924 7.06878L66.0513 6.10285L66.3101 5.13692L56.4916 4.27792L56.2328 5.24384ZM66.0513 6.10285L65.0551 6.01569L53.5262 49.0419L54.5224 49.1291L55.5186 49.2162L67.0475 6.19001L66.0513 6.10285ZM54.5224 49.1291L54.7812 48.1631L46.0466 47.3989L45.7878 48.3649L45.529 49.3308L54.2636 50.095L54.5224 49.1291ZM87.8628 16.7422L88.1216 15.7762L87.1254 15.6891L86.8666 16.655L87.8628 16.7422ZM78.6199 51.2373L78.3611 52.2032L79.3573 52.2904L79.6161 51.3245L78.6199 51.2373ZM68.8651 50.3839L67.8689 50.2967L67.6101 51.2627L68.6063 51.3498L68.8651 50.3839ZM78.1081 15.8887L79.1043 15.9759L79.3631 15.01L78.3669 14.9228L78.1081 15.8887ZM65.9944 14.8289L64.9982 14.7418L64.7393 15.7077L65.7355 15.7948L65.9944 14.8289ZM68.2802 6.29786L68.5391 5.33194L67.5429 5.24478L67.2841 6.21071L68.2802 6.29786ZM102.262 9.27092L103.259 9.35807L103.517 8.39215L102.521 8.30499L102.262 9.27092ZM99.9766 17.802L99.7177 18.7679L100.714 18.8551L100.973 17.8891L99.9766 17.802ZM87.8628 16.7422L86.8666 16.655L77.6237 51.1502L78.6199 51.2373L79.6161 51.3245L88.859 16.8293L87.8628 16.7422ZM78.6199 51.2373L78.8787 50.2714L69.124 49.418L68.8651 50.3839L68.6063 51.3498L78.3611 52.2032L78.6199 51.2373ZM68.8651 50.3839L69.8613 50.471L79.1043 15.9759L78.1081 15.8887L77.1119 15.8016L67.8689 50.2967L68.8651 50.3839ZM78.1081 15.8887L78.3669 14.9228L66.2532 13.863L65.9944 14.8289L65.7355 15.7948L77.8493 16.8547L78.1081 15.8887ZM65.9944 14.8289L66.9906 14.9161L69.2764 6.38502L68.2802 6.29786L67.2841 6.21071L64.9982 14.7418L65.9944 14.8289ZM68.2802 6.29786L68.0214 7.26379L102.004 10.2368L102.262 9.27092L102.521 8.30499L68.5391 5.33194L68.2802 6.29786ZM102.262 9.27092L101.266 9.18376L98.9804 17.7148L99.9766 17.802L100.973 17.8891L103.259 9.35807L102.262 9.27092ZM99.9766 17.802L100.235 16.8361L88.1216 15.7762L87.8628 16.7422L87.604 17.7081L99.7177 18.7679L99.9766 17.802ZM116.789 54.5766L115.769 54.8616L115.861 55.484L116.53 55.5426L116.789 54.5766ZM114.231 37.3337L115.251 37.0487L115.159 36.4263L114.49 36.3678L114.231 37.3337ZM107.856 36.7759L108.114 35.81L107.118 35.7228L106.859 36.6887L107.856 36.7759ZM103.4 53.4053L103.141 54.3712L104.137 54.4583L104.396 53.4924L103.4 53.4053ZM93.5812 52.5463L92.585 52.4591L92.3262 53.425L93.3224 53.5122L93.5812 52.5463ZM105.11 9.52005L105.369 8.55413L104.373 8.46697L104.114 9.4329L105.11 9.52005ZM129.998 12.5832L129.425 13.4662L129.431 13.4692L129.998 12.5832ZM133.91 15.5194L133.06 16.1906L133.065 16.1971L133.071 16.2035L133.91 15.5194ZM135.957 19.811L136.97 19.4854L136.97 19.4854L135.957 19.811ZM131.638 32.2767L130.942 31.6787L130.938 31.6826L131.638 32.2767ZM124.306 36.5068L124.151 35.5847L123.116 35.8903L123.291 36.8232L124.306 36.5068ZM127.882 55.5472L127.623 56.5131L129.163 56.6478L128.897 55.2308L127.882 55.5472ZM124.81 20.9869L125.597 20.2491L125.597 20.2491L124.81 20.9869ZM112.659 18.8483L112.918 17.8824L111.922 17.7952L111.663 18.7611L112.659 18.8483ZM110.141 28.2448L109.145 28.1577L108.886 29.1236L109.883 29.2108L110.141 28.2448ZM116.789 54.5766L117.809 54.2917L115.251 37.0487L114.231 37.3337L113.211 37.6186L115.769 54.8616L116.789 54.5766ZM114.231 37.3337L114.49 36.3678L108.114 35.81L107.856 36.7759L107.597 37.7418L113.972 38.2996L114.231 37.3337ZM107.856 36.7759L106.859 36.6887L102.404 53.3181L103.4 53.4053L104.396 53.4924L108.852 36.863L107.856 36.7759ZM103.4 53.4053L103.659 52.4393L93.84 51.5803L93.5812 52.5463L93.3224 53.5122L103.141 54.3712L103.4 53.4053ZM93.5812 52.5463L94.5774 52.6334L106.106 9.60721L105.11 9.52005L104.114 9.4329L92.585 52.4591L93.5812 52.5463ZM105.11 9.52005L104.851 10.486L124.488 12.204L124.747 11.2381L125.006 10.2721L105.369 8.55413L105.11 9.52005ZM124.747 11.2381L124.488 12.204C126.341 12.3661 127.983 12.7893 129.425 13.4661L129.998 12.5832L130.572 11.7003C128.922 10.9258 127.064 10.4522 125.006 10.2721L124.747 11.2381ZM129.998 12.5832L129.431 13.4692C130.914 14.1503 132.12 15.0581 133.06 16.1906L133.91 15.5194L134.759 14.8483C133.66 13.5247 132.258 12.4751 130.565 11.6973L129.998 12.5832ZM133.91 15.5194L133.071 16.2035C134.008 17.2828 134.635 18.5886 134.944 20.1367L135.957 19.811L136.97 19.4854C136.61 17.6849 135.872 16.1297 134.748 14.8354L133.91 15.5194ZM135.957 19.811L134.944 20.1367C135.248 21.6587 135.155 23.3825 134.634 25.3262L135.63 25.4133L136.626 25.5005C137.21 23.3229 137.335 21.3118 136.97 19.4854L135.957 19.811ZM135.63 25.4133L134.634 25.3262C133.986 27.7437 132.756 29.8525 130.942 31.6787L131.638 32.2767L132.334 32.8746C134.451 30.7426 135.883 28.2758 136.626 25.5005L135.63 25.4133ZM131.638 32.2767L130.938 31.6826C129.2 33.4479 126.956 34.7568 124.151 35.5847L124.306 36.5068L124.46 37.429C127.608 36.4999 130.252 34.9887 132.338 32.8708L131.638 32.2767ZM124.306 36.5068L123.291 36.8232L126.867 55.8636L127.882 55.5472L128.897 55.2308L125.32 36.1904L124.306 36.5068ZM127.882 55.5472L128.141 54.5813L117.047 53.6107L116.789 54.5766L116.53 55.5426L127.623 56.5131L127.882 55.5472ZM125.413 24.5827L126.409 24.6698C126.893 22.8614 126.712 21.3066 125.597 20.2491L124.81 20.9869L124.023 21.7248C124.573 22.247 124.793 23.0894 124.417 24.4955L125.413 24.5827ZM124.81 20.9869L125.597 20.2491C124.589 19.2924 123.131 18.7759 121.334 18.6187L121.075 19.5846L120.816 20.5505C122.334 20.6833 123.367 21.1018 124.023 21.7248L124.81 20.9869ZM121.075 19.5846L121.334 18.6187L112.918 17.8824L112.659 18.8483L112.4 19.8142L120.816 20.5505L121.075 19.5846ZM112.659 18.8483L111.663 18.7611L109.145 28.1577L110.141 28.2448L111.138 28.332L113.655 18.9355L112.659 18.8483ZM110.141 28.2448L109.883 29.2108L117.98 29.9192L118.239 28.9532L118.497 27.9873L110.4 27.2789L110.141 28.2448ZM118.239 28.9532L117.98 29.9192C119.92 30.0889 121.706 29.7855 123.262 28.8993L122.841 28.0906L122.421 27.2819C121.41 27.8582 120.127 28.1299 118.497 27.9873L118.239 28.9532ZM122.841 28.0906L123.262 28.8993C124.893 27.9698 125.919 26.4998 126.409 24.6698L125.413 24.5827L124.417 24.4955C124.045 25.8802 123.357 26.7488 122.421 27.2819L122.841 28.0906ZM166.392 15.8938L165.768 16.7506L165.777 16.7561L165.787 16.7613L166.392 15.8938ZM170.947 19.8354L170.053 20.4463L170.06 20.4568L170.947 19.8354ZM173.029 25.4586L174.053 25.197L174.053 25.197L173.029 25.4586ZM166.588 49.2535L165.755 48.8197L165.749 48.8289L166.588 49.2535ZM161.657 54.2632L161.136 53.5185L161.136 53.5185L161.657 54.2632ZM155.28 57.1217L155.174 56.1861L155.168 56.1878L155.28 57.1217ZM140.602 55.6477L139.964 56.4968L139.969 56.5001L140.602 55.6477ZM136.223 51.5318L135.302 52.0994L135.308 52.1104L135.315 52.1212L136.223 51.5318ZM134.477 45.8747L133.449 46.086L133.45 46.0975L133.451 46.1089L134.477 45.8747ZM140.622 22.9397L139.766 22.5408L139.761 22.5489L139.755 22.557L140.622 22.9397ZM145.234 17.9022L144.665 17.1931L144.663 17.1942L145.234 17.9022ZM151.584 14.6615L151.427 13.7401L151.42 13.7423L151.584 14.6615ZM153.733 23.201L153.887 24.1231L153.907 24.1172L153.927 24.1106L153.733 23.201ZM151.087 24.5512L151.666 25.2529L151.666 25.2529L151.087 24.5512ZM149.135 26.7214L149.99 27.1228L149.994 27.1162L149.999 27.1096L149.135 26.7214ZM147.124 47.8669L146.462 48.7015L146.462 48.7015L147.124 47.8669ZM156.175 47.2036L155.614 46.4884L155.612 46.4894L156.175 47.2036ZM162.006 25.4433L161.088 26.017L161.095 26.0292L161.103 26.0411L162.006 25.4433ZM159.535 13.9653L159.276 14.9312C161.843 15.1558 163.999 15.7686 165.768 16.7506L166.392 15.8938L167.016 15.037C164.998 13.9162 162.583 13.2434 159.794 12.9994L159.535 13.9653ZM166.392 15.8938L165.787 16.7613C167.626 17.7191 169.041 18.9492 170.053 20.4462L170.947 19.8354L171.842 19.2246C170.673 17.494 169.051 16.0964 166.997 15.0264L166.392 15.8938ZM170.947 19.8354L170.06 20.4568C171.115 21.9638 171.766 23.7141 172.006 25.7203L173.029 25.4586L174.053 25.197C173.782 22.9406 173.045 20.9421 171.835 19.214L170.947 19.8354ZM173.029 25.4586L172.006 25.7203C172.247 27.729 172.067 29.8709 171.456 32.154L172.452 32.2411L173.448 32.3283C174.117 29.8306 174.323 27.4509 174.053 25.197L173.029 25.4586ZM172.452 32.2411L171.456 32.154L168.739 42.2923L169.735 42.3795L170.731 42.4666L173.448 32.3283L172.452 32.2411ZM169.735 42.3795L168.739 42.2923C168.083 44.7426 167.084 46.9139 165.755 48.8197L166.588 49.2535L167.421 49.6873C168.919 47.5381 170.019 45.1267 170.731 42.4666L169.735 42.3795ZM166.588 49.2535L165.749 48.8289C164.469 50.7021 162.932 52.2609 161.136 53.5185L161.657 54.2632L162.179 55.0078C164.238 53.5658 165.988 51.7849 167.428 49.6781L166.588 49.2535ZM161.657 54.2632L161.136 53.5185C159.401 54.7331 157.42 55.6257 155.174 56.1861L155.28 57.1217L155.385 58.0573C157.895 57.4309 160.165 56.4178 162.179 55.0078L161.657 54.2632ZM155.28 57.1217L155.168 56.1878C152.975 56.7485 150.616 56.9272 148.083 56.7056L147.824 57.6715L147.565 58.6374C150.303 58.8769 152.914 58.6891 155.392 58.0556L155.28 57.1217ZM147.824 57.6715L148.083 56.7056C145.299 56.462 143.026 55.8162 141.234 54.7953L140.602 55.6477L139.969 56.5001C142.027 57.6719 144.569 58.3753 147.565 58.6374L147.824 57.6715ZM140.602 55.6477L141.24 54.7987C139.459 53.7652 138.096 52.4783 137.132 50.9424L136.223 51.5318L135.315 52.1212C136.424 53.888 137.979 55.345 139.964 56.4967L140.602 55.6477ZM136.223 51.5318L137.145 50.9643C136.222 49.3788 135.674 47.6068 135.503 45.6404L134.477 45.8747L133.451 46.1089C133.642 48.3078 134.258 50.3073 135.302 52.0994L136.223 51.5318ZM134.477 45.8747L135.504 45.6633C135.383 43.6438 135.605 41.5718 136.175 39.4434L135.179 39.3562L134.183 39.2691C133.561 41.5916 133.315 43.8652 133.449 46.086L134.477 45.8747ZM135.179 39.3562L136.175 39.4434L138.892 29.305L137.896 29.2178L136.9 29.1307L134.183 39.2691L135.179 39.3562ZM137.896 29.2178L138.892 29.305C139.462 27.1765 140.329 25.184 141.489 23.3224L140.622 22.9397L139.755 22.557C138.473 24.6153 137.522 26.8082 136.9 29.1307L137.896 29.2178ZM140.622 22.9397L141.478 23.3387C142.67 21.4936 144.113 19.9209 145.806 18.6101L145.234 17.9022L144.663 17.1942C142.734 18.6878 141.101 20.4734 139.766 22.5408L140.622 22.9397ZM145.234 17.9022L145.804 18.6112C147.538 17.2725 149.514 16.2606 151.748 15.5808L151.584 14.6615L151.42 13.7423C148.917 14.504 146.66 15.6525 144.665 17.1931L145.234 17.9022ZM151.584 14.6615L151.741 15.583C153.986 14.9153 156.492 14.6876 159.276 14.9312L159.535 13.9653L159.794 12.9994C156.798 12.7372 154.004 12.9737 151.427 13.7401L151.584 14.6615ZM157.086 22.8617L157.345 21.8958C156 21.7781 154.724 21.8965 153.538 22.2914L153.733 23.201L153.927 24.1106C154.748 23.8374 155.707 23.7296 156.827 23.8276L157.086 22.8617ZM153.733 23.201L153.578 22.2788C152.446 22.6132 151.416 23.1347 150.508 23.8496L151.087 24.5512L151.666 25.2529C152.302 24.7531 153.036 24.3744 153.887 24.1231L153.733 23.201ZM151.087 24.5512L150.508 23.8496C149.619 24.5495 148.873 25.3808 148.272 26.3333L149.135 26.7214L149.999 27.1096C150.457 26.3832 151.012 25.7677 151.666 25.2529L151.087 24.5512ZM149.135 26.7214L148.281 26.3201C147.698 27.2167 147.275 28.1547 147.014 29.1298L148.01 29.217L149.006 29.3041C149.209 28.5483 149.536 27.8226 149.99 27.1228L149.135 26.7214ZM148.01 29.217L147.014 29.1298L143.883 40.8136L144.879 40.9008L145.876 40.988L149.006 29.3041L148.01 29.217ZM144.879 40.9008L143.883 40.8136C143.602 41.8613 143.496 42.8858 143.57 43.8827L144.597 43.6599L145.624 43.4371C145.566 42.651 145.648 41.8361 145.876 40.988L144.879 40.9008ZM144.597 43.6599L143.57 43.8827C143.644 44.8943 143.921 45.8149 144.403 46.6348L145.323 46.0643L146.243 45.4939C145.888 44.8908 145.681 44.2085 145.624 43.4371L144.597 43.6599ZM145.323 46.0643L144.403 46.6348C144.89 47.4629 145.582 48.1503 146.462 48.7015L147.124 47.8669L147.786 47.0323C147.101 46.603 146.593 46.0887 146.243 45.4939L145.323 46.0643ZM147.124 47.8669L146.462 48.7015C147.386 49.281 148.542 49.6122 149.887 49.7299L150.146 48.764L150.405 47.798C149.285 47.7 148.425 47.4332 147.786 47.0323L147.124 47.8669ZM150.146 48.764L149.887 49.7299C152.471 49.956 154.797 49.3964 156.738 47.9179L156.175 47.2036L155.612 46.4894C154.275 47.5078 152.581 47.9885 150.405 47.798L150.146 48.764ZM156.175 47.2036L156.737 47.9188C158.665 46.4548 159.929 44.5496 160.54 42.2709L159.543 42.1837L158.547 42.0966C158.053 43.9391 157.072 45.3805 155.614 46.4884L156.175 47.2036ZM159.543 42.1837L160.54 42.2709L163.67 30.5871L162.674 30.4999L161.678 30.4127L158.547 42.0966L159.543 42.1837ZM162.674 30.4999L163.67 30.5871C164.243 28.4499 163.99 26.5184 162.909 24.8454L162.006 25.4433L161.103 26.0411C161.928 27.3187 162.121 28.7583 161.678 30.4127L162.674 30.4999ZM162.006 25.4433L162.924 24.8695C161.861 23.081 159.938 22.1227 157.345 21.8958L157.086 22.8617L156.827 23.8276C158.995 24.0172 160.352 24.7799 161.088 26.017L162.006 25.4433Z" fill="black" mask="url(#path-1-outside-1_70_2098)"/>
</svg>
