<svg width="98" height="300" fill="none" xmlns="http://www.w3.org/2000/svg"><rect x=".872" y="1.149" width="56.526" height="288.869" rx="19" transform="matrix(.98783 .15556 -.11546 .99331 36.871 1.052)" fill="#D3A7E0" stroke="#373737" stroke-width="2"/><path d="m36.922 280.057-5.014-7.209c-.73-1.05.003-2.59 1.163-2.439l10.122 1.307c1.475.192 2.801-1.03 2.961-2.728.16-1.697-.903-3.227-2.377-3.417l-10.121-1.307c-1.16-.15-1.587-1.839-.678-2.677l6.246-5.754c-1.857-2.669-5.237-3.106-7.55-.974l-7.486 6.896c-2.312 2.13-2.683 6.022-.826 8.691l6.01 8.639c1.856 2.669 5.236 3.107 7.55.975v-.003zM59.899 29.582l-.786 6.2-6.093-1.39 1.57-12.4 21.328 4.864-.786 6.2L59.9 29.583zm11.974 29.204-6.093-1.39 1.178-9.3-1.523-.348-.982 7.75-6.094-1.39.982-7.75-1.523-.347-1.178 9.3-6.094-1.39 1.964-15.5 21.327 4.864-1.964 15.501zm-8.22 12.924-5.521-3.43-.535 4.217 6.056-.787zM52.32 64.674 49.41 62.88l.786-6.2 20.345 12.615-.981 7.75-22.31 2.886.786-6.2 3.186-.406 1.096-8.65zm9.032 27.688-3.047-.695-.59 4.65c-.13 1.034.312 1.666 1.328 1.898 1.015.232 1.589-.17 1.72-1.203l.589-4.65zm-9.14-2.085-6.094-1.39.785-6.2 21.328 4.865-1.375 10.85c-.654 5.167-3.52 7.172-8.599 6.013-4.062-.926-6.29-3.136-6.683-6.628l-7.223 5.051.982-7.75 6.879-4.81zm1.66 24.013-10.664-2.433.786-6.2 21.327 4.865-.785 6.2-11.646 5.318 10.664 2.433-.786 6.2-21.327-4.865.786-6.2 11.645-5.318zm-16.314 42.175 10.59-3.167-9.903-2.259.786-6.2 21.327 4.865-.786 6.2-11.35 2.993 9.976 7.858-.786 6.2-21.327-4.864.786-6.201 9.902 2.259-9.215-7.684zm-3.314 26.163c.38-2.997 1.744-5.317 4.095-6.961 2.35-1.643 4.998-2.129 7.943-1.457 2.945.671 5.324 2.304 7.138 4.897 1.814 2.594 2.53 5.389 2.151 8.386-.38 2.997-1.745 5.317-4.095 6.961-2.35 1.643-4.998 2.129-7.943 1.457-2.945-.672-5.325-2.304-7.138-4.898-1.814-2.593-2.53-5.388-2.151-8.385zm6.093 1.39c-.162 1.281.146 2.479.925 3.592.778 1.113 1.797 1.814 3.056 2.101 1.26.287 2.394.078 3.403-.628 1.009-.705 1.594-1.699 1.757-2.98.162-1.282-.146-2.479-.925-3.592-.778-1.113-1.797-1.814-3.056-2.101-1.26-.287-2.394-.078-3.403.628-1.009.705-1.594 1.699-1.757 2.98zm6.514 22.823-3.047-.695-.59 4.65c-.13 1.034.312 1.666 1.328 1.898 1.015.232 1.589-.169 1.72-1.203l.589-4.65zm-9.14-2.085-6.094-1.39.785-6.2 21.327 4.864-1.374 10.851c-.654 5.167-3.52 7.172-8.599 6.013-4.062-.926-6.29-3.136-6.683-6.628l-7.223 5.051.982-7.75 6.878-4.811zm11.145 35.746-6.093-1.39 1.178-9.301-1.523-.347-.982 7.75-6.094-1.39.982-7.75-1.523-.348-1.178 9.301-6.094-1.39 1.964-15.501 21.327 4.865-1.964 15.501z" fill="#F6E9FA"/></svg>