<svg width="187" height="96" viewBox="0 0 187 96" fill="none" xmlns="http://www.w3.org/2000/svg">
<rect x="1.29736" y="94.6563" width="92.1845" height="184.495" rx="19" transform="rotate(-90.1818 1.29736 94.6563)" fill="#4C3A51" stroke="#373737" stroke-width="2"/>
<path d="M37.7768 79.3696L34.8715 69.2566L32.3086 79.4533L26.0594 79.5491L31.583 57.5869L37.8323 57.4912L40.5464 68.3884L48.7685 57.3236L55.0178 57.2279L49.4941 79.1901L43.2449 79.2858L45.8077 69.0891L37.7768 79.3696ZM65.7415 57.0637L60.2179 79.0258L53.9686 79.1216L59.4923 57.1594L65.7415 57.0637ZM72.6655 71.0218C67.4578 71.1015 65.453 68.7674 66.6513 64.0193C67.8196 59.355 71.0076 56.983 76.2153 56.9032L86.3704 56.7477L84.7944 63.0226L74.6393 63.1781C73.5978 63.1941 73.0182 63.4425 72.9006 63.9236C72.7529 64.4884 73.1999 64.7628 74.2414 64.7469L78.9284 64.6751C84.1361 64.5953 86.1558 66.8876 84.9876 71.5518C83.7893 76.2999 80.5863 78.7138 75.3786 78.7936L65.2235 78.9492L66.7995 72.6743L76.9545 72.5187C77.9961 72.5028 78.5907 72.2124 78.7383 71.6476C78.8559 71.1665 78.394 70.934 77.3524 70.95L72.6655 71.0218ZM93.8568 70.6972C88.649 70.7769 86.6443 68.4428 87.8426 63.6947C89.0108 59.0304 92.1988 56.6584 97.4066 56.5786L107.562 56.4231L105.986 62.698L95.8306 62.8535C94.7891 62.8695 94.2095 63.118 94.0918 63.599C93.9442 64.1638 94.3912 64.4382 95.4327 64.4223L100.12 64.3505C105.327 64.2707 107.347 66.563 106.179 71.2273C104.981 75.9753 101.778 78.3892 96.5699 78.469L86.4148 78.6246L87.9908 72.3497L98.1458 72.1941C99.1874 72.1782 99.7819 71.8878 99.9296 71.323C100.047 70.8419 99.5853 70.6094 98.5437 70.6254L93.8568 70.6972ZM118.879 56.2497L113.355 78.2119L107.106 78.3076L112.63 56.3455L118.879 56.2497ZM127.048 78.0022C124.027 78.0484 121.719 77.016 120.124 74.9047C118.529 72.7935 118.115 70.2214 118.881 67.1885C119.637 64.1557 121.352 61.551 124.028 59.3744C126.703 57.1977 129.551 56.0863 132.571 56.04C135.592 55.9937 137.899 57.0262 139.494 59.1375C141.089 61.2487 141.509 63.8207 140.753 66.8535C139.987 69.8864 138.267 72.4912 135.591 74.6678C132.916 76.8445 130.068 77.9559 127.048 78.0022ZM128.623 71.7273C129.915 71.7075 131.132 71.2305 132.274 70.2962C133.426 69.3618 134.17 68.2461 134.504 66.9492C134.828 65.6524 134.644 64.5509 133.953 63.6447C133.273 62.7384 132.287 62.2951 130.995 62.3149C129.704 62.3347 128.482 62.8118 127.329 63.7462C126.187 64.6805 125.454 65.796 125.13 67.0928C124.796 68.3897 124.969 69.4913 125.65 70.3977C126.341 71.3039 127.332 71.7471 128.623 71.7273ZM149.759 66.7155L146.989 77.6967L140.74 77.7925L146.263 55.8303L152.513 55.7346L157.57 66.5959L160.324 55.6149L166.573 55.5192L161.05 77.4814L154.801 77.5771L149.759 66.7155Z" fill="#F6E9FA"/>
</svg>
