<svg width="170" height="35" fill="none" xmlns="http://www.w3.org/2000/svg"><path d="M.36 34V.592h6.672l4.512 9.696 4.32 10.032h.192l4.176-10.032L24.648.592h6.96V34h-7.344V18.112l-.144-.048-3.024 6.768-2.256 4.704h-5.664l-2.352-4.944-2.928-6.528-.144.144V34H.36z" fill="#D3A7E0"/><path d="M36.13 34V.592h7.393V34H36.13zm9.07-4.32 4.272-5.664c3.12 2.784 6.336 3.504 9.744 3.504 3.216 0 5.04-1.536 5.04-3.312 0-1.632-.528-3.264-4.56-3.648-6.336-.624-12.336-2.496-12.336-9.984C47.36 3.472 53.456.304 58.928.304c4.08 0 8.256.768 11.808 3.12l-3.408 5.904c-3.168-2.016-6.432-2.256-8.208-2.256-3.648 0-4.416 1.776-4.416 3.12 0 2.112 1.488 2.688 7.008 3.552 5.52.864 10.32 3.216 10.32 9.984 0 6.96-6.672 10.56-13.2 10.56-4.512 0-9.216-.72-13.632-4.608zm26.58 0 4.272-5.664c3.12 2.784 6.336 3.504 9.744 3.504 3.216 0 5.04-1.536 5.04-3.312 0-1.632-.528-3.264-4.56-3.648-6.336-.624-12.336-2.496-12.336-9.984C73.94 3.472 80.036.304 85.508.304c4.08 0 8.256.768 11.808 3.12l-3.408 5.904C90.74 7.312 87.476 7.072 85.7 7.072c-3.648 0-4.416 1.776-4.416 3.12 0 2.112 1.488 2.688 7.008 3.552 5.52.864 10.32 3.216 10.32 9.984 0 6.96-6.672 10.56-13.2 10.56-4.512 0-9.216-.72-13.632-4.608zm29.7 4.32V.592h7.392V34h-7.392zm10.654-12.768V13.36c0-6.912 4.224-13.008 12.912-13.008 8.064 0 13.104 5.52 13.104 13.008v7.872c0 7.968-5.184 13.056-13.104 13.056-8.688 0-12.912-6.096-12.912-13.056zm18.48.528v-9.072c0-2.928-2.064-5.424-5.616-5.424-3.696 0-5.424 2.688-5.424 5.424v9.072c0 2.88 1.728 5.616 5.424 5.616 3.552 0 5.616-2.448 5.616-5.616zM141.559 34V.592h6.576l7.008 10.224 6.432 10.032.096-.048V.592h7.392V34h-6.576l-8.496-12.288-4.944-7.968-.096.048V34h-7.392z" fill="#FBEDFF"/></svg>