<svg width="187" height="56" fill="none" xmlns="http://www.w3.org/2000/svg"><rect x="1.171" y="54.588" width="53" height="184.495" rx="19" transform="rotate(-90.182 1.171 54.588)" fill="#D3A7E0" stroke="#373737" stroke-width="2"/><path d="M37.775 39.486 34.87 29.373 32.307 39.57l-6.25.095 5.524-21.962 6.25-.095 2.713 10.897 8.223-11.065 6.249-.096-5.524 21.962-6.25.096 2.564-10.197-8.031 10.28zM65.74 17.18l-5.524 21.962-6.25.096 5.524-21.962 6.25-.096zm6.924 13.958c-5.208.08-7.213-2.254-6.015-7.002 1.169-4.665 4.357-7.037 9.564-7.116l10.155-.156-1.575 6.275-10.156.155c-1.041.016-1.62.265-1.738.746-.148.565.299.84 1.34.823l4.687-.072c5.208-.08 7.228 2.213 6.06 6.877-1.199 4.748-4.402 7.162-9.61 7.242l-10.154.156 1.576-6.275 10.155-.156c1.041-.016 1.636-.306 1.783-.871.118-.481-.344-.714-1.386-.698l-4.686.072zm21.19-.325c-5.207.08-7.212-2.254-6.013-7.002 1.168-4.664 4.356-7.036 9.564-7.116l10.155-.156-1.576 6.275-10.155.156c-1.042.016-1.621.264-1.74.745-.147.565.3.84 1.342.824l4.687-.072c5.207-.08 7.227 2.212 6.059 6.877-1.198 4.748-4.401 7.162-9.61 7.241l-10.154.156 1.576-6.275 10.155-.156c1.041-.016 1.636-.306 1.784-.87.117-.482-.345-.714-1.386-.698l-4.687.072zm25.023-14.447-5.524 21.962-6.249.096 5.524-21.962 6.249-.096zm8.169 21.752c-3.021.047-5.329-.986-6.924-3.097-1.595-2.111-2.009-4.683-1.243-7.716.756-3.033 2.471-5.638 5.147-7.814 2.675-2.177 5.523-3.288 8.543-3.335 3.021-.046 5.328.987 6.923 3.098 1.596 2.111 2.015 4.683 1.259 7.716-.766 3.033-2.486 5.638-5.162 7.814-2.675 2.177-5.523 3.288-8.543 3.334zm1.576-6.274c1.291-.02 2.508-.497 3.65-1.431 1.152-.935 1.896-2.05 2.23-3.348.324-1.296.141-2.398-.551-3.304-.68-.906-1.666-1.35-2.958-1.33-1.291.02-2.513.497-3.666 1.431-1.142.935-1.875 2.05-2.199 3.347-.334 1.297-.161 2.399.52 3.305.691.906 1.682 1.35 2.974 1.33zm21.135-5.012-2.77 10.981-6.249.096 5.523-21.962 6.25-.096 5.057 10.861 2.754-10.98 6.249-.096-5.523 21.962-6.249.095-5.042-10.861z" fill="#F6E9FA"/></svg>