<svg width="241" height="64" fill="none" xmlns="http://www.w3.org/2000/svg"><path d="m197.803 60.486 11.529-43.027 31.368 2.745-2.285 8.53-21.55-1.885-2.336 8.717 18.362 1.606-2.203 8.222-18.362-1.606-2.418 9.026 21.55 1.885-2.286 8.53-31.369-2.743zM163.059 57.446l11.529-43.026 9.818.859-9.243 34.495 21.55 1.885-2.286 8.531-31.368-2.744zM147.059 56.046l11.529-43.026 9.819.859-11.529 43.026-9.819-.859zM113.306 53.093l11.529-43.026 31.368 2.744-2.286 8.531-21.549-1.885-2.435 9.087 18.362 1.607-2.203 8.222-18.362-1.607-4.605 17.186-9.819-.859zM78.628 33.23l2.717-10.139C83.73 14.19 91.445 6.83 102.984 7.84c10.711.937 15.501 8.632 12.917 18.276l-2.717 10.138c-2.749 10.262-11.391 16.212-21.91 15.292-11.54-1.01-15.048-9.352-12.646-18.315zm24.364 2.827 3.131-11.684c1.01-3.77-.87-7.225-5.588-7.638-4.91-.43-8.132 2.832-9.076 6.355l-3.13 11.684c-.995 3.71.357 7.434 5.266 7.864 4.718.412 8.304-2.5 9.397-6.58zM37.03 46.42 48.56 3.394l19.636 1.718c7.778.68 13.103 5.891 10.883 14.175-1.374 5.13-5.372 9.336-11.324 11.093l3.576 19.04-11.093-.97-2.558-17.243-6.375-.558-4.456 16.63-9.819-.86zm16.56-24.302 8.097.709c3.57.312 6.313-1.156 7.175-4.37.861-3.215-1.023-4.709-4.338-4.999l-8.416-.736-2.517 9.396z" fill="#FBEDFF"/><path d="M.729 43.244 12.258.218l18.298 1.6c9.372.82 14.132 6.678 11.846 15.209-2.087 7.79-10.497 12.874-18.977 12.132l-8.67-.758-4.208 15.702-9.818-.86zM17.04 19.87l8.224.72c3.252.284 6.396-1.466 7.24-4.619.928-3.462-.856-5.326-4.745-5.666l-7.97-.697-2.75 10.262z" fill="#D3A7E0"/></svg>