<svg width="288" height="69" viewBox="0 0 288 69" fill="none" xmlns="http://www.w3.org/2000/svg">
<mask id="path-1-outside-1_70_2098" maskUnits="userSpaceOnUse" x="-0.192692" y="-0.0451999" width="290.362" height="70.6809" fill="black">
<rect fill="white" x="-0.192692" y="-0.0451999" width="290.362" height="70.6809"/>
<path d="M43.4724 18.2996C42.9534 20.2366 42.0692 21.994 40.8199 23.5719C39.5706 25.1497 38.0845 26.4749 36.3616 27.5474C34.6813 28.6235 32.8121 29.4301 30.7542 29.9671C28.7073 30.4629 26.6213 30.6178 24.4961 30.4319L15.8252 29.6733L11.6178 45.3754L1.79931 44.5164L13.3282 1.49018L31.6263 3.09105C33.964 3.29558 36.0009 3.81121 37.7369 4.63796C39.4839 5.42349 40.8774 6.47334 41.9173 7.78751C42.9572 9.10168 43.6065 10.6558 43.8653 12.45C44.1776 14.2067 44.0466 16.1565 43.4724 18.2996ZM33.5761 17.244C34.0399 15.513 33.8509 14.189 33.0092 13.2717C32.1785 12.3133 30.7855 11.7485 28.8303 11.5775L20.8608 10.8802L18.1111 21.1422L26.3356 21.8618C27.9508 22.0031 29.4537 21.6706 30.8442 20.8643C32.2458 20.0168 33.1565 18.8101 33.5761 17.244Z"/>
<path d="M61.308 49.7227L58.7506 32.4798L52.375 31.922L47.9191 48.5513L38.1006 47.6923L49.6295 4.66613L69.2665 6.38415C71.2217 6.5552 72.9721 7.00359 74.5176 7.72932C76.1057 8.45876 77.4095 9.4375 78.429 10.6655C79.4595 11.8523 80.1419 13.2829 80.4763 14.9571C80.8107 16.6313 80.7019 18.4988 80.1497 20.5594C79.454 23.1558 78.1232 25.4436 76.1574 27.4227C74.2451 29.3644 71.801 30.7744 68.8251 31.6529L72.4016 50.6933L61.308 49.7227ZM69.9321 19.7288C70.3628 18.1215 70.1619 16.9229 69.3296 16.133C68.4972 15.3431 67.2522 14.8757 65.5945 14.7307L57.1787 13.9944L54.6609 23.3909L62.7579 24.0993C64.5431 24.2555 66.0774 23.9679 67.3609 23.2366C68.6444 22.5054 69.5014 21.3361 69.9321 19.7288ZM104.055 9.11138C106.733 9.34566 109.018 9.98849 110.911 11.0399C112.858 12.0538 114.377 13.3677 115.467 14.9815C116.599 16.599 117.293 18.4734 117.549 20.6047C117.804 22.736 117.612 24.9968 116.971 27.3872L114.255 37.5255C113.57 40.0807 112.521 42.3721 111.108 44.3996C109.748 46.3895 108.104 48.0594 106.177 49.4092C104.303 50.7215 102.177 51.6744 99.7991 52.2678C97.4641 52.8649 94.979 53.0482 92.3437 52.8176C89.4534 52.5647 87.0459 51.8901 85.1211 50.7938C83.2388 49.7012 81.7794 48.3292 80.7428 46.6779C79.7598 44.9891 79.1776 43.1034 78.9961 41.0207C78.8682 38.9006 79.1024 36.7278 79.6987 34.5023L82.4153 24.3639C83.0116 22.1384 83.9203 20.0457 85.1415 18.0858C86.4052 16.1296 87.9427 14.4504 89.7539 13.0482C91.6187 11.6086 93.7351 10.5284 96.1033 9.80763C98.514 9.0906 101.164 8.85851 104.055 9.11138ZM101.606 18.0078C100.373 17.8999 99.2552 18.013 98.2522 18.3471C97.2603 18.6399 96.3784 19.09 95.6066 19.6973C94.8349 20.3047 94.1843 21.0281 93.6549 21.8675C93.1365 22.6657 92.7613 23.4976 92.5294 24.363L89.3988 36.0469C89.1448 36.9948 89.0506 37.9145 89.1162 38.806C89.1818 39.6975 89.4239 40.499 89.8422 41.2104C90.2606 41.9219 90.8609 42.5227 91.643 43.013C92.4252 43.5032 93.4326 43.8022 94.6652 43.91C97.0454 44.1183 99.0553 43.5982 100.695 42.3497C102.388 41.0638 103.511 39.3905 104.063 37.3298L107.193 25.646C107.701 23.7502 107.479 22.0646 106.526 20.5893C105.626 19.0765 103.986 18.216 101.606 18.0078ZM139.651 42.3414C138.922 45.0615 137.884 47.3116 136.537 49.0918C135.244 50.8345 133.768 52.2028 132.11 53.1965C130.462 54.149 128.664 54.772 126.715 55.0655C124.808 55.3626 122.877 55.4257 120.922 55.2546C119.605 55.1393 118.351 54.9454 117.163 54.6727C115.975 54.4 114.862 54.0074 113.825 53.4948C112.798 52.9411 111.875 52.2487 111.053 51.4176C110.232 50.5865 109.551 49.5568 109.01 48.3285L117.25 42.6593C118.035 43.9511 118.908 44.9133 119.87 45.5457C120.842 46.137 121.775 46.4716 122.667 46.5497C123.22 46.5981 123.853 46.5902 124.566 46.526C125.29 46.4207 126.005 46.188 126.711 45.8279C127.427 45.4266 128.082 44.8512 128.674 44.1016C129.266 43.352 129.734 42.3384 130.076 41.0608L137.762 12.3767L147.453 13.2246L139.651 42.3414ZM141.837 56.7681L153.366 13.7419L184.734 16.4862L182.448 25.0173L160.898 23.1319L158.563 31.8485L176.925 33.4549L174.722 41.6769L156.36 40.0704L153.941 49.096L175.491 50.9814L173.205 59.5124L141.837 56.7681ZM211.451 52.1661C209.44 55.4489 206.73 57.9323 203.321 59.6165C199.965 61.2631 196.204 61.9042 192.039 61.5398C189.149 61.2869 186.73 60.6535 184.783 59.6396C182.879 58.6294 181.403 57.3193 180.355 55.7092C179.35 54.1028 178.762 52.2377 178.592 50.1139C178.464 47.9937 178.731 45.6973 179.394 43.2245L182.11 33.0861C182.707 30.8606 183.616 28.7679 184.837 26.808C186.1 24.8518 187.638 23.1726 189.449 21.7704C191.314 20.3308 193.43 19.2506 195.798 18.5298C198.209 17.8128 200.86 17.5807 203.75 17.8336C208 18.2054 211.258 19.5238 213.522 21.7887C215.84 24.016 217.109 26.8266 217.331 30.2203L207.161 32.6205C207.219 31.1071 206.764 29.8019 205.796 28.705C204.839 27.5668 203.341 26.9085 201.301 26.73C200.068 26.6221 198.95 26.7352 197.947 27.0693C196.955 27.3621 196.074 27.8122 195.302 28.4195C194.53 29.0269 193.879 29.7503 193.35 30.5897C192.832 31.3879 192.457 32.2198 192.225 33.0852L189.094 44.7691C188.84 45.717 188.746 46.6367 188.811 47.5282C188.877 48.4197 189.119 49.2212 189.537 49.9326C189.956 50.6441 190.556 51.2449 191.338 51.7352C192.12 52.2254 193.128 52.5244 194.36 52.6322C196.358 52.807 198.106 52.4538 199.603 51.5725C201.155 50.6537 202.31 49.4262 203.07 47.8899L211.451 52.1661ZM239.419 30.0016L230.176 64.4967L220.421 63.6433L229.664 29.1482L217.55 28.0884L219.836 19.5573L253.819 22.5304L251.533 31.0614L239.419 30.0016ZM279.09 36.2562C278.204 35.5038 277.28 34.8957 276.317 34.4318C275.396 33.9717 274.474 33.5958 273.552 33.3042C272.672 33.0163 271.834 32.8164 271.037 32.7046C270.252 32.5515 269.561 32.4489 268.966 32.3969C267.734 32.289 266.702 32.3253 265.87 32.5056C265.082 32.6897 264.398 32.9673 263.82 33.3385C263.285 33.7135 262.866 34.1408 262.563 34.6205C262.314 35.0627 262.135 35.4898 262.024 35.9019C261.836 36.6026 261.809 37.1907 261.943 37.6664C262.119 38.1457 262.503 38.58 263.095 38.9692C263.729 39.3621 264.608 39.7343 265.732 40.0857C266.898 40.4408 268.356 40.8426 270.107 41.291C271.857 41.7393 273.484 42.3245 274.987 43.0466C276.501 43.7273 277.742 44.6162 278.71 45.7132C279.72 46.8138 280.382 48.1582 280.696 49.7463C281.063 51.2969 280.954 53.1643 280.369 55.3486C279.773 57.5741 278.733 59.5077 277.249 61.1494C275.776 62.7499 274.056 64.0546 272.089 65.0635C270.176 66.035 268.079 66.7162 265.799 67.1072C263.562 67.502 261.36 67.6046 259.192 67.4149C257.704 67.2848 256.217 67.0703 254.731 66.7716C253.234 66.5141 251.776 66.1123 250.356 65.5663C248.948 64.9791 247.583 64.2271 246.263 63.3102C244.985 62.397 243.789 61.2589 242.675 59.8961L250.304 53.0979C251.901 55.0935 253.679 56.4933 255.639 57.2975C257.609 58.0604 259.742 58.5422 262.037 58.743C264.205 58.9327 265.973 58.6656 267.342 57.9417C268.721 57.1767 269.566 56.2171 269.875 55.0632C270.018 54.5274 270.093 54.0067 270.098 53.501C270.103 52.9953 269.948 52.5177 269.633 52.0684C269.33 51.5779 268.813 51.1531 268.083 50.7939C267.363 50.3936 266.361 50.0739 265.077 49.835C263.007 49.443 261.055 48.9348 259.221 48.3104C257.388 47.686 255.833 46.8329 254.556 45.7512C253.291 44.6282 252.396 43.2634 251.869 41.6567C251.396 40.0125 251.485 37.9746 252.137 35.5431C252.744 33.2764 253.715 31.3578 255.049 29.7874C256.437 28.1795 257.997 26.903 259.73 25.9579C261.515 24.9753 263.388 24.3166 265.349 23.982C267.32 23.6061 269.219 23.4981 271.047 23.658C273.767 23.896 276.389 24.4207 278.912 25.2319C281.435 26.0432 283.683 27.3154 285.654 29.0485L279.09 36.2562Z"/>
</mask>
<path d="M43.4724 18.2996C42.9534 20.2366 42.0692 21.994 40.8199 23.5719C39.5706 25.1497 38.0845 26.4749 36.3616 27.5474C34.6813 28.6235 32.8121 29.4301 30.7542 29.9671C28.7073 30.4629 26.6213 30.6178 24.4961 30.4319L15.8252 29.6733L11.6178 45.3754L1.79931 44.5164L13.3282 1.49018L31.6263 3.09105C33.964 3.29558 36.0009 3.81121 37.7369 4.63796C39.4839 5.42349 40.8774 6.47334 41.9173 7.78751C42.9572 9.10168 43.6065 10.6558 43.8653 12.45C44.1776 14.2067 44.0466 16.1565 43.4724 18.2996ZM33.5761 17.244C34.0399 15.513 33.8509 14.189 33.0092 13.2717C32.1785 12.3133 30.7855 11.7485 28.8303 11.5775L20.8608 10.8802L18.1111 21.1422L26.3356 21.8618C27.9508 22.0031 29.4537 21.6706 30.8442 20.8643C32.2458 20.0168 33.1565 18.8101 33.5761 17.244Z" fill="#D3A7E0"/>
<path d="M61.308 49.7227L58.7506 32.4798L52.375 31.922L47.9191 48.5513L38.1006 47.6923L49.6295 4.66613L69.2665 6.38415C71.2217 6.5552 72.9721 7.00359 74.5176 7.72932C76.1057 8.45876 77.4095 9.4375 78.429 10.6655C79.4595 11.8523 80.1419 13.2829 80.4763 14.9571C80.8107 16.6313 80.7019 18.4988 80.1497 20.5594C79.454 23.1558 78.1232 25.4436 76.1574 27.4227C74.2451 29.3644 71.801 30.7744 68.8251 31.6529L72.4016 50.6933L61.308 49.7227ZM69.9321 19.7288C70.3628 18.1215 70.1619 16.9229 69.3296 16.133C68.4972 15.3431 67.2522 14.8757 65.5945 14.7307L57.1787 13.9944L54.6609 23.3909L62.7579 24.0993C64.5431 24.2555 66.0774 23.9679 67.3609 23.2366C68.6444 22.5054 69.5014 21.3361 69.9321 19.7288ZM104.055 9.11138C106.733 9.34566 109.018 9.98849 110.911 11.0399C112.858 12.0538 114.377 13.3677 115.467 14.9815C116.599 16.599 117.293 18.4734 117.549 20.6047C117.804 22.736 117.612 24.9968 116.971 27.3872L114.255 37.5255C113.57 40.0807 112.521 42.3721 111.108 44.3996C109.748 46.3895 108.104 48.0594 106.177 49.4092C104.303 50.7215 102.177 51.6744 99.7991 52.2678C97.4641 52.8649 94.979 53.0482 92.3437 52.8176C89.4534 52.5647 87.0459 51.8901 85.1211 50.7938C83.2388 49.7012 81.7794 48.3292 80.7428 46.6779C79.7598 44.9891 79.1776 43.1034 78.9961 41.0207C78.8682 38.9006 79.1024 36.7278 79.6987 34.5023L82.4153 24.3639C83.0116 22.1384 83.9203 20.0457 85.1415 18.0858C86.4052 16.1296 87.9427 14.4504 89.7539 13.0482C91.6187 11.6086 93.7351 10.5284 96.1033 9.80763C98.514 9.0906 101.164 8.85851 104.055 9.11138ZM101.606 18.0078C100.373 17.8999 99.2552 18.013 98.2522 18.3471C97.2603 18.6399 96.3784 19.09 95.6066 19.6973C94.8349 20.3047 94.1843 21.0281 93.6549 21.8675C93.1365 22.6657 92.7613 23.4976 92.5294 24.363L89.3988 36.0469C89.1448 36.9948 89.0506 37.9145 89.1162 38.806C89.1818 39.6975 89.4239 40.499 89.8422 41.2104C90.2606 41.9219 90.8609 42.5227 91.643 43.013C92.4252 43.5032 93.4326 43.8022 94.6652 43.91C97.0454 44.1183 99.0553 43.5982 100.695 42.3497C102.388 41.0638 103.511 39.3905 104.063 37.3298L107.193 25.646C107.701 23.7502 107.479 22.0646 106.526 20.5893C105.626 19.0765 103.986 18.216 101.606 18.0078ZM139.651 42.3414C138.922 45.0615 137.884 47.3116 136.537 49.0918C135.244 50.8345 133.768 52.2028 132.11 53.1965C130.462 54.149 128.664 54.772 126.715 55.0655C124.808 55.3626 122.877 55.4257 120.922 55.2546C119.605 55.1393 118.351 54.9454 117.163 54.6727C115.975 54.4 114.862 54.0074 113.825 53.4948C112.798 52.9411 111.875 52.2487 111.053 51.4176C110.232 50.5865 109.551 49.5568 109.01 48.3285L117.25 42.6593C118.035 43.9511 118.908 44.9133 119.87 45.5457C120.842 46.137 121.775 46.4716 122.667 46.5497C123.22 46.5981 123.853 46.5902 124.566 46.526C125.29 46.4207 126.005 46.188 126.711 45.8279C127.427 45.4266 128.082 44.8512 128.674 44.1016C129.266 43.352 129.734 42.3384 130.076 41.0608L137.762 12.3767L147.453 13.2246L139.651 42.3414ZM141.837 56.7681L153.366 13.7419L184.734 16.4862L182.448 25.0173L160.898 23.1319L158.563 31.8485L176.925 33.4549L174.722 41.6769L156.36 40.0704L153.941 49.096L175.491 50.9814L173.205 59.5124L141.837 56.7681ZM211.451 52.1661C209.44 55.4489 206.73 57.9323 203.321 59.6165C199.965 61.2631 196.204 61.9042 192.039 61.5398C189.149 61.2869 186.73 60.6535 184.783 59.6396C182.879 58.6294 181.403 57.3193 180.355 55.7092C179.35 54.1028 178.762 52.2377 178.592 50.1139C178.464 47.9937 178.731 45.6973 179.394 43.2245L182.11 33.0861C182.707 30.8606 183.616 28.7679 184.837 26.808C186.1 24.8518 187.638 23.1726 189.449 21.7704C191.314 20.3308 193.43 19.2506 195.798 18.5298C198.209 17.8128 200.86 17.5807 203.75 17.8336C208 18.2054 211.258 19.5238 213.522 21.7887C215.84 24.016 217.109 26.8266 217.331 30.2203L207.161 32.6205C207.219 31.1071 206.764 29.8019 205.796 28.705C204.839 27.5668 203.341 26.9085 201.301 26.73C200.068 26.6221 198.95 26.7352 197.947 27.0693C196.955 27.3621 196.074 27.8122 195.302 28.4195C194.53 29.0269 193.879 29.7503 193.35 30.5897C192.832 31.3879 192.457 32.2198 192.225 33.0852L189.094 44.7691C188.84 45.717 188.746 46.6367 188.811 47.5282C188.877 48.4197 189.119 49.2212 189.537 49.9326C189.956 50.6441 190.556 51.2449 191.338 51.7352C192.12 52.2254 193.128 52.5244 194.36 52.6322C196.358 52.807 198.106 52.4538 199.603 51.5725C201.155 50.6537 202.31 49.4262 203.07 47.8899L211.451 52.1661ZM239.419 30.0016L230.176 64.4967L220.421 63.6433L229.664 29.1482L217.55 28.0884L219.836 19.5573L253.819 22.5304L251.533 31.0614L239.419 30.0016ZM279.09 36.2562C278.204 35.5038 277.28 34.8957 276.317 34.4318C275.396 33.9717 274.474 33.5958 273.552 33.3042C272.672 33.0163 271.834 32.8164 271.037 32.7046C270.252 32.5515 269.561 32.4489 268.966 32.3969C267.734 32.289 266.702 32.3253 265.87 32.5056C265.082 32.6897 264.398 32.9673 263.82 33.3385C263.285 33.7135 262.866 34.1408 262.563 34.6205C262.314 35.0627 262.135 35.4898 262.024 35.9019C261.836 36.6026 261.809 37.1907 261.943 37.6664C262.119 38.1457 262.503 38.58 263.095 38.9692C263.729 39.3621 264.608 39.7343 265.732 40.0857C266.898 40.4408 268.356 40.8426 270.107 41.291C271.857 41.7393 273.484 42.3245 274.987 43.0466C276.501 43.7273 277.742 44.6162 278.71 45.7132C279.72 46.8138 280.382 48.1582 280.696 49.7463C281.063 51.2969 280.954 53.1643 280.369 55.3486C279.773 57.5741 278.733 59.5077 277.249 61.1494C275.776 62.7499 274.056 64.0546 272.089 65.0635C270.176 66.035 268.079 66.7162 265.799 67.1072C263.562 67.502 261.36 67.6046 259.192 67.4149C257.704 67.2848 256.217 67.0703 254.731 66.7716C253.234 66.5141 251.776 66.1123 250.356 65.5663C248.948 64.9791 247.583 64.2271 246.263 63.3102C244.985 62.397 243.789 61.2589 242.675 59.8961L250.304 53.0979C251.901 55.0935 253.679 56.4933 255.639 57.2975C257.609 58.0604 259.742 58.5422 262.037 58.743C264.205 58.9327 265.973 58.6656 267.342 57.9417C268.721 57.1767 269.566 56.2171 269.875 55.0632C270.018 54.5274 270.093 54.0067 270.098 53.501C270.103 52.9953 269.948 52.5177 269.633 52.0684C269.33 51.5779 268.813 51.1531 268.083 50.7939C267.363 50.3936 266.361 50.0739 265.077 49.835C263.007 49.443 261.055 48.9348 259.221 48.3104C257.388 47.686 255.833 46.8329 254.556 45.7512C253.291 44.6282 252.396 43.2634 251.869 41.6567C251.396 40.0125 251.485 37.9746 252.137 35.5431C252.744 33.2764 253.715 31.3578 255.049 29.7874C256.437 28.1795 257.997 26.903 259.73 25.9579C261.515 24.9753 263.388 24.3166 265.349 23.982C267.32 23.6061 269.219 23.4981 271.047 23.658C273.767 23.896 276.389 24.4207 278.912 25.2319C281.435 26.0432 283.683 27.3154 285.654 29.0485L279.09 36.2562Z" fill="#FBEDFF"/>
<path d="M36.3616 27.5474L35.8985 26.7643L35.8914 26.7686L35.8845 26.7731L36.3616 27.5474ZM30.7542 29.9671L30.8514 30.9047L30.8616 30.9022L30.8718 30.8995L30.7542 29.9671ZM15.8252 29.6733L16.084 28.7074L15.0878 28.6202L14.829 29.5861L15.8252 29.6733ZM11.6178 45.3754L11.359 46.3413L12.3552 46.4285L12.614 45.4625L11.6178 45.3754ZM1.79931 44.5164L0.80312 44.4292L0.544301 45.3952L1.5405 45.4823L1.79931 44.5164ZM13.3282 1.49018L13.587 0.52425L12.5908 0.437095L12.332 1.40302L13.3282 1.49018ZM37.7369 4.63796L37.1593 5.51887L37.1677 5.5229L37.1763 5.52676L37.7369 4.63796ZM43.8653 12.45L42.8448 12.7316L42.8467 12.7451L42.8491 12.7585L43.8653 12.45ZM33.0092 13.2717L32.1702 13.9553L32.1774 13.9635L32.1847 13.9715L33.0092 13.2717ZM20.8608 10.8802L21.1196 9.91432L20.1234 9.82716L19.8646 10.7931L20.8608 10.8802ZM18.1111 21.1422L17.1149 21.0551L16.856 22.021L17.8522 22.1082L18.1111 21.1422ZM30.8442 20.8643L31.2729 21.6682L31.2831 21.6623L31.2932 21.6562L30.8442 20.8643ZM43.4724 18.2996L42.4762 18.2124C41.9932 20.0151 41.1763 21.6324 40.0311 23.0787L40.8199 23.5719L41.6087 24.065C42.9621 22.3557 43.9136 20.4581 44.4686 18.3867L43.4724 18.2996ZM40.8199 23.5719L40.0311 23.0787C38.871 24.544 37.4954 25.7702 35.8985 26.7643L36.3616 27.5474L36.8248 28.3305C38.6737 27.1796 40.2703 25.7555 41.6087 24.065L40.8199 23.5719ZM36.3616 27.5474L35.8845 26.7731C34.326 27.7712 32.5805 28.5275 30.6366 29.0347L30.7542 29.9671L30.8718 30.8995C33.0437 30.3328 35.0365 29.4759 36.8388 28.3216L36.3616 27.5474ZM30.7542 29.9671L30.657 29.0296C28.7374 29.4945 26.7719 29.6424 24.7549 29.466L24.4961 30.4319L24.2372 31.3978C26.4706 31.5932 28.6772 31.4313 30.8514 30.9047L30.7542 29.9671ZM24.4961 30.4319L24.7549 29.466L16.084 28.7074L15.8252 29.6733L15.5664 30.6392L24.2372 31.3978L24.4961 30.4319ZM15.8252 29.6733L14.829 29.5861L10.6216 45.2882L11.6178 45.3754L12.614 45.4625L16.8214 29.7605L15.8252 29.6733ZM11.6178 45.3754L11.8766 44.4095L2.05813 43.5505L1.79931 44.5164L1.5405 45.4823L11.359 46.3413L11.6178 45.3754ZM1.79931 44.5164L2.79551 44.6035L14.3243 1.57733L13.3282 1.49018L12.332 1.40302L0.80312 44.4292L1.79931 44.5164ZM13.3282 1.49018L13.0693 2.4561L31.3674 4.05698L31.6263 3.09105L31.8851 2.12513L13.587 0.52425L13.3282 1.49018ZM31.6263 3.09105L31.3674 4.05698C33.6084 4.25304 35.534 4.74487 37.1593 5.51887L37.7369 4.63796L38.3145 3.75705C36.4677 2.87755 34.3196 2.33812 31.8851 2.12513L31.6263 3.09105ZM37.7369 4.63796L37.1763 5.52676C38.8155 6.2638 40.1023 7.23881 41.0565 8.44472L41.9173 7.78751L42.778 7.1303C41.6525 5.70787 40.1523 4.58318 38.2974 3.74916L37.7369 4.63796ZM41.9173 7.78751L41.0565 8.44472C42.0072 9.64617 42.6051 11.0702 42.8448 12.7316L43.8653 12.45L44.8858 12.1684C44.6079 10.2415 43.9071 8.55718 42.778 7.1303L41.9173 7.78751ZM43.8653 12.45L42.8491 12.7585C43.1354 14.369 43.0204 16.1817 42.4762 18.2124L43.4724 18.2996L44.4686 18.3867C45.0729 16.1314 45.2198 14.0443 44.8815 12.1415L43.8653 12.45ZM33.5761 17.244L34.5723 17.3311C35.0883 15.4054 34.9175 13.7531 33.8336 12.5719L33.0092 13.2717L32.1847 13.9715C32.7843 14.6249 32.9915 15.6206 32.5799 17.1568L33.5761 17.244ZM33.0092 13.2717L33.8481 12.5882C32.8293 11.4127 31.1841 10.7948 29.0891 10.6116L28.8303 11.5775L28.5715 12.5434C30.3869 12.7022 31.5276 13.2139 32.1702 13.9553L33.0092 13.2717ZM28.8303 11.5775L29.0891 10.6116L21.1196 9.91432L20.8608 10.8802L20.6019 11.8462L28.5715 12.5434L28.8303 11.5775ZM20.8608 10.8802L19.8646 10.7931L17.1149 21.0551L18.1111 21.1422L19.1073 21.2294L21.857 10.9674L20.8608 10.8802ZM18.1111 21.1422L17.8522 22.1082L26.0768 22.8277L26.3356 21.8618L26.5945 20.8959L18.3699 20.1763L18.1111 21.1422ZM26.3356 21.8618L26.0768 22.8277C27.8989 22.9871 29.6469 22.611 31.2729 21.6682L30.8442 20.8643L30.4156 20.0605C29.2605 20.7302 28.0027 21.0191 26.5945 20.8959L26.3356 21.8618ZM30.8442 20.8643L31.2932 21.6562C32.9874 20.6317 34.083 19.1573 34.5723 17.3311L33.5761 17.244L32.5799 17.1568C32.2299 18.4629 31.5042 19.402 30.3953 20.0725L30.8442 20.8643ZM61.308 49.7227L60.288 50.0076L60.3803 50.6301L61.0492 50.6886L61.308 49.7227ZM58.7506 32.4798L59.7707 32.1948L59.6783 31.5724L59.0094 31.5138L58.7506 32.4798ZM52.375 31.922L52.6338 30.956L51.6376 30.8689L51.3788 31.8348L52.375 31.922ZM47.9191 48.5513L47.6603 49.5173L48.6565 49.6044L48.9153 48.6385L47.9191 48.5513ZM38.1006 47.6923L37.1045 47.6052L36.8456 48.5711L37.8418 48.6583L38.1006 47.6923ZM49.6295 4.66613L49.8883 3.70021L48.8921 3.61305L48.6333 4.57898L49.6295 4.66613ZM74.5176 7.72932L73.9442 8.61225L73.9508 8.61526L74.5176 7.72932ZM78.429 10.6655L77.5795 11.3367L77.5849 11.3432L77.5905 11.3496L78.429 10.6655ZM80.4763 14.9571L81.4893 14.6315L81.4893 14.6315L80.4763 14.9571ZM76.1574 27.4227L75.4616 26.8248L75.4579 26.8286L76.1574 27.4227ZM68.8251 31.6529L68.6706 30.7308L67.6351 31.0364L67.8103 31.9693L68.8251 31.6529ZM72.4016 50.6933L72.1428 51.6592L73.6826 51.7939L73.4164 50.3769L72.4016 50.6933ZM69.3296 16.133L70.1166 15.3952L70.1166 15.3952L69.3296 16.133ZM57.1787 13.9944L57.4375 13.0285L56.4413 12.9413L56.1825 13.9072L57.1787 13.9944ZM54.6609 23.3909L53.6647 23.3037L53.4058 24.2697L54.402 24.3568L54.6609 23.3909ZM61.308 49.7227L62.328 49.4378L59.7707 32.1948L58.7506 32.4798L57.7306 32.7647L60.288 50.0076L61.308 49.7227ZM58.7506 32.4798L59.0094 31.5138L52.6338 30.956L52.375 31.922L52.1162 32.8879L58.4918 33.4457L58.7506 32.4798ZM52.375 31.922L51.3788 31.8348L46.9229 48.4642L47.9191 48.5513L48.9153 48.6385L53.3712 32.0091L52.375 31.922ZM47.9191 48.5513L48.178 47.5854L38.3595 46.7264L38.1006 47.6923L37.8418 48.6583L47.6603 49.5173L47.9191 48.5513ZM38.1006 47.6923L39.0968 47.7795L50.6257 4.75329L49.6295 4.66613L48.6333 4.57898L37.1045 47.6052L38.1006 47.6923ZM49.6295 4.66613L49.3707 5.63206L69.0077 7.35007L69.2665 6.38415L69.5253 5.41822L49.8883 3.70021L49.6295 4.66613ZM69.2665 6.38415L69.0077 7.35007C70.8604 7.51216 72.5027 7.93535 73.9442 8.61223L74.5176 7.72932L75.091 6.84641C73.4414 6.07184 71.583 5.59824 69.5253 5.41822L69.2665 6.38415ZM74.5176 7.72932L73.9508 8.61526C75.4336 9.29637 76.6393 10.2042 77.5795 11.3367L78.429 10.6655L79.2784 9.99438C78.1796 8.67081 76.7778 7.62116 75.0845 6.84338L74.5176 7.72932ZM78.429 10.6655L77.5905 11.3496C78.5276 12.4289 79.1542 13.7347 79.4634 15.2827L80.4763 14.9571L81.4893 14.6315C81.1297 12.831 80.3913 11.2758 79.2674 9.98145L78.429 10.6655ZM80.4763 14.9571L79.4634 15.2827C79.7674 16.8048 79.6743 18.5286 79.1535 20.4723L80.1497 20.5594L81.1459 20.6466C81.7294 18.4689 81.8541 16.4579 81.4893 14.6315L80.4763 14.9571ZM80.1497 20.5594L79.1535 20.4723C78.5058 22.8898 77.2756 24.9985 75.4616 26.8248L76.1574 27.4227L76.8532 28.0206C78.9708 25.8887 80.4023 23.4219 81.1459 20.6466L80.1497 20.5594ZM76.1574 27.4227L75.4579 26.8286C73.7192 28.594 71.475 29.9029 68.6706 30.7308L68.8251 31.6529L68.9796 32.5751C72.127 31.646 74.771 30.1348 76.857 28.0168L76.1574 27.4227ZM68.8251 31.6529L67.8103 31.9693L71.3869 51.0097L72.4016 50.6933L73.4164 50.3769L69.8398 31.3365L68.8251 31.6529ZM72.4016 50.6933L72.6604 49.7274L61.5668 48.7568L61.308 49.7227L61.0492 50.6886L72.1428 51.6592L72.4016 50.6933ZM69.9321 19.7288L70.9283 19.8159C71.4129 18.0075 71.2311 16.4527 70.1166 15.3952L69.3296 16.133L68.5426 16.8708C69.0928 17.393 69.3127 18.2354 68.9359 19.6416L69.9321 19.7288ZM69.3296 16.133L70.1166 15.3952C69.1084 14.4385 67.6508 13.922 65.8533 13.7647L65.5945 14.7307L65.3357 15.6966C66.8536 15.8294 67.886 16.2478 68.5426 16.8708L69.3296 16.133ZM65.5945 14.7307L65.8533 13.7647L57.4375 13.0285L57.1787 13.9944L56.9198 14.9603L65.3357 15.6966L65.5945 14.7307ZM57.1787 13.9944L56.1825 13.9072L53.6647 23.3037L54.6609 23.3909L55.6571 23.4781L58.1749 14.0815L57.1787 13.9944ZM54.6609 23.3909L54.402 24.3568L62.4991 25.0652L62.7579 24.0993L63.0168 23.1334L54.9197 22.425L54.6609 23.3909ZM62.7579 24.0993L62.4991 25.0652C64.4395 25.235 66.2258 24.9316 67.7811 24.0454L67.3609 23.2366L66.9407 22.4279C65.9291 23.0043 64.6467 23.276 63.0168 23.1334L62.7579 24.0993ZM67.3609 23.2366L67.7811 24.0454C69.4124 23.1159 70.438 21.6459 70.9283 19.8159L69.9321 19.7288L68.9359 19.6416C68.5649 21.0263 67.8763 21.8948 66.9407 22.4279L67.3609 23.2366ZM110.911 11.0399L110.287 11.8967L110.297 11.9021L110.307 11.9073L110.911 11.0399ZM115.467 14.9815L114.572 15.5924L114.579 15.6029L115.467 14.9815ZM117.549 20.6047L118.572 20.3431L118.572 20.3431L117.549 20.6047ZM111.108 44.3996L110.275 43.9657L110.269 43.975L111.108 44.3996ZM106.177 49.4092L105.655 48.6646L105.655 48.6646L106.177 49.4092ZM99.7991 52.2678L99.6939 51.3322L99.6872 51.3339L99.7991 52.2678ZM85.1211 50.7938L84.483 51.6428L84.4888 51.6462L85.1211 50.7938ZM80.7428 46.6779L79.821 47.2454L79.8274 47.2565L79.8342 47.2673L80.7428 46.6779ZM78.9961 41.0207L77.9684 41.2321L77.9691 41.2436L77.9701 41.255L78.9961 41.0207ZM85.1415 18.0858L84.2852 17.6868L84.28 17.6949L84.2749 17.7031L85.1415 18.0858ZM89.7539 13.0482L89.1841 12.3392L89.1827 12.3403L89.7539 13.0482ZM96.1033 9.80763L95.9464 8.88616L95.939 8.8884L96.1033 9.80763ZM98.2522 18.3471L98.4068 19.2692L98.4269 19.2633L98.4468 19.2566L98.2522 18.3471ZM95.6066 19.6973L96.1859 20.399L96.1859 20.399L95.6066 19.6973ZM93.6549 21.8675L94.5096 22.2689L94.5139 22.2623L94.5181 22.2556L93.6549 21.8675ZM91.643 43.013L90.981 43.8476L90.981 43.8476L91.643 43.013ZM100.695 42.3497L100.133 41.6345L100.132 41.6355L100.695 42.3497ZM106.526 20.5893L105.607 21.1631L105.615 21.1753L105.622 21.1872L106.526 20.5893ZM104.055 9.11138L103.796 10.0773C106.362 10.3018 108.519 10.9147 110.287 11.8967L110.911 11.0399L111.536 10.1831C109.517 9.06229 107.103 8.38947 104.314 8.14546L104.055 9.11138ZM110.911 11.0399L110.307 11.9073C112.146 12.8651 113.561 14.0953 114.572 15.5923L115.467 14.9815L116.361 14.3706C115.193 12.6401 113.571 11.2425 111.516 10.1725L110.911 11.0399ZM115.467 14.9815L114.579 15.6029C115.635 17.1099 116.285 18.8602 116.526 20.8664L117.549 20.6047L118.572 20.3431C118.302 18.0867 117.564 16.0881 116.354 14.3601L115.467 14.9815ZM117.549 20.6047L116.526 20.8664C116.766 22.8751 116.587 25.017 115.975 27.3L116.971 27.3872L117.967 27.4743C118.637 24.9767 118.842 22.597 118.572 20.3431L117.549 20.6047ZM116.971 27.3872L115.975 27.3L113.259 37.4384L114.255 37.5255L115.251 37.6127L117.967 27.4743L116.971 27.3872ZM114.255 37.5255L113.259 37.4384C112.602 39.8887 111.603 42.06 110.275 43.9658L111.108 44.3996L111.941 44.8333C113.439 42.6842 114.538 40.2728 115.251 37.6127L114.255 37.5255ZM111.108 44.3996L110.269 43.975C108.989 45.8481 107.451 47.407 105.655 48.6646L106.177 49.4092L106.698 50.1539C108.757 48.7119 110.508 46.931 111.947 44.8241L111.108 44.3996ZM106.177 49.4092L105.655 48.6646C103.921 49.8792 101.939 50.7718 99.6939 51.3322L99.7991 52.2678L99.9044 53.2033C102.414 52.577 104.684 51.5639 106.698 50.1539L106.177 49.4092ZM99.7991 52.2678L99.6872 51.3339C97.4944 51.8946 95.1358 52.0733 92.6025 51.8517L92.3437 52.8176L92.0849 53.7835C94.8221 54.023 97.4338 53.8351 99.9111 53.2017L99.7991 52.2678ZM92.3437 52.8176L92.6025 51.8517C89.8183 51.6081 87.5456 50.9623 85.7533 49.9414L85.1211 50.7938L84.4888 51.6462C86.5461 52.818 89.0885 53.5214 92.0849 53.7835L92.3437 52.8176ZM85.1211 50.7938L85.7592 49.9448C83.9787 48.9112 82.6156 47.6244 81.6515 46.0885L80.7428 46.6779L79.8342 47.2673C80.9432 49.034 82.4989 50.4911 84.483 51.6428L85.1211 50.7938ZM80.7428 46.6779L81.6647 46.1104C80.7418 44.5249 80.1935 42.7529 80.0221 40.7865L78.9961 41.0207L77.9701 41.255C78.1617 43.4538 78.7778 45.4534 79.821 47.2454L80.7428 46.6779ZM78.9961 41.0207L80.0238 40.8094C79.902 38.7899 80.1246 36.7179 80.6949 34.5894L79.6987 34.5023L78.7025 34.4151C78.0802 36.7376 77.8344 39.0113 77.9684 41.2321L78.9961 41.0207ZM79.6987 34.5023L80.6949 34.5894L83.4115 24.4511L82.4153 24.3639L81.4191 24.2768L78.7025 34.4151L79.6987 34.5023ZM82.4153 24.3639L83.4115 24.4511C83.9818 22.3225 84.8483 20.33 86.0082 18.4685L85.1415 18.0858L84.2749 17.7031C82.9924 19.7614 82.0414 21.9543 81.4191 24.2768L82.4153 24.3639ZM85.1415 18.0858L85.9978 18.4847C87.1898 16.6396 88.6319 15.0669 90.3251 13.7562L89.7539 13.0482L89.1827 12.3403C87.2534 13.8338 85.6206 15.6195 84.2852 17.6868L85.1415 18.0858ZM89.7539 13.0482L90.3237 13.7573C92.0576 12.4186 94.0339 11.4067 96.2676 10.7269L96.1033 9.80763L95.939 8.8884C93.4364 9.65007 91.1797 10.7985 89.1841 12.3392L89.7539 13.0482ZM96.1033 9.80763L96.2602 10.7291C98.5049 10.0614 101.012 9.83372 103.796 10.0773L104.055 9.11138L104.314 8.14546C101.317 7.88331 98.523 8.11979 95.9464 8.88618L96.1033 9.80763ZM101.606 18.0078L101.865 17.0418C100.519 16.9242 99.2434 17.0426 98.0576 17.4375L98.2522 18.3471L98.4468 19.2566C99.2671 18.9835 100.227 18.8757 101.347 18.9737L101.606 18.0078ZM98.2522 18.3471L98.0977 17.4249C96.965 17.7593 95.9358 18.2808 95.0274 18.9957L95.6066 19.6973L96.1859 20.399C96.821 19.8992 97.5555 19.5205 98.4068 19.2692L98.2522 18.3471ZM95.6066 19.6973L95.0274 18.9957C94.138 19.6956 93.3924 20.5269 92.7916 21.4794L93.6549 21.8675L94.5181 22.2556C94.9762 21.5293 95.5318 20.9138 96.1859 20.399L95.6066 19.6973ZM93.6549 21.8675L92.8001 21.4661C92.2178 22.3628 91.7945 23.3008 91.5332 24.2759L92.5294 24.363L93.5256 24.4502C93.7282 23.6944 94.0552 22.9687 94.5096 22.2689L93.6549 21.8675ZM92.5294 24.363L91.5332 24.2759L88.4026 35.9597L89.3988 36.0469L90.395 36.134L93.5256 24.4502L92.5294 24.363ZM89.3988 36.0469L88.4026 35.9597C88.1219 37.0073 88.0159 38.0319 88.0893 39.0287L89.1162 38.806L90.1431 38.5832C90.0853 37.7971 90.1677 36.9822 90.395 36.134L89.3988 36.0469ZM89.1162 38.806L88.0893 39.0287C88.1638 40.0403 88.4399 40.961 88.9221 41.7809L89.8422 41.2104L90.7624 40.64C90.4078 40.0369 90.1999 39.3546 90.1431 38.5832L89.1162 38.806ZM89.8422 41.2104L88.9221 41.7809C89.409 42.609 90.1016 43.2964 90.981 43.8476L91.643 43.013L92.305 42.1783C91.6201 41.7491 91.1122 41.2348 90.7624 40.64L89.8422 41.2104ZM91.643 43.013L90.981 43.8476C91.9057 44.4271 93.0612 44.7583 94.4064 44.876L94.6652 43.91L94.924 42.9441C93.8039 42.8461 92.9447 42.5792 92.305 42.1783L91.643 43.013ZM94.6652 43.91L94.4064 44.876C96.9904 45.102 99.3163 44.5425 101.258 43.064L100.695 42.3497L100.132 41.6355C98.7944 42.6539 97.1004 43.1345 94.924 42.9441L94.6652 43.91ZM100.695 42.3497L101.257 43.0649C103.184 41.6009 104.448 39.6957 105.059 37.417L104.063 37.3298L103.067 37.2427C102.573 39.0852 101.592 40.5266 100.133 41.6345L100.695 42.3497ZM104.063 37.3298L105.059 37.417L108.19 25.7331L107.193 25.646L106.197 25.5588L103.067 37.2427L104.063 37.3298ZM107.193 25.646L108.19 25.7331C108.762 23.596 108.51 21.6645 107.429 19.9915L106.526 20.5893L105.622 21.1872C106.448 22.4648 106.641 23.9044 106.197 25.5588L107.193 25.646ZM106.526 20.5893L107.444 20.0156C106.38 18.2271 104.458 17.2687 101.865 17.0418L101.606 18.0078L101.347 18.9737C103.514 19.1633 104.872 19.926 105.607 21.1631L106.526 20.5893ZM136.537 49.0918L135.732 48.6198L135.725 48.6289L136.537 49.0918ZM132.11 53.1965L132.537 54.0011L132.546 53.9961L132.554 53.991L132.11 53.1965ZM126.715 55.0655L126.719 54.1081L126.713 54.109L126.715 55.0655ZM117.163 54.6727L117.556 53.7277L117.556 53.7277L117.163 54.6727ZM113.825 53.4948L113.209 54.3565L113.222 54.3636L113.236 54.3704L113.825 53.4948ZM111.053 51.4176L111.858 50.6971L111.858 50.6971L111.053 51.4176ZM109.01 48.3285L108.497 47.5778L107.734 48.1032L108.049 48.819L109.01 48.3285ZM117.25 42.6593L118.164 42.0794L117.671 41.2664L116.737 41.9086L117.25 42.6593ZM119.87 45.5457L119.193 46.3707L119.205 46.3787L119.217 46.3862L119.87 45.5457ZM124.566 46.526L124.495 47.4915L124.526 47.4887L124.557 47.4842L124.566 46.526ZM126.711 45.8279L127.079 46.6646L127.101 46.6533L127.123 46.6413L126.711 45.8279ZM128.674 44.1016L127.884 43.6093L127.884 43.6093L128.674 44.1016ZM137.762 12.3767L138.021 11.4108L137.024 11.3236L136.766 12.2896L137.762 12.3767ZM147.453 13.2246L148.449 13.3117L148.708 12.3458L147.712 12.2586L147.453 13.2246ZM139.651 42.3414L138.655 42.2543C137.95 44.8827 136.964 46.9912 135.732 48.6199L136.537 49.0918L137.342 49.5638C138.804 47.632 139.894 45.2402 140.647 42.4286L139.651 42.3414ZM136.537 49.0918L135.725 48.6289C134.515 50.2588 133.16 51.5061 131.665 52.4021L132.11 53.1965L132.554 53.991C134.376 52.8994 135.972 51.4102 137.349 49.5548L136.537 49.0918ZM132.11 53.1965L131.682 52.3919C130.18 53.2603 128.531 53.8353 126.719 54.1081L126.715 55.0655L126.711 56.0229C128.797 55.7088 130.744 55.0378 132.537 54.0011L132.11 53.1965ZM126.715 55.0655L126.713 54.109C124.899 54.3916 123.056 54.4527 121.181 54.2887L120.922 55.2546L120.663 56.2205C122.699 56.3986 124.717 56.3336 126.717 56.022L126.715 55.0655ZM120.922 55.2546L121.181 54.2887C119.906 54.1772 118.698 53.9899 117.556 53.7277L117.163 54.6727L116.771 55.6176C118.005 55.9009 119.303 56.1015 120.663 56.2205L120.922 55.2546ZM117.163 54.6727L117.556 53.7277C116.435 53.4706 115.388 53.101 114.413 52.6193L113.825 53.4948L113.236 54.3704C114.335 54.9137 115.514 55.3293 116.771 55.6176L117.163 54.6727ZM113.825 53.4948L114.44 52.6332C113.487 52.1187 112.626 51.4742 111.858 50.6971L111.053 51.4176L110.249 52.138C111.123 53.0231 112.11 53.7635 113.209 54.3565L113.825 53.4948ZM111.053 51.4176L111.858 50.6971C111.111 49.9416 110.48 48.9929 109.971 47.838L109.01 48.3285L108.049 48.819C108.622 50.1208 109.353 51.2314 110.249 52.138L111.053 51.4176ZM109.01 48.3285L109.523 49.0792L117.763 43.41L117.25 42.6593L116.737 41.9086L108.497 47.5778L109.01 48.3285ZM117.25 42.6593L116.335 43.2392C117.161 44.5975 118.107 45.6564 119.193 46.3707L119.87 45.5457L120.547 44.7208C119.71 44.1702 118.909 43.3047 118.164 42.0794L117.25 42.6593ZM119.87 45.5457L119.217 46.3862C120.265 47.0235 121.329 47.4212 122.409 47.5156L122.667 46.5497L122.926 45.5838C122.22 45.522 121.419 45.2505 120.522 44.7052L119.87 45.5457ZM122.667 46.5497L122.409 47.5156C123.036 47.5705 123.734 47.56 124.495 47.4915L124.566 46.526L124.637 45.5606C123.972 45.6204 123.404 45.6256 122.926 45.5838L122.667 46.5497ZM124.566 46.526L124.557 47.4842C125.415 47.3593 126.258 47.0835 127.079 46.6646L126.711 45.8279L126.342 44.9912C125.752 45.2925 125.165 45.482 124.575 45.5678L124.566 46.526ZM126.711 45.8279L127.123 46.6413C128.009 46.1447 128.787 45.4496 129.463 44.5939L128.674 44.1016L127.884 43.6093C127.376 44.2528 126.845 44.7086 126.299 45.0145L126.711 45.8279ZM128.674 44.1016L129.463 44.5939C130.189 43.6761 130.708 42.5063 131.072 41.148L130.076 41.0608L129.08 40.9737C128.759 42.1706 128.344 43.028 127.884 43.6093L128.674 44.1016ZM130.076 41.0608L131.072 41.148L138.758 12.4639L137.762 12.3767L136.766 12.2896L129.08 40.9737L130.076 41.0608ZM137.762 12.3767L137.503 13.3426L147.194 14.1905L147.453 13.2246L147.712 12.2586L138.021 11.4108L137.762 12.3767ZM147.453 13.2246L146.457 13.1374L138.655 42.2543L139.651 42.3414L140.647 42.4286L148.449 13.3117L147.453 13.2246ZM141.837 56.7681L140.841 56.6809L140.582 57.6469L141.578 57.734L141.837 56.7681ZM153.366 13.7419L153.625 12.776L152.628 12.6888L152.37 13.6547L153.366 13.7419ZM184.734 16.4862L185.73 16.5734L185.989 15.6075L184.993 15.5203L184.734 16.4862ZM182.448 25.0173L182.189 25.9832L183.185 26.0704L183.444 25.1045L182.448 25.0173ZM160.898 23.1319L161.157 22.166L160.161 22.0789L159.902 23.0448L160.898 23.1319ZM158.563 31.8485L157.567 31.7613L157.308 32.7272L158.304 32.8144L158.563 31.8485ZM176.925 33.4549L177.921 33.5421L178.18 32.5761L177.183 32.489L176.925 33.4549ZM174.722 41.6769L174.463 42.6428L175.459 42.73L175.718 41.764L174.722 41.6769ZM156.36 40.0704L156.619 39.1045L155.622 39.0173L155.363 39.9833L156.36 40.0704ZM153.941 49.096L152.945 49.0089L152.686 49.9748L153.682 50.062L153.941 49.096ZM175.491 50.9814L176.487 51.0685L176.746 50.1026L175.75 50.0155L175.491 50.9814ZM173.205 59.5124L172.946 60.4784L173.942 60.5655L174.201 59.5996L173.205 59.5124ZM141.837 56.7681L142.833 56.8552L154.362 13.829L153.366 13.7419L152.37 13.6547L140.841 56.6809L141.837 56.7681ZM153.366 13.7419L153.107 14.7078L184.475 17.4522L184.734 16.4862L184.993 15.5203L153.625 12.776L153.366 13.7419ZM184.734 16.4862L183.738 16.3991L181.452 24.9301L182.448 25.0173L183.444 25.1045L185.73 16.5734L184.734 16.4862ZM182.448 25.0173L182.707 24.0514L161.157 22.166L160.898 23.1319L160.64 24.0979L182.189 25.9832L182.448 25.0173ZM160.898 23.1319L159.902 23.0448L157.567 31.7613L158.563 31.8485L159.559 31.9356L161.895 23.2191L160.898 23.1319ZM158.563 31.8485L158.304 32.8144L176.666 34.4208L176.925 33.4549L177.183 32.489L158.822 30.8825L158.563 31.8485ZM176.925 33.4549L175.928 33.3678L173.725 41.5897L174.722 41.6769L175.718 41.764L177.921 33.5421L176.925 33.4549ZM174.722 41.6769L174.98 40.7109L156.619 39.1045L156.36 40.0704L156.101 41.0363L174.463 42.6428L174.722 41.6769ZM156.36 40.0704L155.363 39.9833L152.945 49.0089L153.941 49.096L154.937 49.1832L157.356 40.1576L156.36 40.0704ZM153.941 49.096L153.682 50.062L175.232 51.9473L175.491 50.9814L175.75 50.0155L154.2 48.1301L153.941 49.096ZM175.491 50.9814L174.495 50.8942L172.209 59.4253L173.205 59.5124L174.201 59.5996L176.487 51.0685L175.491 50.9814ZM173.205 59.5124L173.464 58.5465L142.096 55.8022L141.837 56.7681L141.578 57.734L172.946 60.4784L173.205 59.5124ZM211.451 52.1661L212.322 52.5411L212.838 51.6982L212.049 51.2955L211.451 52.1661ZM203.321 59.6165L203.671 60.4621L203.674 60.4606L203.321 59.6165ZM184.783 59.6396L184.173 60.5041L184.178 60.5071L184.783 59.6396ZM180.355 55.7092L179.446 56.2977L179.45 56.3034L179.453 56.3091L180.355 55.7092ZM178.592 50.1139L177.564 50.3252L177.565 50.3338L177.565 50.3423L178.592 50.1139ZM184.837 26.808L183.98 26.409L183.975 26.4171L183.97 26.4253L184.837 26.808ZM189.449 21.7704L188.879 21.0614L188.878 21.0625L189.449 21.7704ZM195.798 18.5298L195.642 17.6084L195.634 17.6106L195.798 18.5298ZM213.522 21.7887L212.72 22.5123L212.726 22.5177L212.731 22.5231L213.522 21.7887ZM217.331 30.2203L217.421 31.1595L218.418 30.9241L218.358 30.0046L217.331 30.2203ZM207.161 32.6205L206.133 32.745L206.091 33.8336L207.252 33.5597L207.161 32.6205ZM205.796 28.705L204.95 29.3797L204.955 29.3867L204.961 29.3935L205.796 28.705ZM197.947 27.0693L198.102 27.9914L198.122 27.9855L198.142 27.9788L197.947 27.0693ZM195.302 28.4195L195.881 29.1212L195.881 29.1212L195.302 28.4195ZM193.35 30.5897L194.205 30.9911L194.209 30.9845L194.213 30.9778L193.35 30.5897ZM188.811 47.5282L189.838 47.3054L189.838 47.3054L188.811 47.5282ZM191.338 51.7352L190.676 52.5698L190.676 52.5698L191.338 51.7352ZM199.603 51.5725L200.039 52.3722L200.042 52.3703L199.603 51.5725ZM203.07 47.8899L203.668 47.0192L202.686 46.5181L202.148 47.6056L203.07 47.8899ZM211.451 52.1661L210.579 51.7911C208.685 54.8843 206.153 57.1986 202.967 58.7723L203.321 59.6165L203.674 60.4606C207.307 58.6661 210.195 56.0135 212.322 52.5411L211.451 52.1661ZM203.321 59.6165L202.97 58.7708C199.847 60.3032 196.304 60.9244 192.298 60.5739L192.039 61.5398L191.78 62.5057C196.105 62.8841 200.083 62.223 203.671 60.4621L203.321 59.6165ZM192.039 61.5398L192.298 60.5739C189.503 60.3294 187.209 59.7206 185.388 58.7722L184.783 59.6396L184.178 60.5071C186.251 61.5865 188.794 62.2445 191.78 62.5057L192.039 61.5398ZM184.783 59.6396L185.393 58.7752C183.599 57.8231 182.227 56.5995 181.257 55.1093L180.355 55.7092L179.453 56.3091C180.579 58.0391 182.159 59.4358 184.173 60.5041L184.783 59.6396ZM180.355 55.7092L181.264 55.1208C180.331 53.6297 179.779 51.8894 179.618 49.8854L178.592 50.1139L177.565 50.3423C177.745 52.586 178.369 54.576 179.446 56.2977L180.355 55.7092ZM178.592 50.1139L179.62 49.9025C179.498 47.8931 179.751 45.6985 180.39 43.3116L179.394 43.2245L178.398 43.1373C177.712 45.696 177.43 48.0943 177.564 50.3252L178.592 50.1139ZM179.394 43.2245L180.39 43.3116L183.107 33.1733L182.11 33.0861L181.114 32.999L178.398 43.1373L179.394 43.2245ZM182.11 33.0861L183.107 33.1733C183.677 31.0447 184.543 29.0522 185.703 27.1907L184.837 26.808L183.97 26.4253C182.688 28.4836 181.737 30.6765 181.114 32.999L182.11 33.0861ZM184.837 26.808L185.693 27.2069C186.885 25.3618 188.327 23.7891 190.02 22.4784L189.449 21.7704L188.878 21.0625C186.949 22.556 185.316 24.3417 183.98 26.409L184.837 26.808ZM189.449 21.7704L190.019 22.4795C191.753 21.1408 193.729 20.1289 195.963 19.4491L195.798 18.5298L195.634 17.6106C193.132 18.3723 190.875 19.5207 188.879 21.0614L189.449 21.7704ZM195.798 18.5298L195.955 19.4513C198.2 18.7836 200.707 18.5559 203.491 18.7995L203.75 17.8336L204.009 16.8677C201.012 16.6055 198.218 16.842 195.642 17.6084L195.798 18.5298ZM203.75 17.8336L203.491 18.7995C207.575 19.1568 210.622 20.4139 212.72 22.5123L213.522 21.7887L214.323 21.0651C211.893 18.6337 208.426 17.2541 204.009 16.8677L203.75 17.8336ZM213.522 21.7887L212.731 22.5231C214.905 24.6123 216.095 27.2396 216.304 30.4359L217.331 30.2203L218.358 30.0046C218.124 26.4136 216.774 23.4197 214.312 21.0542L213.522 21.7887ZM217.331 30.2203L217.241 29.2811L207.071 31.6813L207.161 32.6205L207.252 33.5597L217.421 31.1595L217.331 30.2203ZM207.161 32.6205L208.19 32.496C208.256 30.7641 207.729 29.2617 206.631 28.0164L205.796 28.705L204.961 29.3935C205.798 30.3421 206.182 31.4501 206.133 32.745L207.161 32.6205ZM205.796 28.705L206.643 28.0303C205.513 26.686 203.776 25.958 201.56 25.764L201.301 26.73L201.042 27.6959C202.906 27.859 204.166 28.4476 204.95 29.3797L205.796 28.705ZM201.301 26.73L201.56 25.764C200.215 25.6464 198.939 25.7648 197.753 26.1597L197.947 27.0693L198.142 27.9788C198.962 27.7057 199.922 27.5979 201.042 27.6959L201.301 26.73ZM197.947 27.0693L197.793 26.1471C196.66 26.4815 195.631 27.003 194.723 27.7179L195.302 28.4195L195.881 29.1212C196.516 28.6214 197.251 28.2427 198.102 27.9914L197.947 27.0693ZM195.302 28.4195L194.723 27.7179C193.833 28.4178 193.088 29.249 192.487 30.2016L193.35 30.5897L194.213 30.9778C194.671 30.2515 195.227 29.636 195.881 29.1212L195.302 28.4195ZM193.35 30.5897L192.495 30.1883C191.913 31.085 191.49 32.023 191.228 32.9981L192.225 33.0852L193.221 33.1724C193.423 32.4166 193.75 31.6909 194.205 30.9911L193.35 30.5897ZM192.225 33.0852L191.228 32.9981L188.098 44.6819L189.094 44.7691L190.09 44.8562L193.221 33.1724L192.225 33.0852ZM189.094 44.7691L188.098 44.6819C187.817 45.7295 187.711 46.7541 187.784 47.7509L188.811 47.5282L189.838 47.3054C189.78 46.5193 189.863 45.7044 190.09 44.8562L189.094 44.7691ZM188.811 47.5282L187.784 47.7509C187.859 48.7625 188.135 49.6832 188.617 50.5031L189.537 49.9326L190.458 49.3621C190.103 48.7591 189.895 48.0768 189.838 47.3054L188.811 47.5282ZM189.537 49.9326L188.617 50.5031C189.104 51.3312 189.797 52.0186 190.676 52.5698L191.338 51.7352L192 50.9005C191.315 50.4713 190.807 49.957 190.458 49.3621L189.537 49.9326ZM191.338 51.7352L190.676 52.5698C191.601 53.1493 192.756 53.4805 194.102 53.5982L194.36 52.6322L194.619 51.6663C193.499 51.5683 192.64 51.3014 192 50.9005L191.338 51.7352ZM194.36 52.6322L194.102 53.5982C196.272 53.788 198.275 53.4104 200.039 52.3722L199.603 51.5725L199.168 50.7728C197.937 51.4971 196.444 51.826 194.619 51.6663L194.36 52.6322ZM199.603 51.5725L200.042 52.3703C201.802 51.3283 203.128 49.9203 203.991 48.1741L203.07 47.8899L202.148 47.6056C201.492 48.9321 200.508 49.9792 199.165 50.7747L199.603 51.5725ZM203.07 47.8899L202.471 48.7605L210.852 53.0368L211.451 52.1661L212.049 51.2955L203.668 47.0192L203.07 47.8899ZM239.419 30.0016L239.678 29.0357L238.682 28.9485L238.423 29.9144L239.419 30.0016ZM230.176 64.4967L229.917 65.4627L230.913 65.5498L231.172 64.5839L230.176 64.4967ZM220.421 63.6433L219.425 63.5562L219.166 64.5221L220.162 64.6092L220.421 63.6433ZM229.664 29.1482L230.66 29.2353L230.919 28.2694L229.923 28.1822L229.664 29.1482ZM217.55 28.0884L216.554 28.0012L216.295 28.9671L217.292 29.0543L217.55 28.0884ZM219.836 19.5573L220.095 18.5914L219.099 18.5042L218.84 19.4701L219.836 19.5573ZM253.819 22.5304L254.815 22.6175L255.074 21.6516L254.077 21.5644L253.819 22.5304ZM251.533 31.0614L251.274 32.0273L252.27 32.1145L252.529 31.1486L251.533 31.0614ZM239.419 30.0016L238.423 29.9144L229.18 64.4096L230.176 64.4967L231.172 64.5839L240.415 30.0888L239.419 30.0016ZM230.176 64.4967L230.435 63.5308L220.68 62.6774L220.421 63.6433L220.162 64.6092L229.917 65.4627L230.176 64.4967ZM220.421 63.6433L221.417 63.7305L230.66 29.2353L229.664 29.1482L228.668 29.061L219.425 63.5562L220.421 63.6433ZM229.664 29.1482L229.923 28.1822L217.809 27.1224L217.55 28.0884L217.292 29.0543L229.405 30.1141L229.664 29.1482ZM217.55 28.0884L218.547 28.1755L220.833 19.6445L219.836 19.5573L218.84 19.4701L216.554 28.0012L217.55 28.0884ZM219.836 19.5573L219.578 20.5232L253.56 23.4963L253.819 22.5304L254.077 21.5644L220.095 18.5914L219.836 19.5573ZM253.819 22.5304L252.822 22.4432L250.536 30.9743L251.533 31.0614L252.529 31.1486L254.815 22.6175L253.819 22.5304ZM251.533 31.0614L251.791 30.0955L239.678 29.0357L239.419 30.0016L239.16 30.9675L251.274 32.0273L251.533 31.0614ZM279.09 36.2562L278.335 37.0228L279.068 37.6447L279.824 36.8146L279.09 36.2562ZM276.317 34.4318L275.724 35.3057L275.736 35.3111L276.317 34.4318ZM273.552 33.3042L273.079 34.2268L273.087 34.2296L273.552 33.3042ZM271.037 32.7046L270.676 33.6561L270.701 33.661L270.726 33.6646L271.037 32.7046ZM265.87 32.5056L265.801 31.5617L265.792 31.5637L265.783 31.5658L265.87 32.5056ZM263.82 33.3385L263.342 32.5652L263.32 32.5791L263.299 32.5939L263.82 33.3385ZM262.563 34.6205L261.7 34.2323L261.684 34.257L261.67 34.2822L262.563 34.6205ZM261.943 37.6664L260.944 38.0524L260.953 38.0824L260.963 38.1114L261.943 37.6664ZM263.095 38.9692L262.418 39.7942L262.427 39.8003L262.436 39.8061L263.095 38.9692ZM265.732 40.0857L265.27 41.0119L265.276 41.0139L265.732 40.0857ZM270.107 41.291L270.522 40.3516L270.522 40.3516L270.107 41.291ZM274.987 43.0466L274.407 43.9262L274.417 43.9309L274.426 43.9354L274.987 43.0466ZM278.71 45.7132L277.875 46.4017L277.88 46.4074L277.885 46.413L278.71 45.7132ZM280.696 49.7463L279.682 50.0704L279.685 50.0855L279.689 50.1003L280.696 49.7463ZM277.249 61.1494L277.978 61.7126L277.985 61.7043L277.249 61.1494ZM272.089 65.0635L272.455 65.9014L272.46 65.899L272.089 65.0635ZM265.799 67.1072L265.78 66.1536L265.775 66.1545L265.799 67.1072ZM254.731 66.7716L255.099 65.8212L255.085 65.8186L255.072 65.8163L254.731 66.7716ZM250.356 65.5663L249.818 66.4646L249.829 66.4693L249.84 66.4737L250.356 65.5663ZM246.263 63.3102L245.56 64.1175L245.569 64.1237L246.263 63.3102ZM242.675 59.8961L242.036 59.2449L241.289 59.9104L241.822 60.5628L242.675 59.8961ZM250.304 53.0979L251.162 52.4374L250.543 51.6638L249.665 52.4467L250.304 53.0979ZM255.639 57.2975L255.105 58.1976L255.113 58.2009L255.121 58.2041L255.639 57.2975ZM267.342 57.9417L267.727 58.7698L267.738 58.7638L267.749 58.7577L267.342 57.9417ZM270.098 53.501L269.068 53.6507L269.068 53.6507L270.098 53.501ZM269.633 52.0684L268.722 52.6537L268.733 52.6721L268.746 52.6898L269.633 52.0684ZM268.083 50.7939L267.457 51.6503L267.476 51.6607L267.495 51.6702L268.083 50.7939ZM265.077 49.835L264.72 50.7875L264.723 50.7881L265.077 49.835ZM259.221 48.3104L258.738 49.2296L258.738 49.2296L259.221 48.3104ZM254.556 45.7512L253.789 46.5065L253.795 46.5125L253.802 46.5182L254.556 45.7512ZM251.869 41.6567L250.872 42.0476L250.876 42.0616L250.88 42.0754L251.869 41.6567ZM255.049 29.7874L254.294 29.2539L254.288 29.2612L255.049 29.7874ZM259.73 25.9579L260.129 26.7781L260.133 26.7759L259.73 25.9579ZM265.349 23.982L265.367 24.9358L265.378 24.9339L265.389 24.9318L265.349 23.982ZM278.912 25.2319L279.381 24.3079L279.381 24.3079L278.912 25.2319ZM285.654 29.0485L286.388 29.6068L287.068 28.8603L286.419 28.2906L285.654 29.0485ZM279.09 36.2562L279.845 35.4896C278.913 34.698 277.931 34.0503 276.897 33.5525L276.317 34.4318L275.736 35.3111C276.628 35.7411 277.496 36.3097 278.335 37.0228L279.09 36.2562ZM276.317 34.4318L276.909 33.558C275.951 33.0793 274.987 32.6856 274.016 32.3788L273.552 33.3042L273.087 34.2296C273.962 34.506 274.841 34.864 275.724 35.3056L276.317 34.4318ZM273.552 33.3042L274.025 32.3816C273.102 32.0797 272.21 31.8656 271.348 31.7446L271.037 32.7046L270.726 33.6646C271.458 33.7673 272.242 33.9529 273.079 34.2268L273.552 33.3042ZM271.037 32.7046L271.399 31.7531C270.591 31.5956 269.865 31.4869 269.225 31.4309L268.966 32.3969L268.708 33.3628C269.258 33.4109 269.913 33.5074 270.676 33.6561L271.037 32.7046ZM268.966 32.3969L269.225 31.4309C267.936 31.3181 266.785 31.3483 265.801 31.5617L265.87 32.5056L265.94 33.4495C266.619 33.3023 267.532 33.2599 268.708 33.3628L268.966 32.3969ZM265.87 32.5056L265.783 31.5658C264.886 31.7751 264.064 32.1013 263.342 32.5652L263.82 33.3385L264.299 34.1119C264.733 33.8334 265.277 33.6043 265.958 33.4455L265.87 32.5056ZM263.82 33.3385L263.299 32.5939C262.642 33.0538 262.099 33.5991 261.7 34.2323L262.563 34.6205L263.426 35.0086C263.632 34.6825 263.928 34.3732 264.342 34.0832L263.82 33.3385ZM262.563 34.6205L261.67 34.2822C261.382 34.7941 261.164 35.3058 261.028 35.8148L262.024 35.9019L263.02 35.9891C263.105 35.6739 263.247 35.3312 263.456 34.9587L262.563 34.6205ZM262.024 35.9019L261.028 35.8148C260.812 36.6219 260.757 37.3842 260.944 38.0524L261.943 37.6664L262.941 37.2803C262.862 36.9972 262.861 36.5832 263.02 35.9891L262.024 35.9019ZM261.943 37.6664L260.963 38.1114C261.214 38.7946 261.736 39.3456 262.418 39.7942L263.095 38.9692L263.772 38.1442C263.27 37.8144 263.023 37.4968 262.922 37.2213L261.943 37.6664ZM263.095 38.9692L262.436 39.8061C263.154 40.2505 264.108 40.6487 265.27 41.0119L265.732 40.0857L266.193 39.1595C265.107 38.8199 264.304 38.4738 263.753 38.1323L263.095 38.9692ZM265.732 40.0857L265.276 41.0139C266.46 41.3744 267.933 41.7799 269.691 42.2303L270.107 41.291L270.522 40.3516C268.78 39.9052 267.336 39.5072 266.187 39.1575L265.732 40.0857ZM270.107 41.291L269.691 42.2303C271.387 42.6647 272.958 43.2304 274.407 43.9262L274.987 43.0466L275.567 42.1669C274.01 41.4187 272.327 40.814 270.522 40.3516L270.107 41.291ZM274.987 43.0466L274.426 43.9354C275.844 44.5726 276.988 45.3966 277.875 46.4017L278.71 45.7132L279.544 45.0246C278.495 43.8358 277.158 42.8821 275.548 42.1578L274.987 43.0466ZM278.71 45.7132L277.885 46.413C278.793 47.4028 279.395 48.616 279.682 50.0704L280.696 49.7463L281.709 49.4222C281.369 47.7005 280.646 46.2249 279.534 45.0134L278.71 45.7132ZM280.696 49.7463L279.689 50.1003C280.014 51.4736 279.93 53.1815 279.373 55.2615L280.369 55.3486L281.365 55.4358C281.978 53.1472 282.112 51.1202 281.702 49.3923L280.696 49.7463ZM280.369 55.3486L279.373 55.2615C278.816 57.3388 277.857 59.1068 276.512 60.5945L277.249 61.1494L277.985 61.7043C279.608 59.9086 280.729 57.8094 281.365 55.4358L280.369 55.3486ZM277.249 61.1494L276.52 60.5862C275.15 62.0749 273.552 63.2873 271.718 64.228L272.089 65.0635L272.46 65.899C274.56 64.8218 276.402 63.4248 277.978 61.7126L277.249 61.1494ZM272.089 65.0635L271.723 64.2256C269.932 65.1348 267.955 65.7806 265.78 66.1536L265.799 67.1072L265.819 68.0609C268.204 67.6518 270.419 66.9351 272.455 65.9014L272.089 65.0635ZM265.799 67.1072L265.775 66.1545C263.633 66.5324 261.526 66.6306 259.451 66.449L259.192 67.4149L258.933 68.3808C261.193 68.5786 263.491 68.4716 265.824 68.06L265.799 67.1072ZM259.192 67.4149L259.451 66.449C258.001 66.3222 256.55 66.1131 255.099 65.8212L254.731 66.7716L254.364 67.722C255.884 68.0276 257.407 68.2474 258.933 68.3808L259.192 67.4149ZM254.731 66.7716L255.072 65.8163C253.638 65.5696 252.238 65.1843 250.872 64.659L250.356 65.5663L249.84 66.4737C251.314 67.0404 252.831 67.4586 254.391 67.727L254.731 66.7716ZM250.356 65.5663L250.895 64.668C249.546 64.1057 248.233 63.3829 246.957 62.4966L246.263 63.3102L245.569 64.1237C246.933 65.0713 248.349 65.8526 249.818 66.4646L250.356 65.5663ZM246.263 63.3102L246.965 62.5028C245.751 61.6352 244.605 60.5465 243.528 59.2295L242.675 59.8961L241.822 60.5628C242.973 61.9714 244.218 63.1587 245.56 64.1175L246.263 63.3102ZM242.675 59.8961L243.315 60.5474L250.944 53.7491L250.304 53.0979L249.665 52.4467L242.036 59.2449L242.675 59.8961ZM250.304 53.0979L249.446 53.7584C251.105 55.832 252.986 57.3283 255.105 58.1976L255.639 57.2975L256.173 56.3973C254.372 55.6584 252.697 54.3549 251.162 52.4374L250.304 53.0979ZM255.639 57.2975L255.121 58.2041C257.176 58.9996 259.396 59.5005 261.779 59.709L262.037 58.743L262.296 57.7771C260.088 57.5839 258.043 57.1211 256.157 56.3908L255.639 57.2975ZM262.037 58.743L261.779 59.709C264.055 59.9081 266.072 59.6449 267.727 58.7698L267.342 57.9417L266.957 57.1137C265.874 57.6862 264.355 57.9572 262.296 57.7771L262.037 58.743ZM267.342 57.9417L267.749 58.7577C269.349 57.8707 270.464 56.6688 270.871 55.1503L269.875 55.0632L268.879 54.976C268.667 55.7655 268.094 56.4827 266.934 57.1258L267.342 57.9417ZM269.875 55.0632L270.871 55.1503C271.035 54.5396 271.121 53.9392 271.127 53.3513L270.098 53.501L269.068 53.6507C269.064 54.0742 269.002 54.5152 268.879 54.976L269.875 55.0632ZM270.098 53.501L271.127 53.3513C271.134 52.6481 270.916 52.0116 270.521 51.4471L269.633 52.0684L268.746 52.6898C268.98 53.0239 269.072 53.3424 269.068 53.6507L270.098 53.501ZM269.633 52.0684L270.545 51.4832C270.141 50.8316 269.489 50.3206 268.67 49.9177L268.083 50.7939L267.495 51.6702C268.136 51.9855 268.518 52.3242 268.722 52.6537L269.633 52.0684ZM268.083 50.7939L268.708 49.9375C267.875 49.4742 266.768 49.1308 265.43 48.882L265.077 49.835L264.723 50.7881C265.955 51.0171 266.851 51.313 267.457 51.6503L268.083 50.7939ZM265.077 49.835L265.434 48.8826C263.404 48.4983 261.495 48.0009 259.705 47.3913L259.221 48.3104L258.738 49.2296C260.615 49.8688 262.609 50.3878 264.72 50.7875L265.077 49.835ZM259.221 48.3104L259.705 47.3913C257.962 46.7977 256.501 45.993 255.311 44.9841L254.556 45.7512L253.802 46.5182C255.164 47.6729 256.814 48.5744 258.738 49.2296L259.221 48.3104ZM254.556 45.7512L255.324 44.9958C254.161 43.9632 253.341 42.7132 252.858 41.2379L251.869 41.6567L250.88 42.0754C251.45 43.8135 252.422 45.2931 253.789 46.5065L254.556 45.7512ZM251.869 41.6567L252.866 41.2658C252.449 39.816 252.51 37.9545 253.133 35.6302L252.137 35.5431L251.141 35.4559C250.46 37.9948 250.343 40.209 250.872 42.0476L251.869 41.6567ZM252.137 35.5431L253.133 35.6302C253.708 33.4863 254.611 31.7263 255.811 30.3135L255.049 29.7874L254.288 29.2612C252.819 30.9893 251.781 33.0664 251.141 35.4559L252.137 35.5431ZM255.049 29.7874L255.805 30.3209C257.102 28.8181 258.543 27.6433 260.129 26.7781L259.73 25.9579L259.33 25.1376C257.451 26.1626 255.773 27.5408 254.294 29.2539L255.049 29.7874ZM259.73 25.9579L260.133 26.7759C261.796 25.861 263.538 25.2481 265.367 24.9358L265.349 23.982L265.33 23.0282C263.239 23.3852 261.235 24.0895 259.326 25.1398L259.73 25.9579ZM265.349 23.982L265.389 24.9318C267.264 24.5743 269.062 24.473 270.788 24.624L271.047 23.658L271.306 22.6921C269.376 22.5233 267.376 22.6379 265.308 23.0322L265.349 23.982ZM271.047 23.658L270.788 24.624C273.435 24.8555 275.987 25.366 278.443 26.1559L278.912 25.2319L279.381 24.3079C276.791 23.4753 274.099 22.9365 271.306 22.6921L271.047 23.658ZM278.912 25.2319L278.443 26.1559C280.85 26.9298 282.998 28.1441 284.889 29.8063L285.654 29.0485L286.419 28.2906C284.367 26.4866 282.02 25.1565 279.381 24.3079L278.912 25.2319ZM285.654 29.0485L284.921 28.4901L278.357 35.6978L279.09 36.2562L279.824 36.8146L286.388 29.6068L285.654 29.0485Z" fill="black" mask="url(#path-1-outside-1_70_2098)"/>
</svg>
