<svg width="320" height="170" fill="none" xmlns="http://www.w3.org/2000/svg"><path d="m-23 36 169.932 71.076-25.894 62.18-169.421-72.3L-23 36z" fill="#6F5577"/><mask id="a" style="mask-type:alpha" maskUnits="userSpaceOnUse" x="-9" y="27" width="329" height="98"><path d="m-5.734 30.687 324.825-3.435-16.834 97.695L-8.674 105.28l2.94-74.593z" fill="#D3A7E0"/></mask><g mask="url(#a)"><path d="M-19.18-6.522 337.011 23.51l-9.491 112.566-356.191-30.032L-19.18-6.522z" fill="#D3A7E0"/><path d="m293.629 60.79-5.152-9.038-27.886 14.015 15.457 27.114 27.886-14.015-10.305-18.076zm-13.304 18.314-5.152-9.038 9.027-4.537 5.152 9.038-9.027 4.537zM214.046 76.362l8.005-6.9c2.669 5.194 6.408 7.37 10.72 8.547 4.069 1.111 7.081-.53 7.896-3.157.749-2.413.83-5.01-4.095-6.97-7.73-3.111-14.462-7.952-11.026-19.025 3.26-10.506 12.427-13.085 19.35-11.195 5.162 1.41 10.093 3.987 13.508 8.693l-7.022 7.553c-3.083-4.075-7.102-5.558-9.349-6.171-4.616-1.26-6.402 1.101-7.019 3.088-.969 3.124.649 4.49 7.236 7.674 6.588 3.184 11.581 8.32 8.476 18.33-3.194 10.292-13.288 13.311-21.547 11.056-5.709-1.558-11.33-4.248-15.133-11.523z" fill="#fff"/><path d="m206.682 118.522-1.593-70.442-22.964.508-1.034-13.584 54.972-1.281 1.034 13.6-19.515.49 2.817 70.641-13.717.068z" fill="#fff"/><path d="m172.296 84.754-.606-10.427c-.533-9.155 4.949-17.326 17.193-17.523 8.928-.144 15.482 4.268 18.174 10.97l-9.683 3.466c-.922-3.04-3.765-5.349-8.026-5.28-5.209.084-7.437 3.684-7.226 7.308l.7 12.017c.222 3.814 2.868 7.4 8.076 7.315 4.194-.067 6.834-2.401 7.39-5.656l10.083 3.401c-1.897 6.968-8.079 11.268-16.872 11.409-12.243.198-18.614-6.89-19.203-17z" fill="#fff"/><path d="m144.518 102.41-1.459-51.045 32.566-1.523.289 10.12-22.372 1.047.295 10.341 19.063-.891.279 9.754-19.063.892.306 10.707 22.372-1.046.29 10.121-32.566 1.523z" fill="#fff"/><path d="m116.766 106.195 7.557-10.183c2.835 3.508 5.665 4.892 7.821 4.77 2.772-.158 6.954-1.748 6.648-9.746l-1.713-44.712 11.703-.665 1.738 45.386c.654 17.056-7.697 22.649-17.166 23.188-6.313.359-12.235-1.139-16.588-8.038z" fill="#fff"/><path d="m94.544 71.44 2.474-10.958c2.173-9.621 11.058-16.543 25.393-13.327 13.305 2.985 19.886 12.535 17.532 22.957l-2.474 10.958c-2.505 11.091-12.657 16.255-25.725 13.323-14.334-3.216-19.388-13.265-17.2-22.953zm30.325 7.575 2.851-12.627c.921-4.076-1.7-8.315-7.561-9.63-6.098-1.368-9.794 1.734-10.654 5.543l-2.851 12.628c-.906 4.008 1.085 8.457 7.184 9.825 5.86 1.315 10.035-1.329 11.031-5.739z" fill="#fff"/><path d="m62.446 102.809 1.218-61.908 24.044.306c9.524.122 17.433 6.895 17.199 18.814-.146 7.383-3.707 13.744-10.327 16.862l9.864 26.462-13.583-.174-8.116-24.036-7.806-.1-.471 23.927-12.022-.153zM75.18 66.76l9.914.126c4.372.056 7.23-2.31 7.32-6.935.092-4.625-2.604-6.528-6.663-6.58l-10.305-.131-.266 13.52z" fill="#fff"/><path d="m22.298 101.461 1.576-80.09 24.591.314c12.596.16 20.713 10.163 20.4 26.043-.285 14.498-9.748 24.967-21.143 24.822L36.067 72.4l-.575 29.228-13.195-.168zm14.083-44.94 11.053.141c4.37.056 7.956-3.581 8.071-9.45.127-6.444-2.81-9.59-8.038-9.656l-10.71-.137-.376 19.102z" fill="#fff"/></g></svg>