<svg width="288" height="69" fill="none" xmlns="http://www.w3.org/2000/svg"><mask id="a" maskUnits="userSpaceOnUse" x="-.193" y="-.045" width="290.362" height="70.681" fill="#000"><path fill="#fff" d="M-.193-.045h290.362v70.681H-.193z"/><path d="M43.472 18.3a14.42 14.42 0 0 1-2.652 5.272 17.309 17.309 0 0 1-4.458 3.975c-1.68 1.076-3.55 1.883-5.608 2.42-2.047.496-4.133.65-6.258.465l-8.67-.759-4.208 15.702-9.819-.859L13.33 1.49l18.297 1.601c2.338.205 4.375.72 6.11 1.547 1.748.785 3.141 1.835 4.181 3.15 1.04 1.314 1.69 2.868 1.948 4.662.313 1.757.182 3.707-.393 5.85zm-9.896-1.056c.464-1.731.275-3.055-.567-3.972-.83-.959-2.224-1.524-4.179-1.694l-7.97-.698-2.749 10.262 8.225.72a7.482 7.482 0 0 0 4.508-.998c1.402-.847 2.313-2.054 2.732-3.62zM61.308 49.723 58.751 32.48l-6.376-.558-4.456 16.63-9.818-.86L49.63 4.666l19.636 1.718c1.956.171 3.706.62 5.252 1.345 1.588.73 2.891 1.708 3.911 2.936 1.03 1.187 1.713 2.618 2.047 4.292.335 1.674.226 3.542-.326 5.602-.696 2.597-2.027 4.885-3.993 6.864-1.912 1.941-4.356 3.351-7.332 4.23l3.577 19.04-11.094-.97zm8.624-29.994c.43-1.607.23-2.806-.602-3.596-.833-.79-2.078-1.257-3.736-1.402l-8.415-.737-2.518 9.397 8.097.708c1.785.157 3.32-.131 4.603-.862 1.283-.732 2.14-1.9 2.571-3.508zM104.055 9.11c2.678.235 4.963.877 6.856 1.929 1.947 1.014 3.466 2.328 4.556 3.942 1.132 1.617 1.826 3.491 2.082 5.623.255 2.131.063 4.392-.578 6.782l-2.716 10.139c-.685 2.555-1.734 4.846-3.147 6.874a19.465 19.465 0 0 1-4.931 5.01c-1.874 1.312-4 2.264-6.378 2.858-2.335.597-4.82.78-7.455.55-2.89-.253-5.298-.928-7.223-2.024-1.882-1.093-3.342-2.465-4.378-4.116-.983-1.689-1.565-3.575-1.747-5.657-.128-2.12.106-4.293.703-6.519l2.716-10.138a23.126 23.126 0 0 1 2.726-6.278 20.135 20.135 0 0 1 4.613-5.038c1.865-1.44 3.981-2.52 6.35-3.24 2.41-.717 5.06-.95 7.951-.697zm-2.449 8.897c-1.233-.108-2.35.005-3.354.34a7.805 7.805 0 0 0-2.645 1.35 8.532 8.532 0 0 0-1.952 2.17 8.702 8.702 0 0 0-1.126 2.495L89.4 36.047a8.267 8.267 0 0 0-.283 2.759c.066.892.308 1.693.726 2.404.419.712 1.019 1.313 1.801 1.803s1.79.79 3.022.897c2.38.208 4.39-.312 6.03-1.56 1.693-1.286 2.816-2.96 3.368-5.02l3.13-11.684c.508-1.896.286-3.581-.667-5.057-.9-1.512-2.54-2.373-4.92-2.581zm38.045 24.333c-.729 2.72-1.767 4.97-3.114 6.75-1.293 1.743-2.769 3.112-4.427 4.105a15.2 15.2 0 0 1-5.395 1.87c-1.907.297-3.838.36-5.793.189a27.537 27.537 0 0 1-3.759-.582 15.156 15.156 0 0 1-3.338-1.178 11.66 11.66 0 0 1-2.772-2.077c-.821-.831-1.502-1.861-2.043-3.09l8.24-5.669c.785 1.292 1.658 2.254 2.62 2.887.972.591 1.905.926 2.797 1.004.553.048 1.186.04 1.899-.024a6.887 6.887 0 0 0 2.145-.698c.716-.401 1.371-.977 1.963-1.726.592-.75 1.06-1.764 1.402-3.041l7.686-28.684 9.691.848-7.802 29.116zm2.186 14.427 11.529-43.026 31.368 2.744-2.286 8.531-21.55-1.885-2.335 8.716 18.362 1.607-2.203 8.222-18.362-1.607-2.419 9.026 21.55 1.885-2.286 8.531-31.368-2.744zm69.614-4.602c-2.011 3.283-4.721 5.766-8.13 7.45-3.356 1.647-7.117 2.288-11.282 1.924-2.89-.253-5.309-.886-7.256-1.9-1.904-1.01-3.38-2.32-4.428-3.93-1.005-1.607-1.593-3.472-1.763-5.596-.128-2.12.139-4.417.802-6.89l2.716-10.138a23.156 23.156 0 0 1 2.727-6.278 20.124 20.124 0 0 1 4.612-5.038c1.865-1.44 3.981-2.52 6.349-3.24 2.411-.717 5.062-.95 7.952-.696 4.25.371 7.508 1.69 9.772 3.955 2.318 2.227 3.587 5.038 3.809 8.431l-10.17 2.4c.058-1.513-.397-2.818-1.365-3.915-.957-1.138-2.455-1.796-4.495-1.975-1.233-.108-2.351.005-3.354.34a7.803 7.803 0 0 0-2.645 1.35 8.52 8.52 0 0 0-1.952 2.17 8.714 8.714 0 0 0-1.125 2.495l-3.131 11.684a8.284 8.284 0 0 0-.283 2.76c.066.89.308 1.692.726 2.404.419.711 1.019 1.312 1.801 1.802s1.79.79 3.022.897c1.998.175 3.746-.178 5.243-1.06 1.552-.918 2.707-2.146 3.467-3.682l8.381 4.276zm27.968-22.164-9.243 34.495-9.755-.854 9.243-34.495-12.114-1.06 2.286-8.53 33.983 2.972-2.286 8.531-12.114-1.06zm39.671 6.254a13.01 13.01 0 0 0-2.773-1.824 19.028 19.028 0 0 0-2.765-1.128 14.665 14.665 0 0 0-2.515-.6 20.18 20.18 0 0 0-2.071-.307c-1.232-.108-2.264-.072-3.096.109-.788.184-1.472.461-2.05.833-.535.375-.954.802-1.257 1.282-.249.442-.428.869-.539 1.28-.188.702-.215 1.29-.081 1.765.176.48.56.914 1.152 1.303.634.393 1.513.765 2.637 1.117 1.166.355 2.624.757 4.375 1.205a26.326 26.326 0 0 1 4.88 1.756c1.514.68 2.755 1.57 3.723 2.666 1.01 1.1 1.672 2.445 1.986 4.033.367 1.55.258 3.418-.327 5.603-.596 2.225-1.636 4.159-3.12 5.8a18.305 18.305 0 0 1-5.16 3.915c-1.913.971-4.01 1.652-6.29 2.043a25.22 25.22 0 0 1-6.607.308 40.54 40.54 0 0 1-4.461-.643 23.046 23.046 0 0 1-4.375-1.206 22.04 22.04 0 0 1-4.093-2.256c-1.278-.913-2.474-2.051-3.588-3.414l7.629-6.798c1.597 1.995 3.375 3.395 5.335 4.2 1.97.762 4.103 1.244 6.398 1.445 2.168.19 3.936-.077 5.305-.801 1.379-.765 2.224-1.725 2.533-2.879a6.293 6.293 0 0 0 .223-1.562c.005-.506-.15-.983-.465-1.433-.303-.49-.82-.915-1.55-1.274-.72-.4-1.722-.72-3.006-.959-2.07-.392-4.022-.9-5.856-1.525-1.833-.624-3.388-1.477-4.665-2.559a9.226 9.226 0 0 1-2.687-4.094c-.473-1.644-.384-3.682.268-6.114.607-2.267 1.578-4.185 2.912-5.756 1.388-1.607 2.948-2.884 4.681-3.83a17.783 17.783 0 0 1 5.619-1.975c1.971-.376 3.87-.484 5.698-.324a35.81 35.81 0 0 1 7.865 1.574 18.828 18.828 0 0 1 6.742 3.817l-6.564 7.207z"/></mask><path d="M43.472 18.3a14.42 14.42 0 0 1-2.652 5.272 17.309 17.309 0 0 1-4.458 3.975c-1.68 1.076-3.55 1.883-5.608 2.42-2.047.496-4.133.65-6.258.465l-8.67-.759-4.208 15.702-9.819-.859L13.33 1.49l18.297 1.601c2.338.205 4.375.72 6.11 1.547 1.748.785 3.141 1.835 4.181 3.15 1.04 1.314 1.69 2.868 1.948 4.662.313 1.757.182 3.707-.393 5.85zm-9.896-1.056c.464-1.731.275-3.055-.567-3.972-.83-.959-2.224-1.524-4.179-1.694l-7.97-.698-2.749 10.262 8.225.72a7.482 7.482 0 0 0 4.508-.998c1.402-.847 2.313-2.054 2.732-3.62z" fill="#D3A7E0"/><path d="M61.308 49.723 58.751 32.48l-6.376-.558-4.456 16.63-9.818-.86L49.63 4.666l19.636 1.718c1.956.171 3.706.62 5.252 1.345 1.588.73 2.891 1.708 3.911 2.936 1.03 1.187 1.713 2.618 2.047 4.292.335 1.674.226 3.542-.326 5.602-.696 2.597-2.027 4.885-3.993 6.864-1.912 1.941-4.356 3.351-7.332 4.23l3.577 19.04-11.094-.97zm8.624-29.994c.43-1.607.23-2.806-.602-3.596-.833-.79-2.078-1.257-3.736-1.402l-8.415-.737-2.518 9.397 8.097.708c1.785.157 3.32-.131 4.603-.862 1.283-.732 2.14-1.9 2.571-3.508zM104.055 9.11c2.678.235 4.963.877 6.856 1.929 1.947 1.014 3.466 2.328 4.556 3.942 1.132 1.617 1.826 3.491 2.082 5.623.255 2.131.063 4.392-.578 6.782l-2.716 10.139c-.685 2.555-1.734 4.846-3.147 6.874a19.465 19.465 0 0 1-4.931 5.01c-1.874 1.312-4 2.264-6.378 2.858-2.335.597-4.82.78-7.455.55-2.89-.253-5.298-.928-7.223-2.024-1.882-1.093-3.342-2.465-4.378-4.116-.983-1.689-1.565-3.575-1.747-5.657-.128-2.12.106-4.293.703-6.519l2.716-10.138a23.126 23.126 0 0 1 2.726-6.278 20.135 20.135 0 0 1 4.613-5.038c1.865-1.44 3.981-2.52 6.35-3.24 2.41-.717 5.06-.95 7.951-.697zm-2.449 8.897c-1.233-.108-2.35.005-3.354.34a7.805 7.805 0 0 0-2.645 1.35 8.532 8.532 0 0 0-1.952 2.17 8.702 8.702 0 0 0-1.126 2.495L89.4 36.047a8.267 8.267 0 0 0-.283 2.759c.066.892.308 1.693.726 2.404.419.712 1.019 1.313 1.801 1.803s1.79.79 3.022.897c2.38.208 4.39-.312 6.03-1.56 1.693-1.286 2.816-2.96 3.368-5.02l3.13-11.684c.508-1.896.286-3.581-.667-5.057-.9-1.512-2.54-2.373-4.92-2.581zm38.045 24.333c-.729 2.72-1.767 4.97-3.114 6.75-1.293 1.743-2.769 3.112-4.427 4.105a15.2 15.2 0 0 1-5.395 1.87c-1.907.297-3.838.36-5.793.189a27.537 27.537 0 0 1-3.759-.582 15.156 15.156 0 0 1-3.338-1.178 11.66 11.66 0 0 1-2.772-2.077c-.821-.831-1.502-1.861-2.043-3.09l8.24-5.669c.785 1.292 1.658 2.254 2.62 2.887.972.591 1.905.926 2.797 1.004.553.048 1.186.04 1.899-.024a6.887 6.887 0 0 0 2.145-.698c.716-.401 1.371-.977 1.963-1.726.592-.75 1.06-1.764 1.402-3.041l7.686-28.684 9.691.848-7.802 29.116zm2.186 14.427 11.529-43.026 31.368 2.744-2.286 8.531-21.55-1.885-2.335 8.716 18.362 1.607-2.203 8.222-18.362-1.607-2.419 9.026 21.55 1.885-2.286 8.531-31.368-2.744zm69.614-4.602c-2.011 3.283-4.721 5.766-8.13 7.45-3.356 1.647-7.117 2.288-11.282 1.924-2.89-.253-5.309-.886-7.256-1.9-1.904-1.01-3.38-2.32-4.428-3.93-1.005-1.607-1.593-3.472-1.763-5.596-.128-2.12.139-4.417.802-6.89l2.716-10.138a23.156 23.156 0 0 1 2.727-6.278 20.124 20.124 0 0 1 4.612-5.038c1.865-1.44 3.981-2.52 6.349-3.24 2.411-.717 5.062-.95 7.952-.696 4.25.371 7.508 1.69 9.772 3.955 2.318 2.227 3.587 5.038 3.809 8.431l-10.17 2.4c.058-1.513-.397-2.818-1.365-3.915-.957-1.138-2.455-1.796-4.495-1.975-1.233-.108-2.351.005-3.354.34a7.803 7.803 0 0 0-2.645 1.35 8.52 8.52 0 0 0-1.952 2.17 8.714 8.714 0 0 0-1.125 2.495l-3.131 11.684a8.284 8.284 0 0 0-.283 2.76c.066.89.308 1.692.726 2.404.419.711 1.019 1.312 1.801 1.802s1.79.79 3.022.897c1.998.175 3.746-.178 5.243-1.06 1.552-.918 2.707-2.146 3.467-3.682l8.381 4.276zm27.968-22.164-9.243 34.495-9.755-.854 9.243-34.495-12.114-1.06 2.286-8.53 33.983 2.972-2.286 8.531-12.114-1.06zm39.671 6.254a13.01 13.01 0 0 0-2.773-1.824 19.028 19.028 0 0 0-2.765-1.128 14.665 14.665 0 0 0-2.515-.6 20.18 20.18 0 0 0-2.071-.307c-1.232-.108-2.264-.072-3.096.109-.788.184-1.472.461-2.05.833-.535.375-.954.802-1.257 1.282-.249.442-.428.869-.539 1.28-.188.702-.215 1.29-.081 1.765.176.48.56.914 1.152 1.303.634.393 1.513.765 2.637 1.117 1.166.355 2.624.757 4.375 1.205a26.326 26.326 0 0 1 4.88 1.756c1.514.68 2.755 1.57 3.723 2.666 1.01 1.1 1.672 2.445 1.986 4.033.367 1.55.258 3.418-.327 5.603-.596 2.225-1.636 4.159-3.12 5.8a18.305 18.305 0 0 1-5.16 3.915c-1.913.971-4.01 1.652-6.29 2.043a25.22 25.22 0 0 1-6.607.308 40.54 40.54 0 0 1-4.461-.643 23.046 23.046 0 0 1-4.375-1.206 22.04 22.04 0 0 1-4.093-2.256c-1.278-.913-2.474-2.051-3.588-3.414l7.629-6.798c1.597 1.995 3.375 3.395 5.335 4.2 1.97.762 4.103 1.244 6.398 1.445 2.168.19 3.936-.077 5.305-.801 1.379-.765 2.224-1.725 2.533-2.879a6.293 6.293 0 0 0 .223-1.562c.005-.506-.15-.983-.465-1.433-.303-.49-.82-.915-1.55-1.274-.72-.4-1.722-.72-3.006-.959-2.07-.392-4.022-.9-5.856-1.525-1.833-.624-3.388-1.477-4.665-2.559a9.226 9.226 0 0 1-2.687-4.094c-.473-1.644-.384-3.682.268-6.114.607-2.267 1.578-4.185 2.912-5.756 1.388-1.607 2.948-2.884 4.681-3.83a17.783 17.783 0 0 1 5.619-1.975c1.971-.376 3.87-.484 5.698-.324a35.81 35.81 0 0 1 7.865 1.574 18.828 18.828 0 0 1 6.742 3.817l-6.564 7.207z" fill="#FBEDFF"/><path d="m36.362 27.547-.464-.783-.007.005-.006.004.477.774zm-5.608 2.42.097.938.01-.003.01-.003-.117-.932zm-14.929-.294.259-.966-.996-.087-.259.966.996.087zm-4.207 15.702-.259.966.996.087.259-.965-.996-.088zm-9.819-.859-.996-.087-.259.966.996.087.26-.966zM13.33 1.49l.258-.966-.996-.087-.259.966.996.087zm24.408 3.148-.578.88.009.005.008.004.56-.889zm6.128 7.812-1.02.282.002.013.002.014 1.016-.309zm-10.856.822-.839.683.007.008.008.009.824-.7zM20.861 10.88l.259-.966-.997-.087-.258.966.996.087zm-2.75 10.262-.996-.087-.259.966.996.087.26-.966zm12.733-.278.429.804.01-.006.01-.006-.449-.792zM43.472 18.3l-.996-.088a13.293 13.293 0 0 1-2.445 4.867l.789.493.789.493a15.546 15.546 0 0 0 2.86-5.678l-.997-.087zm-2.652 5.272-.789-.493a16.03 16.03 0 0 1-4.133 3.685l.464.783.463.784a18.582 18.582 0 0 0 4.784-4.266l-.79-.493zm-4.458 3.975-.477-.774c-1.559.998-3.304 1.755-5.248 2.262l.117.932.118.933c2.172-.567 4.164-1.424 5.967-2.578l-.477-.775zm-5.608 2.42-.097-.937c-1.92.464-3.885.612-5.902.436l-.259.966-.259.966c2.234.195 4.44.033 6.614-.493l-.097-.938zm-6.258.465.259-.966-8.671-.759-.259.966-.259.966 8.671.759.26-.966zm-8.67-.759-.997-.087-4.207 15.702.996.087.996.087 4.207-15.702-.996-.087zm-4.208 15.702.259-.965-9.819-.86-.259.966-.258.966 9.818.86.259-.967zm-9.819-.859.997.087L14.324 1.577l-.996-.087-.996-.087L.803 44.429l.996.087zM13.33 1.49l-.26.966 18.298 1.601.26-.966.258-.966-18.298-1.6-.259.965zm18.297 1.601-.259.966c2.241.196 4.167.688 5.792 1.462l.578-.881.578-.88c-1.847-.88-3.995-1.42-6.43-1.633l-.259.966zm6.11 1.547-.56.889c1.64.737 2.926 1.712 3.88 2.918l.861-.657.861-.658c-1.125-1.422-2.626-2.547-4.48-3.38l-.561.888zm4.181 3.15-.86.657c.95 1.201 1.548 2.625 1.788 4.287l1.02-.282 1.02-.282c-.277-1.926-.978-3.61-2.107-5.038l-.86.658zm1.948 4.662-1.016.309c.286 1.61.171 3.423-.373 5.453l.996.088.997.087c.604-2.256.75-4.343.413-6.245l-1.017.308zm-10.289 4.794.996.087c.516-1.926.345-3.578-.738-4.76l-.825.7-.824.7c.6.654.806 1.65.395 3.186l.996.087zm-.567-3.972.84-.684c-1.02-1.175-2.665-1.793-4.76-1.976l-.259.966-.258.965c1.815.16 2.956.67 3.598 1.412l.84-.683zm-4.179-1.694.26-.966-7.97-.698-.26.966-.258.966 7.97.697.258-.965zm-7.97-.698-.995-.087-2.75 10.262.996.087.996.087 2.75-10.262-.996-.087zm-2.749 10.262-.259.966 8.225.72.259-.966.259-.966-8.225-.72-.259.966zm8.225.72-.26.966a8.657 8.657 0 0 0 5.197-1.16l-.429-.804-.428-.803c-1.155.67-2.413.958-3.822.835l-.258.966zm4.508-.998.45.792c1.693-1.024 2.789-2.499 3.278-4.325l-.996-.087-.996-.087c-.35 1.306-1.076 2.245-2.185 2.916l.45.791zm30.464 28.859-1.02.285.092.622.67.059.258-.966zM58.751 32.48l1.02-.285-.093-.623-.669-.058-.258.966zm-6.376-.558.259-.966-.996-.087-.26.966.997.087zm-4.456 16.63-.259.965.997.087.258-.965-.996-.088zm-9.818-.86-.996-.087-.26.966.997.087.259-.966zM49.63 4.666l.258-.966-.996-.087-.259.966.996.087zM74.517 7.73l-.574.883.007.003.567-.886zm3.911 2.936-.85.672.006.006.006.007.838-.684zm2.047 4.292 1.013-.325-1.013.325zm-4.319 12.466-.695-.598-.004.004.7.594zm-7.332 4.23-.154-.922-1.036.305.175.933 1.015-.316zm3.577 19.04-.26.966 1.54.135-.266-1.417-1.014.316zm-3.072-34.56.787-.738-.787.738zm-12.151-2.139.258-.966-.996-.087-.259.966.997.087zm-2.518 9.397-.996-.087-.26.966.997.087.259-.966zm6.647 26.332 1.02-.285-2.557-17.243-1.02.285-1.02.285 2.557 17.243 1.02-.285zM58.751 32.48l.258-.966-6.375-.558-.259.966-.259.966 6.376.558.259-.966zm-6.376-.558-.996-.087-4.456 16.63.996.086.996.087 4.456-16.629-.996-.087zm-4.456 16.63.259-.967-9.819-.859-.258.966-.26.966 9.82.86.258-.967zm-9.818-.86.996.087L50.626 4.753l-.996-.087-.997-.087-11.529 43.026.997.087zM49.63 4.666l-.26.966L69.009 7.35l.258-.966.26-.966L49.887 3.7l-.258.966zm19.636 1.718-.258.966c1.852.162 3.495.585 4.936 1.262l.574-.883.573-.883c-1.65-.774-3.508-1.248-5.566-1.428l-.259.966zm5.252 1.345-.567.886c1.483.681 2.688 1.59 3.629 2.722l.849-.671.85-.672c-1.1-1.323-2.501-2.373-4.194-3.15l-.567.885zm3.911 2.936-.838.685c.937 1.079 1.563 2.385 1.872 3.933l1.013-.326 1.013-.325c-.36-1.801-1.098-3.356-2.222-4.65l-.838.684zm2.047 4.292-1.013.326c.304 1.522.211 3.246-.31 5.19l.997.086.996.088c.583-2.178.708-4.19.343-6.015l-1.013.325zm-.326 5.602-.997-.087c-.647 2.418-1.877 4.526-3.691 6.353l.695.598.696.598c2.118-2.132 3.55-4.6 4.293-7.374l-.996-.088zm-3.993 6.864-.7-.594c-1.738 1.765-3.982 3.074-6.786 3.902l.154.922.155.922c3.147-.929 5.791-2.44 7.877-4.558l-.7-.594zm-7.332 4.23-1.015.316 3.577 19.04 1.015-.316 1.014-.316-3.576-19.04-1.015.316zm3.577 19.04.258-.966-11.093-.97-.259.966-.259.966 11.094.97.259-.966zm-2.47-30.964.996.087c.485-1.808.303-3.363-.811-4.42l-.787.737-.787.738c.55.522.77 1.364.393 2.77l.996.088zm-.602-3.596.787-.738c-1.009-.957-2.466-1.473-4.264-1.63l-.258.966-.26.966c1.519.132 2.551.55 3.208 1.174l.787-.738zm-3.736-1.402.26-.966-8.416-.737-.26.966-.258.966 8.416.737.258-.966zm-8.415-.737-.997-.087-2.517 9.397.996.087.996.087 2.518-9.397-.996-.087zm-2.518 9.397-.259.966 8.097.708.259-.966.259-.966-8.097-.708-.26.966zm8.097.708-.259.966c1.94.17 3.727-.133 5.282-1.02l-.42-.808-.42-.81c-1.012.577-2.294.849-3.924.706l-.26.966zm4.603-.862.42.808c1.631-.93 2.657-2.4 3.147-4.23l-.996-.086-.996-.087c-.371 1.384-1.06 2.253-1.995 2.786l.42.809zm43.55-12.197-.624.857.01.005.01.005.604-.867zm4.556 3.942-.895.61.007.01.888-.62zm2.082 5.623 1.023-.262-1.023.262zM111.108 44.4l-.833-.434-.006.009.839.425zm-4.931 5.01-.522-.745.522.744zm-6.378 2.858-.105-.936-.007.002.112.934zm-14.678-1.474-.638.849.006.003.632-.852zm-4.378-4.116-.922.567.006.012.007.01.909-.59zm-1.747-5.657-1.028.211.001.012.001.011 1.026-.234zm6.145-22.935-.856-.4-.005.009-.005.008.866.383zm4.613-5.038-.57-.709-.001.001.57.708zm6.35-3.24-.158-.922-.007.002.164.92zm2.148 8.54.155.921.02-.006.02-.006-.195-.91zm-2.645 1.35.579.701-.58-.702zm-1.952 2.17.855.4.004-.006.004-.006-.863-.389zm-2.012 21.145-.662.835.662-.835zm9.052-.663-.562-.715h-.001l.563.715zm5.831-21.76-.919.573.008.012.007.012.904-.598zM104.055 9.11l-.259.966c2.566.225 4.723.838 6.491 1.82l.624-.857.625-.857c-2.019-1.12-4.433-1.794-7.222-2.038l-.259.966zm6.856 1.929-.604.867c1.839.958 3.254 2.188 4.265 3.685l.895-.61.894-.611c-1.168-1.73-2.79-3.129-4.845-4.199l-.605.868zm4.556 3.942-.888.62c1.056 1.508 1.706 3.258 1.947 5.264l1.023-.261 1.023-.262c-.27-2.256-1.008-4.255-2.218-5.983l-.887.622zm2.082 5.623-1.023.261c.24 2.01.061 4.151-.551 6.434l.996.087.996.087c.67-2.497.875-4.877.605-7.13l-1.023.26zm-.578 6.782-.996-.087-2.716 10.138.996.087.996.088 2.716-10.139-.996-.087zm-2.716 10.139-.996-.088c-.657 2.45-1.656 4.622-2.984 6.528l.833.434.833.433c1.498-2.149 2.597-4.56 3.31-7.22l-.996-.087zm-3.147 6.874-.839-.425a18.194 18.194 0 0 1-4.614 4.69l.522.744.521.745a20.706 20.706 0 0 0 5.249-5.33l-.839-.424zm-4.931 5.01-.522-.745c-1.734 1.214-3.716 2.107-5.961 2.667l.105.936.105.935c2.51-.626 4.78-1.64 6.794-3.05l-.521-.744zm-6.378 2.858-.112-.934c-2.193.56-4.551.74-7.084.518l-.26.966-.258.965c2.737.24 5.349.052 7.826-.581l-.112-.934zm-7.455.55.259-.966c-2.785-.244-5.057-.89-6.85-1.91l-.632.852-.632.852c2.057 1.172 4.6 1.875 7.596 2.137l.259-.965zm-7.223-2.024.638-.85c-1.78-1.033-3.143-2.32-4.108-3.855l-.908.589-.909.59c1.11 1.766 2.665 3.223 4.649 4.375l.638-.85zm-4.378-4.116.922-.568c-.923-1.585-1.472-3.357-1.643-5.324l-1.026.235-1.026.234c.192 2.199.808 4.198 1.851 5.99l.922-.567zm-1.747-5.657 1.028-.212c-.122-2.02.1-4.091.67-6.22l-.995-.087-.996-.087c-.623 2.323-.869 4.596-.735 6.817l1.028-.211zm.703-6.519.996.087 2.717-10.138-.997-.087-.996-.087-2.716 10.138.996.087zm2.716-10.138.996.087a22.028 22.028 0 0 1 2.597-5.983l-.867-.382-.866-.383a24.223 24.223 0 0 0-2.856 6.574l.996.087zm2.726-6.278.857.399a18.883 18.883 0 0 1 4.327-4.729l-.571-.708-.571-.708a21.382 21.382 0 0 0-4.898 5.347l.856.399zm4.613-5.038.57.71c1.734-1.34 3.71-2.351 5.944-3.031l-.165-.92-.164-.919c-2.503.762-4.76 1.91-6.755 3.451l.57.71zm6.35-3.24.156.921c2.245-.668 4.752-.895 7.536-.652l.259-.966.259-.966c-2.997-.262-5.791-.025-8.368.741l.157.922zm5.502 8.2.259-.966c-1.346-.118-2.622 0-3.807.395l.194.91.195.91c.82-.274 1.78-.381 2.9-.283l.259-.966zm-3.354.34-.154-.923a9.075 9.075 0 0 0-3.07 1.57l.579.702.579.702c.635-.5 1.37-.879 2.22-1.13l-.154-.922zm-2.645 1.35-.58-.702a9.779 9.779 0 0 0-2.235 2.483l.863.389.863.388a7.284 7.284 0 0 1 1.668-1.857l-.58-.702zm-1.952 2.17-.855-.402a9.807 9.807 0 0 0-1.267 2.81l.996.087.997.087c.202-.756.53-1.481.984-2.181l-.855-.401zm-1.126 2.495-.996-.087-3.13 11.684.996.087.996.087 3.13-11.684-.996-.087zM89.4 36.047l-.996-.087a9.2 9.2 0 0 0-.314 3.069l1.027-.223 1.027-.223a7.335 7.335 0 0 1 .252-2.449l-.996-.087zm-.283 2.759-1.027.223c.075 1.011.35 1.932.833 2.752l.92-.57.92-.571a4.669 4.669 0 0 1-.619-2.057l-1.027.223zm.726 2.404-.92.57c.487.829 1.18 1.516 2.059 2.068l.662-.835.662-.835c-.685-.429-1.193-.943-1.543-1.538l-.92.57zm1.801 1.803-.662.835c.925.58 2.08.91 3.425 1.028l.26-.966.258-.966c-1.12-.098-1.98-.365-2.619-.766l-.662.835zm3.022.897-.259.966c2.584.226 4.91-.334 6.852-1.812l-.563-.714-.563-.715c-1.338 1.019-3.032 1.5-5.208 1.31l-.259.965zm6.03-1.56.562.715c1.927-1.464 3.191-3.37 3.802-5.648l-.996-.087-.996-.087c-.494 1.842-1.475 3.284-2.934 4.392l.562.715zm3.368-5.02.996.087 3.131-11.684-.997-.087-.996-.087-3.13 11.684.996.087zm3.13-11.684.997.087c.572-2.137.32-4.069-.761-5.742l-.903.598-.904.598c.826 1.278 1.019 2.717.575 4.372l.996.087zm-.667-5.057.918-.573c-1.064-1.789-2.986-2.747-5.579-2.974l-.259.966-.259.966c2.167.19 3.525.952 4.26 2.19l.919-.575zm30.011 28.503-.805-.472-.007.009.812.463zm-4.427 4.105.427.804.009-.005.008-.005-.444-.794zm-5.395 1.868.004-.957-.006.001.002.956zm-9.552-.392.393-.945-.393.945zm-3.338-1.178-.616.861.013.008.014.006.589-.875zm-2.772-2.077.805-.72-.805.72zm-2.043-3.09-.513-.75-.763.525.315.716.961-.49zm8.24-5.669.914-.58-.493-.813-.934.643.513.75zm2.62 2.887-.677.825.012.008.012.007.653-.84zm4.696.98-.071.965.031-.002.031-.005.009-.958zm2.145-.698.368.837.022-.012.022-.012-.412-.813zm1.963-1.726-.79-.493.79.493zm9.088-31.725.259-.966-.997-.087-.258.966.996.087zm9.691.848.996.087.259-.966-.996-.087-.259.966zm-7.802 29.116-.996-.087c-.705 2.629-1.691 4.737-2.923 6.366l.805.472.805.472c1.462-1.932 2.552-4.324 3.305-7.135l-.996-.088zm-3.114 6.75-.812-.462c-1.21 1.63-2.565 2.877-4.06 3.773l.445.794.444.795c1.822-1.092 3.418-2.58 4.795-4.436l-.812-.463zm-4.427 4.105-.428-.804a13.961 13.961 0 0 1-4.963 1.716l-.004.958-.004.957A16.424 16.424 0 0 0 132.537 54l-.427-.804zm-5.395 1.87-.002-.957a22.86 22.86 0 0 1-5.532.18l-.259.966-.259.965a25.02 25.02 0 0 0 6.054-.198l-.002-.956zm-5.793.189.259-.966a26.516 26.516 0 0 1-3.625-.561l-.393.945-.392.945c1.234.283 2.532.483 3.892.602l.259-.965zm-3.759-.582.393-.945a14.265 14.265 0 0 1-3.143-1.109l-.588.876-.589.875c1.099.544 2.278.96 3.535 1.248l.392-.945zm-3.338-1.178.615-.862a10.873 10.873 0 0 1-2.582-1.936l-.805.72-.804.721a12.44 12.44 0 0 0 2.96 2.218l.616-.861zm-2.772-2.077.805-.72c-.747-.756-1.378-1.705-1.887-2.86l-.961.49-.961.491c.573 1.302 1.304 2.412 2.2 3.319l.804-.72zm-2.043-3.09.513.751 8.24-5.669-.513-.75-.513-.751-8.24 5.669.513.75zm8.24-5.669-.915.58c.826 1.358 1.772 2.417 2.858 3.132l.677-.825.677-.825c-.837-.55-1.638-1.416-2.383-2.642l-.914.58zm2.62 2.887-.653.84c1.048.637 2.112 1.035 3.192 1.13l.258-.966.259-.966c-.706-.062-1.507-.334-2.404-.879l-.652.84zm2.797 1.004-.258.966a11.9 11.9 0 0 0 2.086-.024l.071-.966.071-.965a9.805 9.805 0 0 1-1.711.023l-.259.966zm1.899-.024-.009.958a8.107 8.107 0 0 0 2.522-.82l-.368-.836-.369-.837c-.59.301-1.177.491-1.767.577l-.009.958zm2.145-.698.412.813c.886-.496 1.664-1.191 2.34-2.047l-.789-.492-.79-.493c-.508.644-1.039 1.1-1.585 1.405l.412.814zm1.963-1.726.789.492c.726-.918 1.245-2.088 1.609-3.446l-.996-.087-.996-.087c-.321 1.197-.736 2.054-1.196 2.635l.79.493zm1.402-3.041.996.087 7.686-28.684-.996-.087-.996-.087-7.686 28.684.996.087zm7.686-28.684-.259.966 9.691.848.259-.966.259-.966-9.691-.848-.259.966zm9.691.848-.996-.088-7.802 29.117.996.087.996.088 7.802-29.117-.996-.087zm-5.616 43.543-.996-.087-.259.966.996.087.259-.966zm11.529-43.026.259-.966-.997-.087-.258.966.996.087zm31.368 2.744.996.087.259-.966-.996-.087-.259.966zm-2.286 8.531-.259.966.996.087.259-.965-.996-.088zm-21.55-1.885.259-.966-.996-.087-.259.966.996.087zm-2.335 8.716-.996-.087-.259.966.996.087.259-.965zm18.362 1.607.996.087.259-.966-.997-.087-.258.966zm-2.203 8.222-.259.966.996.087.259-.966-.996-.087zM156.36 40.07l.259-.965-.997-.088-.259.966.997.087zm-2.419 9.026-.996-.087-.259.966.996.087.259-.966zm21.55 1.885.996.087.259-.965-.996-.087-.259.965zm-2.286 8.531-.259.966.996.087.259-.965-.996-.088zm-31.368-2.744.996.087 11.529-43.026-.996-.087-.996-.087-11.529 43.026.996.087zm11.529-43.026-.259.966 31.368 2.744.259-.966.259-.966-31.368-2.744-.259.966zm31.368 2.744-.996-.087-2.286 8.531.996.087.996.088 2.286-8.532-.996-.087zm-2.286 8.531.259-.966-21.55-1.885-.259.966-.258.966 21.549 1.885.259-.966zm-21.55-1.885-.996-.087-2.335 8.716.996.088.996.087 2.336-8.717-.997-.087zm-2.335 8.716-.259.966 18.362 1.607.259-.966.258-.966-18.361-1.606-.259.966zm18.362 1.607-.997-.087-2.203 8.222.997.087.996.087 2.203-8.222-.996-.087zm-2.203 8.222.258-.966-18.361-1.606-.259.965-.259.966 18.362 1.607.259-.966zM156.36 40.07l-.997-.087-2.418 9.026.996.087.996.087 2.419-9.025-.996-.088zm-2.419 9.026-.259.966 21.55 1.885.259-.966.259-.965-21.55-1.886-.259.966zm21.55 1.885-.996-.087-2.286 8.531.996.087.996.088 2.286-8.532-.996-.087zm-2.286 8.531.259-.965-31.368-2.745-.259.966-.259.966 31.368 2.744.259-.966zm38.246-7.346.871.375.516-.843-.789-.403-.598.871zm-8.13 7.45.35.846.003-.001-.353-.844zm-18.538.024-.61.864.005.003.605-.867zm-4.428-3.93-.909.588.004.005.003.006.902-.6zm-1.763-5.596-1.028.211.001.009v.008l1.027-.228zm6.245-23.306-.857-.399-.005.008-.005.008.867.383zm4.612-5.038-.57-.709-.001.002.571.707zm6.349-3.24-.156-.922-.008.003.164.919zm17.724 3.259-.802.723.006.006.005.005.791-.734zm3.809 8.431.09.94.997-.236-.06-.92-1.027.216zm-10.17 2.4-1.028.125-.042 1.089 1.161-.274-.091-.94zm-1.365-3.915-.846.675.005.007.006.006.835-.688zm-7.849-1.636.155.922.02-.006.02-.006-.195-.91zm-2.645 1.35.579.702-.579-.701zm-1.952 2.17.855.402.004-.006.004-.007-.863-.388zm-4.539 16.94 1.027-.224-1.027.223zm2.527 4.206-.662.835.662-.835zm8.265-.163.436.8.003-.002-.439-.797zm3.467-3.682.598-.87-.982-.502-.538 1.088.922.284zm8.381 4.276-.872-.375c-1.894 3.093-4.426 5.408-7.612 6.981l.354.845.353.844c3.633-1.795 6.521-4.447 8.648-7.92l-.871-.375zm-8.13 7.45-.351-.845c-3.123 1.532-6.666 2.153-10.672 1.803l-.259.966-.259.966c4.325.378 8.303-.283 11.891-2.044l-.35-.846zm-11.282 1.924.259-.966c-2.795-.245-5.089-.853-6.91-1.802l-.605.868-.605.867c2.073 1.08 4.616 1.738 7.602 1.999l.259-.966zm-7.256-1.9.61-.865c-1.794-.952-3.166-2.175-4.136-3.666l-.902.6-.902.6c1.126 1.73 2.706 3.127 4.72 4.195l.61-.864zm-4.428-3.93.909-.59c-.933-1.49-1.485-3.23-1.646-5.235l-1.026.229-1.027.228c.18 2.244.804 4.234 1.881 5.956l.909-.589zm-1.763-5.596 1.028-.211c-.122-2.01.131-4.204.77-6.591l-.996-.087-.996-.088c-.686 2.559-.968 4.957-.834 7.188l1.028-.211zm.802-6.89.996.088 2.717-10.139-.997-.087-.996-.087-2.716 10.138.996.087zm2.716-10.138.997.087a22.014 22.014 0 0 1 2.596-5.982l-.866-.383-.867-.383A24.26 24.26 0 0 0 181.114 33l.996.087zm2.727-6.278.856.399a18.885 18.885 0 0 1 4.327-4.729l-.571-.708-.571-.707a21.4 21.4 0 0 0-4.898 5.346l.857.399zm4.612-5.038.57.71c1.734-1.34 3.71-2.351 5.944-3.03l-.165-.92-.164-.92c-2.502.762-4.759 1.91-6.755 3.451l.57.71zm6.349-3.24.157.921c2.245-.667 4.752-.895 7.536-.652l.259-.965.259-.966c-2.997-.262-5.791-.026-8.367.74l.156.922zm7.952-.696-.259.965c4.084.358 7.131 1.615 9.229 3.713l.802-.723.801-.724c-2.43-2.431-5.897-3.81-10.314-4.197l-.259.966zm9.772 3.955-.791.734c2.174 2.09 3.364 4.717 3.573 7.913l1.027-.216 1.027-.215c-.234-3.591-1.584-6.585-4.046-8.95l-.79.734zm3.809 8.431-.09-.939-10.17 2.4.09.94.091.939 10.169-2.4-.09-.94zm-10.17 2.4 1.029-.124c.066-1.732-.461-3.234-1.559-4.48l-.835.689-.835.689c.837.948 1.221 2.056 1.172 3.351l1.028-.124zm-1.365-3.915.847-.675c-1.13-1.344-2.867-2.072-5.083-2.266l-.259.966-.259.966c1.864.163 3.124.752 3.908 1.684l.846-.675zm-4.495-1.975.259-.966c-1.345-.118-2.621 0-3.807.396l.194.91.195.909c.82-.273 1.78-.381 2.9-.283l.259-.966zm-3.354.34-.154-.923a9.067 9.067 0 0 0-3.07 1.57l.579.703.579.701c.635-.5 1.37-.878 2.221-1.13l-.155-.922zm-2.645 1.35-.579-.702a9.77 9.77 0 0 0-2.236 2.484l.863.388.863.388a7.284 7.284 0 0 1 1.668-1.857l-.579-.701zm-1.952 2.17-.855-.402a9.834 9.834 0 0 0-1.267 2.81l.997.087.996.087a7.57 7.57 0 0 1 .984-2.18l-.855-.402zm-1.125 2.495-.997-.087-3.13 11.684.996.087.996.087 3.131-11.684-.996-.087zm-3.131 11.684-.996-.087a9.204 9.204 0 0 0-.314 3.069l1.027-.223 1.027-.223a7.337 7.337 0 0 1 .252-2.449l-.996-.087zm-.283 2.76-1.027.222c.075 1.012.351 1.932.833 2.752l.92-.57.921-.57a4.666 4.666 0 0 1-.62-2.058l-1.027.223zm.726 2.404-.92.57c.487.828 1.18 1.516 2.059 2.067l.662-.835.662-.834c-.685-.43-1.193-.944-1.542-1.539l-.921.57zm1.801 1.802-.662.835c.925.58 2.08.91 3.426 1.028l.258-.966.259-.966c-1.12-.098-1.979-.365-2.619-.765l-.662.834zm3.022.897-.258.966c2.17.19 4.173-.188 5.937-1.226l-.436-.8-.435-.8c-1.231.725-2.724 1.054-4.549.894l-.259.966zm5.243-1.06.439.798c1.76-1.042 3.086-2.45 3.949-4.196l-.921-.284-.922-.284c-.656 1.326-1.64 2.373-2.983 3.169l.438.797zm3.467-3.682-.599.87 8.381 4.277.599-.87.598-.872-8.381-4.276-.598.87zm36.349-17.888.259-.966-.996-.088-.259.966.996.088zm-9.243 34.495-.259.966.996.087.259-.966-.996-.087zm-9.755-.854-.996-.087-.259.966.996.087.259-.966zm9.243-34.495.996.087.259-.966-.996-.087-.259.966zm-12.114-1.06-.996-.087-.259.966.997.087.258-.966zm2.286-8.53.259-.967-.996-.087-.259.966.996.087zm33.983 2.972.996.087.259-.965-.997-.088-.258.966zm-2.286 8.531-.259.966.996.087.259-.965-.996-.088zm-12.114-1.06-.996-.087-9.243 34.496.996.087.996.087 9.243-34.495-.996-.087zm-9.243 34.496.259-.966-9.755-.854-.259.966-.259.966 9.755.854.259-.966zm-9.755-.854.996.087 9.243-34.495-.996-.087-.996-.087-9.243 34.495.996.087zm9.243-34.495.259-.966-12.114-1.06-.259.966-.258.966 12.113 1.06.259-.966zm-12.114-1.06.997.087 2.286-8.53-.997-.088-.996-.087-2.286 8.531.996.087zm2.286-8.53-.258.965 33.982 2.973.259-.966.258-.966-33.982-2.973-.259.966zm33.983 2.972-.997-.087-2.286 8.531.997.087.996.088 2.286-8.532-.996-.087zm-2.286 8.531.258-.965-12.113-1.06-.259.966-.259.966 12.114 1.06.259-.967zm27.557 5.195-.755.767.733.622.756-.83-.734-.559zm-2.773-1.824-.593.874.012.005.581-.88zm-2.765-1.128-.473.923.008.003.465-.926zm-2.515-.6-.361.952.025.005.025.004.311-.96zm-5.167-.198-.069-.944-.009.002-.009.002.087.94zm-2.05.833-.478-.774-.022.014-.021.015.521.745zm-1.257 1.282-.863-.389-.016.025-.014.025.893.339zm-.62 3.045-.999.386.009.03.01.03.98-.446zm1.152 1.303-.677.825.009.006.009.006.659-.837zm2.637 1.117-.462.926.006.002.456-.928zm4.375 1.205.415-.94-.415.94zm4.88 1.756-.58.88.01.004.009.004.561-.888zm3.723 2.666-.835.689.005.005.005.006.825-.7zm1.986 4.033-1.014.324.003.016.004.014 1.007-.354zm-3.447 11.403.729.564.007-.009-.736-.555zm-5.16 3.915.366.837.005-.002-.371-.835zm-6.29 2.043-.019-.953h-.005l.024.953zm-11.068-.335.368-.95-.014-.003-.013-.003-.341.956zm-4.375-1.206-.538.899.011.004.011.005.516-.908zm-4.093-2.256-.703.808.009.006.694-.814zm-3.588-3.414-.639-.651-.747.665.533.653.853-.667zm7.629-6.798.858-.66-.619-.774-.878.783.639.65zm5.335 4.2-.534.9.008.003.008.003.518-.907zm11.703.644.385.828.011-.006.011-.006-.407-.816zm2.756-4.441-1.03.15 1.03-.15zm-.465-1.433-.911.586.011.018.013.018.887-.622zm-1.55-1.274-.626.856.019.01.019.01.588-.876zm-3.006-.959-.357.953h.003l.354-.953zm-5.856-1.525-.483.92.483-.92zm-4.665-2.559-.767.756.006.006.007.005.754-.767zm-2.687-4.094-.997.39.004.015.004.013.989-.418zm3.18-11.87-.755-.533-.006.007.761.526zm4.681-3.83.399.821.004-.002-.403-.818zm5.619-1.975.018.954.011-.002.011-.002-.04-.95zm13.563 1.25.469-.924-.469.924zm6.742 3.817.734.558.68-.747-.649-.57-.765.759zm-6.564 7.207.755-.766a13.808 13.808 0 0 0-2.948-1.938l-.58.88-.581.88c.892.43 1.76.998 2.599 1.71l.755-.766zm-2.773-1.824.592-.874a19.854 19.854 0 0 0-2.893-1.18l-.464.926-.465.926c.875.276 1.754.634 2.637 1.076l.593-.874zm-2.765-1.128.473-.922a15.612 15.612 0 0 0-2.677-.637l-.311.96-.311.96c.732.102 1.516.288 2.353.562l.473-.923zm-2.515-.6.362-.95a21.181 21.181 0 0 0-2.174-.323l-.259.966-.258.966c.55.048 1.205.144 1.968.293l.361-.951zm-2.071-.307.259-.966c-1.289-.113-2.44-.083-3.424.13l.069.945.07.944c.679-.148 1.592-.19 2.768-.087l.258-.966zm-3.096.109-.087-.94c-.897.21-1.719.535-2.441 1l.478.773.479.773c.434-.279.978-.508 1.659-.666l-.088-.94zm-2.05.833-.521-.745c-.657.46-1.2 1.005-1.599 1.638l.863.389.863.388c.206-.327.502-.636.916-.926l-.522-.744zm-1.257 1.282-.893-.339a6.639 6.639 0 0 0-.642 1.533l.996.087.996.087c.085-.315.227-.658.436-1.03l-.893-.339zm-.539 1.28-.996-.086c-.216.807-.271 1.57-.084 2.237l.999-.386.998-.386c-.079-.283-.08-.697.079-1.29l-.996-.088zm-.081 1.765-.98.445c.251.684.773 1.235 1.455 1.683l.677-.825.677-.825c-.502-.33-.749-.647-.85-.923l-.979.445zm1.152 1.303-.659.837c.718.445 1.672.843 2.834 1.206l.462-.926.461-.926c-1.086-.34-1.889-.686-2.44-1.028l-.658.837zm2.637 1.117-.456.928c1.184.36 2.657.766 4.415 1.216l.416-.939.415-.94a103.86 103.86 0 0 1-4.335-1.194l-.455.929zm4.375 1.205-.416.94c1.696.434 3.267 1 4.716 1.695l.58-.88.58-.88a27.21 27.21 0 0 0-5.045-1.814l-.415.939zm4.88 1.756-.561.888c1.418.638 2.562 1.462 3.449 2.467l.835-.689.834-.688c-1.049-1.19-2.386-2.143-3.996-2.867l-.561.889zm3.723 2.666-.825.7c.908.99 1.51 2.203 1.797 3.657l1.014-.324 1.013-.324c-.34-1.721-1.063-3.197-2.175-4.409l-.824.7zm1.986 4.033-1.007.354c.325 1.374.241 3.081-.316 5.161l.996.088.996.087c.613-2.289.747-4.316.337-6.044l-1.006.354zm-.327 5.603-.996-.087c-.557 2.077-1.516 3.845-2.861 5.332l.737.555.736.555c1.623-1.795 2.744-3.895 3.38-6.268l-.996-.087zm-3.12 5.8-.729-.563a17.02 17.02 0 0 1-4.802 3.642l.371.836.371.835a19.594 19.594 0 0 0 5.518-4.186l-.729-.564zm-5.16 3.915-.366-.838c-1.791.909-3.768 1.555-5.943 1.928l.019.953.02.954c2.385-.41 4.6-1.126 6.636-2.16l-.366-.837zm-6.29 2.043-.024-.953a24.14 24.14 0 0 1-6.324.295l-.259.966-.259.966c2.26.198 4.558.09 6.891-.321l-.025-.953zm-6.607.308.259-.966a39.503 39.503 0 0 1-4.352-.628l-.368.95-.367.951a41.5 41.5 0 0 0 4.569.659l.259-.966zm-4.461-.643.341-.956a22.124 22.124 0 0 1-4.2-1.157l-.516.907-.516.908c1.474.566 2.991.985 4.551 1.253l.34-.955zm-4.375-1.206.539-.898a21.188 21.188 0 0 1-3.938-2.171l-.694.813-.694.814a22.826 22.826 0 0 0 4.249 2.34l.538-.898zm-4.093-2.256.702-.807c-1.214-.868-2.36-1.956-3.437-3.273l-.853.666-.853.667c1.151 1.408 2.396 2.596 3.738 3.555l.703-.808zm-3.588-3.414.64.651 7.629-6.798-.64-.651-.639-.651-7.629 6.798.639.651zm7.629-6.798-.858.66c1.659 2.074 3.54 3.57 5.659 4.44l.534-.9.534-.9c-1.801-.74-3.476-2.043-5.011-3.96l-.858.66zm5.335 4.2-.518.906c2.055.796 4.275 1.297 6.658 1.505l.258-.966.259-.966c-2.208-.193-4.253-.656-6.139-1.386l-.518.907zm6.398 1.445-.258.966c2.276.2 4.293-.064 5.948-.94l-.385-.827-.385-.828c-1.083.572-2.602.843-4.661.663l-.259.966zm5.305-.801.407.816c1.6-.887 2.715-2.09 3.122-3.608l-.996-.087-.996-.087c-.212.79-.785 1.507-1.945 2.15l.408.816zm2.533-2.879.996.087a7.21 7.21 0 0 0 .256-1.799l-1.029.15-1.03.15a5.324 5.324 0 0 1-.189 1.325l.996.087zm.223-1.562 1.029-.15a3.21 3.21 0 0 0-.606-1.904l-.888.621-.887.622c.234.334.326.652.322.96l1.03-.149zm-.465-1.433.912-.585c-.404-.651-1.056-1.162-1.875-1.565l-.587.876-.588.876c.641.316 1.023.654 1.227.984l.911-.586zm-1.55-1.274.625-.856c-.833-.464-1.94-.807-3.278-1.056l-.353.953-.354.953c1.232.23 2.128.525 2.734.862l.626-.856zm-3.006-.959.357-.952a41.978 41.978 0 0 1-5.729-1.492l-.484.92-.483.919a43.846 43.846 0 0 0 5.982 1.558l.357-.953zm-5.856-1.525.484-.919c-1.743-.593-3.204-1.398-4.394-2.407l-.755.767-.754.767c1.362 1.155 3.012 2.056 4.936 2.712l.483-.92zm-4.665-2.559.768-.755a8.452 8.452 0 0 1-2.466-3.758l-.989.419-.989.418a9.994 9.994 0 0 0 2.909 4.431l.767-.755zm-2.687-4.094.997-.391c-.417-1.45-.356-3.311.267-5.636l-.996-.087-.996-.087c-.681 2.539-.798 4.753-.269 6.592l.997-.391zm.268-6.114.996.087c.575-2.144 1.478-3.904 2.678-5.317l-.762-.526-.761-.526c-1.469 1.728-2.507 3.805-3.147 6.195l.996.087zm2.912-5.756.756.534c1.297-1.503 2.738-2.678 4.324-3.543l-.399-.82-.4-.82c-1.879 1.025-3.557 2.403-5.036 4.116l.755.533zm4.681-3.83.403.819a16.571 16.571 0 0 1 5.234-1.84l-.018-.954-.019-.954a19.033 19.033 0 0 0-6.004 2.112l.404.818zm5.619-1.975.04.95c1.875-.358 3.673-.459 5.399-.308l.259-.966.259-.966c-1.93-.169-3.93-.054-5.998.34l.041.95zm5.698-.324-.259.966c2.647.232 5.199.742 7.655 1.532l.469-.924.469-.924a36.775 36.775 0 0 0-8.075-1.616l-.259.966zm7.865 1.574-.469.924a18 18 0 0 1 6.446 3.65l.765-.758.765-.757a19.662 19.662 0 0 0-7.038-3.983l-.469.924zm6.742 3.817-.733-.559-6.564 7.208.733.558.734.559 6.564-7.208-.734-.558z" fill="#000" mask="url(#a)"/></svg>