<svg width="301" height="152" fill="none" xmlns="http://www.w3.org/2000/svg"><path d="M190 43h111v109H190V43z" fill="#6F5577"/><mask id="a" style="mask-type:alpha" maskUnits="userSpaceOnUse" x="0" y="0" width="301" height="109"><path d="M0 0h300.667v108.915H0V0z" fill="#D3A7E0"/></mask><g mask="url(#a)"><path d="M0 0h300.667v108.915H0V0z" fill="#D3A7E0"/><path d="m306.944 30.68-11.576-11.575-34.727 34.726 34.727 34.727 34.727-34.727-23.151-23.15zm-11.409 34.56-11.576-11.575 11.242-11.242 11.576 11.575-11.242 11.242z" fill="#fff"/><path d="m224.327 50.125 9.131-9.82c3.824 6.442 8.649 8.854 14.075 9.91 5.121.994 8.657-1.463 9.388-4.957.671-3.211.501-6.585-5.762-8.589-9.832-3.189-18.617-8.729-15.538-23.461 2.921-13.977 13.931-18.323 22.644-16.629 6.497 1.263 12.831 4.066 17.52 9.793l-7.854 10.561c-4.216-4.947-9.315-6.43-12.143-6.979-5.809-1.129-7.762 2.127-8.315 4.772-.868 4.155 1.265 5.749 9.699 9.157 8.435 3.409 15.111 9.522 12.328 22.837-2.861 13.694-14.966 18.711-25.361 16.69-7.185-1.396-14.379-4.268-19.812-13.285z" fill="#fff"/><path d="m219.639 105.59-9.266-91.152-28.199 3.169-2.681-17.5 67.496-7.67 2.683 17.521-23.957 2.768 10.793 91.277-16.869 1.587z" fill="#fff"/><path d="m173.834 65.57-1.829-13.452c-1.605-11.812 4.293-23.005 19.335-24.599 10.97-1.163 19.49 3.842 23.497 12.237l-11.553 5.551c-1.45-3.84-5.186-6.523-10.422-5.968-6.399.679-8.767 5.59-8.131 10.265l2.107 15.503c.669 4.921 4.296 9.28 10.695 8.601 5.152-.546 8.158-3.86 8.504-8.14l12.758 3.307c-1.611 9.24-8.77 15.49-19.574 16.636-15.042 1.594-23.615-6.9-25.387-19.941z" fill="#fff"/><path d="m141.49 91.497-7.09-66.02 39.907-5.535 1.406 13.09-27.416 3.803 1.436 13.374 23.36-3.24 1.355 12.617-23.36 3.24 1.487 13.848 27.416-3.802 1.406 13.09-39.907 5.535z" fill="#fff"/><path d="m107.74 99.438 8.241-14.029c3.851 4.239 7.477 5.724 10.117 5.33 3.393-.508 8.374-3.027 7.168-13.363l-6.745-57.78 14.328-2.143 6.846 58.653c2.573 22.04-7.12 30.205-18.714 31.939-7.73 1.156-15.17-.139-21.241-8.607z" fill="#fff"/><path d="m76.796 56.807 1.908-14.477c1.674-12.711 11.888-22.656 29.857-20.054 16.678 2.416 25.765 14.077 23.95 27.848L130.604 64.6c-1.931 14.654-13.885 22.458-30.266 20.085-17.969-2.603-25.228-15.079-23.542-27.878zm38.094 6.507 2.198-16.684c.709-5.384-2.955-10.593-10.301-11.657-7.645-1.107-11.87 3.319-12.533 8.35l-2.198 16.684c-.698 5.296 2.213 10.845 9.858 11.952 7.346 1.064 12.208-2.82 12.976-8.645z" fill="#fff"/><path d="m40.56 100.985-4.922-80.396 29.612-2.23c11.73-.884 22.162 7.033 23.11 22.512.587 9.587-3.134 18.223-10.955 22.99l14.88 33.228-16.728 1.26-12.479-30.276-9.614.724 1.903 31.073-14.807 1.115zm11.928-48.128 12.21-.92c5.384-.406 8.654-3.785 8.286-9.792-.367-6.007-3.88-8.179-8.88-7.802l-12.691.956 1.075 17.558z" fill="#fff"/><path d="M-8.972 103.627-15.34-.381l30.286-2.281C30.46-3.831 41.482 8.249 42.744 28.872c1.153 18.828-9.402 33.435-23.437 34.492L4.955 64.446l2.324 37.956-16.25 1.225zM3.693 43.824l13.613-1.026c5.381-.406 9.415-5.513 8.949-13.135-.513-8.368-4.453-12.125-10.89-11.64l-13.191.994 1.519 24.807z" fill="#fff"/></g></svg>