<svg width="410" height="141" fill="none" xmlns="http://www.w3.org/2000/svg"><rect x=".985" y="1.114" width="379.805" height="138.344" rx="21.322" transform="matrix(1 0 -.12187 .99255 17.451 .561)" fill="#D3A7E0" stroke="#373737" stroke-width="2.244"/><path d="m47.894 20.296-.306 3.11h4.687c1.042 0 1.614-.518 1.716-1.555.102-1.037-.367-1.555-1.41-1.555h-4.687zm-.92 9.33-.613 6.22h-6.25l2.147-21.77h10.937c5.208 0 7.557 2.592 7.046 7.775-.409 4.146-2.32 6.634-5.736 7.464l5.919 6.53H52.61l-5.636-6.22zm34.062-15.55-.613 6.22h-9.375l-.153 1.555h7.812l-.613 6.22h-7.812l-.154 1.555h9.375l-.613 6.22H63.265l2.146-21.77h15.625zm13.06 0h7.031l-.613 6.22h-7.031c-1.292 0-2.44.456-3.447 1.368-1.007.913-1.574 2.011-1.7 3.297-.127 1.285.223 2.384 1.05 3.296.826.913 1.886 1.369 3.177 1.369h7.031l-.613 6.22h-7.03c-3.022 0-5.495-1.063-7.421-3.188-1.926-2.125-2.74-4.69-2.444-7.697.296-3.006 1.617-5.572 3.962-7.697 2.344-2.125 5.027-3.188 8.048-3.188zm27.248 0-.613 6.22h-9.375l-.154 1.555h7.813l-.613 6.22h-7.813l-.153 1.555h9.375l-.613 6.22h-15.625l2.146-21.77h15.625zm9.768 10.885-1.073 10.885h-6.25l2.146-21.77h6.25l6.739 10.885 1.073-10.885h6.25l-2.146 21.77h-6.25l-6.739-10.885zm28.768 10.885h-6.25l1.533-15.55h-5.469l.613-6.22h17.188l-.613 6.22h-5.469l-1.533 15.55zm32.434-15.55-.306 3.11h4.687c1.042 0 1.614-.518 1.716-1.555.102-1.037-.368-1.555-1.409-1.555h-4.688zm-.919 9.33-.614 6.22h-6.25l2.146-21.77h10.938c5.208 0 7.557 2.592 7.046 7.775-.511 5.183-3.371 7.775-8.579 7.775h-4.687zm23.386-9.33-.307 3.11h4.687c1.042 0 1.614-.518 1.716-1.555.102-1.037-.367-1.555-1.409-1.555h-4.687zm-.92 9.33-.613 6.22h-6.25l2.146-21.77h10.937c5.209 0 7.557 2.592 7.046 7.775-.409 4.146-2.32 6.634-5.736 7.464l5.919 6.53h-7.812l-5.637-6.22zm26.103 6.22c-3.021 0-5.494-1.063-7.42-3.188-1.926-2.125-2.741-4.69-2.445-7.697.297-3.006 1.617-5.572 3.962-7.697s5.028-3.188 8.049-3.188 5.494 1.063 7.42 3.188c1.926 2.125 2.741 4.69 2.444 7.697-.296 3.006-1.617 5.572-3.962 7.697-2.344 2.125-5.027 3.188-8.048 3.188zm.613-6.22c1.292 0 2.441-.456 3.447-1.369 1.007-.912 1.574-2.01 1.7-3.296.127-1.285-.223-2.384-1.05-3.297-.826-.912-1.886-1.368-3.177-1.368-1.292 0-2.441.456-3.448 1.368-1.006.913-1.573 2.011-1.7 3.297-.126 1.285.224 2.384 1.05 3.296.827.913 1.886 1.369 3.178 1.369zm14.857 0c2.083 0 3.278-1.555 3.585-4.665l1.073-10.885h6.25l-1.073 10.885c-.716 7.256-4.198 10.885-10.448 10.885h-2.297l.613-6.22h2.297zm31.233-15.55-.613 6.22h-9.375l-.153 1.555h7.812l-.613 6.22h-7.812l-.153 1.555h9.375l-.614 6.22h-15.625l2.146-21.77h15.625zm13.06 0h7.032l-.613 6.22h-7.032c-1.291 0-2.441.456-3.447 1.368-1.007.913-1.573 2.011-1.7 3.297-.127 1.285.223 2.384 1.05 3.296.827.913 1.886 1.369 3.178 1.369h7.031l-.613 6.22h-7.032c-3.02 0-5.494-1.063-7.42-3.188-1.926-2.125-2.74-4.69-2.444-7.697.296-3.006 1.617-5.572 3.962-7.697s5.028-3.188 8.048-3.188zm20.883 21.77h-6.25l1.533-15.55h-5.469l.613-6.22h17.188l-.613 6.22h-5.469l-1.533 15.55zm17.264-7.775c-5.208 0-7.58-2.353-7.117-7.06.456-4.623 3.288-6.935 8.497-6.935h10.156l-.613 6.22h-10.156c-1.042 0-1.587.238-1.634.715-.055.56.439.84 1.48.84h4.688c5.208 0 7.584 2.312 7.129 6.935-.464 4.706-3.301 7.06-8.509 7.06h-10.156l.613-6.22h10.156c1.042 0 1.59-.28 1.646-.84.047-.477-.451-.715-1.492-.715h-4.688z" fill="#F6E9FA"/></svg>