<svg width="87" height="218" fill="none" xmlns="http://www.w3.org/2000/svg"><rect x=".872" y="1.149" width="56.526" height="206.391" rx="19" transform="matrix(.98776 .15598 -.11588 .99326 26.935 1.047)" fill="#D3A7E0" stroke="#373737" stroke-width="2"/><path d="m36.922 197.057-5.014-7.209c-.73-1.05.003-2.59 1.163-2.439l10.122 1.307c1.475.192 2.801-1.03 2.961-2.728.16-1.697-.903-3.227-2.377-3.417l-10.121-1.307c-1.16-.15-1.587-1.839-.678-2.677l6.246-5.754c-1.857-2.669-5.237-3.106-7.55-.974l-7.486 6.896c-2.312 2.13-2.683 6.022-.826 8.691l6.01 8.639c1.856 2.669 5.236 3.107 7.55.975v-.003zM51.226 31.48c.654-5.167 3.287-7.225 7.898-6.173 4.53 1.033 6.467 4.133 5.812 9.3L63.66 44.683l-6.094-1.39 1.277-10.076c.13-1.033-.038-1.603-.505-1.71-.548-.125-.888.33-1.019 1.363l-.589 4.65c-.654 5.167-3.246 7.234-7.776 6.2-4.61-1.05-6.589-4.16-5.934-9.327l1.276-10.076 6.094 1.39-1.277 10.076c-.13 1.033.078 1.612.627 1.737.467.107.766-.357.897-1.39l.589-4.65zm9.713 34.685-6.094-1.39 1.178-9.3-1.523-.348-.982 7.75-6.093-1.39.981-7.75-1.523-.348-1.178 9.301-6.094-1.39 1.964-15.5 21.327 4.864-1.963 15.501zm-2.54 20.056-6.094-1.39 1.178-9.3-1.524-.348-.981 7.75-6.094-1.39.982-7.75-1.523-.348-1.179 9.301-6.093-1.39 1.964-15.501 21.327 4.865-1.964 15.5zm-10.282 29.197-5.522-3.429-.534 4.217 6.056-.788zm-11.335-7.035-2.907-1.796.785-6.2 20.346 12.615-.982 7.751-22.309 2.885.786-6.2 3.186-.406 1.095-8.649zm-.108 25.602-.785 6.201-6.094-1.39 1.57-12.401 21.328 4.865-.785 6.2-15.234-3.475zm-2.081 16.429-.786 6.201-6.093-1.39 1.57-12.401 21.328 4.865-.785 6.2-15.234-3.475z" fill="#F6E9FA"/></svg>