<svg width="148" height="35" fill="none" xmlns="http://www.w3.org/2000/svg"><path d="M22.512 9.328c-.8-.512-1.6-.912-2.4-1.2a16.282 16.282 0 0 0-2.256-.672c-.704-.16-1.36-.256-1.968-.288a15.404 15.404 0 0 0-1.584-.096c-.928 0-1.68.096-2.256.288-.544.192-.992.448-1.344.768-.32.32-.544.672-.672 1.056a3.831 3.831 0 0 0-.144 1.008c0 .544.096.992.288 1.344.224.352.592.656 1.104.912.544.256 1.264.48 2.16.672.928.192 2.08.4 3.456.624 1.376.224 2.688.56 3.936 1.008 1.248.416 2.336 1.008 3.264 1.776.96.768 1.712 1.744 2.256 2.928.576 1.152.864 2.576.864 4.272 0 1.728-.384 3.264-1.152 4.608a10.678 10.678 0 0 1-3.024 3.312c-1.216.864-2.624 1.52-4.224 1.968a17.388 17.388 0 0 1-4.8.672c-1.12 0-2.256-.064-3.408-.192a18.69 18.69 0 0 1-3.456-.624 19.81 19.81 0 0 1-3.456-1.44c-1.12-.608-2.224-1.392-3.312-2.352l4.272-5.664c1.568 1.408 3.152 2.352 4.752 2.832 1.6.448 3.264.672 4.992.672 1.632 0 2.88-.32 3.744-.96.864-.672 1.296-1.456 1.296-2.352a4.93 4.93 0 0 0-.144-1.2c-.096-.384-.304-.736-.624-1.056-.32-.352-.784-.64-1.392-.864-.608-.256-1.408-.432-2.4-.528-1.6-.16-3.136-.416-4.608-.768-1.472-.352-2.784-.896-3.936-1.632a9.016 9.016 0 0 1-2.784-2.928c-.672-1.216-1.008-2.768-1.008-4.656 0-1.76.336-3.28 1.008-4.56.704-1.312 1.6-2.384 2.688-3.216A10.842 10.842 0 0 1 9.984.928a14.2 14.2 0 0 1 4.128-.624c2.048 0 4.08.224 6.096.672 2.016.448 3.92 1.264 5.712 2.448l-3.408 5.904z" fill="#D3A7E0"/><path d="M50.34 34 41.7 19.792l-4.368 4.896V34H29.94V.592h7.392v14.304l.096.096L42.516 8.8l6.96-8.208h8.928L46.692 14.128 59.076 34H50.34zm9.37 0V.592h7.393V34H59.71zm12.046 0V.592h7.392v26.784h16.224V34H71.756zm26.158 0V.592h7.392v26.784h16.224V34H97.914zm45.311-24.672c-.8-.512-1.6-.912-2.4-1.2a16.282 16.282 0 0 0-2.256-.672c-.704-.16-1.36-.256-1.968-.288a15.404 15.404 0 0 0-1.584-.096c-.928 0-1.68.096-2.256.288-.544.192-.992.448-1.344.768-.32.32-.544.672-.672 1.056a3.831 3.831 0 0 0-.144 1.008c0 .544.096.992.288 1.344.224.352.592.656 1.104.912.544.256 1.264.48 2.16.672.928.192 2.08.4 3.456.624 1.376.224 2.688.56 3.936 1.008 1.248.416 2.336 1.008 3.264 1.776.96.768 1.712 1.744 2.256 2.928.576 1.152.864 2.576.864 4.272 0 1.728-.384 3.264-1.152 4.608a10.678 10.678 0 0 1-3.024 3.312c-1.216.864-2.624 1.52-4.224 1.968a17.388 17.388 0 0 1-4.8.672c-1.12 0-2.256-.064-3.408-.192a18.69 18.69 0 0 1-3.456-.624 19.81 19.81 0 0 1-3.456-1.44c-1.12-.608-2.224-1.392-3.312-2.352l4.272-5.664c1.568 1.408 3.152 2.352 4.752 2.832 1.6.448 3.264.672 4.992.672 1.632 0 2.88-.32 3.744-.96.864-.672 1.296-1.456 1.296-2.352a4.93 4.93 0 0 0-.144-1.2c-.096-.384-.304-.736-.624-1.056-.32-.352-.784-.64-1.392-.864-.608-.256-1.408-.432-2.4-.528-1.6-.16-3.136-.416-4.608-.768-1.472-.352-2.784-.896-3.936-1.632a9.016 9.016 0 0 1-2.784-2.928c-.672-1.216-1.008-2.768-1.008-4.656 0-1.76.336-3.28 1.008-4.56.704-1.312 1.6-2.384 2.688-3.216a10.842 10.842 0 0 1 3.744-1.872 14.2 14.2 0 0 1 4.128-.624c2.048 0 4.08.224 6.096.672 2.016.448 3.92 1.264 5.712 2.448l-3.408 5.904z" fill="#FBEDFF"/></svg>