<svg width="151" height="56" fill="none" xmlns="http://www.w3.org/2000/svg"><rect x=".997" y="-1.003" width="52.525" height="148" rx="19" transform="rotate(-90.182 28.857 26.647)" fill="#D3A7E0" stroke="#373737" stroke-width="2"/><path d="M32.664 34.227c-5.208.08-7.213-2.255-6.015-7.003 1.168-4.664 4.356-7.036 9.564-7.116l10.155-.155-1.576 6.275-10.155.155c-1.041.016-1.62.265-1.739.746-.147.564.3.839 1.341.823l4.687-.072c5.208-.08 7.228 2.213 6.06 6.877-1.198 4.748-4.401 7.162-9.61 7.242l-10.154.155 1.576-6.275 10.155-.155c1.041-.016 1.636-.306 1.783-.871.118-.481-.344-.714-1.386-.698l-4.686.072zm21.87-1.898-2.372 9.413-6.249.095 5.523-21.962 6.25-.095-2.372 9.412 9.402-9.52 7.03-.107-10.58 11.131.016.016 5.041 10.815-7.03.107-4.66-9.305zm25.374-12.89-5.523 21.963-6.25.095 5.524-21.962 6.249-.095zm6.776 15.524 6.25-.096-1.576 6.275-12.499.191 5.523-21.962 6.25-.095-3.948 15.687zm15.598-.239 6.25-.095-1.576 6.275-12.499.19 5.524-21.961 6.249-.096-3.948 15.687zm15.309-1.797c-5.208.08-7.212-2.254-6.014-7.002 1.168-4.665 4.356-7.036 9.564-7.116l10.155-.155-1.576 6.274-10.155.156c-1.042.016-1.621.264-1.739.745-.148.565.299.84 1.341.823l4.687-.071c5.208-.08 7.227 2.212 6.059 6.877-1.198 4.748-4.401 7.162-9.609 7.241l-10.155.156 1.576-6.275 10.155-.156c1.042-.016 1.636-.306 1.784-.87.118-.482-.344-.714-1.386-.698l-4.687.071z" fill="#F6E9FA"/></svg>