<svg width="151" height="95" viewBox="0 0 151 95" fill="none" xmlns="http://www.w3.org/2000/svg">
<rect x="1.29565" y="93.6567" width="92.1845" height="148" rx="19" transform="rotate(-90.1818 1.29565 93.6567)" fill="#4C3A51" stroke="#373737" stroke-width="2"/>
<path d="M32.6629 73.2372C27.4552 73.317 25.4504 70.9829 26.6487 66.2348C27.817 61.5705 31.005 59.1985 36.2127 59.1187L46.3678 58.9632L44.7918 65.238L34.6368 65.3936C33.5952 65.4095 33.0156 65.658 32.898 66.1391C32.7504 66.7039 33.1973 66.9783 34.2389 66.9624L38.9258 66.8906C44.1335 66.8108 46.1533 69.1031 44.985 73.7673C43.7867 78.5154 40.5837 80.9293 35.376 81.0091L25.2209 81.1646L26.7969 74.8898L36.952 74.7342C37.9935 74.7183 38.5881 74.4279 38.7357 73.8631C38.8533 73.382 38.3914 73.1495 37.3499 73.1654L32.6629 73.2372ZM54.5333 71.3396L52.1615 80.752L45.9123 80.8477L51.4359 58.8855L57.6852 58.7898L55.3134 68.2022L64.7156 58.6821L71.746 58.5744L61.1653 69.7065L61.1812 69.7219L66.2224 80.5366L59.192 80.6443L54.5333 71.3396ZM79.9076 58.4494L74.3839 80.4116L68.1347 80.5073L73.6583 58.5451L79.9076 58.4494ZM86.6836 73.9725L92.9329 73.8767L91.3569 80.1516L78.8584 80.3431L84.3821 58.3809L90.6313 58.2852L86.6836 73.9725ZM102.282 73.7335L108.531 73.6378L106.955 79.9127L94.4566 80.1041L99.9802 58.142L106.23 58.0462L102.282 73.7335ZM117.59 71.9364C112.383 72.0161 110.378 69.682 111.576 64.9339C112.745 60.2696 115.933 57.8976 121.14 57.8178L131.295 57.6623L129.719 63.9372L119.564 64.0927C118.523 64.1087 117.943 64.3572 117.826 64.8382C117.678 65.403 118.125 65.6774 119.166 65.6615L123.853 65.5897C129.061 65.5099 131.081 67.8022 129.913 72.4665C128.714 77.2145 125.511 79.6285 120.304 79.7082L110.148 79.8638L111.724 73.5889L121.88 73.4334C122.921 73.4174 123.516 73.127 123.663 72.5622C123.781 72.0812 123.319 71.8486 122.277 71.8646L117.59 71.9364Z" fill="#F6E9FA"/>
</svg>
