<svg width="265" height="35" fill="none" xmlns="http://www.w3.org/2000/svg"><path d="M22.512 9.328c-.8-.512-1.6-.912-2.4-1.2a16.282 16.282 0 0 0-2.256-.672c-.704-.16-1.36-.256-1.968-.288a15.404 15.404 0 0 0-1.584-.096c-.928 0-1.68.096-2.256.288-.544.192-.992.448-1.344.768-.32.32-.544.672-.672 1.056a3.831 3.831 0 0 0-.144 1.008c0 .544.096.992.288 1.344.224.352.592.656 1.104.912.544.256 1.264.48 2.16.672.928.192 2.08.4 3.456.624 1.376.224 2.688.56 3.936 1.008 1.248.416 2.336 1.008 3.264 1.776.96.768 1.712 1.744 2.256 2.928.576 1.152.864 2.576.864 4.272 0 1.728-.384 3.264-1.152 4.608a10.678 10.678 0 0 1-3.024 3.312c-1.216.864-2.624 1.52-4.224 1.968a17.388 17.388 0 0 1-4.8.672c-1.12 0-2.256-.064-3.408-.192a18.69 18.69 0 0 1-3.456-.624 19.81 19.81 0 0 1-3.456-1.44c-1.12-.608-2.224-1.392-3.312-2.352l4.272-5.664c1.568 1.408 3.152 2.352 4.752 2.832 1.6.448 3.264.672 4.992.672 1.632 0 2.88-.32 3.744-.96.864-.672 1.296-1.456 1.296-2.352a4.93 4.93 0 0 0-.144-1.2c-.096-.384-.304-.736-.624-1.056-.32-.352-.784-.64-1.392-.864-.608-.256-1.408-.432-2.4-.528-1.6-.16-3.136-.416-4.608-.768-1.472-.352-2.784-.896-3.936-1.632a9.016 9.016 0 0 1-2.784-2.928c-.672-1.216-1.008-2.768-1.008-4.656 0-1.76.336-3.28 1.008-4.56.704-1.312 1.6-2.384 2.688-3.216A10.842 10.842 0 0 1 9.984.928a14.2 14.2 0 0 1 4.128-.624c2.048 0 4.08.224 6.096.672 2.016.448 3.92 1.264 5.712 2.448l-3.408 5.904zm116.166 0c-.8-.512-1.6-.912-2.4-1.2a16.282 16.282 0 0 0-2.256-.672c-.704-.16-1.36-.256-1.968-.288a15.404 15.404 0 0 0-1.584-.096c-.928 0-1.68.096-2.256.288-.544.192-.992.448-1.344.768-.32.32-.544.672-.672 1.056a3.831 3.831 0 0 0-.144 1.008c0 .544.096.992.288 1.344.224.352.592.656 1.104.912.544.256 1.264.48 2.16.672.928.192 2.08.4 3.456.624 1.376.224 2.688.56 3.936 1.008 1.248.416 2.336 1.008 3.264 1.776.96.768 1.712 1.744 2.256 2.928.576 1.152.864 2.576.864 4.272 0 1.728-.384 3.264-1.152 4.608a10.678 10.678 0 0 1-3.024 3.312c-1.216.864-2.624 1.52-4.224 1.968a17.388 17.388 0 0 1-4.8.672c-1.12 0-2.256-.064-3.408-.192a18.69 18.69 0 0 1-3.456-.624 19.81 19.81 0 0 1-3.456-1.44c-1.12-.608-2.224-1.392-3.312-2.352l4.272-5.664c1.568 1.408 3.152 2.352 4.752 2.832 1.6.448 3.264.672 4.992.672 1.632 0 2.88-.32 3.744-.96.864-.672 1.296-1.456 1.296-2.352a4.93 4.93 0 0 0-.144-1.2c-.096-.384-.304-.736-.624-1.056-.32-.352-.784-.64-1.392-.864-.608-.256-1.408-.432-2.4-.528-1.6-.16-3.136-.416-4.608-.768-1.472-.352-2.784-.896-3.936-1.632a9.016 9.016 0 0 1-2.784-2.928c-.672-1.216-1.008-2.768-1.008-4.656 0-1.76.336-3.28 1.008-4.56.704-1.312 1.6-2.384 2.688-3.216A10.842 10.842 0 0 1 126.15.928a14.2 14.2 0 0 1 4.128-.624c2.048 0 4.08.224 6.096.672 2.016.448 3.92 1.264 5.712 2.448l-3.408 5.904z" fill="#D3A7E0"/><path d="M41.46.352c2.016 0 3.824.336 5.424 1.008 1.632.64 3.008 1.536 4.128 2.688 1.152 1.152 2.032 2.528 2.64 4.128.608 1.6.912 3.328.912 5.184v7.872c0 1.984-.32 3.792-.96 5.424-.608 1.6-1.488 2.976-2.64 4.128-1.12 1.12-2.496 1.984-4.128 2.592-1.6.608-3.392.912-5.376.912-2.176 0-4.08-.352-5.712-1.056-1.6-.704-2.944-1.648-4.032-2.832a12.602 12.602 0 0 1-2.4-4.176 16.279 16.279 0 0 1-.768-4.992V13.36c0-1.728.256-3.376.768-4.944.544-1.568 1.344-2.944 2.4-4.128 1.088-1.216 2.432-2.176 4.032-2.88C37.38.704 39.284.352 41.46.352zm-.048 6.912c-.928 0-1.728.16-2.4.48a4.604 4.604 0 0 0-1.68 1.2 5.128 5.128 0 0 0-1.008 1.776 5.916 5.916 0 0 0-.336 1.968v9.072c0 .736.112 1.44.336 2.112.224.672.56 1.264 1.008 1.776a5.126 5.126 0 0 0 1.68 1.248c.672.32 1.472.48 2.4.48 1.792 0 3.168-.528 4.128-1.584.992-1.088 1.488-2.432 1.488-4.032v-9.072c0-1.472-.496-2.736-1.488-3.792-.96-1.088-2.336-1.632-4.128-1.632zm23.953-.048v7.056H79.19v6.384H65.365V34h-7.392V.592H81.59v6.624H65.365zm31.364 0V34h-7.344V7.216h-9.12V.592h25.584v6.624h-9.12zM166.506 34l-8.64-14.208-4.368 4.896V34h-7.392V.592h7.392v14.304l.096.096 5.088-6.192 6.96-8.208h8.928l-11.712 13.536L175.242 34h-8.736zm9.37 0V.592h7.392V34h-7.392zm12.046 0V.592h7.392v26.784h16.224V34h-23.616zm26.158 0V.592h7.392v26.784h16.224V34H214.08zm45.31-24.672c-.8-.512-1.6-.912-2.4-1.2a16.282 16.282 0 0 0-2.256-.672c-.704-.16-1.36-.256-1.968-.288a15.404 15.404 0 0 0-1.584-.096c-.928 0-1.68.096-2.256.288-.544.192-.992.448-1.344.768-.32.32-.544.672-.672 1.056a3.831 3.831 0 0 0-.144 1.008c0 .544.096.992.288 1.344.224.352.592.656 1.104.912.544.256 1.264.48 2.16.672.928.192 2.08.4 3.456.624 1.376.224 2.688.56 3.936 1.008 1.248.416 2.336 1.008 3.264 1.776.96.768 1.712 1.744 2.256 2.928.576 1.152.864 2.576.864 4.272 0 1.728-.384 3.264-1.152 4.608a10.678 10.678 0 0 1-3.024 3.312c-1.216.864-2.624 1.52-4.224 1.968a17.388 17.388 0 0 1-4.8.672c-1.12 0-2.256-.064-3.408-.192a18.69 18.69 0 0 1-3.456-.624 19.81 19.81 0 0 1-3.456-1.44c-1.12-.608-2.224-1.392-3.312-2.352l4.272-5.664c1.568 1.408 3.152 2.352 4.752 2.832 1.6.448 3.264.672 4.992.672 1.632 0 2.88-.32 3.744-.96.864-.672 1.296-1.456 1.296-2.352a4.93 4.93 0 0 0-.144-1.2c-.096-.384-.304-.736-.624-1.056-.32-.352-.784-.64-1.392-.864-.608-.256-1.408-.432-2.4-.528-1.6-.16-3.136-.416-4.608-.768-1.472-.352-2.784-.896-3.936-1.632a9.016 9.016 0 0 1-2.784-2.928c-.672-1.216-1.008-2.768-1.008-4.656 0-1.76.336-3.28 1.008-4.56.704-1.312 1.6-2.384 2.688-3.216a10.842 10.842 0 0 1 3.744-1.872 14.2 14.2 0 0 1 4.128-.624c2.048 0 4.08.224 6.096.672 2.016.448 3.92 1.264 5.712 2.448l-3.408 5.904z" fill="#FBEDFF"/></svg>