<svg width="218" height="228" fill="none" xmlns="http://www.w3.org/2000/svg"><path d="m10.332 31.948 1.02-7.362c.896-6.464 5.636-11.617 13.76-10.491 5.926.82 9.66 4.586 10.526 9.556l-6.877 1.426c-.195-2.223-1.76-4.133-4.589-4.525-3.456-.479-5.42 1.811-5.775 4.37l-1.175 8.484c-.373 2.693.882 5.52 4.383 6.006 2.963.41 5.723-1.678 6.114-4.506l.031-.224-6.374-.884.796-5.745L35.37 29.88l-.865 6.24c-.908 6.553-7.056 10.643-13.79 9.71-8.124-1.126-11.371-6.746-10.383-13.883zM36.407 47.73l4.328-31.242 13.826 1.915c5.476.759 9.633 4.766 8.8 10.781-.516 3.726-2.94 6.684-6.934 7.778l4.13 14.114-7.81-1.082-3.266-12.76-4.489-.621-1.672 12.075-6.913-.958zm9.444-17.312 5.7.79c2.514.348 4.298-.64 4.622-2.974.323-2.334-1.117-3.495-3.452-3.818l-5.925-.82-.945 6.822zm14.81 20.673 16.45-29.564 5.43.753 7.792 32.922-7.272-1.008-1.45-6.698-10.46-1.449-3.217 6.051-7.272-1.007zm13.453-10.58 6.15.851-.67-3.752-.982-6.45-.18-.025-2.64 5.856-1.678 3.52zm17.618 14.884 4.328-31.242 12.883 1.785c6.599.914 10.418 5.378 9.56 11.572-.783 5.656-6.204 9.114-12.174 8.287l-6.105-.846-1.58 11.402-6.912-.958zm9.351-16.638 5.79.802c2.29.317 4.329-.864 4.646-3.153.348-2.514-1.055-3.944-3.793-4.323l-5.611-.778-1.032 7.452zm16.207 20.18 4.329-31.243 6.913.958-1.735 12.524 10.234 1.418 1.735-12.524 6.823.945-4.328 31.242-6.823-.945 1.766-12.748-10.235-1.418-1.766 12.748-6.913-.958zm28.587 3.96 4.328-31.242 6.913.957-4.329 31.243-6.912-.958zm11.796-10.535 1.02-7.362c.896-6.464 5.636-11.617 13.761-10.492 5.925.821 9.658 4.587 10.525 9.556l-6.877 1.426c-.195-2.223-1.761-4.132-4.589-4.524-3.456-.479-5.42 1.811-5.775 4.37l-1.175 8.484c-.374 2.693.888 5.475 4.344 5.954 2.784.386 4.848-.975 5.659-3.196L180.771 60c-2.204 4.681-6.879 7.053-12.714 6.245-8.125-1.126-11.373-6.746-10.384-13.883z" fill="#FBEDFF"/><path d="m180.038 63.513 4.729-4.744c2.557 3.008 5.471 4.098 8.658 4.54 3.008.416 4.913-.784 5.143-2.445.211-1.526-.071-3.12-3.792-4.002-5.844-1.405-11.213-3.933-10.243-10.935.921-6.644 7.032-8.817 12.149-8.108 3.816.529 7.622 1.788 10.639 4.448l-3.952 5.08c-2.702-2.296-5.723-2.943-7.384-3.174-3.412-.472-4.36 1.09-4.534 2.346-.274 1.975 1.043 2.707 6.093 4.23 5.051 1.523 9.235 4.344 8.358 10.674-.902 6.509-7.608 9.01-13.713 8.165-4.219-.585-8.525-1.867-12.151-6.075z" fill="#D3A7E0"/><path d="m13.282 95.208 2.492-31.443 6.28.498 3.523 9.462 3.317 9.764.18.014 4.68-9.13 4.879-8.796 6.55.519-2.491 31.442-6.912-.547 1.185-14.954-.132-.056-3.351 6.145-2.474 4.259-5.331-.423-1.845-4.828-2.269-6.363-.146.125L20.24 95.76l-6.957-.551zm33.173-9.464.587-7.409c.516-6.505 4.946-11.927 13.123-11.28 7.59.602 11.92 6.173 11.362 13.22l-.587 7.41c-.594 7.499-5.852 11.9-13.306 11.31-8.177-.648-11.698-6.7-11.179-13.25zm17.353 1.876.677-8.539c.218-2.755-1.538-5.258-4.881-5.523-3.479-.276-5.305 2.125-5.51 4.7l-.676 8.538c-.215 2.71 1.207 5.415 4.686 5.69 3.343.265 5.468-1.885 5.704-4.866zm32.82 14.193 2.491-31.443 6.957.552-2.491 31.442-6.957-.551zm10.978-11.223.588-7.408c.515-6.506 4.945-11.928 13.122-11.28 7.59.601 11.921 6.172 11.363 13.22l-.587 7.409c-.595 7.499-5.853 11.901-13.307 11.31-8.177-.648-11.698-6.7-11.179-13.25zm17.354 1.876.676-8.539c.219-2.755-1.538-5.258-4.881-5.523-3.478-.276-5.305 2.125-5.509 4.7l-.677 8.538c-.215 2.71 1.208 5.415 4.686 5.69 3.343.265 5.468-1.885 5.705-4.866zm9.388 12.336 2.492-31.443 6.189.49 5.833 10.146 5.305 9.921.094-.037 1.507-19.02 6.957.552-2.491 31.442-6.189-.49-7.08-12.199-4.059-7.868-.094.038-1.507 19.019-6.957-.551z" fill="#FACADE"/><path d="m78.979 100.414 1.998-25.208-8.584-.68.494-6.235L96.966 70.2l-.494 6.234-8.583-.68-1.998 25.208-6.912-.548z" fill="#FFF5F9"/><path d="m4.698 190.846 3.243-31.374 12.486 1.291c4.689.484 8.523 2.612 10.083 6.919.889 2.416.653 5.58.252 9.457-.452 4.372-.873 7.564-2.161 9.891-2.563 4.518-7.134 5.549-12.183 5.027l-11.72-1.211zm7.585-5.503 4.553.47c4.643.48 6.27-2.039 6.69-6.096l.591-5.725c.447-4.328-1.092-6.628-5.464-7.08l-4.418-.457-1.952 18.888zm20.238 8.379 3.243-31.374 22.178 2.293-.643 6.221-15.236-1.576-.657 6.356 12.982 1.342-.62 5.996-12.982-1.342-.68 6.581 15.236 1.575-.643 6.221-22.178-2.293zm22.19-1.806 4.561-4.905c2.66 2.918 5.61 3.906 8.81 4.237 3.02.312 4.883-.953 5.055-2.621.159-1.533-.179-3.117-3.928-3.869-5.89-1.201-11.342-3.541-10.615-10.573.69-6.672 6.722-9.055 11.86-8.524 3.832.396 7.68 1.523 10.787 4.076l-3.774 5.214c-2.78-2.201-5.821-2.743-7.49-2.915-3.425-.355-4.319 1.239-4.45 2.501-.204 1.983 1.137 2.669 6.237 4.016s9.38 4.022 8.723 10.378c-.676 6.536-7.291 9.269-13.422 8.635-4.237-.438-8.585-1.571-12.354-5.65zm27.472 6.94 3.243-31.374 6.942.718-3.243 31.373-6.942-.717zm11.604-10.919.765-7.393c.67-6.491 5.23-11.806 13.388-10.962 5.951.615 9.812 4.249 10.851 9.185l-6.824 1.664c-.272-2.215-1.903-4.069-4.743-4.363-3.471-.359-5.354 1.998-5.62 4.567l-.881 8.52c-.279 2.705 1.073 5.487 4.589 5.85 2.975.308 5.661-1.875 5.955-4.715l.023-.225-6.401-.662.596-5.769 13.253 1.37-.648 6.265c-.68 6.582-6.683 10.881-13.444 10.182-8.16-.843-11.6-6.347-10.859-13.514zm26.606 14.869 3.243-31.374 6.176.639 5.589 10.281 5.066 10.046.095-.036 1.962-18.977 6.942.717-3.244 31.374-6.175-.638-6.786-12.365-3.87-7.963-.094.036-1.962 18.978-6.942-.718zm30.2 3.122 3.243-31.374 22.178 2.293-.643 6.221-15.236-1.576-.657 6.356 12.982 1.342-.62 5.996-12.982-1.342-.68 6.581L173.414 202l-.643 6.221-22.178-2.293z" fill="#FACADE"/><path d="m175.158 208.467 3.244-31.373 13.883 1.435c5.5.568 9.793 4.429 9.169 10.47-.387 3.741-2.706 6.781-6.66 8.013l4.616 13.962-7.844-.81-3.705-12.639-4.507-.466-1.254 12.126-6.942-.718zm8.839-17.628 5.724.591c2.525.261 4.273-.788 4.516-3.132.242-2.344-1.238-3.454-3.582-3.696l-5.95-.615-.708 6.852zm18.493 20.454.769-7.438 7.618.788-.768 7.437-7.619-.787z" fill="#FFF5F9"/><path d="m13.323 145.593-.29-31.539 6.298-.058 4.344 9.114 4.166 9.434.181-.002 3.855-9.507 4.085-9.192 6.57-.061.291 31.54-6.933.063-.138-14.999-.137-.044-2.796 6.416-2.089 4.46-5.347.05-2.263-4.647-2.821-6.138-.135.137.137 14.909-6.978.064zm33.634-.309-.29-31.54 22.295-.205.057 6.253-15.316.141.059 6.39 13.05-.121.056 6.027-13.05.121.06 6.616 15.317-.141.057 6.253-22.295.206zm24.695-.228-.29-31.54 12.552-.115c4.713-.044 8.762 1.641 10.794 5.747 1.154 2.3 1.274 5.471 1.31 9.369.04 4.395-.02 7.613-1.04 10.07-2.041 4.777-6.468 6.314-11.544 6.36l-11.782.109zm6.921-6.318 4.577-.042c4.668-.043 6.002-2.729 5.965-6.808l-.053-5.755c-.04-4.35-1.827-6.463-6.223-6.423l-4.44.041.174 18.987zm21.185 6.059-.29-31.54 6.978-.064.291 31.54-6.979.064z" fill="#FBEDFF"/><path d="m107.867 144.722 11.945-31.652 5.483-.05 12.526 31.426-7.341.068-2.416-6.413-10.559.097-2.297 6.457-7.341.067zm11.759-12.435 6.208-.057-1.211-3.614-1.916-6.237-.181.002-1.756 6.179-1.144 3.727z" fill="#D3A7E0"/></svg>