<svg width="200" height="118" fill="none" xmlns="http://www.w3.org/2000/svg"><path d="m137.841 32.577-4.704-29.012 2.162 29.412c1.01 13.718-6.76 26.243-18.315 29.533 11.895-.399 22.273 9.272 24.466 22.804l4.704 29.011-2.162-29.411c-1.009-13.718 6.76-26.244 18.315-29.534-11.895.4-22.273-9.271-24.466-22.803z" fill="#D3A7E0"/><g filter="url(#a)"><path d="m16.44 28.861-2.795 7.81h5.59l-2.795-7.81zM10.706 44.89 9.247 49h-8.22l10.275-28.77h10.275L31.852 49h-8.22l-1.459-4.11H10.706zm27.97-4.11h8.22V49h-16.44V20.23h8.22v20.55zm19.812-20.55c3.973 0 7.364 1.404 10.172 4.213 2.809 2.808 4.213 6.2 4.213 10.172 0 3.973-1.404 7.364-4.213 10.172C65.852 47.596 62.46 49 58.488 49H47.186V20.23h11.302zm-3.082 20.55h3.082c1.699 0 3.15-.603 4.356-1.808 1.206-1.206 1.809-2.658 1.809-4.357 0-1.699-.603-3.15-1.809-4.356-1.205-1.206-2.657-1.809-4.356-1.809h-3.082v12.33zM93.26 20.23v8.22H80.93v2.055h10.275v8.22H80.93v2.055h12.33V49H72.71V20.23h20.55zm9.208 14.385V49h-8.22V20.23h8.22l10.275 14.385V20.23h8.22V49h-8.22l-10.275-14.385zM16.44 99H8.22V78.45H1.027v-8.22h22.605v8.22H16.44V99zm16.688-20.139-2.795 7.81h5.59l-2.795-7.81zM27.395 94.89 25.934 99h-8.22l10.276-28.77h10.274L48.54 99h-8.22l-1.459-4.11H27.395zm27.97-4.11h8.22V99h-16.44V70.23h8.22v20.55zM77.6 78.861l-2.795 7.81h5.59L77.6 78.86zM71.868 94.89 70.408 99h-8.22l10.275-28.77h10.275L93.013 99h-8.22l-1.459-4.11H71.868zM97.372 99 87.096 70.23h8.22l7.192 20.14 7.192-20.14h8.22L107.646 99H97.371zm39.703-28.77v8.22h-12.33v2.055h10.275v8.22h-10.275v2.055h12.33V99h-20.549V70.23h20.549zm9.208 8.22v4.11h6.165c1.37 0 2.055-.685 2.055-2.055s-.685-2.055-2.055-2.055h-6.165zm0 12.33V99h-8.22V70.23h14.385c6.85 0 10.275 3.425 10.275 10.275 0 5.48-2.192 8.768-6.576 9.864L164.778 99h-10.275l-8.22-8.22zm28.854-11.919-2.795 7.81h5.59l-2.795-7.81zm-5.734 16.029L167.944 99h-8.22l10.275-28.77h10.275L190.549 99h-8.22l-1.459-4.11h-11.467z" fill="#fff"/></g><defs><filter id="a" x="1.027" y="20.23" width="198.29" height="87.538" filterUnits="userSpaceOnUse" color-interpolation-filters="sRGB"><feFlood flood-opacity="0" result="BackgroundImageFix"/><feColorMatrix in="SourceAlpha" values="0 0 0 0 0 0 0 0 0 0 0 0 0 0 0 0 0 0 127 0" result="hardAlpha"/><feOffset dx="4.384" dy="4.384"/><feGaussianBlur stdDeviation="2.192"/><feComposite in2="hardAlpha" operator="out"/><feColorMatrix values="0 0 0 0 0 0 0 0 0 0 0 0 0 0 0 0 0 0 0.25 0"/><feBlend in2="BackgroundImageFix" result="effect1_dropShadow_70_1812"/><feBlend in="SourceGraphic" in2="effect1_dropShadow_70_1812" result="shape"/></filter></defs></svg>